<?xml version="1.0" encoding="utf-8"?>
<!-- Generator: Adobe Illustrator 25.2.3, SVG Export Plug-In . SVG Version: 6.00 Build 0)  -->
<svg version="1.1" id="Calque_2_1_" xmlns="http://www.w3.org/2000/svg" xmlns:xlink="http://www.w3.org/1999/xlink" x="0px"
	 y="0px" viewBox="0 0 82.4 82.4" style="enable-background:new 0 0 82.4 82.4;" xml:space="preserve" width="100px" height="100px">
<style type="text/css">
	.st0{fill:#009640;}
	.st1{fill:#FFFFFF;}
	.st2{fill:#FAB334;}
	.st3{fill:#E94F1D;}
	.st4{clip-path:url(#SVGID_2_);}
	.st5{clip-path:url(#SVGID_4_);}
	.st6{fill:none;stroke:#000000;stroke-miterlimit:10;}
	.st7{fill:#1D1D1B;stroke:#1E1E1C;stroke-miterlimit:10;}
</style>
<symbol  id="_103" viewBox="-27 -27 54 54">
	<circle id="circle337_3_" class="st0" cx="0" cy="0" r="27"/>
	<path id="path339_3_" class="st1" d="M-12.6,23.9C-8.7,25.9-4.4,27,0,27V0L-12.6,23.9z"/>
	<path id="path341_3_" class="st1" d="M-22.2,15.3c2.5,3.6,5.8,6.5,9.7,8.6L0,0L-22.2,15.3z"/>
	<path id="path343_3_" class="st1" d="M-26.8,3.3c0.5,4.3,2.1,8.5,4.6,12.1L0,0L-26.8,3.3z"/>
	<path id="path345_3_" class="st0" d="M-25.2-9.6c-1.5,4.1-2.1,8.5-1.5,12.8L0,0L-25.2-9.6z"/>
	<path id="path347_3_" class="st0" d="M-17.9-20.2c-3.3,2.9-5.8,6.5-7.4,10.6L0,0L-17.9-20.2z"/>
	<path id="path349_3_" class="st1" d="M-6.5-26.2c-4.2,1-8.2,3.1-11.4,6L0,0L-6.5-26.2z"/>
	<path id="path351_3_" class="st1" d="M6.5-26.2c-4.2-1-8.7-1-12.9,0L0,0L6.5-26.2z"/>
	<path id="path353_3_" class="st0" d="M17.9-20.2c-3.3-2.9-7.2-5-11.4-6L0,0L17.9-20.2z"/>
	<path id="path355_3_" class="st0" d="M25.2-9.6c-1.5-4.1-4.1-7.7-7.3-10.6L0,0L25.2-9.6z"/>
	<path id="path357_3_" class="st0" d="M26.8,3.3c0.5-4.3,0-8.7-1.5-12.8L0,0L26.8,3.3z"/>
	<path id="path359_3_" class="st0" d="M22.2,15.3c2.5-3.6,4.1-7.7,4.6-12.1L0,0L22.2,15.3z"/>
	<path id="path361_3_" class="st0" d="M12.5,23.9c3.9-2,7.2-5,9.7-8.6L0,0L12.5,23.9z"/>
	<path id="path363_3_" class="st0" d="M0,27c4.4,0,8.7-1.1,12.5-3.1L0,0V27z"/>
	<circle id="circle365_3_" class="st1" cx="0" cy="0" r="20.2"/>
	<circle id="circle367_3_" class="st0" cx="0" cy="0" r="13.5"/>
	<circle id="circle369_3_" class="st1" cx="0" cy="0" r="6.8"/>
</symbol>
<symbol  id="Droite" viewBox="-41.6 -41.6 83.2 83.2">
	<path class="st2" d="M1.5,39.4L1.5,39.4c0.1-0.1,0.2-0.1,0.3-0.2l32-35.6c0.1-0.1,0.2-0.3,0.2-0.4v-6.2c0-0.2-0.1-0.3-0.2-0.4
		l-32-35.6c-0.1-0.1-0.2-0.2-0.3-0.2l0,0c-1-0.4-4.9-1.8,0.4-1.8h1.9c0.2,0,0.4,0.1,0.5,0.2L40.7-0.4c0.2,0.2,0.2,0.6,0,0.8
		L4.3,40.9C4.2,41,4,41.1,3.8,41.1H1.9C-2.4,41.1,0.5,39.8,1.5,39.4z"/>
	<path class="st3" d="M1.7-39.3L36.5-0.4c0.2,0.2,0.2,0.6,0,0.8L1.7,39.3c-1.1,1.2-2.6,1.8-4.2,1.8h-33c-2.9,0.1-5.4-2.2-5.5-5.1
		l0,0V-36c0.1-2.9,2.6-5.2,5.5-5.1c0,0,0,0,0,0h33C-1-41.1,0.6-40.4,1.7-39.3z"/>
	<g>
		<defs>
			<rect id="SVGID_1_" x="-26.2" y="-26.2" width="52.4" height="52.4"/>
		</defs>
		<clipPath id="SVGID_2_">
			<use xlink:href="#SVGID_1_"  style="overflow:visible;"/>
		</clipPath>
		<g class="st4">
			<g>
				<defs>
					<rect id="SVGID_3_" x="-25.9" y="-26.5" width="52.4" height="52.4"/>
				</defs>
				<clipPath id="SVGID_4_">
					<use xlink:href="#SVGID_3_"  style="overflow:visible;"/>
				</clipPath>
				<g class="st5">
					<g>
						<defs>
							<rect id="SVGID_5_" x="-25.6" y="-26.5" width="52.4" height="52.4"/>
						</defs>
						<clipPath id="SVGID_6_">
							<use xlink:href="#SVGID_5_"  style="overflow:visible;"/>
						</clipPath>
						<g style="clip-path:url(#SVGID_6_);">
							
								<use xlink:href="#_103"  width="54" height="54" x="-27" y="-27" transform="matrix(-0.97 0 0 0.97 0.9316 -0.5322)" style="overflow:visible;"/>
						</g>
					</g>
				</g>
			</g>
		</g>
	</g>
	<path class="st6" d="M-35.4-41.1h70.9c3.1,0,5.7,2.5,5.7,5.7v70.9c0,3.1-2.5,5.7-5.7,5.7h-70.9c-3.1,0-5.7-2.5-5.7-5.7v-70.9
		C-41.1-38.6-38.6-41.1-35.4-41.1z"/>
	<text transform="matrix(1.07 0 0 1 -39.0605 37.9297)" style="fill:#1E1E1C; font-family:'Raleway-Regular'; font-size:9.97px;">D</text>
	<polygon class="st7" points="26.4,-41.1 41.1,-26.4 41.1,-41.1 	"/>
</symbol>
<use xlink:href="#Droite"  width="83.2" height="83.2" x="-41.6" y="-41.6" transform="matrix(0.99 0 0 0.99 41.184 41.184)" style="overflow:visible;"/>
</svg>
