<?xml version="1.0" encoding="utf-8"?>
<!-- Generator: Adobe Illustrator 24.0.0, SVG Export Plug-In . SVG Version: 6.00 Build 0)  -->
<svg version="1.1" id="Calque_1" xmlns="http://www.w3.org/2000/svg" xmlns:xlink="http://www.w3.org/1999/xlink" x="0px" y="0px"
	 viewBox="0 0 1197.3 1201.7" style="enable-background:new 0 0 1197.3 1201.7;" xml:space="preserve">
<style type="text/css">
	.st0{fill:#0A9748;}
	.st1{fill:#FFFFFF;}
	.st2{fill:#DDDDDD;stroke:#000000;stroke-width:4;stroke-miterlimit:10;}
	.st3{fill:#969696;}
	.st4{clip-path:url(#SVGID_2_);}
	.st5{clip-path:url(#SVGID_4_);}
	.st6{clip-path:url(#SVGID_6_);}
	.st7{clip-path:url(#SVGID_8_);}
	.st8{clip-path:url(#SVGID_10_);}
</style>
<symbol  id="_103" viewBox="-27 -27 54 54">
	<g>
		<circle id="circle337_2_" class="st0" cx="0" cy="0" r="27"/>
		<path id="path339_2_" class="st1" d="M-12.6-23.9C-8.7-25.9-4.4-27,0-27V0L-12.6-23.9z"/>
		<path id="path341_2_" class="st1" d="M-22.2-15.3c2.5-3.6,5.8-6.5,9.7-8.6L0,0L-22.2-15.3z"/>
		<path id="path343_2_" class="st1" d="M-26.8-3.3c0.5-4.3,2.1-8.5,4.6-12.1L0,0L-26.8-3.3z"/>
		<path id="path345_2_" class="st0" d="M-25.2,9.6c-1.5-4.1-2.1-8.5-1.5-12.8L0,0L-25.2,9.6z"/>
		<path id="path347_2_" class="st0" d="M-17.9,20.2c-3.3-2.9-5.8-6.5-7.4-10.6L0,0L-17.9,20.2z"/>
		<path id="path349_2_" class="st1" d="M-6.5,26.2c-4.2-1-8.2-3.1-11.4-6L0,0L-6.5,26.2z"/>
		<path id="path351_2_" class="st1" d="M6.5,26.2c-4.2,1-8.7,1-12.9,0L0,0L6.5,26.2z"/>
		<path id="path353_2_" class="st0" d="M17.9,20.2c-3.3,2.9-7.2,5-11.4,6L0,0L17.9,20.2z"/>
		<path id="path355_2_" class="st0" d="M25.2,9.6c-1.5,4.1-4.1,7.7-7.3,10.6L0,0L25.2,9.6z"/>
		<path id="path357_2_" class="st0" d="M26.8-3.3c0.5,4.3,0,8.7-1.5,12.8L0,0L26.8-3.3z"/>
		<path id="path359_2_" class="st0" d="M22.2-15.3c2.5,3.6,4.1,7.7,4.6,12.1L0,0L22.2-15.3z"/>
		<path id="path361_2_" class="st0" d="M12.5-23.9c3.9,2,7.2,5,9.7,8.6L0,0L12.5-23.9z"/>
		<path id="path363_2_" class="st0" d="M0-27c4.4,0,8.7,1.1,12.5,3.1L0,0V-27z"/>
		<circle id="circle365_2_" class="st1" cx="0" cy="0" r="20.2"/>
		<circle id="circle367_2_" class="st0" cx="0" cy="0" r="13.5"/>
		<circle id="circle369_2_" class="st1" cx="0" cy="0" r="6.8"/>
	</g>
</symbol>
<g id="carré_gris_fond">
	<path class="st2" d="M154.4,2h886.5c85.3,0,154.4,69.1,154.4,154.4v886.5c0,85.3-69.1,154.4-154.4,154.4H154.4
		C69.1,1197.3,0,1128.2,0,1042.9V156.4C0,71.1,69.1,2,154.4,2z"/>
</g>
<g id="flèche">
	<path class="st3" d="M1053.9,672.5c0,0,29.4-23.4,29.4-73.4s-29.4-73.4-29.4-73.4L736.3,208.5c-26.1-26.1-48.1-33.5-80.5-18.2
		s-34.4,53.5-34.4,53.5v132.4c0,29.5-25.6,27.7-25.6,27.7s-367.9,0.3-426.1,0.3s-58.2,58.1-58.2,58.1v273.4c0,0,0,58.1,58.2,58.1
		s426.1,0.3,426.1,0.3s25.6-1.7,25.6,27.7v132.4c0,0,2,38.2,34.4,53.5s54.4,7.9,80.5-18.2"/>
</g>
<g id="Code">
	<g>
		<g>
			<defs>
				<rect id="SVGID_1_" x="329.1" y="332.6" width="532.7" height="532.7"/>
			</defs>
			<clipPath id="SVGID_2_">
				<use xlink:href="#SVGID_1_"  style="overflow:visible;"/>
			</clipPath>
			<g class="st4">
				<g>
					<g>
						<defs>
							<rect id="SVGID_3_" x="332.1" y="335.7" width="532.7" height="532.7"/>
						</defs>
						<clipPath id="SVGID_4_">
							<use xlink:href="#SVGID_3_"  style="overflow:visible;"/>
						</clipPath>
						<g class="st5">
							<g>
								<g>
									<defs>
										<rect id="SVGID_5_" x="335.2" y="335.7" width="532.7" height="532.7"/>
									</defs>
									<clipPath id="SVGID_6_">
										<use xlink:href="#SVGID_5_"  style="overflow:visible;"/>
									</clipPath>
									<g class="st6">
										<g>
											<g>
												<defs>
													<rect id="SVGID_7_" x="338.2" y="337.7" width="532.7" height="532.7"/>
												</defs>
												<clipPath id="SVGID_8_">
													<use xlink:href="#SVGID_7_"  style="overflow:visible;"/>
												</clipPath>
												<g class="st7">
													<g>
														<g>
															<defs>
																<rect id="SVGID_9_" x="341.1" y="339.6" width="532.5" height="532.5"/>
															</defs>
															<clipPath id="SVGID_10_">
																<use xlink:href="#SVGID_9_"  style="overflow:visible;"/>
															</clipPath>
															<g class="st8">
																<g>
																	<defs>
																		<rect id="SVGID_11_" x="347.2" y="341.6" width="532.3" height="532.3"/>
																	</defs>
																	<clipPath id="SVGID_12_">
																		<use xlink:href="#SVGID_11_"  style="overflow:visible;"/>
																	</clipPath>
																	<g style="clip-path:url(#SVGID_12_);">
																		
																			<use xlink:href="#_103"  width="54" height="54" x="-27" y="-27" transform="matrix(-9.8576 0 0 9.8576 616.3445 607.7506)" style="overflow:visible;"/>
																	</g>
																</g>
															</g>
														</g>
													</g>
												</g>
											</g>
										</g>
									</g>
								</g>
							</g>
						</g>
					</g>
				</g>
			</g>
		</g>
	</g>
	<path class="st1" d="M861.9,704.7c6.9-23.1,14.1-56.5,14-97.1c-0.1-39.8-7.3-72.7-14.1-95.6"/>
	<path class="st1" d="M549.5,865.4c17.3,3.9,39.7,7.3,65.8,7.2c25.5,0,47.4-3.3,64.5-7.1"/>
	<path class="st0" d="M861.7,577.2c4.2-0.5,8.4-0.9,12.6-1.4c1.6,16.1,2.2,35.1,0.7,56.2c-2,28.7-7.4,53.3-13.2,72.8
		C861.8,662.3,861.7,619.7,861.7,577.2z"/>
</g>
<path d="M960.8,0c78.8,0,157.6,0,236.5,0c-0.3,78.8-0.6,157.5-1,236.3C1117.8,157.5,1039.3,78.8,960.8,0z"/>
</svg>
