<?xml version="1.0" encoding="utf-8"?>
<!-- Generator: Adobe Illustrator 25.2.3, SVG Export Plug-In . SVG Version: 6.00 Build 0)  -->
<svg version="1.1" id="Calque_2_1_" xmlns="http://www.w3.org/2000/svg" xmlns:xlink="http://www.w3.org/1999/xlink" x="0px"
	 y="0px" viewBox="0 0 1200 1200" style="enable-background:new 0 0 1200 1200;" xml:space="preserve">
<style type="text/css">
	.st0{fill:#009640;}
	.st1{fill:#FFFFFF;}
	.st2{fill:#FAB334;}
	.st3{fill:#E94F1D;}
	.st4{clip-path:url(#SVGID_2_);}
	.st5{clip-path:url(#SVGID_4_);}
	.st6{clip-path:url(#SVGID_6_);}
	.st7{fill:none;stroke:#000000;stroke-miterlimit:10;}
	.st8{enable-background:new    ;}
	.st9{fill:#1E1E1C;}
	.st10{fill:#1D1D1B;stroke:#1E1E1C;stroke-miterlimit:10;}
</style>
<symbol  id="_103" viewBox="-27 -27 54 54">
	<circle id="circle337_1_" class="st0" cx="0" cy="0" r="27"/>
	<path id="path339_1_" class="st1" d="M-12.6,23.9C-8.7,25.9-4.4,27,0,27V0L-12.6,23.9z"/>
	<path id="path341_1_" class="st1" d="M-22.2,15.3c2.5,3.6,5.8,6.5,9.7,8.6L0,0L-22.2,15.3z"/>
	<path id="path343_1_" class="st1" d="M-26.8,3.3c0.5,4.3,2.1,8.5,4.6,12.1L0,0L-26.8,3.3z"/>
	<path id="path345_1_" class="st0" d="M-25.2-9.6c-1.5,4.1-2.1,8.5-1.5,12.8L0,0L-25.2-9.6z"/>
	<path id="path347_1_" class="st0" d="M-17.9-20.2c-3.3,2.9-5.8,6.5-7.4,10.6L0,0L-17.9-20.2z"/>
	<path id="path349_1_" class="st1" d="M-6.5-26.2c-4.2,1-8.2,3.1-11.4,6L0,0L-6.5-26.2z"/>
	<path id="path351_1_" class="st1" d="M6.5-26.2c-4.2-1-8.7-1-12.9,0L0,0L6.5-26.2z"/>
	<path id="path353_1_" class="st0" d="M17.9-20.2c-3.3-2.9-7.2-5-11.4-6L0,0L17.9-20.2z"/>
	<path id="path355_1_" class="st0" d="M25.2-9.6c-1.5-4.1-4.1-7.7-7.3-10.6L0,0L25.2-9.6z"/>
	<path id="path357_1_" class="st0" d="M26.8,3.3c0.5-4.3,0-8.7-1.5-12.8L0,0L26.8,3.3z"/>
	<path id="path359_1_" class="st0" d="M22.2,15.3c2.5-3.6,4.1-7.7,4.6-12.1L0,0L22.2,15.3z"/>
	<path id="path361_1_" class="st0" d="M12.5,23.9c3.9-2,7.2-5,9.7-8.6L0,0L12.5,23.9z"/>
	<path id="path363_1_" class="st0" d="M0,27c4.4,0,8.7-1.1,12.5-3.1L0,0V27z"/>
	<circle id="circle365_1_" class="st1" cx="0" cy="0" r="20.2"/>
	<circle id="circle367_1_" class="st0" cx="0" cy="0" r="13.5"/>
	<circle id="circle369_1_" class="st1" cx="0" cy="0" r="6.8"/>
</symbol>
<symbol  id="Droite" viewBox="-41.7 -41.7 83.3 83.3">
	<path class="st2" d="M1.5,39.3L1.5,39.3c0.1-0.1,0.2-0.1,0.3-0.2l32-35.6C33.8,3.4,34,3.2,34,3.1v-6.2c0-0.2-0.1-0.3-0.2-0.4
		L1.8-39c-0.1-0.1-0.2-0.2-0.3-0.2l0,0c-1-0.4-4.9-1.8,0.4-1.8h1.9C4-41,4.2-41,4.2-40.8L40.7-0.5c0.2,0.2,0.2,0.6,0,0.8L4.3,40.8
		C4.2,40.9,4,41,3.8,41H1.9C-2.4,41,0.5,39.7,1.5,39.3z"/>
	<path class="st3" d="M1.7-39.4L36.5-0.5c0.2,0.2,0.2,0.6,0,0.8L1.7,39.2C0.6,40.4-0.9,41-2.5,41h-33c-2.9,0.1-5.4-2.2-5.5-5.1l0,0
		v-72c0.1-2.9,2.6-5.2,5.5-5.1l0,0h33C-1-41.2,0.6-40.5,1.7-39.4z"/>
	<g>
		<g>
			<defs>
				<rect id="SVGID_1_" x="-26.2" y="-26.3" width="52.4" height="52.4"/>
			</defs>
			<clipPath id="SVGID_2_">
				<use xlink:href="#SVGID_1_"  style="overflow:visible;"/>
			</clipPath>
			<g class="st4">
				<g>
					<g>
						<defs>
							<rect id="SVGID_3_" x="-25.9" y="-26.6" width="52.4" height="52.4"/>
						</defs>
						<clipPath id="SVGID_4_">
							<use xlink:href="#SVGID_3_"  style="overflow:visible;"/>
						</clipPath>
						<g class="st5">
							<g>
								<g>
									<defs>
										<rect id="SVGID_5_" x="-25.6" y="-26.6" width="52.4" height="52.4"/>
									</defs>
									<clipPath id="SVGID_6_">
										<use xlink:href="#SVGID_5_"  style="overflow:visible;"/>
									</clipPath>
									<g class="st6">
										<g>
											<defs>
												<rect id="SVGID_7_" x="-25.3" y="-26.8" width="52.4" height="52.4"/>
											</defs>
											<clipPath id="SVGID_8_">
												<use xlink:href="#SVGID_7_"  style="overflow:visible;"/>
											</clipPath>
											<g style="clip-path:url(#SVGID_8_);">
												
													<use xlink:href="#_103"  width="54" height="54" x="-27" y="-27" transform="matrix(-0.97 0 0 0.97 1.1726 -0.7762)" style="overflow:visible;"/>
											</g>
										</g>
									</g>
								</g>
							</g>
						</g>
					</g>
				</g>
			</g>
		</g>
	</g>
	<path class="st7" d="M-35.5-41.2h70.9c3.1,0,5.7,2.5,5.7,5.7v70.9c0,3.1-2.5,5.7-5.7,5.7h-70.9c-3.1,0-5.7-2.5-5.7-5.7v-70.9
		C-41.1-38.7-38.6-41.2-35.5-41.2z"/>
	<g class="st8">
		<path class="st9" d="M-35.6,37.9c0.6,0,1.1-0.1,1.5-0.3c0.4-0.2,0.8-0.4,1.1-0.7c0.3-0.3,0.6-0.7,0.7-1.1c0.2-0.4,0.3-0.9,0.3-1.5
			c0-0.5-0.1-0.9-0.2-1.4s-0.4-0.8-0.7-1.1s-0.7-0.6-1.1-0.8c-0.5-0.2-1-0.3-1.6-0.3h-2.6v7.1H-35.6z M-32.9,35.5
			c-0.1,0.4-0.3,0.7-0.5,0.9c-0.2,0.3-0.5,0.5-0.9,0.6c-0.4,0.1-0.8,0.2-1.2,0.2h-1.8v-5.8h1.8c0.5,0,0.9,0.1,1.2,0.2
			s0.7,0.3,0.9,0.6c0.2,0.3,0.4,0.6,0.6,0.9c0.1,0.4,0.2,0.7,0.2,1.2C-32.7,34.7-32.8,35.1-32.9,35.5z"/>
	</g>
	<polygon class="st10" points="26.4,-41.2 41,-26.5 41,-41.2 	"/>
</symbol>
<g>
	<defs>
		<rect id="SVGID_9_" x="0" y="0" width="1199.5" height="1199.5"/>
	</defs>
	<clipPath id="SVGID_10_">
		<use xlink:href="#SVGID_9_"  style="overflow:visible;"/>
	</clipPath>
	<g style="clip-path:url(#SVGID_10_);">
		
			<use xlink:href="#Droite"  width="83.3" height="83.3" x="-41.7" y="-41.7" transform="matrix(14.4175 0 0 14.4175 600.4878 600.4879)" style="overflow:visible;"/>
	</g>
</g>
</svg>
