<?xml version="1.0" encoding="utf-8"?>
<!-- Generator: Adobe Illustrator 24.0.0, SVG Export Plug-In . SVG Version: 6.00 Build 0)  -->
<svg version="1.1" id="Calque_1" xmlns="http://www.w3.org/2000/svg" xmlns:xlink="http://www.w3.org/1999/xlink" x="0px" y="0px"
	 viewBox="0 0 1201.7 1201.6" style="enable-background:new 0 0 1201.7 1201.6;" xml:space="preserve">
<style type="text/css">
	.st0{fill:#FFFFFF;}
	.st1{fill:#0A9748;}
	.st2{fill:#DDDDDD;stroke:#000000;stroke-width:4;stroke-miterlimit:10;}
	.st3{fill:#969696;}
	.st4{clip-path:url(#SVGID_2_);}
	.st5{clip-path:url(#SVGID_4_);}
	.st6{clip-path:url(#SVGID_6_);}
	.st7{clip-path:url(#SVGID_8_);}
	.st8{clip-path:url(#SVGID_10_);}
</style>
<symbol  id="_107" viewBox="-27 -27 54 54">
	<g>
		<circle id="circle373_1_" class="st0" cx="0" cy="0" r="27"/>
		<path id="path375_1_" class="st0" d="M-12.6-23.9C-8.7-25.9-4.4-27,0-27V0L-12.6-23.9z"/>
		<path id="path377_1_" class="st0" d="M-22.2-15.3c2.5-3.6,5.8-6.5,9.7-8.6L0,0L-22.2-15.3z"/>
		<path id="path379_1_" class="st1" d="M-26.8-3.3c0.5-4.3,2.1-8.5,4.6-12.1L0,0L-26.8-3.3z"/>
		<path id="path381_1_" class="st0" d="M-25.2,9.6c-1.5-4.1-2.1-8.5-1.5-12.8L0,0L-25.2,9.6z"/>
		<path id="path383_1_" class="st1" d="M-17.9,20.2c-3.3-2.9-5.8-6.5-7.4-10.6L0,0L-17.9,20.2z"/>
		<path id="path385_1_" class="st0" d="M-6.5,26.2c-4.2-1-8.2-3.1-11.4-6L0,0L-6.5,26.2z"/>
		<path id="path387_1_" class="st0" d="M6.5,26.2c-4.2,1-8.7,1-12.9,0L0,0L6.5,26.2z"/>
		<path id="path389_1_" class="st1" d="M17.9,20.2c-3.3,2.9-7.2,5-11.4,6L0,0L17.9,20.2z"/>
		<path id="path391_1_" class="st1" d="M25.2,9.6c-1.5,4.1-4.1,7.7-7.3,10.6L0,0L25.2,9.6z"/>
		<path id="path393_1_" class="st1" d="M26.8-3.3c0.5,4.3,0,8.7-1.5,12.8L0,0L26.8-3.3z"/>
		<path id="path395_1_" class="st1" d="M22.2-15.3c2.5,3.6,4.1,7.7,4.6,12.1L0,0L22.2-15.3z"/>
		<path id="path397_1_" class="st1" d="M12.5-23.9c3.9,2,7.2,5,9.7,8.6L0,0L12.5-23.9z"/>
		<path id="path399_1_" class="st1" d="M0-27c4.4,0,8.7,1.1,12.5,3.1L0,0V-27z"/>
		<circle id="circle401_1_" class="st0" cx="0" cy="0" r="20.2"/>
		<circle id="circle403_1_" class="st1" cx="0" cy="0" r="13.5"/>
		<circle id="circle405_1_" class="st0" cx="0" cy="0" r="6.8"/>
	</g>
</symbol>
<g id="carré_gris_fond">
	<path class="st2" d="M156.8,2h888.2c85.4,0,154.7,69.2,154.7,154.7v888.2c0,85.4-69.2,154.7-154.7,154.7H156.8
		c-85.4,0-154.7-69.2-154.7-154.7V156.7C2.2,71.2,71.4,2,156.8,2z"/>
</g>
<g id="flèche">
	<path class="st3" d="M147,671c0,0-29.4-23.3-29.4-73.3c0-49.9,29.4-73.3,29.4-73.3L464,208c26.1-26,48-33.4,80.4-18.1
		c32.3,15.3,34.3,53.4,34.3,53.4v132.1c0,29.4,25.5,27.7,25.5,27.7s367.4,0.3,425.5,0.3c58.1,0,58.1,58,58.1,58v272.8
		c0,0,0,58-58.1,58c-58.1,0-425.5,0.3-425.5,0.3s-25.5-1.7-25.5,27.7v132.1c0,0-2,38.1-34.3,53.4s-54.3,7.9-80.4-18.1"/>
</g>
<g id="Code">
	<g>
		<defs>
			<rect id="SVGID_1_" x="334.8" y="331.9" width="531.9" height="531.6"/>
		</defs>
		<clipPath id="SVGID_2_">
			<use xlink:href="#SVGID_1_"  style="overflow:visible;"/>
		</clipPath>
		<g class="st4">
			<g>
				<defs>
					<rect id="SVGID_3_" x="337.9" y="335" width="531.9" height="531.6"/>
				</defs>
				<clipPath id="SVGID_4_">
					<use xlink:href="#SVGID_3_"  style="overflow:visible;"/>
				</clipPath>
				<g class="st5">
					<g>
						<defs>
							<rect id="SVGID_5_" x="340.9" y="335" width="531.9" height="531.6"/>
						</defs>
						<clipPath id="SVGID_6_">
							<use xlink:href="#SVGID_5_"  style="overflow:visible;"/>
						</clipPath>
						<g class="st6">
							<g>
								<defs>
									<rect id="SVGID_7_" x="343.9" y="337" width="531.9" height="531.6"/>
								</defs>
								<clipPath id="SVGID_8_">
									<use xlink:href="#SVGID_7_"  style="overflow:visible;"/>
								</clipPath>
								<g class="st7">
									<g>
										<defs>
											<rect id="SVGID_9_" x="347.3" y="339.3" width="531.7" height="531.4"/>
										</defs>
										<clipPath id="SVGID_10_">
											<use xlink:href="#SVGID_9_"  style="overflow:visible;"/>
										</clipPath>
										<g class="st8">
											
												<use xlink:href="#_107"  width="54" height="54" x="-27" y="-27" transform="matrix(-9.8427 0 0 9.8361 619.1934 606.8331)" style="overflow:visible;"/>
										</g>
									</g>
								</g>
							</g>
						</g>
					</g>
				</g>
			</g>
		</g>
	</g>
</g>
<path d="M965.9,0c78.8,0,157.6,0,236.5,0c-0.3,78.8-0.6,157.5-1,236.3C1122.9,157.5,1044.4,78.8,965.9,0z"/>
</svg>
