<?xml version="1.0" encoding="utf-8"?>
<!-- Generator: Adobe Illustrator 25.2.3, SVG Export Plug-In . SVG Version: 6.00 Build 0)  -->
<svg version="1.1" id="Calque_2_1_" xmlns="http://www.w3.org/2000/svg" xmlns:xlink="http://www.w3.org/1999/xlink" x="0px"
	 y="0px" viewBox="0 0 1200 1200" style="enable-background:new 0 0 1200 1200;" xml:space="preserve" width="1200px" height="1200px">
<style type="text/css">
	.st0{fill:#FFFFFF;}
	.st1{fill:#009640;}
	.st2{fill:#E50C7E;}
	.st3{fill:#941E81;}
	.st4{fill:none;stroke:#1E1E1C;stroke-miterlimit:10;}
	.st5{enable-background:new    ;}
	.st6{fill:#1E1E1C;}
	.st7{clip-path:url(#SVGID_2_);}
	.st8{clip-path:url(#SVGID_4_);}
	.st9{clip-path:url(#SVGID_6_);}
	.st10{fill:#1D1D1B;stroke:#1E1E1C;stroke-miterlimit:10;}
	.st11{clip-path:url(#SVGID_10_);}
</style>
<symbol  id="_107" viewBox="-27 -27 54 54">
	<circle id="circle373_1_" class="st0" cx="0" cy="0" r="27"/>
	<path id="path375_1_" class="st0" d="M-12.6,23.9C-8.7,25.9-4.4,27,0,27V0L-12.6,23.9z"/>
	<path id="path377_1_" class="st0" d="M-22.2,15.3c2.5,3.6,5.8,6.5,9.7,8.6L0,0L-22.2,15.3z"/>
	<path id="path379_1_" class="st1" d="M-26.8,3.3c0.5,4.3,2.1,8.5,4.6,12.1L0,0L-26.8,3.3z"/>
	<path id="path381_1_" class="st0" d="M-25.2-9.6c-1.5,4.1-2.1,8.5-1.5,12.8L0,0L-25.2-9.6z"/>
	<path id="path383_1_" class="st1" d="M-17.9-20.2c-3.3,2.9-5.8,6.5-7.4,10.6L0,0L-17.9-20.2z"/>
	<path id="path385_1_" class="st0" d="M-6.5-26.2c-4.2,1-8.2,3.1-11.4,6L0,0L-6.5-26.2z"/>
	<path id="path387_1_" class="st0" d="M6.5-26.2c-4.2-1-8.7-1-12.9,0L0,0L6.5-26.2z"/>
	<path id="path389_1_" class="st1" d="M17.9-20.2c-3.3-2.9-7.2-5-11.4-6L0,0L17.9-20.2z"/>
	<path id="path391_1_" class="st1" d="M25.2-9.6c-1.5-4.1-4.1-7.7-7.3-10.6L0,0L25.2-9.6z"/>
	<path id="path393_1_" class="st1" d="M26.8,3.3c0.5-4.3,0-8.7-1.5-12.8L0,0L26.8,3.3z"/>
	<path id="path395_1_" class="st1" d="M22.2,15.3c2.5-3.6,4.1-7.7,4.6-12.1L0,0L22.2,15.3z"/>
	<path id="path397_1_" class="st1" d="M12.5,23.9c3.9-2,7.2-5,9.7-8.6L0,0L12.5,23.9z"/>
	<path id="path399_1_" class="st1" d="M0,27c4.4,0,8.7-1.1,12.5-3.1L0,0V27z"/>
	<circle id="circle401_1_" class="st0" cx="0" cy="0" r="20.2"/>
	<circle id="circle403_1_" class="st1" cx="0" cy="0" r="13.5"/>
	<circle id="circle405_1_" class="st0" cx="0" cy="0" r="6.8"/>
</symbol>
<symbol  id="Gauche" viewBox="-41.6 -41.6 83.2 83.2">
	<path class="st2" d="M-1.4-39.4L-1.4-39.4c-0.1,0.1-0.2,0.1-0.3,0.2l-32,35.7c-0.1,0.1-0.2,0.3-0.2,0.4v6.2c0,0.2,0.1,0.3,0.2,0.4
		l32,35.6c0.1,0.1,0.2,0.2,0.3,0.2l0,0c1,0.4,4.9,1.7-0.4,1.7h-2c-0.2,0-0.4-0.1-0.5-0.2L-40.7,0.4c-0.2-0.2-0.2-0.6,0-0.8
		l36.4-40.5c0.1-0.1,0.3-0.2,0.5-0.2h1.9C2.4-41.1-0.5-39.8-1.4-39.4z"/>
	<path class="st3" d="M-1.6,39.3L-36.5,0.4c-0.2-0.2-0.2-0.6,0-0.8l34.9-38.8C-0.5-40.4,1-41,2.6-41h33.1c2.9-0.1,5.4,2.2,5.5,5.1
		V36c-0.1,2.9-2.5,5.2-5.5,5.1H2.6C1,41.1-0.5,40.4-1.6,39.3z"/>
	<path class="st4" d="M-35.4,41.1h70.8c3.1,0,5.7-2.5,5.7-5.6l0,0l0,0v-70.9c0-3.1-2.5-5.7-5.6-5.7l0,0h-70.9
		c-3.1,0-5.7,2.6-5.7,5.7l0,0l0,0v70.8C-41.1,38.5-38.6,41.1-35.4,41.1C-35.5,41.1-35.5,41.1-35.4,41.1L-35.4,41.1z"/>
	<g class="st5">
		<path class="st6" d="M-32.6,38.7h0.6v-3.5h-2.3v0.5h1.7V37c-0.4,0.4-0.7,0.7-1.1,0.9c-0.4,0.2-0.8,0.3-1.2,0.3
			c-0.4,0-0.8-0.1-1.1-0.2c-0.3-0.2-0.6-0.4-0.9-0.6c-0.3-0.3-0.5-0.6-0.6-0.9c-0.1-0.4-0.2-0.7-0.2-1.1c0-0.4,0.1-0.7,0.2-1.1
			s0.3-0.7,0.5-0.9c0.2-0.3,0.5-0.5,0.9-0.7s0.7-0.2,1.1-0.2c0.5,0,1,0.1,1.4,0.3c0.4,0.2,0.7,0.5,1,1l0.6-0.4
			c-0.1-0.2-0.3-0.4-0.4-0.6s-0.4-0.4-0.6-0.5c-0.2-0.1-0.5-0.2-0.8-0.3s-0.6-0.1-1-0.1c-0.5,0-1,0.1-1.4,0.3
			c-0.4,0.2-0.8,0.5-1.1,0.8s-0.6,0.7-0.7,1.1c-0.2,0.4-0.3,0.9-0.3,1.4c0,0.5,0.1,0.9,0.3,1.3s0.4,0.8,0.7,1.2
			c0.3,0.3,0.7,0.6,1.1,0.8s0.9,0.3,1.4,0.3c0.9,0,1.7-0.4,2.4-1.1V38.7z"/>
	</g>
	<g>
		<g>
			<defs>
				<rect id="SVGID_1_" x="-26.2" y="-26.1" width="52.4" height="52.4"/>
			</defs>
			<clipPath id="SVGID_2_">
				<use xlink:href="#SVGID_1_"  style="overflow:visible;"/>
			</clipPath>
			<g class="st7">
				<g>
					<g>
						<defs>
							<rect id="SVGID_3_" x="-25.9" y="-26.4" width="52.4" height="52.4"/>
						</defs>
						<clipPath id="SVGID_4_">
							<use xlink:href="#SVGID_3_"  style="overflow:visible;"/>
						</clipPath>
						<g class="st8">
							<g>
								<g>
									<defs>
										<rect id="SVGID_5_" x="-25.6" y="-26.4" width="52.4" height="52.4"/>
									</defs>
									<clipPath id="SVGID_6_">
										<use xlink:href="#SVGID_5_"  style="overflow:visible;"/>
									</clipPath>
									<g class="st9">
										<g>
											<defs>
												<rect id="SVGID_7_" x="-25.3" y="-26.6" width="52.4" height="52.4"/>
											</defs>
											<clipPath id="SVGID_8_">
												<use xlink:href="#SVGID_7_"  style="overflow:visible;"/>
											</clipPath>
											<g style="clip-path:url(#SVGID_8_);">
												
													<use xlink:href="#_107"  width="54" height="54" x="-27" y="-27" transform="matrix(-0.97 0 0 0.97 1.2226 -0.6163)" style="overflow:visible;"/>
											</g>
										</g>
									</g>
								</g>
							</g>
						</g>
					</g>
				</g>
			</g>
		</g>
	</g>
	<polygon class="st10" points="26.4,-41.1 41.1,-26.4 41.1,-41.1 	"/>
</symbol>
<g>
	<g>
		<defs>
			<rect id="SVGID_9_" width="1200" height="1200"/>
		</defs>
		<clipPath id="SVGID_10_">
			<use xlink:href="#SVGID_9_"  style="overflow:visible;"/>
		</clipPath>
		<g class="st11">
			<g>
				<defs>
					<rect id="SVGID_11_" y="0" width="1200" height="1200"/>
				</defs>
				<clipPath id="SVGID_12_">
					<use xlink:href="#SVGID_11_"  style="overflow:visible;"/>
				</clipPath>
				<g style="clip-path:url(#SVGID_12_);">
					
						<use xlink:href="#Gauche"  width="83.2" height="83.2" x="-41.6" y="-41.6" transform="matrix(14.4231 0 0 14.4231 600.0001 600.0015)" style="overflow:visible;"/>
				</g>
			</g>
		</g>
	</g>
</g>
</svg>
