<?xml version="1.0" encoding="utf-8"?>
<!-- Generator: Adobe Illustrator 25.2.3, SVG Export Plug-In . SVG Version: 6.00 Build 0)  -->
<svg version="1.1" id="Calque_2_1_" xmlns="http://www.w3.org/2000/svg" xmlns:xlink="http://www.w3.org/1999/xlink" x="0px"
	 y="0px" viewBox="0 0 83.2 83.2" style="enable-background:new 0 0 83.2 83.2;" xml:space="preserve" width="100px" height="100px">
<style type="text/css">
	.st0{fill:#FFFFFF;}
	.st1{fill:#009640;}
	.st2{fill:#E50C7E;}
	.st3{fill:#941E81;}
	.st4{fill:none;stroke:#1E1E1C;stroke-miterlimit:10;}
	.st5{clip-path:url(#SVGID_2_);}
	.st6{clip-path:url(#SVGID_4_);}
	.st7{fill:#1D1D1B;stroke:#1E1E1C;stroke-miterlimit:10;}
</style>
<symbol  id="_107" viewBox="-27 -27 54 54">
	<circle id="circle373_3_" class="st0" cx="0" cy="0" r="27"/>
	<path id="path375_3_" class="st0" d="M-12.6,23.9C-8.7,25.9-4.4,27,0,27V0L-12.6,23.9z"/>
	<path id="path377_3_" class="st0" d="M-22.2,15.3c2.5,3.6,5.8,6.5,9.7,8.6L0,0L-22.2,15.3z"/>
	<path id="path379_3_" class="st1" d="M-26.8,3.3c0.5,4.3,2.1,8.5,4.6,12.1L0,0L-26.8,3.3z"/>
	<path id="path381_3_" class="st0" d="M-25.2-9.6c-1.5,4.1-2.1,8.5-1.5,12.8L0,0L-25.2-9.6z"/>
	<path id="path383_3_" class="st1" d="M-17.9-20.2c-3.3,2.9-5.8,6.5-7.4,10.6L0,0L-17.9-20.2z"/>
	<path id="path385_3_" class="st0" d="M-6.5-26.2c-4.2,1-8.2,3.1-11.4,6L0,0L-6.5-26.2z"/>
	<path id="path387_3_" class="st0" d="M6.5-26.2c-4.2-1-8.7-1-12.9,0L0,0L6.5-26.2z"/>
	<path id="path389_3_" class="st1" d="M17.9-20.2c-3.3-2.9-7.2-5-11.4-6L0,0L17.9-20.2z"/>
	<path id="path391_3_" class="st1" d="M25.2-9.6c-1.5-4.1-4.1-7.7-7.3-10.6L0,0L25.2-9.6z"/>
	<path id="path393_3_" class="st1" d="M26.8,3.3c0.5-4.3,0-8.7-1.5-12.8L0,0L26.8,3.3z"/>
	<path id="path395_3_" class="st1" d="M22.2,15.3c2.5-3.6,4.1-7.7,4.6-12.1L0,0L22.2,15.3z"/>
	<path id="path397_3_" class="st1" d="M12.5,23.9c3.9-2,7.2-5,9.7-8.6L0,0L12.5,23.9z"/>
	<path id="path399_3_" class="st1" d="M0,27c4.4,0,8.7-1.1,12.5-3.1L0,0V27z"/>
	<circle id="circle401_3_" class="st0" cx="0" cy="0" r="20.2"/>
	<circle id="circle403_3_" class="st1" cx="0" cy="0" r="13.5"/>
	<circle id="circle405_3_" class="st0" cx="0" cy="0" r="6.8"/>
</symbol>
<symbol  id="Gauche" viewBox="-41.6 -41.6 83.2 83.2">
	<path class="st2" d="M-1.4-39.4L-1.4-39.4c-0.1,0.1-0.2,0.1-0.3,0.2l-32,35.7c-0.1,0.1-0.2,0.3-0.2,0.4v6.2c0,0.2,0.1,0.3,0.2,0.4
		l32,35.6c0.1,0.1,0.2,0.2,0.3,0.2l0,0c1,0.4,4.9,1.7-0.4,1.7h-2c-0.2,0-0.4-0.1-0.5-0.2L-40.7,0.4c-0.2-0.2-0.2-0.6,0-0.8
		l36.4-40.5c0.1-0.1,0.3-0.2,0.5-0.2h1.9C2.4-41.1-0.5-39.8-1.4-39.4z"/>
	<path class="st3" d="M-1.6,39.3L-36.5,0.4c-0.2-0.2-0.2-0.6,0-0.8l34.9-38.8c1.1-1.2,2.6-1.8,4.2-1.8h33.1c2.9-0.1,5.4,2.2,5.5,5.1
		V36c-0.1,2.9-2.5,5.2-5.5,5.1H2.6C1,41.1-0.5,40.4-1.6,39.3z"/>
	<path class="st4" d="M-35.4,41.1h70.8c3.1,0,5.7-2.5,5.7-5.6c0,0,0,0,0,0l0,0v-70.9c0-3.1-2.5-5.7-5.6-5.7c0,0,0,0,0,0h-70.9
		c-3.1,0-5.7,2.6-5.7,5.7c0,0,0,0,0,0l0,0v70.8C-41.1,38.5-38.6,41.1-35.4,41.1C-35.5,41.1-35.5,41.1-35.4,41.1L-35.4,41.1z"/>
	<text transform="matrix(1.07 0 0 1 -39.0605 38.7197)" style="fill:#1E1E1C; font-family:'Raleway-Regular'; font-size:9.97px;">G</text>
	<g>
		<defs>
			<rect id="SVGID_1_" x="-26.2" y="-26.1" width="52.4" height="52.4"/>
		</defs>
		<clipPath id="SVGID_2_">
			<use xlink:href="#SVGID_1_"  style="overflow:visible;"/>
		</clipPath>
		<g class="st5">
			<g>
				<defs>
					<rect id="SVGID_3_" x="-25.9" y="-26.4" width="52.4" height="52.4"/>
				</defs>
				<clipPath id="SVGID_4_">
					<use xlink:href="#SVGID_3_"  style="overflow:visible;"/>
				</clipPath>
				<g class="st6">
					<g>
						<defs>
							<rect id="SVGID_5_" x="-25.6" y="-26.4" width="52.4" height="52.4"/>
						</defs>
						<clipPath id="SVGID_6_">
							<use xlink:href="#SVGID_5_"  style="overflow:visible;"/>
						</clipPath>
						<g style="clip-path:url(#SVGID_6_);">
							
								<use xlink:href="#_107"  width="54" height="54" x="-27" y="-27" transform="matrix(-0.97 0 0 0.97 0.9316 -0.4223)" style="overflow:visible;"/>
						</g>
					</g>
				</g>
			</g>
		</g>
	</g>
	<polygon class="st7" points="26.4,-41.1 41.1,-26.4 41.1,-41.1 	"/>
</symbol>
<g>
	<defs>
		<rect id="SVGID_7_" y="0" width="83.2" height="83.2"/>
	</defs>
	<clipPath id="SVGID_8_">
		<use xlink:href="#SVGID_7_"  style="overflow:visible;"/>
	</clipPath>
	<g style="clip-path:url(#SVGID_8_);">
		
			<use xlink:href="#Gauche"  width="83.2" height="83.2" x="-41.6" y="-41.6" transform="matrix(1 0 0 1 41.6 41.6001)" style="overflow:visible;"/>
	</g>
</g>
</svg>
