<?xml version="1.0" encoding="utf-8"?>
<!-- Generator: Adobe Illustrator 24.0.0, SVG Export Plug-In . SVG Version: 6.00 Build 0)  -->
<svg version="1.1" xmlns="http://www.w3.org/2000/svg" xmlns:xlink="http://www.w3.org/1999/xlink" x="0px" y="0px"
	 viewBox="0 0 1200 1200" style="enable-background:new 0 0 1200 1200;" xml:space="preserve">
<style type="text/css">
	.st0{fill:#95C122;}
	.st1{fill:#3EAB37;}
	.st2{fill:none;stroke:#1E1E1C;stroke-miterlimit:10;}
	.st3{enable-background:new    ;}
	.st4{fill:#1E1E1C;}
	.st5{clip-path:url(#SVGID_2_);}
	.st6{clip-path:url(#SVGID_4_);}
	.st7{clip-path:url(#SVGID_6_);}
	.st8{fill:#1D1D1B;stroke:#1E1E1C;stroke-miterlimit:10;}
	.st9{clip-path:url(#SVGID_8_);}
	.st10{clip-path:url(#SVGID_10_);}
	.st11{clip-path:url(#SVGID_12_);}
	.st12{clip-path:url(#SVGID_14_);}
	.st13{fill:none;}
</style>
<symbol  id="Bas" viewBox="-41.6 -41.6 83.2 83.2">
	<path class="st0" d="M-39.3,1.6L-39.3,1.6c0.1,0.1,0.1,0.2,0.2,0.3l35.6,32c0.1,0.1,0.3,0.2,0.4,0.2h6.2c0.2,0,0.3-0.1,0.4-0.2
		l35.6-32c0.1-0.1,0.2-0.2,0.3-0.3l0,0c0.4-1,1.7-4.9,1.7,0.4v2c0,0.2-0.1,0.4-0.2,0.5L0.4,40.9c-0.2,0.2-0.6,0.2-0.8,0L-40.9,4.4
		c-0.1-0.1-0.2-0.3-0.2-0.5V2C-41.1-2.3-39.8,0.6-39.3,1.6z"/>
	<path class="st1" d="M39.3,1.8L0.4,36.7c-0.2,0.2-0.6,0.2-0.8,0L-39.3,1.8c-1.2-1.1-1.8-2.6-1.8-4.2v-33.2
		c-0.1-2.9,2.2-5.4,5.1-5.5h72c2.9,0.1,5.2,2.6,5.1,5.5l0,0l0,0v33.1C41.1-0.9,40.4,0.7,39.3,1.8z"/>
	<path class="st2" d="M-35.4,41.1h70.8c3.1,0,5.7-2.5,5.7-5.6l0,0l0,0v-70.9c0-3.1-2.5-5.7-5.6-5.7l0,0h-70.9
		c-3.1,0-5.7,2.6-5.7,5.7l0,0l0,0v70.8C-41.1,38.5-38.6,41.1-35.4,41.1C-35.5,41.1-35.5,41.1-35.4,41.1L-35.4,41.1z"/>
	<g class="st3">
		<path class="st4" d="M-32.8,35.8c-0.3-0.3-0.6-0.5-1-0.7c0.3-0.1,0.6-0.4,0.8-0.7c0.2-0.3,0.3-0.6,0.3-1c0-0.2,0-0.4-0.1-0.7
			c-0.1-0.2-0.2-0.4-0.3-0.6c-0.1-0.2-0.3-0.3-0.5-0.4c-0.2-0.1-0.5-0.2-0.7-0.2h-3.6v7.1h3.6c0.3,0,0.6,0,0.8-0.1
			c0.3-0.1,0.5-0.2,0.7-0.4c0.2-0.2,0.3-0.4,0.5-0.6c0.1-0.2,0.2-0.5,0.2-0.7C-32.4,36.5-32.5,36.1-32.8,35.8z M-33.3,37.3
			c-0.1,0.2-0.2,0.3-0.3,0.4c-0.1,0.1-0.3,0.2-0.4,0.3c-0.2,0.1-0.3,0.1-0.5,0.1h-2.8v-2.7h2.9c0.2,0,0.4,0,0.5,0.1
			c0.2,0.1,0.3,0.2,0.4,0.3c0.1,0.1,0.2,0.3,0.3,0.4c0.1,0.2,0.1,0.3,0.1,0.5C-33.1,36.9-33.2,37.1-33.3,37.3z M-34.7,32.3
			c0.2,0,0.3,0,0.5,0.1c0.1,0.1,0.3,0.2,0.4,0.3c0.1,0.1,0.2,0.3,0.3,0.4c0.1,0.2,0.1,0.3,0.1,0.5c0,0.2,0,0.3-0.1,0.5
			c-0.1,0.2-0.2,0.3-0.3,0.4s-0.3,0.2-0.4,0.3c-0.2,0.1-0.3,0.1-0.5,0.1h-2.6v-2.6H-34.7z"/>
	</g>
	<g>
		<g>
			<g>
				<defs>
					<rect id="SVGID_1_" x="-26.2" y="-28.4" width="52.4" height="52.4"/>
				</defs>
				<clipPath id="SVGID_2_">
					<use xlink:href="#SVGID_1_"  style="overflow:visible;"/>
				</clipPath>
				<g class="st5">
					<g>
						<g>
							<g>
								<defs>
									<rect id="SVGID_3_" x="-25.9" y="-28.6" width="52.4" height="52.4"/>
								</defs>
								<clipPath id="SVGID_4_">
									<use xlink:href="#SVGID_3_"  style="overflow:visible;"/>
								</clipPath>
								<g class="st6">
									<g>
										<g>
											<g>
												<defs>
													<rect id="SVGID_5_" x="-25.6" y="-28.6" width="52.4" height="52.4"/>
												</defs>
												<clipPath id="SVGID_6_">
													<use xlink:href="#SVGID_5_"  style="overflow:visible;"/>
												</clipPath>
												<g class="st7">
													<g>
													</g>
												</g>
											</g>
										</g>
									</g>
								</g>
							</g>
						</g>
					</g>
				</g>
			</g>
		</g>
	</g>
	<polygon class="st8" points="26.4,-41.1 41.1,-26.4 41.1,-41.1 	"/>
</symbol>
<g id="Calque_2">
</g>
<g id="Calque_2_1_">
	<g>
		<g>
			<g>
				<defs>
					<rect id="SVGID_7_" y="-4.4" width="1200" height="1200"/>
				</defs>
				<clipPath id="SVGID_8_">
					<use xlink:href="#SVGID_7_"  style="overflow:visible;"/>
				</clipPath>
				<g class="st9">
					<g>
						<g>
							<g>
								<defs>
									<rect id="SVGID_9_" y="-4.4" width="1200" height="1200"/>
								</defs>
								<clipPath id="SVGID_10_">
									<use xlink:href="#SVGID_9_"  style="overflow:visible;"/>
								</clipPath>
								<g class="st10">
									<g>
										<g transform="matrix(1 0 0 1 0 0)">
											<g>
												<defs>
													<rect id="SVGID_11_" y="0" width="1200" height="1200"/>
												</defs>
												<clipPath id="SVGID_12_">
													<use xlink:href="#SVGID_11_"  style="overflow:visible;"/>
												</clipPath>
												<g class="st11">
													<g>
														<g>
															<defs>
																<rect id="SVGID_13_" y="0" width="1199.5" height="1199.5"/>
															</defs>
															<clipPath id="SVGID_14_">
																<use xlink:href="#SVGID_13_"  style="overflow:visible;"/>
															</clipPath>
															<g transform="matrix(14.4175 0 0 14.4175 599.767 599.7684)" class="st12">
																<g>
																	<defs>
																		<rect id="SVGID_15_" x="0" y="0" width="1199.5" height="1199.5"/>
																	</defs>
																	<clipPath id="SVGID_16_">
																		<use xlink:href="#SVGID_15_"  style="overflow:visible;"/>
																	</clipPath>
																	<g transform="matrix(1 0 0 1 0 0)" style="clip-path:url(#SVGID_16_);">
																		
																			<use xlink:href="#Bas"  width="83.2" height="83.2" x="-41.6" y="-41.6" transform="matrix(14.4175 0 0 14.4175 599.767 599.7684)" style="overflow:visible;"/>
																	</g>
																</g>
															</g>
														</g>
													</g>
												</g>
											</g>
										</g>
									</g>
								</g>
							</g>
						</g>
					</g>
				</g>
			</g>
		</g>
	</g>
	<rect x="16.3" y="530.2" class="st13" width="52.4" height="52.4"/>
</g>
</svg>
