<?xml version="1.0" encoding="utf-8"?>
<!-- Generator: Adobe Illustrator 24.0.0, SVG Export Plug-In . SVG Version: 6.00 Build 0)  -->
<svg version="1.1" id="Calque_1" xmlns="http://www.w3.org/2000/svg" xmlns:xlink="http://www.w3.org/1999/xlink" x="0px" y="0px"
	 viewBox="0 0 604 604" style="enable-background:new 0 0 604 604;" xml:space="preserve">
<style type="text/css">
	.st0{fill:#FFFFFF;}
	.st1{fill:#0A9748;}
	.st2{fill:#DDDDDD;stroke:#231F20;stroke-width:4;stroke-miterlimit:10;}
	.st3{fill:#969696;}
	.st4{fill:#565656;}
	.st5{clip-path:url(#SVGID_2_);}
	.st6{clip-path:url(#SVGID_4_);}
	.st7{clip-path:url(#SVGID_6_);}
	.st8{clip-path:url(#SVGID_8_);}
	.st9{clip-path:url(#SVGID_10_);}
	.st10{clip-path:url(#SVGID_2_);fill:#0A9748;}
</style>
<symbol  id="_121" viewBox="-27 -27 54 54">
	<g>
		<circle id="circle517_1_" class="st0" cx="0" cy="0" r="27"/>
		<path id="path519_1_" class="st0" d="M-12.6-23.9C-8.7-25.9-4.4-27,0-27V0L-12.6-23.9z"/>
		<path id="path521_1_" class="st1" d="M-22.2-15.3c2.5-3.6,5.8-6.5,9.7-8.6L0,0L-22.2-15.3z"/>
		<path id="path523_1_" class="st1" d="M-26.8-3.3c0.5-4.3,2.1-8.5,4.6-12.1L0,0L-26.8-3.3z"/>
		<path id="path525_1_" class="st0" d="M-25.2,9.6c-1.5-4.1-2.1-8.5-1.5-12.8L0,0L-25.2,9.6z"/>
		<path id="path527_1_" class="st0" d="M-17.9,20.2c-3.3-2.9-5.8-6.5-7.4-10.6L0,0L-17.9,20.2z"/>
		<path id="path529_1_" class="st0" d="M-6.5,26.2c-4.2-1-8.2-3.1-11.4-6L0,0L-6.5,26.2z"/>
		<path id="path531_1_" class="st0" d="M6.5,26.2c-4.2,1-8.7,1-12.9,0L0,0L6.5,26.2z"/>
		<path id="path533_1_" class="st1" d="M17.9,20.2c-3.3,2.9-7.2,5-11.4,6L0,0L17.9,20.2z"/>
		<path id="path535_1_" class="st1" d="M25.2,9.6c-1.5,4.1-4.1,7.7-7.3,10.6L0,0L25.2,9.6z"/>
		<path id="path537_1_" class="st1" d="M26.8-3.3c0.5,4.3,0,8.7-1.5,12.8L0,0L26.8-3.3z"/>
		<path id="path539_1_" class="st1" d="M22.2-15.3c2.5,3.6,4.1,7.7,4.6,12.1L0,0L22.2-15.3z"/>
		<path id="path541_1_" class="st1" d="M12.5-23.9c3.9,2,7.2,5,9.7,8.6L0,0L12.5-23.9z"/>
		<path id="path543_1_" class="st1" d="M0-27c4.4,0,8.7,1.1,12.5,3.1L0,0V-27z"/>
		<circle id="circle545_1_" class="st0" cx="0" cy="0" r="20.2"/>
		<circle id="circle547_1_" class="st1" cx="0" cy="0" r="13.5"/>
		<circle id="circle549_1_" class="st0" cx="0" cy="0" r="6.8"/>
	</g>
</symbol>
<g id="carré_gris_fond">
	<path class="st2" d="M80.3,2.1h445c42.8,0,77.5,34.7,77.5,77.5v445c0,42.8-34.7,77.5-77.5,77.5h-445c-42.8,0-77.5-34.7-77.5-77.5
		v-445C2.8,36.8,37.5,2.1,80.3,2.1z"/>
</g>
<g id="flèche_1">
	<path class="st3" d="M43.5,337.3c0,0-14.7-11.7-14.7-36.7s14.7-36.7,14.7-36.7l158.8-158.6c13.1-13.1,24.1-16.7,40.3-9.1
		c16.2,7.7,17.2,26.8,17.2,26.8v66.2c0,14.7,12.8,13.9,12.8,13.9s184,0.2,213.1,0.2s29.1,29.1,29.1,29.1v136.7c0,0,0,29.1-29.1,29.1
		s-213.1,0.2-213.1,0.2s-12.8-0.9-12.8,13.9v66.2c0,0-1,19.1-17.2,26.8c-16.2,7.7-27.2,4-40.3-9.1"/>
</g>
<g id="flèche_2">
	<path class="st4" d="M205.8,337.3c0,0-14.7-11.7-14.7-36.7s14.7-36.7,14.7-36.7l158.8-158.6c13.1-13.1,24-16.7,40.3-9.1
		c16.2,7.7,17.2,26.8,17.2,26.8v66.2c0,14.7,12.8,13.9,12.8,13.9s76.6,0.2,105.7,0.2s29.1,29.1,29.1,29.1v136.7
		c0,0,0,29.1-29.1,29.1s-105.7,0.2-105.7,0.2s-12.8-0.9-12.8,13.9v66.2c0,0-1,19.1-17.2,26.8c-16.2,7.7-27.2,4-40.3-9.1"/>
</g>
<g id="Code">
	<g>
		<defs>
			<rect id="SVGID_1_" x="168.8" y="167.4" width="266.3" height="266.3"/>
		</defs>
		<clipPath id="SVGID_2_">
			<use xlink:href="#SVGID_1_"  style="overflow:visible;"/>
		</clipPath>
		<g class="st5">
			<g>
				<defs>
					<rect id="SVGID_3_" x="170.4" y="168.9" width="266.3" height="266.3"/>
				</defs>
				<clipPath id="SVGID_4_">
					<use xlink:href="#SVGID_3_"  style="overflow:visible;"/>
				</clipPath>
				<g class="st6">
					<g>
						<defs>
							<rect id="SVGID_5_" x="171.9" y="168.9" width="266.3" height="266.3"/>
						</defs>
						<clipPath id="SVGID_6_">
							<use xlink:href="#SVGID_5_"  style="overflow:visible;"/>
						</clipPath>
						<g class="st7">
							<g>
								<defs>
									<rect id="SVGID_7_" x="173.4" y="170" width="266.3" height="266.3"/>
								</defs>
								<clipPath id="SVGID_8_">
									<use xlink:href="#SVGID_7_"  style="overflow:visible;"/>
								</clipPath>
								<g class="st8">
									<g>
										<defs>
											<rect id="SVGID_9_" x="175.1" y="171.2" width="266.2" height="266.2"/>
										</defs>
										<clipPath id="SVGID_10_">
											<use xlink:href="#SVGID_9_"  style="overflow:visible;"/>
										</clipPath>
										<g class="st9">
											
												<use xlink:href="#_121"  width="54" height="54" x="-27" y="-27" transform="matrix(-4.93 0 0 4.93 311.179 305.25)" style="overflow:visible;"/>
										</g>
									</g>
								</g>
							</g>
						</g>
					</g>
				</g>
			</g>
		</g>
		<path class="st10" d="M186.4,351.9c0.1,0.3,0.3,0.6,0.4,1c10.4-4,20.9-8,31.3-12.1c-0.1-0.2-0.1-0.4-0.2-0.6
			C207.4,344.1,196.9,348,186.4,351.9z"/>
		<path class="st10" d="M372.7,187.5l0.2-0.3c7.1,3.7,15.8,9.1,24.8,16.8c10.4,8.9,17.8,18.1,22.9,25.4c-0.1,0.1-0.2,0.1-0.3,0.2
			L372.7,187.5z"/>
	</g>
</g>
<path d="M485,0c39.7,0,79.3,0,119,0c-0.2,39.6-0.3,79.3-0.5,118.9C564,79.3,524.5,39.6,485,0z"/>
<path class="st0" d="M276.7,433.8c8.8,2,19.9,3.7,32.6,3.9c14.9,0.2,27.6-1.7,37.3-3.9"/>
<path class="st2" d="M279.3,433.8"/>
<path class="st1" d="M279.3,433.8c0,0.2-0.1,0.4-0.1,0.5c-0.9-0.2-1.7-0.4-2.6-0.6C277.5,433.7,278.4,433.7,279.3,433.8z"/>
<path class="st0" d="M435.2,354.5c3.4-11.7,6.8-28.1,6.9-47.8c0.1-20.8-3.4-38.1-6.9-50.1"/>
<path class="st1" d="M433.4,290.2c2.7-0.3,5.3-0.7,8-1c-0.4-4.5-1-9.2-1.9-14.2c-1.2-6.8-2.7-13-4.3-18.6
	C434.5,267.7,433.9,278.9,433.4,290.2z"/>
</svg>
