<?xml version="1.0" encoding="utf-8"?>
<!-- Generator: Adobe Illustrator 25.2.3, SVG Export Plug-In . SVG Version: 6.00 Build 0)  -->
<svg version="1.1" id="Calque_2_1_" xmlns="http://www.w3.org/2000/svg" xmlns:xlink="http://www.w3.org/1999/xlink" x="0px"
	 y="0px" viewBox="0 0 1200 1200" style="enable-background:new 0 0 1200 1200;" xml:space="preserve">
<style type="text/css">
	.st0{fill:#FFFFFF;}
	.st1{fill:#009640;}
	.st2{fill:#3BA9E0;stroke:#1E1E1C;stroke-miterlimit:10;}
	.st3{clip-path:url(#SVGID_2_);}
	.st4{clip-path:url(#SVGID_4_);}
	.st5{clip-path:url(#SVGID_6_);}
	.st6{fill:#1D1D1B;stroke:#1E1E1C;stroke-miterlimit:10;}
	.st7{clip-path:url(#SVGID_10_);}
</style>
<symbol  id="_121" viewBox="-27 -27 54 54">
	<circle id="circle517_1_" class="st0" cx="0" cy="0" r="27"/>
	<path id="path519_1_" class="st0" d="M-12.6,23.9C-8.7,25.9-4.4,27,0,27V0L-12.6,23.9z"/>
	<path id="path521_1_" class="st1" d="M-22.2,15.3c2.5,3.6,5.8,6.5,9.7,8.6L0,0L-22.2,15.3z"/>
	<path id="path523_1_" class="st1" d="M-26.8,3.3c0.5,4.3,2.1,8.5,4.6,12.1L0,0L-26.8,3.3z"/>
	<path id="path525_1_" class="st0" d="M-25.2-9.6c-1.5,4.1-2.1,8.5-1.5,12.8L0,0L-25.2-9.6z"/>
	<path id="path527_1_" class="st0" d="M-17.9-20.2c-3.3,2.9-5.8,6.5-7.4,10.6L0,0L-17.9-20.2z"/>
	<path id="path529_1_" class="st0" d="M-6.5-26.2c-4.2,1-8.2,3.1-11.4,6L0,0L-6.5-26.2z"/>
	<path id="path531_1_" class="st0" d="M6.5-26.2c-4.2-1-8.7-1-12.9,0L0,0L6.5-26.2z"/>
	<path id="path533_1_" class="st1" d="M17.9-20.2c-3.3-2.9-7.2-5-11.4-6L0,0L17.9-20.2z"/>
	<path id="path535_1_" class="st1" d="M25.2-9.6c-1.5-4.1-4.1-7.7-7.3-10.6L0,0L25.2-9.6z"/>
	<path id="path537_1_" class="st1" d="M26.8,3.3c0.5-4.3,0-8.7-1.5-12.8L0,0L26.8,3.3z"/>
	<path id="path539_1_" class="st1" d="M22.2,15.3c2.5-3.6,4.1-7.7,4.6-12.1L0,0L22.2,15.3z"/>
	<path id="path541_1_" class="st1" d="M12.5,23.9c3.9-2,7.2-5,9.7-8.6L0,0L12.5,23.9z"/>
	<path id="path543_1_" class="st1" d="M0,27c4.4,0,8.7-1.1,12.5-3.1L0,0V27z"/>
	<circle id="circle545_1_" class="st0" cx="0" cy="0" r="20.2"/>
	<circle id="circle547_1_" class="st1" cx="0" cy="0" r="13.5"/>
	<circle id="circle549_1_" class="st0" cx="0" cy="0" r="6.8"/>
</symbol>
<symbol  id="F2" viewBox="-41.6 -41.6 83.2 83.2">
	<path class="st2" d="M-35.4,41.1h70.8c3.1,0,5.7-2.5,5.7-5.6l0,0l0,0v-70.9c0-3.1-2.5-5.7-5.6-5.7l0,0h-70.9
		c-3.1,0-5.7,2.6-5.7,5.7l0,0l0,0v70.8C-41.1,38.5-38.6,41.1-35.4,41.1C-35.5,41.1-35.5,41.1-35.4,41.1L-35.4,41.1z"/>
	<g>
		<g>
			<defs>
				<rect id="SVGID_1_" x="-26.2" y="-26.2" width="52.4" height="52.4"/>
			</defs>
			<clipPath id="SVGID_2_">
				<use xlink:href="#SVGID_1_"  style="overflow:visible;"/>
			</clipPath>
			<g class="st3">
				<g>
					<g>
						<defs>
							<rect id="SVGID_3_" x="-25.9" y="-26.5" width="52.4" height="52.4"/>
						</defs>
						<clipPath id="SVGID_4_">
							<use xlink:href="#SVGID_3_"  style="overflow:visible;"/>
						</clipPath>
						<g class="st4">
							<g>
								<g>
									<defs>
										<rect id="SVGID_5_" x="-25.6" y="-26.5" width="52.4" height="52.4"/>
									</defs>
									<clipPath id="SVGID_6_">
										<use xlink:href="#SVGID_5_"  style="overflow:visible;"/>
									</clipPath>
									<g class="st5">
										<g>
											<defs>
												<rect id="SVGID_7_" x="-25.3" y="-26.7" width="52.4" height="52.4"/>
											</defs>
											<clipPath id="SVGID_8_">
												<use xlink:href="#SVGID_7_"  style="overflow:visible;"/>
											</clipPath>
											<g style="clip-path:url(#SVGID_8_);">
												
													<use xlink:href="#_121"  width="54" height="54" x="-27" y="-27" transform="matrix(-0.97 0 0 0.97 1.2226 -0.7263)" style="overflow:visible;"/>
											</g>
										</g>
									</g>
								</g>
							</g>
						</g>
					</g>
				</g>
			</g>
		</g>
	</g>
	<polygon class="st6" points="26.4,-41.1 41.1,-26.4 41.1,-41.1 	"/>
	<g>
		<path class="st0" d="M-32.8-23.9v-4.6h2.9c0.7,0,1.3-0.1,1.9-0.4c0.6-0.3,1-0.6,1.4-1.1c0.4-0.5,0.7-1,0.9-1.5
			c0.2-0.6,0.3-1.2,0.3-1.8c0-0.6-0.1-1.2-0.3-1.7c-0.2-0.6-0.6-1.1-1-1.5c-0.4-0.5-0.9-0.8-1.5-1.1c-0.6-0.3-1.2-0.4-1.9-0.4h-6.1
			v14.2H-32.8z M-32.8-35.2h2.6c0.2,0,0.4,0,0.6,0.1c0.2,0.1,0.4,0.2,0.5,0.4c0.1,0.2,0.3,0.4,0.4,0.6c0.1,0.2,0.1,0.5,0.1,0.9
			c0,0.6-0.1,1.1-0.4,1.5c-0.3,0.3-0.6,0.5-1,0.5h-2.7V-35.2z"/>
		<path class="st0" d="M-14.3-23.9v-2.9h-5.4c0.1-0.1,0.3-0.3,0.5-0.4c0.2-0.2,0.5-0.3,0.8-0.5c0.3-0.2,0.5-0.3,0.8-0.5
			s0.5-0.3,0.7-0.4c0.3-0.2,0.6-0.4,0.9-0.6c0.3-0.2,0.5-0.4,0.8-0.7s0.4-0.6,0.5-0.9c0.1-0.3,0.2-0.7,0.2-1.2
			c0-1.1-0.4-1.9-1.1-2.5c-0.8-0.6-1.9-0.9-3.3-0.9c-0.6,0-1.1,0.1-1.7,0.2c-0.5,0.1-1,0.2-1.5,0.4c-0.5,0.2-0.9,0.4-1.2,0.6
			c-0.4,0.2-0.6,0.5-0.9,0.7l2,2.4c0.4-0.4,0.8-0.8,1.2-1.1c0.4-0.3,0.9-0.4,1.5-0.4c0.5,0,0.9,0.1,1.1,0.3s0.4,0.5,0.4,0.9
			c0,0.2-0.1,0.4-0.2,0.5s-0.3,0.3-0.5,0.5c-0.2,0.2-0.6,0.4-1,0.6c-0.4,0.2-0.9,0.5-1.6,0.9c-0.6,0.3-1.1,0.7-1.5,1
			s-0.7,0.7-0.9,1.1c-0.2,0.4-0.4,0.9-0.5,1.3c-0.1,0.5-0.1,1.1-0.1,1.7H-14.3z"/>
	</g>
</symbol>
<g>
	<g>
		<defs>
			<rect id="SVGID_9_" y="0" width="1200" height="1200"/>
		</defs>
		<clipPath id="SVGID_10_">
			<use xlink:href="#SVGID_9_"  style="overflow:visible;"/>
		</clipPath>
		<g class="st7">
			<g>
				<defs>
					<rect id="SVGID_11_" y="0" width="1200" height="1200"/>
				</defs>
				<clipPath id="SVGID_12_">
					<use xlink:href="#SVGID_11_"  style="overflow:visible;"/>
				</clipPath>
				<g style="clip-path:url(#SVGID_12_);">
					
						<use xlink:href="#F2"  width="83.2" height="83.2" x="-41.6" y="-41.6" transform="matrix(14.4231 0 0 14.4231 600.0001 600.0015)" style="overflow:visible;"/>
				</g>
			</g>
		</g>
	</g>
</g>
</svg>
