<?xml version="1.0" encoding="utf-8"?>
<!-- Generator: Adobe Illustrator 24.0.0, SVG Export Plug-In . SVG Version: 6.00 Build 0)  -->
<svg version="1.1" id="Calque_1" xmlns="http://www.w3.org/2000/svg" xmlns:xlink="http://www.w3.org/1999/xlink" x="0px" y="0px"
	 viewBox="0 0 604 604" style="enable-background:new 0 0 604 604;" xml:space="preserve">
<style type="text/css">
	.st0{fill:#FFFFFF;}
	.st1{fill:#0A9748;}
	.st2{fill:#DDDDDD;stroke:#231F20;stroke-width:4;stroke-miterlimit:10;}
	.st3{fill:#969696;}
	.st4{fill:#565656;}
	.st5{clip-path:url(#SVGID_2_);}
	.st6{clip-path:url(#SVGID_4_);}
	.st7{clip-path:url(#SVGID_6_);}
	.st8{clip-path:url(#SVGID_8_);}
	.st9{clip-path:url(#SVGID_10_);}
</style>
<symbol  id="_143" viewBox="-27 -27 54 54">
	<g>
		<circle id="circle553_1_" class="st0" cx="0" cy="0" r="27"/>
		<path id="path555_1_" class="st0" d="M-12.6-23.9C-8.7-25.9-4.4-27,0-27V0L-12.6-23.9z"/>
		<path id="path557_1_" class="st0" d="M-22.2-15.3c2.5-3.6,5.8-6.5,9.7-8.6L0,0L-22.2-15.3z"/>
		<path id="path559_1_" class="st0" d="M-26.8-3.3c0.5-4.3,2.1-8.5,4.6-12.1L0,0L-26.8-3.3z"/>
		<path id="path561_1_" class="st0" d="M-25.2,9.6c-1.5-4.1-2.1-8.5-1.5-12.8L0,0L-25.2,9.6z"/>
		<path id="path563_1_" class="st1" d="M-17.9,20.2c-3.3-2.9-5.8-6.5-7.4-10.6L0,0L-17.9,20.2z"/>
		<path id="path565_1_" class="st1" d="M-6.5,26.2c-4.2-1-8.2-3.1-11.4-6L0,0L-6.5,26.2z"/>
		<path id="path567_1_" class="st1" d="M6.5,26.2c-4.2,1-8.7,1-12.9,0L0,0L6.5,26.2z"/>
		<path id="path569_1_" class="st0" d="M17.9,20.2c-3.3,2.9-7.2,5-11.4,6L0,0L17.9,20.2z"/>
		<path id="path571_1_" class="st1" d="M25.2,9.6c-1.5,4.1-4.1,7.7-7.3,10.6L0,0L25.2,9.6z"/>
		<path id="path573_1_" class="st1" d="M26.8-3.3c0.5,4.3,0,8.7-1.5,12.8L0,0L26.8-3.3z"/>
		<path id="path575_1_" class="st1" d="M22.2-15.3c2.5,3.6,4.1,7.7,4.6,12.1L0,0L22.2-15.3z"/>
		<path id="path577_1_" class="st1" d="M12.5-23.9c3.9,2,7.2,5,9.7,8.6L0,0L12.5-23.9z"/>
		<path id="path579_1_" class="st1" d="M0-27c4.4,0,8.7,1.1,12.5,3.1L0,0V-27z"/>
		<circle id="circle581_1_" class="st0" cx="0" cy="0" r="20.2"/>
		<circle id="circle583_1_" class="st1" cx="0" cy="0" r="13.5"/>
		<circle id="circle585_1_" class="st0" cx="0" cy="0" r="6.8"/>
	</g>
</symbol>
<g id="carré_gris_fond">
	<path class="st2" d="M79.5,2h445C567.3,2,602,36.7,602,79.5v445c0,42.8-34.7,77.5-77.5,77.5h-445C36.7,602,2,567.3,2,524.5v-445
		C2,36.7,36.7,2,79.5,2z"/>
</g>
<g id="flèche_1">
	<path class="st3" d="M554.9,337.3c0,0,14.7-11.7,14.7-36.7s-14.7-36.7-14.7-36.7L396.1,105.3c-13.1-13.1-24-16.7-40.3-9.1
		c-16.2,7.7-17.2,26.8-17.2,26.8s0,51.5,0,66.2S325.9,203,325.9,203s-184,0.2-213.1,0.2s-29.1,29.1-29.1,29.1v136.7
		c0,0,0,29.1,29.1,29.1s213.1,0.2,213.1,0.2s12.8-0.9,12.8,13.9c0,14.7,0,66.2,0,66.2s1,19.1,17.2,26.8c16.2,7.7,27.2,4,40.3-9.1"/>
</g>
<g id="flèche_2">
	<path class="st4" d="M392.7,337.3c0,0,14.7-11.7,14.7-36.7s-14.7-36.7-14.7-36.7L233.9,105.3c-13.1-13.1-24.1-16.7-40.3-9.1
		c-16.2,7.7-17.2,26.8-17.2,26.8v66.2c0,14.7-12.8,13.9-12.8,13.9s-76.6,0.2-105.7,0.2s-29.1,29.1-29.1,29.1v136.7
		c0,0,0,29.1,29.1,29.1s105.7,0.2,105.7,0.2s12.8-0.9,12.8,13.9v66.2c0,0,1,19.1,17.2,26.8c16.2,7.7,27.2,4,40.3-9.1"/>
</g>
<g id="Code">
	<g>
		<defs>
			<rect id="SVGID_1_" x="168.8" y="168.8" width="266.4" height="266.4"/>
		</defs>
		<clipPath id="SVGID_2_">
			<use xlink:href="#SVGID_1_"  style="overflow:visible;"/>
		</clipPath>
		<g class="st5">
			<g>
				<defs>
					<rect id="SVGID_3_" x="170.3" y="170.3" width="266.4" height="266.4"/>
				</defs>
				<clipPath id="SVGID_4_">
					<use xlink:href="#SVGID_3_"  style="overflow:visible;"/>
				</clipPath>
				<g class="st6">
					<g>
						<defs>
							<rect id="SVGID_5_" x="171.8" y="170.3" width="266.4" height="266.4"/>
						</defs>
						<clipPath id="SVGID_6_">
							<use xlink:href="#SVGID_5_"  style="overflow:visible;"/>
						</clipPath>
						<g class="st7">
							<g>
								<defs>
									<rect id="SVGID_7_" x="173.4" y="171.3" width="266.4" height="266.4"/>
								</defs>
								<clipPath id="SVGID_8_">
									<use xlink:href="#SVGID_7_"  style="overflow:visible;"/>
								</clipPath>
								<g class="st8">
									<g>
										<defs>
											<rect id="SVGID_9_" x="175.1" y="172.5" width="266.3" height="266.3"/>
										</defs>
										<clipPath id="SVGID_10_">
											<use xlink:href="#SVGID_9_"  style="overflow:visible;"/>
										</clipPath>
										<g class="st9">
											
												<use xlink:href="#_143"  width="54" height="54" x="-27" y="-27" transform="matrix(-4.93 0 0 4.93 311.229 306.62)" style="overflow:visible;"/>
										</g>
									</g>
								</g>
							</g>
						</g>
					</g>
				</g>
			</g>
		</g>
	</g>
</g>
<path d="M485.5,0c39.7,0,79.3,0,119,0c-0.2,39.6-0.3,79.3-0.5,118.9C564.5,79.3,525,39.6,485.5,0z"/>
<path class="st1" d="M276.6,435.2c9.1,1.9,20.6,3.6,33.9,3.6c13.9,0.1,25.9-1.6,35.3-3.6"/>
<path class="st0" d="M279.4,435.1c0,0.2-0.1,0.4-0.1,0.6c-0.5-0.1-1.1-0.2-1.6-0.3c-0.4-0.1-0.8-0.2-1.1-0.3
	C277.4,435.1,278.4,435.1,279.4,435.1z"/>
<path class="st1" d="M334.6,403.5c0.4-0.1,0.7-0.2,1.1-0.3l7.8,32.2l-1.2,0.1C339.7,424.8,337.1,414.2,334.6,403.5z"/>
<path class="st1" d="M186.3,352.8l0.8,1.9c10.4-4.1,20.8-8.2,31.2-12.2c-0.2-0.4-0.3-0.8-0.5-1.2C207.3,345.1,196.8,349,186.3,352.8
	z"/>
<path class="st0" d="M435.2,257.4c3.2,11.5,6.3,26.7,6.7,44.8c0.5,22.2-3.1,40.6-6.7,53.6"/>
<path class="st1" d="M435.2,353.7c0.2,0.1,0.4,0.1,0.6,0.2c-0.2,0.7-0.4,1.4-0.6,2.1V353.7z"/>
</svg>
