<?xml version="1.0" encoding="utf-8"?>
<!-- Generator: Adobe Illustrator 25.2.3, SVG Export Plug-In . SVG Version: 6.00 Build 0)  -->
<svg version="1.1" id="Calque_2_1_" xmlns="http://www.w3.org/2000/svg" xmlns:xlink="http://www.w3.org/1999/xlink" x="0px"
	 y="0px" viewBox="0 0 83.2 42.1" style="enable-background:new 0 0 83.2 42.1;" xml:space="preserve">
<style type="text/css">
	.st0{fill:#FFFFFF;}
	.st1{fill:#009640;}
	.st2{fill:#FFFFFF;stroke:#1E1E1C;stroke-miterlimit:10;}
	.st3{clip-path:url(#SVGID_2_);}
	.st4{clip-path:url(#SVGID_4_);}
	.st5{fill:#3D3D3B;}
</style>
<symbol  id="_157" viewBox="-27 -27 54 54">
	<circle id="circle661_3_" class="st0" cx="0" cy="0" r="27"/>
	<path id="path663_3_" class="st0" d="M-12.6,23.9C-8.7,25.9-4.4,27,0,27V0L-12.6,23.9z"/>
	<path id="path665_3_" class="st1" d="M-22.2,15.3c2.5,3.6,5.8,6.5,9.7,8.6L0,0L-22.2,15.3z"/>
	<path id="path667_3_" class="st0" d="M-26.8,3.3c0.5,4.3,2.1,8.5,4.6,12.1L0,0L-26.8,3.3z"/>
	<path id="path669_3_" class="st0" d="M-25.2-9.6c-1.5,4.1-2.1,8.5-1.5,12.8L0,0L-25.2-9.6z"/>
	<path id="path671_3_" class="st0" d="M-17.9-20.2c-3.3,2.9-5.8,6.5-7.4,10.6L0,0L-17.9-20.2z"/>
	<path id="path673_3_" class="st1" d="M-6.5-26.2c-4.2,1-8.2,3.1-11.4,6L0,0L-6.5-26.2z"/>
	<path id="path675_3_" class="st1" d="M6.5-26.2c-4.2-1-8.7-1-12.9,0L0,0L6.5-26.2z"/>
	<path id="path677_3_" class="st0" d="M17.9-20.2c-3.3-2.9-7.2-5-11.4-6L0,0L17.9-20.2z"/>
	<path id="path679_3_" class="st1" d="M25.2-9.6c-1.5-4.1-4.1-7.7-7.3-10.6L0,0L25.2-9.6z"/>
	<path id="path681_3_" class="st1" d="M26.8,3.3c0.5-4.3,0-8.7-1.5-12.8L0,0L26.8,3.3z"/>
	<path id="path683_3_" class="st1" d="M22.2,15.3c2.5-3.6,4.1-7.7,4.6-12.1L0,0L22.2,15.3z"/>
	<path id="path685_3_" class="st1" d="M12.5,23.9c3.9-2,7.2-5,9.7-8.6L0,0L12.5,23.9z"/>
	<path id="path687_3_" class="st1" d="M0,27c4.4,0,8.7-1.1,12.5-3.1L0,0V27z"/>
	<circle id="circle689_3_" class="st0" cx="0" cy="0" r="20.2"/>
	<circle id="circle691_3_" class="st1" cx="0" cy="0" r="13.5"/>
	<circle id="circle693_3_" class="st0" cx="0" cy="0" r="6.8"/>
</symbol>
<symbol  id="Condition_Vide" viewBox="-41.6 -21 83.2 42.1">
	<path class="st2" d="M-35.4-20.5h70.9c3.1,0,5.7,2.5,5.7,5.7v29.8c0,3.1-2.5,5.7-5.7,5.7h-70.9c-3.1,0-5.7-2.5-5.7-5.7v-29.8
		C-41.1-18-38.6-20.5-35.4-20.5z"/>
	<g>
		<defs>
			<rect id="SVGID_1_" x="-1.7" y="-19.8" width="39.4" height="39.4"/>
		</defs>
		<clipPath id="SVGID_2_">
			<use xlink:href="#SVGID_1_"  style="overflow:visible;"/>
		</clipPath>
		<g class="st3">
			<g>
				<defs>
					<rect id="SVGID_3_" x="-1.4" y="-20" width="39.4" height="39.4"/>
				</defs>
				<clipPath id="SVGID_4_">
					<use xlink:href="#SVGID_3_"  style="overflow:visible;"/>
				</clipPath>
				<g class="st4">
					<g>
						<defs>
							<rect id="SVGID_5_" x="-1.2" y="-20" width="39.4" height="39.4"/>
						</defs>
						<clipPath id="SVGID_6_">
							<use xlink:href="#SVGID_5_"  style="overflow:visible;"/>
						</clipPath>
						<g style="clip-path:url(#SVGID_6_);">
							
								<use xlink:href="#_157"  width="54" height="54" x="-27" y="-27" transform="matrix(-0.73 0 0 0.73 18.762 -0.5098)" style="overflow:visible;"/>
						</g>
					</g>
				</g>
			</g>
		</g>
	</g>
	<text transform="matrix(1 0 0 1 -39.73 17.1709)" style="fill:#1E1E1C; font-family:'Raleway-Regular'; font-size:11.41px;">VIDE</text>
	<g id="Calque_2-2_1_">
		<path class="st5" d="M-7.6-16h-26.2c-1.1,0-2,0.9-2,2V4.6c0,1.1,0.9,2,2,2h5v-17h16.2v17h5c1.1,0,2-0.9,2-2V-14
			C-5.6-15.1-6.5-16-7.6-16z"/>
	</g>
</symbol>
<use xlink:href="#Condition_Vide"  width="83.2" height="42.1" x="-41.6" y="-21" transform="matrix(1 0 0 1 41.6 20.6904)" style="overflow:visible;"/>
</svg>
