<?xml version="1.0" encoding="utf-8"?>
<!-- Generator: Adobe Illustrator 25.2.3, SVG Export Plug-In . SVG Version: 6.00 Build 0)  -->
<svg version="1.1" id="Calque_2_1_" xmlns="http://www.w3.org/2000/svg" xmlns:xlink="http://www.w3.org/1999/xlink" x="0px"
	 y="0px" viewBox="0 0 1200 600" style="enable-background:new 0 0 1200 600;" xml:space="preserve" width="1400px" height="700px">
<style type="text/css">
	.st0{fill:#FFFFFF;}
	.st1{fill:#009640;}
	.st2{fill:#FFFFFF;stroke:#1E1E1C;stroke-miterlimit:10;}
	.st3{clip-path:url(#SVGID_2_);}
	.st4{clip-path:url(#SVGID_4_);}
	.st5{clip-path:url(#SVGID_6_);}
	.st6{enable-background:new    ;}
	.st7{fill:#1E1E1C;}
	.st8{fill:#3D3D3B;}
</style>
<symbol  id="_157" viewBox="-27 -27 54 54">
	<circle id="circle661_1_" class="st0" cx="0" cy="0" r="27"/>
	<path id="path663_1_" class="st0" d="M-12.6,23.9C-8.7,25.9-4.4,27,0,27V0L-12.6,23.9z"/>
	<path id="path665_1_" class="st1" d="M-22.2,15.3c2.5,3.6,5.8,6.5,9.7,8.6L0,0L-22.2,15.3z"/>
	<path id="path667_1_" class="st0" d="M-26.8,3.3c0.5,4.3,2.1,8.5,4.6,12.1L0,0L-26.8,3.3z"/>
	<path id="path669_1_" class="st0" d="M-25.2-9.6c-1.5,4.1-2.1,8.5-1.5,12.8L0,0L-25.2-9.6z"/>
	<path id="path671_1_" class="st0" d="M-17.9-20.2c-3.3,2.9-5.8,6.5-7.4,10.6L0,0L-17.9-20.2z"/>
	<path id="path673_1_" class="st1" d="M-6.5-26.2c-4.2,1-8.2,3.1-11.4,6L0,0L-6.5-26.2z"/>
	<path id="path675_1_" class="st1" d="M6.5-26.2c-4.2-1-8.7-1-12.9,0L0,0L6.5-26.2z"/>
	<path id="path677_1_" class="st0" d="M17.9-20.2c-3.3-2.9-7.2-5-11.4-6L0,0L17.9-20.2z"/>
	<path id="path679_1_" class="st1" d="M25.2-9.6c-1.5-4.1-4.1-7.7-7.3-10.6L0,0L25.2-9.6z"/>
	<path id="path681_1_" class="st1" d="M26.8,3.3c0.5-4.3,0-8.7-1.5-12.8L0,0L26.8,3.3z"/>
	<path id="path683_1_" class="st1" d="M22.2,15.3c2.5-3.6,4.1-7.7,4.6-12.1L0,0L22.2,15.3z"/>
	<path id="path685_1_" class="st1" d="M12.5,23.9c3.9-2,7.2-5,9.7-8.6L0,0L12.5,23.9z"/>
	<path id="path687_1_" class="st1" d="M0,27c4.4,0,8.7-1.1,12.5-3.1L0,0V27z"/>
	<circle id="circle689_1_" class="st0" cx="0" cy="0" r="20.2"/>
	<circle id="circle691_1_" class="st1" cx="0" cy="0" r="13.5"/>
	<circle id="circle693_1_" class="st0" cx="0" cy="0" r="6.8"/>
</symbol>
<symbol  id="Condition_Vide" viewBox="-41.7 -21.1 83.3 42.2">
	<path class="st2" d="M-35.5-20.6h70.9c3.1,0,5.7,2.5,5.7,5.7v29.8c0,3.1-2.5,5.7-5.7,5.7h-70.9c-3.1,0-5.7-2.5-5.7-5.7v-29.8
		C-41.1-18.1-38.6-20.6-35.5-20.6z"/>
	<g>
		<g>
			<defs>
				<rect id="SVGID_1_" x="-1.7" y="-19.9" width="39.4" height="39.4"/>
			</defs>
			<clipPath id="SVGID_2_">
				<use xlink:href="#SVGID_1_"  style="overflow:visible;"/>
			</clipPath>
			<g class="st3">
				<g>
					<g>
						<defs>
							<rect id="SVGID_3_" x="-1.4" y="-20.1" width="39.4" height="39.4"/>
						</defs>
						<clipPath id="SVGID_4_">
							<use xlink:href="#SVGID_3_"  style="overflow:visible;"/>
						</clipPath>
						<g class="st4">
							<g>
								<g>
									<defs>
										<rect id="SVGID_5_" x="-1.2" y="-20.1" width="39.4" height="39.4"/>
									</defs>
									<clipPath id="SVGID_6_">
										<use xlink:href="#SVGID_5_"  style="overflow:visible;"/>
									</clipPath>
									<g class="st5">
										<g>
											<defs>
												<rect id="SVGID_7_" x="-1" y="-20.3" width="39.4" height="39.4"/>
											</defs>
											<clipPath id="SVGID_8_">
												<use xlink:href="#SVGID_7_"  style="overflow:visible;"/>
											</clipPath>
											<g style="clip-path:url(#SVGID_8_);">
												
													<use xlink:href="#_157"  width="54" height="54" x="-27" y="-27" transform="matrix(-0.73 0 0 0.73 18.931 -0.7558)" style="overflow:visible;"/>
											</g>
										</g>
									</g>
								</g>
							</g>
						</g>
					</g>
				</g>
			</g>
		</g>
	</g>
	<g class="st6">
		<path class="st7" d="M-39.6,9l3.4,8.1h0.7l3.4-8.1H-33l-2.9,7.1L-38.8,9H-39.6z"/>
		<path class="st7" d="M-30.2,17.1V9H-31v8.1H-30.2z"/>
		<path class="st7" d="M-25.4,17.1c0.6,0,1.1-0.1,1.6-0.3c0.5-0.2,0.9-0.5,1.2-0.8c0.3-0.4,0.6-0.8,0.8-1.3c0.2-0.5,0.3-1.1,0.3-1.7
			c0-0.6-0.1-1.1-0.2-1.6s-0.4-0.9-0.7-1.3c-0.3-0.4-0.7-0.7-1.2-0.9c-0.5-0.2-1-0.3-1.7-0.3h-2.7v8.1H-25.4z M-22.6,14.3
			c-0.1,0.4-0.3,0.8-0.6,1.1c-0.3,0.3-0.6,0.5-1,0.7c-0.4,0.2-0.8,0.3-1.3,0.3h-2V9.7h2c0.5,0,0.9,0.1,1.3,0.2
			c0.4,0.2,0.7,0.4,1,0.7c0.3,0.3,0.5,0.6,0.6,1.1c0.1,0.4,0.2,0.9,0.2,1.3C-22.4,13.5-22.4,13.9-22.6,14.3z"/>
		<path class="st7" d="M-19.2,16.4v-3.1h4v-0.7h-4V9.7h4.5V9H-20v8.1h5.4v-0.7H-19.2z"/>
	</g>
	<g id="Calque_2-2_3_">
		<path class="st8" d="M-7.6-16.1h-26.2c-1.1,0-2,0.9-2,2V4.5c0,1.1,0.9,2,2,2h5v-17h16.2v17h5c1.1,0,2-0.9,2-2v-18.6
			C-5.6-15.2-6.5-16.1-7.6-16.1z"/>
	</g>
</symbol>
<g>
	<defs>
		<rect id="SVGID_9_" x="7.1" y="-4.4" width="1185.7" height="600"/>
	</defs>
	<clipPath id="SVGID_10_">
		<use xlink:href="#SVGID_9_"  style="overflow:visible;"/>
	</clipPath>
	<g style="clip-path:url(#SVGID_10_);">
		
			<use xlink:href="#Condition_Vide"  width="83.3" height="42.2" x="-41.7" y="-21.1" transform="matrix(14.2518 0 0 14.2518 600.7126 289.0062)" style="overflow:visible;"/>
	</g>
</g>
</svg>
