<?xml version="1.0" encoding="utf-8"?>
<!-- Generator: Adobe Illustrator 25.2.3, SVG Export Plug-In . SVG Version: 6.00 Build 0)  -->
<svg version="1.1" id="Calque_2_1_" xmlns="http://www.w3.org/2000/svg" xmlns:xlink="http://www.w3.org/1999/xlink" x="0px"
	 y="0px" viewBox="0 0 83.2 42.1" style="enable-background:new 0 0 83.2 42.1;" xml:space="preserve" width="1200px" height="600px">
<style type="text/css">
	.st0{fill:#FFFFFF;}
	.st1{fill:#009640;}
	.st2{fill:#FFFFFF;stroke:#1E1E1C;stroke-miterlimit:10;}
	.st3{fill:#3D3D3B;}
	.st4{fill:#FFCC07;}
	.st5{clip-path:url(#SVGID_2_);}
	.st6{clip-path:url(#SVGID_4_);}
</style>
<symbol  id="_167" viewBox="-27 -27 54 54">
	<circle id="circle697_3_" class="st0" cx="0" cy="0" r="27"/>
	<path id="path699_3_" class="st0" d="M-12.6,23.9C-8.7,25.9-4.4,27,0,27V0L-12.6,23.9z"/>
	<path id="path701_3_" class="st0" d="M-22.2,15.3c2.5,3.6,5.8,6.5,9.7,8.6L0,0L-22.2,15.3z"/>
	<path id="path703_3_" class="st0" d="M-26.8,3.3c0.5,4.3,2.1,8.5,4.6,12.1L0,0L-26.8,3.3z"/>
	<path id="path705_3_" class="st1" d="M-25.2-9.6c-1.5,4.1-2.1,8.5-1.5,12.8L0,0L-25.2-9.6z"/>
	<path id="path707_3_" class="st1" d="M-17.9-20.2c-3.3,2.9-5.8,6.5-7.4,10.6L0,0L-17.9-20.2z"/>
	<path id="path709_3_" class="st0" d="M-6.5-26.2c-4.2,1-8.2,3.1-11.4,6L0,0L-6.5-26.2z"/>
	<path id="path711_3_" class="st1" d="M6.5-26.2c-4.2-1-8.7-1-12.9,0L0,0L6.5-26.2z"/>
	<path id="path713_3_" class="st0" d="M17.9-20.2c-3.3-2.9-7.2-5-11.4-6L0,0L17.9-20.2z"/>
	<path id="path715_3_" class="st1" d="M25.2-9.6c-1.5-4.1-4.1-7.7-7.3-10.6L0,0L25.2-9.6z"/>
	<path id="path717_3_" class="st1" d="M26.8,3.3c0.5-4.3,0-8.7-1.5-12.8L0,0L26.8,3.3z"/>
	<path id="path719_3_" class="st1" d="M22.2,15.3c2.5-3.6,4.1-7.7,4.6-12.1L0,0L22.2,15.3z"/>
	<path id="path721_3_" class="st1" d="M12.5,23.9c3.9-2,7.2-5,9.7-8.6L0,0L12.5,23.9z"/>
	<path id="path723_3_" class="st1" d="M0,27c4.4,0,8.7-1.1,12.5-3.1L0,0V27z"/>
	<circle id="circle725_3_" class="st0" cx="0" cy="0" r="20.2"/>
	<circle id="circle727_3_" class="st1" cx="0" cy="0" r="13.5"/>
	<circle id="circle729_3_" class="st0" cx="0" cy="0" r="6.8"/>
</symbol>
<symbol  id="Condition_Jaune" viewBox="-41.6 -21 83.2 42.1">
	<path class="st2" d="M-35.4-20.5h70.9c3.1,0,5.7,2.5,5.7,5.7v29.8c0,3.1-2.5,5.7-5.7,5.7h-70.9c-3.1,0-5.7-2.5-5.7-5.7v-29.8
		C-41.1-18-38.6-20.5-35.4-20.5z"/>
	<g>
		<text transform="matrix(1.04 0 0 1 -38.48 18.001)" style="fill:#1E1E1C; font-family:'Raleway-Regular'; font-size:10.51px;">J</text>
		<text transform="matrix(1.04 0 0 1 -33.3799 18.001)" style="fill:#1E1E1C; font-family:'Raleway-Regular'; font-size:10.51px;">A</text>
		<text transform="matrix(1.04 0 0 1 -26.3301 18.001)" style="fill:#1E1E1C; font-family:'Raleway-Regular'; font-size:10.51px;">UNE</text>
	</g>
	<path class="st3" d="M-32.1-16.6h24.8c1.1,0,2,0.9,2,2V4.2c0,1.1-0.9,2-2,2h-24.8c-1.1,0-2-0.9-2-2v-18.8
		C-34.1-15.7-33.2-16.6-32.1-16.6z"/>
	<rect x="-27.4" y="-11" class="st4" width="15.5" height="17.2"/>
	<g>
		<defs>
			<rect id="SVGID_1_" x="-2.5" y="-19.8" width="39.4" height="39.4"/>
		</defs>
		<clipPath id="SVGID_2_">
			<use xlink:href="#SVGID_1_"  style="overflow:visible;"/>
		</clipPath>
		<g class="st5">
			<g>
				<defs>
					<rect id="SVGID_3_" x="-2.2" y="-20" width="39.4" height="39.4"/>
				</defs>
				<clipPath id="SVGID_4_">
					<use xlink:href="#SVGID_3_"  style="overflow:visible;"/>
				</clipPath>
				<g class="st6">
					<g>
						<defs>
							<rect id="SVGID_5_" x="-2" y="-20" width="39.4" height="39.4"/>
						</defs>
						<clipPath id="SVGID_6_">
							<use xlink:href="#SVGID_5_"  style="overflow:visible;"/>
						</clipPath>
						<g style="clip-path:url(#SVGID_6_);">
							
								<use xlink:href="#_167"  width="54" height="54" x="-27" y="-27" transform="matrix(-0.73 0 0 0.73 17.952 -0.4998)" style="overflow:visible;"/>
						</g>
					</g>
				</g>
			</g>
		</g>
	</g>
</symbol>
<use xlink:href="#Condition_Jaune"  width="83.2" height="42.1" x="-41.6" y="-21" transform="matrix(1 0 0 1 41.6 20.7004)" style="overflow:visible;"/>
</svg>
