<?xml version="1.0" encoding="utf-8"?>
<!-- Generator: Adobe Illustrator 25.2.3, SVG Export Plug-In . SVG Version: 6.00 Build 0)  -->
<svg version="1.1" id="Calque_2_1_" xmlns="http://www.w3.org/2000/svg" xmlns:xlink="http://www.w3.org/1999/xlink" x="0px"
	 y="0px" viewBox="0 0 1200 600" style="enable-background:new 0 0 1200 600;" xml:space="preserve" width="1400px" height="700px">
<style type="text/css">
	.st0{fill:#FFFFFF;}
	.st1{fill:#009640;}
	.st2{fill:#FFFFFF;stroke:#1E1E1C;stroke-miterlimit:10;}
	.st3{enable-background:new    ;}
	.st4{fill:#1E1E1C;}
	.st5{fill:#3D3D3B;}
	.st6{fill:#FFCC07;}
	.st7{clip-path:url(#SVGID_2_);}
	.st8{clip-path:url(#SVGID_4_);}
	.st9{clip-path:url(#SVGID_6_);}
</style>
<symbol  id="_167" viewBox="-27 -27 54 54">
	<circle id="circle697_1_" class="st0" cx="0" cy="0" r="27"/>
	<path id="path699_1_" class="st0" d="M-12.6,23.9C-8.7,25.9-4.4,27,0,27V0L-12.6,23.9z"/>
	<path id="path701_1_" class="st0" d="M-22.2,15.3c2.5,3.6,5.8,6.5,9.7,8.6L0,0L-22.2,15.3z"/>
	<path id="path703_1_" class="st0" d="M-26.8,3.3c0.5,4.3,2.1,8.5,4.6,12.1L0,0L-26.8,3.3z"/>
	<path id="path705_1_" class="st1" d="M-25.2-9.6c-1.5,4.1-2.1,8.5-1.5,12.8L0,0L-25.2-9.6z"/>
	<path id="path707_1_" class="st1" d="M-17.9-20.2c-3.3,2.9-5.8,6.5-7.4,10.6L0,0L-17.9-20.2z"/>
	<path id="path709_1_" class="st0" d="M-6.5-26.2c-4.2,1-8.2,3.1-11.4,6L0,0L-6.5-26.2z"/>
	<path id="path711_1_" class="st1" d="M6.5-26.2c-4.2-1-8.7-1-12.9,0L0,0L6.5-26.2z"/>
	<path id="path713_1_" class="st0" d="M17.9-20.2c-3.3-2.9-7.2-5-11.4-6L0,0L17.9-20.2z"/>
	<path id="path715_1_" class="st1" d="M25.2-9.6c-1.5-4.1-4.1-7.7-7.3-10.6L0,0L25.2-9.6z"/>
	<path id="path717_1_" class="st1" d="M26.8,3.3c0.5-4.3,0-8.7-1.5-12.8L0,0L26.8,3.3z"/>
	<path id="path719_1_" class="st1" d="M22.2,15.3c2.5-3.6,4.1-7.7,4.6-12.1L0,0L22.2,15.3z"/>
	<path id="path721_1_" class="st1" d="M12.5,23.9c3.9-2,7.2-5,9.7-8.6L0,0L12.5,23.9z"/>
	<path id="path723_1_" class="st1" d="M0,27c4.4,0,8.7-1.1,12.5-3.1L0,0V27z"/>
	<circle id="circle725_1_" class="st0" cx="0" cy="0" r="20.2"/>
	<circle id="circle727_1_" class="st1" cx="0" cy="0" r="13.5"/>
	<circle id="circle729_1_" class="st0" cx="0" cy="0" r="6.8"/>
</symbol>
<symbol  id="Condition_Jaune" viewBox="-41.7 -21.1 83.3 42.2">
	<path class="st2" d="M-35.5-20.6h70.9c3.1,0,5.7,2.5,5.7,5.7v29.8c0,3.1-2.5,5.7-5.7,5.7h-70.9c-3.1,0-5.7-2.5-5.7-5.7v-29.8
		C-41.1-18.1-38.6-20.6-35.5-20.6z"/>
	<g>
		<g class="st3">
			<path class="st4" d="M-38.4,17.6c0.5,0.3,1,0.5,1.7,0.5c0.6,0,1-0.1,1.4-0.3c0.3-0.2,0.6-0.4,0.8-0.8c0.2-0.3,0.3-0.7,0.3-1.2
				c0.1-0.5,0.1-1,0.1-1.5v-3.8h-0.8v3.8c0,0.5,0,0.9-0.1,1.3c0,0.4-0.1,0.7-0.2,1c-0.1,0.3-0.3,0.5-0.5,0.6
				c-0.2,0.1-0.6,0.2-0.9,0.2c-0.3,0-0.6,0-0.8-0.1s-0.5-0.2-0.6-0.3L-38.4,17.6z"/>
		</g>
		<g class="st3">
			<path class="st4" d="M-33.3,17.9h0.8l1-2.3h3.5l1,2.3h0.8l-3.2-7.5h-0.6L-33.3,17.9z M-31.3,15l1.6-3.7l1.6,3.7H-31.3z"/>
		</g>
		<g class="st3">
			<path class="st4" d="M-23.5,17c-0.3-0.2-0.6-0.4-0.8-0.7c-0.2-0.3-0.3-0.6-0.4-1s-0.1-0.8-0.1-1.1v-3.8h-0.8v3.8
				c0,0.5,0.1,0.9,0.2,1.4c0.1,0.4,0.3,0.8,0.5,1.2c0.3,0.4,0.6,0.6,1,0.8s0.9,0.3,1.5,0.3c0.6,0,1.1-0.1,1.5-0.3
				c0.4-0.2,0.8-0.5,1-0.8c0.3-0.3,0.4-0.7,0.6-1.2c0.1-0.5,0.2-0.9,0.2-1.4v-3.8h-0.8v3.8c0,0.4,0,0.8-0.1,1.1
				c-0.1,0.4-0.2,0.7-0.4,1c-0.2,0.3-0.5,0.5-0.8,0.7s-0.7,0.3-1.2,0.3C-22.7,17.3-23.1,17.2-23.5,17z"/>
			<path class="st4" d="M-11.3,17.9h0.7v-7.5h-0.8v6.2l-5.1-6.2h-0.6v7.5h0.8v-6.1L-11.3,17.9z"/>
			<path class="st4" d="M-8,17.3v-2.8h3.8v-0.6H-8v-2.7h4.4v-0.7h-5.1v7.5h5.2v-0.7H-8z"/>
		</g>
	</g>
	<path class="st5" d="M-32.1-16.7h24.8c1.1,0,2,0.9,2,2V4.1c0,1.1-0.9,2-2,2h-24.8c-1.1,0-2-0.9-2-2v-18.8
		C-34.1-15.8-33.2-16.7-32.1-16.7z"/>
	<rect x="-27.4" y="-11.1" class="st6" width="15.5" height="17.2"/>
	<g>
		<g>
			<defs>
				<rect id="SVGID_1_" x="-2.5" y="-19.9" width="39.4" height="39.4"/>
			</defs>
			<clipPath id="SVGID_2_">
				<use xlink:href="#SVGID_1_"  style="overflow:visible;"/>
			</clipPath>
			<g class="st7">
				<g>
					<g>
						<defs>
							<rect id="SVGID_3_" x="-2.2" y="-20.1" width="39.4" height="39.4"/>
						</defs>
						<clipPath id="SVGID_4_">
							<use xlink:href="#SVGID_3_"  style="overflow:visible;"/>
						</clipPath>
						<g class="st8">
							<g>
								<g>
									<defs>
										<rect id="SVGID_5_" x="-2" y="-20.1" width="39.4" height="39.4"/>
									</defs>
									<clipPath id="SVGID_6_">
										<use xlink:href="#SVGID_5_"  style="overflow:visible;"/>
									</clipPath>
									<g class="st9">
										<g>
											<defs>
												<rect id="SVGID_7_" x="-1.8" y="-20.3" width="39.4" height="39.4"/>
											</defs>
											<clipPath id="SVGID_8_">
												<use xlink:href="#SVGID_7_"  style="overflow:visible;"/>
											</clipPath>
											<g style="clip-path:url(#SVGID_8_);">
												
													<use xlink:href="#_167"  width="54" height="54" x="-27" y="-27" transform="matrix(-0.73 0 0 0.73 18.121 -0.7458)" style="overflow:visible;"/>
											</g>
										</g>
									</g>
								</g>
							</g>
						</g>
					</g>
				</g>
			</g>
		</g>
	</g>
</symbol>
<g>
	<defs>
		<rect id="SVGID_9_" x="7.1" y="-4.3" width="1185.7" height="600"/>
	</defs>
	<clipPath id="SVGID_10_">
		<use xlink:href="#SVGID_9_"  style="overflow:visible;"/>
	</clipPath>
	<g style="clip-path:url(#SVGID_10_);">
		
			<use xlink:href="#Condition_Jaune"  width="83.3" height="42.2" x="-41.7" y="-21.1" transform="matrix(14.2518 0 0 14.2518 600.7126 289.2912)" style="overflow:visible;"/>
	</g>
</g>
</svg>
