<?xml version="1.0" encoding="utf-8"?>
<!-- Generator: Adobe Illustrator 25.2.3, SVG Export Plug-In . SVG Version: 6.00 Build 0)  -->
<svg version="1.1" id="Calque_2_1_" xmlns="http://www.w3.org/2000/svg" xmlns:xlink="http://www.w3.org/1999/xlink" x="0px"
	 y="0px" viewBox="0 0 1200 600" style="enable-background:new 0 0 1200 600;" xml:space="preserve" width="1400px" height="700px">
<style type="text/css">
	.st0{fill:#FFFFFF;}
	.st1{fill:#009640;}
	.st2{fill:#FFFFFF;stroke:#1E1E1C;stroke-miterlimit:10;}
	.st3{enable-background:new    ;}
	.st4{fill:#1E1E1C;}
	.st5{fill:#3D3D3B;}
	.st6{fill:#E6332A;}
	.st7{clip-path:url(#SVGID_2_);}
	.st8{clip-path:url(#SVGID_4_);}
</style>
<symbol  id="_173" viewBox="-27 -27 54 54">
	<circle id="circle769_1_" class="st0" cx="0" cy="0" r="27"/>
	<path id="path771_1_" class="st0" d="M-12.6-23.9C-8.7-25.9-4.4-27,0-27V0L-12.6-23.9z"/>
	<path id="path773_1_" class="st1" d="M-22.2-15.3c2.5-3.6,5.8-6.5,9.7-8.6L0,0L-22.2-15.3z"/>
	<path id="path775_1_" class="st0" d="M-26.8-3.3c0.5-4.3,2.1-8.5,4.6-12.1L0,0L-26.8-3.3z"/>
	<path id="path777_1_" class="st0" d="M-25.2,9.6c-1.5-4.1-2.1-8.5-1.5-12.8L0,0L-25.2,9.6z"/>
	<path id="path779_1_" class="st1" d="M-17.9,20.2c-3.3-2.9-5.8-6.5-7.4-10.6L0,0L-17.9,20.2z"/>
	<path id="path781_1_" class="st0" d="M-6.5,26.2c-4.2-1-8.2-3.1-11.4-6L0,0L-6.5,26.2z"/>
	<path id="path783_1_" class="st1" d="M6.5,26.2c-4.2,1-8.7,1-12.9,0L0,0L6.5,26.2z"/>
	<path id="path785_1_" class="st0" d="M17.9,20.2c-3.3,2.9-7.2,5-11.4,6L0,0L17.9,20.2z"/>
	<path id="path787_1_" class="st1" d="M25.2,9.6c-1.5,4.1-4.1,7.7-7.3,10.6L0,0L25.2,9.6z"/>
	<path id="path789_1_" class="st1" d="M26.8-3.3c0.5,4.3,0,8.7-1.5,12.8L0,0L26.8-3.3z"/>
	<path id="path791_1_" class="st1" d="M22.2-15.3c2.5,3.6,4.1,7.7,4.6,12.1L0,0L22.2-15.3z"/>
	<path id="path793_1_" class="st1" d="M12.5-23.9c3.9,2,7.2,5,9.7,8.6L0,0L12.5-23.9z"/>
	<path id="path795_1_" class="st1" d="M0-27c4.4,0,8.7,1.1,12.5,3.1L0,0V-27z"/>
	<circle id="circle797_1_" class="st0" cx="0" cy="0" r="20.2"/>
	<circle id="circle799_1_" class="st1" cx="0" cy="0" r="13.5"/>
	<circle id="circle801_1_" class="st0" cx="0" cy="0" r="6.8"/>
</symbol>
<symbol  id="Condition_Red" viewBox="-41.7 -21.1 83.3 42.2">
	<path class="st2" d="M-35.5-20.6h70.9c3.1,0,5.7,2.5,5.7,5.7v29.8c0,3.1-2.5,5.7-5.7,5.7h-70.9c-3.1,0-5.7-2.5-5.7-5.7v-29.8
		C-41.1-18.1-38.6-20.6-35.5-20.6z"/>
	<g class="st3">
		<path class="st4" d="M-38.6-17.7v7.5h3.3c0.3,0,0.6-0.1,0.9-0.2c0.3-0.1,0.5-0.3,0.7-0.5s0.4-0.5,0.5-0.8c0.1-0.3,0.2-0.6,0.2-0.9
			c0-0.3,0-0.5-0.1-0.8c-0.1-0.2-0.2-0.5-0.3-0.7c-0.1-0.2-0.3-0.4-0.5-0.5s-0.4-0.2-0.7-0.3l1.9-2.9h-0.9l-1.8,2.8h-2.3v-2.8H-38.6
			z M-37.9-14.3h2.5c0.2,0,0.4,0,0.6,0.1c0.2,0.1,0.3,0.2,0.5,0.4c0.1,0.2,0.2,0.3,0.3,0.5s0.1,0.4,0.1,0.6c0,0.2,0,0.4-0.1,0.6
			c-0.1,0.2-0.2,0.4-0.3,0.5s-0.3,0.3-0.5,0.4c-0.2,0.1-0.4,0.1-0.6,0.1h-2.5V-14.3z"/>
		<path class="st4" d="M-28.4-17.7c-0.5,0-1,0.1-1.5,0.3c-0.4,0.2-0.8,0.5-1.2,0.9c-0.3,0.4-0.6,0.8-0.7,1.2
			c-0.2,0.5-0.3,0.9-0.3,1.4c0,0.5,0.1,1,0.3,1.4c0.2,0.5,0.4,0.9,0.8,1.2c0.3,0.4,0.7,0.6,1.2,0.8c0.4,0.2,0.9,0.3,1.4,0.3
			c0.5,0,1-0.1,1.5-0.3s0.8-0.5,1.1-0.9c0.3-0.4,0.6-0.8,0.7-1.2c0.2-0.5,0.3-0.9,0.3-1.4c0-0.5-0.1-1-0.3-1.4
			c-0.2-0.5-0.4-0.9-0.8-1.2s-0.7-0.6-1.2-0.8C-27.4-17.6-27.9-17.7-28.4-17.7z M-31.2-13.9c0-0.4,0.1-0.8,0.2-1.2
			c0.1-0.4,0.3-0.7,0.6-1c0.3-0.3,0.6-0.5,0.9-0.7c0.4-0.2,0.7-0.3,1.2-0.3c0.4,0,0.8,0.1,1.2,0.3c0.4,0.2,0.7,0.4,0.9,0.7
			c0.2,0.3,0.4,0.6,0.6,1c0.1,0.4,0.2,0.8,0.2,1.1c0,0.4-0.1,0.8-0.2,1.2c-0.1,0.4-0.3,0.7-0.6,1c-0.3,0.3-0.6,0.5-0.9,0.7
			c-0.3,0.2-0.7,0.3-1.2,0.3c-0.4,0-0.8-0.1-1.2-0.3c-0.4-0.2-0.7-0.4-0.9-0.7c-0.2-0.3-0.4-0.6-0.6-1S-31.2-13.6-31.2-13.9z"/>
		<path class="st4" d="M-20.1-17.1c0.5,0,0.9,0.1,1.2,0.3s0.6,0.4,0.8,0.7c0.2,0.3,0.3,0.6,0.4,1c0.1,0.4,0.1,0.7,0.1,1.1v3.8h0.8
			V-14c0-0.5-0.1-1-0.2-1.4c-0.1-0.5-0.3-0.8-0.6-1.2c-0.3-0.3-0.6-0.6-1-0.8c-0.4-0.2-0.9-0.3-1.5-0.3c-0.6,0-1.1,0.1-1.5,0.3
			s-0.8,0.5-1,0.8c-0.3,0.3-0.4,0.7-0.5,1.2c-0.1,0.4-0.2,0.9-0.2,1.4v3.8h0.8V-14c0-0.4,0-0.8,0.1-1.1s0.2-0.7,0.4-1
			c0.2-0.3,0.4-0.5,0.8-0.7C-21-17-20.6-17.1-20.1-17.1z"/>
		<path class="st4" d="M-9.4-16.6c-0.7-0.8-1.6-1.1-2.5-1.1c-0.5,0-1,0.1-1.4,0.3c-0.4,0.2-0.8,0.5-1.1,0.9
			c-0.3,0.4-0.6,0.8-0.8,1.2c-0.2,0.5-0.3,0.9-0.3,1.4c0,0.5,0.1,1,0.3,1.4c0.2,0.5,0.4,0.9,0.7,1.2s0.7,0.6,1.1,0.8
			c0.4,0.2,0.9,0.3,1.4,0.3c0.4,0,0.7,0,1-0.1c0.3-0.1,0.6-0.2,0.8-0.3s0.5-0.3,0.6-0.5c0.2-0.2,0.3-0.4,0.5-0.7l-0.6-0.4
			c-0.3,0.5-0.6,0.8-1,1c-0.4,0.2-0.9,0.3-1.4,0.3c-0.4,0-0.8-0.1-1.2-0.3c-0.3-0.2-0.6-0.4-0.9-0.7s-0.4-0.6-0.6-1
			s-0.2-0.8-0.2-1.2c0-0.4,0.1-0.8,0.2-1.2c0.1-0.4,0.4-0.7,0.6-1c0.3-0.3,0.6-0.5,0.9-0.7c0.4-0.2,0.7-0.3,1.2-0.3
			c0.4,0,0.9,0.1,1.3,0.3c0.4,0.2,0.8,0.5,1.2,1v1.2h-1.7v0.6h2.4v-3.7h-0.6V-16.6z"/>
		<path class="st4" d="M-2-17v-0.7h-5.2v7.5h5.1v-0.7h-4.4v-2.7h3.8v-0.6h-3.8V-17H-2z"/>
	</g>
	<path class="st5" d="M-32.5-6.5h24.8c1.1,0,2,0.9,2,2v18.8c0,1.1-0.9,2-2,2h-24.8c-1.1,0-2-0.9-2-2V-4.5
		C-34.5-5.6-33.6-6.5-32.5-6.5z"/>
	<rect x="-27.9" y="-6.5" class="st6" width="15.5" height="17.2"/>
	<g>
		<g>
			<defs>
				<rect id="SVGID_1_" x="-2.6" y="-19.7" width="39.4" height="39.4"/>
			</defs>
			<clipPath id="SVGID_2_">
				<use xlink:href="#SVGID_1_"  style="overflow:visible;"/>
			</clipPath>
			<g class="st7">
				<g>
					<g>
						<defs>
							<rect id="SVGID_3_" x="-2.4" y="-19.5" width="39.4" height="39.4"/>
						</defs>
						<clipPath id="SVGID_4_">
							<use xlink:href="#SVGID_3_"  style="overflow:visible;"/>
						</clipPath>
						<g class="st8">
							<g>
								<defs>
									<rect id="SVGID_5_" x="-2.2" y="-19.5" width="39.4" height="39.4"/>
								</defs>
								<clipPath id="SVGID_6_">
									<use xlink:href="#SVGID_5_"  style="overflow:visible;"/>
								</clipPath>
								<g style="clip-path:url(#SVGID_6_);">
									
										<use xlink:href="#_173"  width="54" height="54" x="-27" y="-27" transform="matrix(-0.73 0 0 0.73 17.771 0.2191)" style="overflow:visible;"/>
								</g>
							</g>
						</g>
					</g>
				</g>
			</g>
		</g>
	</g>
</symbol>
<g>
	<defs>
		<rect id="SVGID_7_" x="7.1" y="-0.7" width="1185.7" height="600"/>
	</defs>
	<clipPath id="SVGID_8_">
		<use xlink:href="#SVGID_7_"  style="overflow:visible;"/>
	</clipPath>
	<g style="clip-path:url(#SVGID_8_);">
		
			<use xlink:href="#Condition_Red"  width="83.3" height="42.2" x="-41.7" y="-21.1" transform="matrix(14.2518 0 0 -14.2518 600.7126 298.5748)" style="overflow:visible;"/>
	</g>
</g>
</svg>
