<?xml version="1.0" encoding="utf-8"?>
<!-- Generator: Adobe Illustrator 25.2.3, SVG Export Plug-In . SVG Version: 6.00 Build 0)  -->
<svg version="1.1" id="Calque_2_1_" xmlns="http://www.w3.org/2000/svg" xmlns:xlink="http://www.w3.org/1999/xlink" x="0px"
	 y="0px" viewBox="0 0 1200 600" style="enable-background:new 0 0 1200 600;" xml:space="preserve" width="1400px" height="700px">
<style type="text/css">
	.st0{fill:#FFFFFF;}
	.st1{fill:#009640;}
	.st2{fill:#FFFFFF;stroke:#1E1E1C;stroke-miterlimit:10;}
	.st3{enable-background:new    ;}
	.st4{fill:#1E1E1C;}
	.st5{fill:#3D3D3B;}
	.st6{fill:#009FE3;}
	.st7{clip-path:url(#SVGID_2_);}
	.st8{clip-path:url(#SVGID_4_);}
</style>
<symbol  id="_179" viewBox="-27 -27 54 54">
	<circle id="circle805_1_" class="st0" cx="0" cy="0" r="27"/>
	<path id="path807_1_" class="st0" d="M-12.6-23.9C-8.7-25.9-4.4-27,0-27V0L-12.6-23.9z"/>
	<path id="path809_1_" class="st0" d="M-22.2-15.3c2.5-3.6,5.8-6.5,9.7-8.6L0,0L-22.2-15.3z"/>
	<path id="path811_1_" class="st1" d="M-26.8-3.3c0.5-4.3,2.1-8.5,4.6-12.1L0,0L-26.8-3.3z"/>
	<path id="path813_1_" class="st1" d="M-25.2,9.6c-1.5-4.1-2.1-8.5-1.5-12.8L0,0L-25.2,9.6z"/>
	<path id="path815_1_" class="st0" d="M-17.9,20.2c-3.3-2.9-5.8-6.5-7.4-10.6L0,0L-17.9,20.2z"/>
	<path id="path817_1_" class="st0" d="M-6.5,26.2c-4.2-1-8.2-3.1-11.4-6L0,0L-6.5,26.2z"/>
	<path id="path819_1_" class="st1" d="M6.5,26.2c-4.2,1-8.7,1-12.9,0L0,0L6.5,26.2z"/>
	<path id="path821_1_" class="st0" d="M17.9,20.2c-3.3,2.9-7.2,5-11.4,6L0,0L17.9,20.2z"/>
	<path id="path823_1_" class="st1" d="M25.2,9.6c-1.5,4.1-4.1,7.7-7.3,10.6L0,0L25.2,9.6z"/>
	<path id="path825_1_" class="st1" d="M26.8-3.3c0.5,4.3,0,8.7-1.5,12.8L0,0L26.8-3.3z"/>
	<path id="path827_1_" class="st1" d="M22.2-15.3c2.5,3.6,4.1,7.7,4.6,12.1L0,0L22.2-15.3z"/>
	<path id="path829_1_" class="st1" d="M12.5-23.9c3.9,2,7.2,5,9.7,8.6L0,0L12.5-23.9z"/>
	<path id="path831_1_" class="st1" d="M0-27c4.4,0,8.7,1.1,12.5,3.1L0,0V-27z"/>
	<circle id="circle833_1_" class="st0" cx="0" cy="0" r="20.2"/>
	<circle id="circle835_1_" class="st1" cx="0" cy="0" r="13.5"/>
	<circle id="circle837_1_" class="st0" cx="0" cy="0" r="6.8"/>
</symbol>
<symbol  id="Condition_Blue" viewBox="-41.7 -21.1 83.3 42.2">
	<path class="st2" d="M-35.5-20.6h70.9c3.1,0,5.7,2.5,5.7,5.7v29.8c0,3.1-2.5,5.7-5.7,5.7h-70.9c-3.1,0-5.7-2.5-5.7-5.7v-29.8
		C-41.1-18.1-38.6-20.6-35.5-20.6z"/>
	<g class="st3">
		<path class="st4" d="M-32.8-15.7c0-0.3-0.1-0.5-0.2-0.8c-0.1-0.2-0.3-0.4-0.5-0.6s-0.4-0.3-0.7-0.4s-0.5-0.1-0.8-0.1h-3.7v7.5h3.7
			c0.3,0,0.5-0.1,0.7-0.2s0.4-0.3,0.6-0.4c0.2-0.2,0.3-0.4,0.4-0.6s0.1-0.5,0.1-0.7c0-0.4-0.1-0.7-0.3-1s-0.5-0.5-0.8-0.7
			c0.4-0.1,0.8-0.4,1.1-0.7C-32.9-14.9-32.8-15.3-32.8-15.7z M-37.9-10.8v-2.8h2.7c0.2,0,0.4,0,0.5,0.1s0.3,0.2,0.4,0.3
			c0.1,0.1,0.2,0.3,0.3,0.4c0.1,0.2,0.1,0.3,0.1,0.5c0,0.2,0,0.4-0.1,0.5c-0.1,0.2-0.1,0.3-0.3,0.4c-0.1,0.1-0.2,0.2-0.4,0.3
			c-0.2,0.1-0.3,0.1-0.5,0.1H-37.9z M-33.6-15.6c0,0.2,0,0.4-0.1,0.5c-0.1,0.2-0.2,0.3-0.3,0.5s-0.3,0.2-0.4,0.3
			c-0.2,0.1-0.3,0.1-0.5,0.1h-3V-17h2.9c0.2,0,0.4,0,0.6,0.1c0.2,0.1,0.3,0.2,0.4,0.3c0.1,0.1,0.2,0.3,0.3,0.5S-33.6-15.8-33.6-15.6
			z"/>
		<path class="st4" d="M-31.4-17.7v7.5h0.8V-17h4.5v-0.7H-31.4z"/>
		<path class="st4" d="M-19.8-17v-0.7H-25v7.5h5.1v-0.7h-4.4v-2.7h3.8v-0.6h-3.8V-17H-19.8z"/>
		<path class="st4" d="M-15.2-17.1c0.5,0,0.9,0.1,1.2,0.3s0.6,0.4,0.8,0.7c0.2,0.3,0.3,0.6,0.4,1c0.1,0.4,0.1,0.7,0.1,1.1v3.8h0.8
			V-14c0-0.5-0.1-1-0.2-1.4c-0.1-0.5-0.3-0.8-0.6-1.2c-0.3-0.3-0.6-0.6-1-0.8c-0.4-0.2-0.9-0.3-1.5-0.3c-0.6,0-1.1,0.1-1.5,0.3
			s-0.8,0.5-1,0.8c-0.3,0.3-0.4,0.7-0.5,1.2c-0.1,0.4-0.2,0.9-0.2,1.4v3.8h0.8V-14c0-0.4,0-0.8,0.1-1.1s0.2-0.7,0.4-1
			c0.2-0.3,0.4-0.5,0.8-0.7C-16.1-17-15.7-17.1-15.2-17.1z"/>
	</g>
	<path class="st5" d="M-32.5-6.5h24.8c1.1,0,2,0.9,2,2v18.8c0,1.1-0.9,2-2,2h-24.8c-1.1,0-2-0.9-2-2V-4.5
		C-34.5-5.6-33.6-6.5-32.5-6.5z"/>
	<rect x="-27.9" y="-6.5" class="st6" width="15.5" height="17.2"/>
	<g>
		<g>
			<defs>
				<rect id="SVGID_1_" x="-2.6" y="-19.7" width="39.4" height="39.4"/>
			</defs>
			<clipPath id="SVGID_2_">
				<use xlink:href="#SVGID_1_"  style="overflow:visible;"/>
			</clipPath>
			<g class="st7">
				<g>
					<g>
						<defs>
							<rect id="SVGID_3_" x="-2.4" y="-19.5" width="39.4" height="39.4"/>
						</defs>
						<clipPath id="SVGID_4_">
							<use xlink:href="#SVGID_3_"  style="overflow:visible;"/>
						</clipPath>
						<g class="st8">
							<g>
								<defs>
									<rect id="SVGID_5_" x="-2.2" y="-19.5" width="39.4" height="39.4"/>
								</defs>
								<clipPath id="SVGID_6_">
									<use xlink:href="#SVGID_5_"  style="overflow:visible;"/>
								</clipPath>
								<g style="clip-path:url(#SVGID_6_);">
									
										<use xlink:href="#_179"  width="54" height="54" x="-27" y="-27" transform="matrix(-0.73 0 0 0.73 17.771 0.2191)" style="overflow:visible;"/>
								</g>
							</g>
						</g>
					</g>
				</g>
			</g>
		</g>
	</g>
</symbol>
<g>
	<defs>
		<rect id="SVGID_7_" x="7.1" y="-0.7" width="1185.7" height="600"/>
	</defs>
	<clipPath id="SVGID_8_">
		<use xlink:href="#SVGID_7_"  style="overflow:visible;"/>
	</clipPath>
	<g style="clip-path:url(#SVGID_8_);">
		
			<use xlink:href="#Condition_Blue"  width="83.3" height="42.2" x="-41.7" y="-21.1" transform="matrix(14.2518 0 0 -14.2518 600.7126 298.5748)" style="overflow:visible;"/>
	</g>
</g>
</svg>
