<svg id="Calque_1" data-name="Calque 1" xmlns="http://www.w3.org/2000/svg" xmlns:xlink="http://www.w3.org/1999/xlink" viewBox="0 0 83.2 42.1"><defs><style>.cls-1,.cls-2{fill:#fff;}.cls-2{stroke:#1d1e1c;stroke-miterlimit:10;}.cls-3{isolation:isolate;font-size:10.51px;fill:#1d1e1c;font-family:Raleway-Regular, Raleway;}.cls-4{letter-spacing:-0.02em;}.cls-5{letter-spacing:-0.01em;}.cls-6{fill:#3c3c3b;}.cls-7{fill:#009ee2;}</style><symbol id="_179" data-name="179" viewBox="0 0 54 54"><circle id="circle805" class="cls-1" cx="27" cy="27" r="27"/><path id="path807" class="cls-1" d="M14.45,50.91A27,27,0,0,0,27,54V27Z"/><path id="path809" class="cls-1" d="M4.78,42.34a26.93,26.93,0,0,0,9.67,8.57L27,27Z"/><path id="path811" d="M.2,30.25A27,27,0,0,0,4.78,42.34L27,27Z"/><path id="path813" d="M1.75,17.43A26.93,26.93,0,0,0,.2,30.25L27,27Z"/><path id="path815" class="cls-1" d="M9.1,6.79A26.94,26.94,0,0,0,1.75,17.43L27,27Z"/><path id="path817" class="cls-1" d="M20.54.78a27,27,0,0,0-11.44,6L27,27Z"/><path id="path819" d="M33.46.78a27.14,27.14,0,0,0-12.92,0L27,27Z"/><path id="path821" class="cls-1" d="M44.9,6.79a27,27,0,0,0-11.44-6L27,27Z"/><path id="path823" d="M52.25,17.43A26.94,26.94,0,0,0,44.9,6.79L27,27Z"/><path id="path825" d="M53.8,30.25a26.93,26.93,0,0,0-1.55-12.82L27,27Z"/><path id="path827" d="M49.22,42.34A27,27,0,0,0,53.8,30.25L27,27Z"/><path id="path829" d="M39.55,50.91a26.93,26.93,0,0,0,9.67-8.57L27,27Z"/><path id="path831" d="M27,54a27,27,0,0,0,12.55-3.09L27,27Z"/><circle id="circle833" class="cls-1" cx="27" cy="27" r="20.25"/><circle id="circle835" cx="27" cy="27" r="13.5"/><circle id="circle837" class="cls-1" cx="27" cy="27" r="6.75"/></symbol><symbol id="Condition_Blue" data-name="Condition Blue" viewBox="0 0 83.2 42.1"><rect class="cls-2" x="0.5" y="0.5" width="82.2" height="41.1" rx="5.67"/><text class="cls-3" transform="translate(2.04 38.62) scale(1.04 1)"><tspan class="cls-4">1</tspan><tspan class="cls-5" x="4.31" y="0">7</tspan><tspan x="9.83" y="0">9</tspan></text><rect class="cls-6" x="7.08" y="4.7" width="28.76" height="22.77" rx="1.98"/><rect class="cls-7" x="13.73" y="10.31" width="15.46" height="17.16"/><use width="54" height="54" transform="translate(38.75 1.21) scale(0.73)" xlink:href="#_179"/></symbol></defs><use width="83.2" height="42.1" xlink:href="#Condition_Blue"/></svg>