<?xml version="1.0" encoding="utf-8"?>
<!-- Generator: Adobe Illustrator 25.2.3, SVG Export Plug-In . SVG Version: 6.00 Build 0)  -->
<svg version="1.1" id="Calque_1" xmlns="http://www.w3.org/2000/svg" xmlns:xlink="http://www.w3.org/1999/xlink" x="0px" y="0px"
	 viewBox="0 0 81.4 81.4" style="enable-background:new 0 0 81.4 81.4;" xml:space="preserve">
<style type="text/css">
	.st0{fill:#95C11F;}
	.st1{fill:#3AAA35;}
	.st2{fill:none;}
	.st3{fill:#D2D2D2;}
	.st4{clip-path:url(#SVGID_2_);}
</style>
<symbol  id="Bas" viewBox="-41.1 -41.1 82.3 82.2">
	<path class="st0" d="M-39.4-1.6c0-0.1,0.1-0.1,0.1-0.2c0-0.1,0.1-0.1,0.1-0.2l35.6-32C-3.4-34-3.3-34-3.1-34H3
		c0.2,0,0.3,0.1,0.4,0.1l35.6,32c0.1,0.1,0.1,0.1,0.2,0.2c0,0,0,0.1,0,0.1c0.1,0.3,1.4,4.2,1.7,4.1c0-0.8,0-1,0-4.5v-2
		c0-0.2-0.1-0.4-0.2-0.5L0.4-40.9c-0.2-0.2-0.6-0.2-0.8,0L-40.9-4.4c-0.1,0.1-0.2,0.3-0.2,0.5v6.3C-40.8,2.5-39.5-1.3-39.4-1.6z"/>
	<path class="st1" d="M39.2-1.8L0.4-36.7c-0.2-0.2-0.6-0.2-0.8,0L-39.3-1.8c-1.2,1.1-1.8,2.6-1.8,4.2v33.1c-0.1,2.9,2.2,5.4,5.1,5.5
		h71.9c2.9-0.1,5.2-2.6,5.1-5.5c0,0,0,0,0,0V2.5C41.1,0.9,40.4-0.7,39.2-1.8z"/>
	<path class="st2" d="M-35.5-41.1h70.8c3.1,0,5.7,2.5,5.7,5.6c0,0,0,0,0,0v71c0,3.1-2.5,5.7-5.7,5.7h0h-70.9c-3.1,0-5.6-2.5-5.7-5.7
		v-70.8C-41.2-38.5-38.6-41.1-35.5-41.1C-35.5-41.1-35.5-41.1-35.5-41.1L-35.5-41.1z"/>
	<path class="st0" d="M41.1,2.5"/>
</symbol>
<rect y="0.2" class="st3" width="81.2" height="81.2"/>
<g>
	<defs>
		<rect id="SVGID_1_" x="-0.5" y="-0.5" width="82.4" height="82.4"/>
	</defs>
	<clipPath id="SVGID_2_">
		<use xlink:href="#SVGID_1_"  style="overflow:visible;"/>
	</clipPath>
	<g class="st4">
		<g>
			<defs>
				<rect id="SVGID_3_" y="0" width="81.4" height="81.4"/>
			</defs>
			<clipPath id="SVGID_4_">
				<use xlink:href="#SVGID_3_"  style="overflow:visible;"/>
			</clipPath>
			<g transform="matrix(1 0 0 1 0 0)" style="clip-path:url(#SVGID_4_);">
				
					<use xlink:href="#Bas"  width="82.3" height="82.2" x="-41.1" y="-41.1" transform="matrix(0.99 0 0 -0.99 40.6305 40.7465)" style="overflow:visible;"/>
			</g>
		</g>
	</g>
</g>
</svg>
