<svg id="Calque_1" data-name="Calque 1" xmlns="http://www.w3.org/2000/svg" xmlns:xlink="http://www.w3.org/1999/xlink" viewBox="0 0 81.44 81.39"><defs><style>.cls-1{fill:none;}.cls-2{fill:#95c11f;}.cls-3{fill:#3aaa35;}.cls-4{clip-path:url(#clip-path);}</style><clipPath id="clip-path" transform="translate(-0.5 -0.5)"><rect class="cls-1" x="0.01" y="0.01" width="82.37" height="82.37"/></clipPath><symbol id="Bas" data-name="Bas" viewBox="0 0 82.27 82.21"><path class="cls-2" d="M1.75,39.55a1.32,1.32,0,0,1,.11-.18A1,1,0,0,1,2,39.21l35.62-32A.63.63,0,0,1,38,7.06h6.16a.61.61,0,0,1,.41.15l35.62,32a.91.91,0,0,1,.2.24.81.81,0,0,1,0,.1c.14.3,1.44,4.16,1.74,4.12,0-.83,0-1,0-4.53v-2a.62.62,0,0,0-.22-.51L41.5.16a.61.61,0,0,0-.82,0L.22,36.71a.71.71,0,0,0-.22.52v6.33C.29,43.59,1.62,39.84,1.75,39.55Z"/><path class="cls-3" d="M80.37,39.35,41.5,4.42a.64.64,0,0,0-.84,0L1.83,39.35A5.69,5.69,0,0,0,0,43.56V76.71a5.33,5.33,0,0,0,5.14,5.5H77.06a5.32,5.32,0,0,0,5.14-5.5V43.57A5.67,5.67,0,0,0,80.37,39.35Z"/><path class="cls-1" d="M5.66,0H76.5a5.64,5.64,0,0,1,5.7,5.6V76.55a5.66,5.66,0,0,1-5.66,5.66H5.66A5.68,5.68,0,0,1,0,76.55V5.71A5.66,5.66,0,0,1,5.62,0Z"/><path class="cls-2" d="M82.27,43.59"/></symbol></defs><g class="cls-4"><use width="82.27" height="82.21" transform="matrix(0.99, 0, 0, -0.99, 0, 81.39)" xlink:href="#Bas"/></g></svg>