<?xml version="1.0" encoding="utf-8"?>
<!-- Generator: Adobe Illustrator 25.2.3, SVG Export Plug-In . SVG Version: 6.00 Build 0)  -->
<svg version="1.1" id="Calque_1" xmlns="http://www.w3.org/2000/svg" xmlns:xlink="http://www.w3.org/1999/xlink" x="0px" y="0px"
	 viewBox="0 0 81.4 81.4" style="enable-background:new 0 0 81.4 81.4;" xml:space="preserve">
<style type="text/css">
	.st0{fill:#36A9E1;}
	.st1{enable-background:new    ;}
	.st2{fill:#FFFFFF;}
</style>
<symbol  id="F0" viewBox="-41.1 -41.1 82.2 82.2">
	<path class="st0" d="M-35.4-41.1h70.8c3.1,0,5.7,2.5,5.7,5.6c0,0,0,0,0,0v70.9c0,3.1-2.5,5.7-5.6,5.7c0,0,0,0,0,0h-70.9
		c-3.1,0-5.6-2.5-5.7-5.7v-70.8C-41.1-38.5-38.6-41.1-35.4-41.1C-35.5-41.1-35.5-41.1-35.4-41.1L-35.4-41.1z"/>
	<g class="st1">
		<path class="st2" d="M-34.8,9.7v25.6h11.7c1.3,0,2.5-0.3,3.6-0.8c1.1-0.5,2-1.2,2.8-2c0.8-0.8,1.4-1.7,1.8-2.8s0.7-2.1,0.7-3.1
			c0-1.1-0.2-2.2-0.6-3.2c-0.4-1-1-2-1.8-2.8c-0.8-0.8-1.7-1.5-2.8-1.9c-1.1-0.5-2.3-0.7-3.6-0.7h-5.5V9.7H-34.8z M-28.5,23.1h5.2
			c0.7,0,1.4,0.3,1.9,0.9c0.5,0.6,0.8,1.5,0.8,2.6c0,0.6-0.1,1.1-0.2,1.5c-0.2,0.4-0.4,0.8-0.7,1.1c-0.3,0.3-0.6,0.5-1,0.6
			c-0.4,0.1-0.7,0.2-1.1,0.2h-4.9V23.1z"/>
	</g>
	<g class="st1">
		<path class="st2" d="M2.4,14.9V9.7h-16.6v5.2h5.5v9.2c-0.2-0.3-0.6-0.6-1.1-0.9c-0.5-0.3-1-0.6-1.6-0.8c-0.6-0.3-1.2-0.5-1.8-0.6
			c-0.6-0.2-1.2-0.2-1.7-0.2v5.3c0.4,0,0.9,0.1,1.6,0.4c0.7,0.3,1.3,0.6,1.9,1c0.6,0.4,1.2,0.7,1.7,1.1c0.5,0.4,0.8,0.7,1,0.9h6.3
			V14.9H2.4z"/>
	</g>
</symbol>
<use xlink:href="#F0"  width="82.2" height="82.2" x="-41.1" y="-41.1" transform="matrix(0.99 0 0 -0.99 40.6617 40.7183)" style="overflow:visible;"/>
</svg>
