<svg id="Calque_1" data-name="Calque 1" xmlns="http://www.w3.org/2000/svg" xmlns:xlink="http://www.w3.org/1999/xlink" viewBox="0 0 82.15 82.15"><defs><style>.cls-1,.cls-5{fill:#fff;}.cls-2{fill:#010101;}.cls-3{fill:#36a9e1;stroke:#1d1d1b;stroke-miterlimit:10;}.cls-4{font-size:9.97px;fill:#1d1d1b;font-family:Raleway-Regular, Raleway;}.cls-5{font-size:19.03px;font-family:Raleway-Black, Raleway;font-weight:800;}</style><symbol id="_143" data-name="143" viewBox="0 0 54 54"><circle id="circle553" class="cls-1" cx="27" cy="27" r="27"/><path id="path555" class="cls-1" d="M14.45,50.91A27,27,0,0,0,27,54V27Z"/><path id="path557" class="cls-1" d="M4.78,42.34a26.93,26.93,0,0,0,9.67,8.57L27,27Z"/><path id="path559" class="cls-1" d="M.2,30.25A27,27,0,0,0,4.78,42.34L27,27Z"/><path id="path561" class="cls-1" d="M1.75,17.43A26.93,26.93,0,0,0,.2,30.25L27,27Z"/><path id="path563" class="cls-2" d="M9.1,6.79A26.94,26.94,0,0,0,1.75,17.43L27,27Z"/><path id="path565" class="cls-2" d="M20.54.78a27,27,0,0,0-11.44,6L27,27Z"/><path id="path567" class="cls-2" d="M33.46.78a27.14,27.14,0,0,0-12.92,0L27,27Z"/><path id="path569" class="cls-1" d="M44.9,6.79a27,27,0,0,0-11.44-6L27,27Z"/><path id="path571" class="cls-2" d="M52.25,17.43A26.94,26.94,0,0,0,44.9,6.79L27,27Z"/><path id="path573" class="cls-2" d="M53.8,30.25a26.93,26.93,0,0,0-1.55-12.82L27,27Z"/><path id="path575" class="cls-2" d="M49.22,42.34A27,27,0,0,0,53.8,30.25L27,27Z"/><path id="path577" class="cls-2" d="M39.55,50.91a26.93,26.93,0,0,0,9.67-8.57L27,27Z"/><path id="path579" class="cls-2" d="M27,54a27,27,0,0,0,12.55-3.09L27,27Z"/><circle id="circle581" class="cls-1" cx="27" cy="27" r="20.25"/><circle id="circle583" class="cls-2" cx="27" cy="27" r="13.5"/><circle id="circle585" class="cls-1" cx="27" cy="27" r="6.75"/></symbol><symbol id="F3" data-name="F3" viewBox="0 0 83.2 83.2"><path class="cls-3" d="M6.16,82.7H77A5.65,5.65,0,0,0,82.7,77V6.16A5.66,5.66,0,0,0,77,.5H6.16A5.67,5.67,0,0,0,.5,6.16V77A5.66,5.66,0,0,0,6.16,82.7Z"/><text class="cls-4" transform="translate(2.54 80.32) scale(1.07 1)">143</text><text class="cls-5" transform="translate(4.15 17.64) scale(1.07 1)">F3</text><use width="54" height="54" transform="translate(15.38 15.38) scale(0.97 0.97)" xlink:href="#_143"/></symbol></defs><use width="83.2" height="83.2" transform="translate(0.01 0.01) scale(0.99)" xlink:href="#F3"/></svg>