<svg id="Calque_1" data-name="Calque 1" xmlns="http://www.w3.org/2000/svg" xmlns:xlink="http://www.w3.org/1999/xlink" viewBox="0 0 82.2 82.2"><defs><style>.cls-1{fill:#fff;}.cls-2{fill:#010101;}.cls-3{fill:#e6007e;}.cls-4{fill:#951b81;}.cls-5{fill:none;stroke:#1d1d1b;stroke-miterlimit:10;}.cls-6{font-size:9.97px;fill:#1d1d1b;font-family:Raleway-Regular, Raleway;}.cls-7{letter-spacing:-0.02em;}</style><symbol id="_107" data-name="107" viewBox="0 0 54 54"><circle id="circle373" class="cls-1" cx="27" cy="27" r="27"/><path id="path375" class="cls-1" d="M14.45,50.91A27,27,0,0,0,27,54V27Z"/><path id="path377" class="cls-1" d="M4.78,42.34a26.93,26.93,0,0,0,9.67,8.57L27,27Z"/><path id="path379" class="cls-2" d="M.2,30.25A27,27,0,0,0,4.78,42.34L27,27Z"/><path id="path381" class="cls-1" d="M1.75,17.43A26.93,26.93,0,0,0,.2,30.25L27,27Z"/><path id="path383" class="cls-2" d="M9.1,6.79A26.94,26.94,0,0,0,1.75,17.43L27,27Z"/><path id="path385" class="cls-1" d="M20.54.78a27,27,0,0,0-11.44,6L27,27Z"/><path id="path387" class="cls-1" d="M33.46.78a27.14,27.14,0,0,0-12.92,0L27,27Z"/><path id="path389" class="cls-2" d="M44.9,6.79a27,27,0,0,0-11.44-6L27,27Z"/><path id="path391" class="cls-2" d="M52.25,17.43A26.94,26.94,0,0,0,44.9,6.79L27,27Z"/><path id="path393" class="cls-2" d="M53.8,30.25a26.93,26.93,0,0,0-1.55-12.82L27,27Z"/><path id="path395" class="cls-2" d="M49.22,42.34A27,27,0,0,0,53.8,30.25L27,27Z"/><path id="path397" class="cls-2" d="M39.55,50.91a26.93,26.93,0,0,0,9.67-8.57L27,27Z"/><path id="path399" class="cls-2" d="M27,54a27,27,0,0,0,12.55-3.09L27,27Z"/><circle id="circle401" class="cls-1" cx="27" cy="27" r="20.25"/><circle id="circle403" class="cls-2" cx="27" cy="27" r="13.5"/><circle id="circle405" class="cls-1" cx="27" cy="27" r="6.75"/></symbol><symbol id="Gauche" data-name="Gauche" viewBox="0 0 83.2 83.2"><path class="cls-3" d="M40.15,2.25h0a1,1,0,0,0-.33.24L7.87,38.11a.64.64,0,0,0-.16.41v6.16a.62.62,0,0,0,.16.41l32,35.62a.9.9,0,0,0,.33.25h0c1,.41,4.93,1.74-.41,1.74H37.8a.67.67,0,0,1-.51-.22L.87,42a.59.59,0,0,1,0-.82L37.29.72A.71.71,0,0,1,37.81.5h1.93C44,.5,41.1,1.83,40.15,2.25Z"/><path class="cls-4" d="M40,80.87,5.12,42a.62.62,0,0,1,0-.84L40,2.33A5.64,5.64,0,0,1,44.16.5H77.22A5.32,5.32,0,0,1,82.7,5.64V77.56a5.32,5.32,0,0,1-5.48,5.14H44.16A5.64,5.64,0,0,1,40,80.87Z"/><path class="cls-5" d="M6.16,82.7H77A5.65,5.65,0,0,0,82.7,77V6.16A5.66,5.66,0,0,0,77,.5H6.16A5.67,5.67,0,0,0,.5,6.16V77A5.66,5.66,0,0,0,6.16,82.7Z"/><text class="cls-6" transform="translate(2.54 80.32) scale(1.07 1)">1<tspan class="cls-7" x="4.27" y="0">0</tspan><tspan x="10.12" y="0">7</tspan></text><use width="54" height="54" transform="translate(15.38 15.49) scale(0.97 0.97)" xlink:href="#_107"/></symbol></defs><use width="83.2" height="83.2" transform="translate(0.01 0.01) scale(0.99)" xlink:href="#Gauche"/></svg>