<svg id="Calque_1" data-name="Calque 1" xmlns="http://www.w3.org/2000/svg" xmlns:xlink="http://www.w3.org/1999/xlink" viewBox="0 0 81.18 81.38"><defs><style>.cls-1{fill:none;}.cls-2{fill:#e6007e;}.cls-3{fill:#951b81;}.cls-4{clip-path:url(#clip-path);}</style><clipPath id="clip-path" transform="translate(-0.71 -0.5)"><rect class="cls-1" x="0.01" y="0.01" width="82.37" height="82.37"/></clipPath><symbol id="Gauche" data-name="Gauche" viewBox="0 0 82 82.2"><path class="cls-2" d="M39.45,80.45a.89.89,0,0,1-.18-.1.67.67,0,0,1-.15-.14L7.17,44.59A.62.62,0,0,1,7,44.18V38a.59.59,0,0,1,.16-.41L39.17,2l.33-.25A11.46,11.46,0,0,1,44.36,0c-2,0-.84,0-5.27,0h-2a.69.69,0,0,0-.51.22L.17,40.7a.57.57,0,0,0,0,.82L36.59,82a.71.71,0,0,0,.52.22h8.77C45.88,82.08,39.69,80.57,39.45,80.45Z"/><path class="cls-3" d="M39.3,1.83,4.42,40.7a.62.62,0,0,0,0,.84L39.3,80.37a5.6,5.6,0,0,0,4.16,1.83H76.52A5.32,5.32,0,0,0,82,77.06V5.14A5.32,5.32,0,0,0,76.52,0H43.46A5.64,5.64,0,0,0,39.3,1.83Z"/></symbol></defs><g class="cls-4"><use width="82" height="82.21" transform="matrix(0.99, 0, 0, -0.99, 0, 81.38)" xlink:href="#Gauche"/></g></svg>