<svg id="Calque_1" data-name="Calque 1" xmlns="http://www.w3.org/2000/svg" xmlns:xlink="http://www.w3.org/1999/xlink" viewBox="0 0 82.2 41.1"><defs><style>.cls-1,.cls-3{fill:#fff;}.cls-2{fill:#010101;}.cls-3{stroke:#1d1d1b;stroke-miterlimit:10;}.cls-4{font-size:11.41px;fill:#1d1d1b;font-family:Raleway-Regular, Raleway;}.cls-5{letter-spacing:-0.01em;}.cls-6{fill:#3c3c3b;}</style><symbol id="_157" data-name="157" viewBox="0 0 54 54"><circle id="circle661" class="cls-1" cx="27" cy="27" r="27"/><path id="path663" class="cls-1" d="M14.45,50.91A27,27,0,0,0,27,54V27Z"/><path id="path665" class="cls-2" d="M4.78,42.34a26.93,26.93,0,0,0,9.67,8.57L27,27Z"/><path id="path667" class="cls-1" d="M.2,30.25A27,27,0,0,0,4.78,42.34L27,27Z"/><path id="path669" class="cls-1" d="M1.75,17.43A26.93,26.93,0,0,0,.2,30.25L27,27Z"/><path id="path671" class="cls-1" d="M9.1,6.79A26.94,26.94,0,0,0,1.75,17.43L27,27Z"/><path id="path673" class="cls-2" d="M20.54.78a27,27,0,0,0-11.44,6L27,27Z"/><path id="path675" class="cls-2" d="M33.46.78a27.14,27.14,0,0,0-12.92,0L27,27Z"/><path id="path677" class="cls-1" d="M44.9,6.79a27,27,0,0,0-11.44-6L27,27Z"/><path id="path679" class="cls-2" d="M52.25,17.43A26.94,26.94,0,0,0,44.9,6.79L27,27Z"/><path id="path681" class="cls-2" d="M53.8,30.25a26.93,26.93,0,0,0-1.55-12.82L27,27Z"/><path id="path683" class="cls-2" d="M49.22,42.34A27,27,0,0,0,53.8,30.25L27,27Z"/><path id="path685" class="cls-2" d="M39.55,50.91a26.93,26.93,0,0,0,9.67-8.57L27,27Z"/><path id="path687" class="cls-2" d="M27,54a27,27,0,0,0,12.55-3.09L27,27Z"/><circle id="circle689" class="cls-1" cx="27" cy="27" r="20.25"/><circle id="circle691" class="cls-2" cx="27" cy="27" r="13.5"/><circle id="circle693" class="cls-1" cx="27" cy="27" r="6.75"/></symbol><symbol id="Condition_Vide" data-name="Condition Vide" viewBox="0 0 83.2 42.1"><rect class="cls-3" x="0.5" y="0.5" width="82.2" height="41.1" rx="5.67"/><use width="54" height="54" transform="translate(39.93 1.21) scale(0.73 0.73)" xlink:href="#_157"/><text class="cls-4" transform="translate(1.87 38.22)">1<tspan class="cls-5" x="4.88" y="0">5</tspan><tspan x="10.98" y="0">7</tspan></text><g id="Calque_2" data-name="Calque 2"><path class="cls-6" d="M34,5.05H7.8a2,2,0,0,0-2,2V25.67a2,2,0,0,0,2,2h5v-17H29v17h5a2,2,0,0,0,2-2V7A2,2,0,0,0,34,5.05Z"/></g></symbol></defs><use width="83.2" height="42.1" transform="translate(0.01 0.01) scale(0.99 0.98)" xlink:href="#Condition_Vide"/></svg>