<?xml version="1.0" encoding="utf-8"?>
<!-- Generator: Adobe Illustrator 25.2.3, SVG Export Plug-In . SVG Version: 6.00 Build 0)  -->
<svg version="1.1" id="Calque_1" xmlns="http://www.w3.org/2000/svg" xmlns:xlink="http://www.w3.org/1999/xlink" x="0px" y="0px"
	 viewBox="0 0 81.2 81.4" style="enable-background:new 0 0 81.2 81.4;" xml:space="preserve">
<style type="text/css">
	.st0{fill:#F9B233;}
	.st1{fill:#E94E1B;}
	.st2{fill:#D2D2D2;}
</style>
<symbol  id="Droite" viewBox="-41 -41.1 82 82.2">
	<path class="st0" d="M1.6-39.4c0.1,0,0.1,0.1,0.2,0.1c0.1,0,0.1,0.1,0.2,0.1l32,35.6C34-3.4,34-3.3,34-3.1v6.2
		c0,0.2-0.1,0.3-0.2,0.4l-32,35.6l-0.3,0.2c-1.8,1.1-3.8,1.7-5.8,1.8h8.2c0.2,0,0.4-0.1,0.5-0.2L40.8,0.4c0.2-0.2,0.2-0.6,0-0.8
		L4.4-40.9c-0.1-0.1-0.3-0.2-0.5-0.2h-8.4C-4.7-41.1,1.3-39.5,1.6-39.4z"/>
	<path class="st1" d="M1.8,39.3L36.6,0.4c0.2-0.2,0.2-0.6,0-0.8L1.8-39.3c-1.1-1.2-2.6-1.8-4.2-1.8h-33c-2.9-0.1-5.4,2.2-5.5,5.1
		c0,0,0,0,0,0l0,0V36c0.1,2.9,2.6,5.2,5.5,5.1h33.1C-0.9,41.1,0.7,40.4,1.8,39.3z"/>
</symbol>
<rect x="0" y="0.2" class="st2" width="81.2" height="81.2"/>
<g>
	<defs>
		<rect id="SVGID_1_" y="0" width="81.2" height="81.4"/>
	</defs>
	<clipPath id="SVGID_2_">
		<use xlink:href="#SVGID_1_"  style="overflow:visible;"/>
	</clipPath>
	<g transform="matrix(1 0 0 1 0 0)" style="clip-path:url(#SVGID_2_);">
		
			<use xlink:href="#Droite"  width="82" height="82.2" x="-41" y="-41.1" transform="matrix(0.99 0 0 -0.99 40.5892 40.7795)" style="overflow:visible;"/>
	</g>
</g>
</svg>
