<svg id="Calque_1" data-name="Calque 1" xmlns="http://www.w3.org/2000/svg" xmlns:xlink="http://www.w3.org/1999/xlink" viewBox="0 0 81.18 81.38"><defs><style>.cls-1{fill:#f9b233;}.cls-2{fill:#e94e1b;}</style><symbol id="Droite" data-name="Droite" viewBox="0 0 82 82.21"><path class="cls-1" d="M42.55,1.7a1.32,1.32,0,0,1,.18.11,1.07,1.07,0,0,1,.16.14l32,35.62A.63.63,0,0,1,75,38v6.2a.61.61,0,0,1-.15.41l-32,35.62-.34.24a11.66,11.66,0,0,1-5.83,1.75H44.9a.69.69,0,0,0,.52-.22L81.84,41.51a.61.61,0,0,0,0-.82L45.41.22A.7.7,0,0,0,44.9,0H36.46C36.32,0,42.29,1.59,42.55,1.7Z"/><path class="cls-2" d="M42.75,80.37,77.59,41.52a.62.62,0,0,0,0-.84L42.75,1.83A5.67,5.67,0,0,0,38.55,0H5.5A5.32,5.32,0,0,0,0,5.14H0V77.06A5.32,5.32,0,0,0,5.49,82.2H38.55A5.63,5.63,0,0,0,42.75,80.37Z"/></symbol></defs><use width="82" height="82.21" transform="matrix(0.99, 0, 0, -0.99, 0, 81.38)" xlink:href="#Droite"/></svg>