<svg id="Calque_1" data-name="Calque 1" xmlns="http://www.w3.org/2000/svg" xmlns:xlink="http://www.w3.org/1999/xlink" viewBox="0 0 82.2 82.2"><defs><style>.cls-1{fill:#fff;}.cls-2{fill:#13110c;}.cls-3{fill:#f9b233;}.cls-4{fill:#e94e1b;}.cls-5{fill:none;stroke:#1d1d1b;stroke-miterlimit:10;}.cls-6{font-size:9.97px;fill:#1d1d1b;font-family:Raleway-Regular, Raleway;}</style><symbol id="_103" data-name="103" viewBox="0 0 54 54"><circle id="circle337" class="cls-1" cx="27" cy="27" r="27"/><path id="path339" class="cls-1" d="M14.45,50.91A27,27,0,0,0,27,54V27Z"/><path id="path341" class="cls-1" d="M4.78,42.34a26.93,26.93,0,0,0,9.67,8.57L27,27Z"/><path id="path343" class="cls-1" d="M.2,30.25A27,27,0,0,0,4.78,42.34L27,27Z"/><path id="path345" class="cls-2" d="M1.75,17.43A26.93,26.93,0,0,0,.2,30.25L27,27Z"/><path id="path347" class="cls-2" d="M9.1,6.79A26.94,26.94,0,0,0,1.75,17.43L27,27Z"/><path id="path349" class="cls-1" d="M20.54.78a27,27,0,0,0-11.44,6L27,27Z"/><path id="path351" class="cls-1" d="M33.46.78a27.14,27.14,0,0,0-12.92,0L27,27Z"/><path id="path353" class="cls-2" d="M44.9,6.79a27,27,0,0,0-11.44-6L27,27Z"/><path id="path355" class="cls-2" d="M52.25,17.43A26.94,26.94,0,0,0,44.9,6.79L27,27Z"/><path id="path357" class="cls-2" d="M53.8,30.25a26.93,26.93,0,0,0-1.55-12.82L27,27Z"/><path id="path359" class="cls-2" d="M49.22,42.34A27,27,0,0,0,53.8,30.25L27,27Z"/><path id="path361" class="cls-2" d="M39.55,50.91a26.93,26.93,0,0,0,9.67-8.57L27,27Z"/><path id="path363" class="cls-2" d="M27,54a27,27,0,0,0,12.55-3.09L27,27Z"/><circle id="circle365" class="cls-1" cx="27" cy="27" r="20.25"/><circle id="circle367" class="cls-2" cx="27" cy="27" r="13.5"/><circle id="circle369" class="cls-1" cx="27" cy="27" r="6.75"/></symbol><symbol id="Droite" data-name="Droite" viewBox="0 0 83.2 83.2"><path class="cls-3" d="M43.05,81h0a.94.94,0,0,0,.34-.25l32-35.62a.61.61,0,0,0,.15-.41V38.52a.63.63,0,0,0-.15-.41L43.39,2.49a1,1,0,0,0-.34-.24h0C42.1,1.83,38.12.5,43.46.5H45.4a.71.71,0,0,1,.52.22L82.34,41.19a.61.61,0,0,1,0,.82L45.91,82.48a.67.67,0,0,1-.51.22H43.46C39.19,82.7,42.1,81.37,43.05,81Z"/><path class="cls-4" d="M43.25,2.33,78.09,41.18a.62.62,0,0,1,0,.84L43.25,80.87a5.66,5.66,0,0,1-4.2,1.83H6A5.32,5.32,0,0,1,.5,77.56V5.64A5.32,5.32,0,0,1,6,.5H39.05A5.66,5.66,0,0,1,43.25,2.33Z"/><use width="54" height="54" transform="translate(15.38 15.38) scale(0.97 0.97)" xlink:href="#_103"/><rect class="cls-5" x="0.5" y="0.5" width="82.2" height="82.2" rx="5.66"/><text class="cls-6" transform="translate(2.54 79.53) scale(1.07 1)">103</text></symbol></defs><use width="83.2" height="83.2" transform="translate(0.01 0.01) scale(0.99 0.99)" xlink:href="#Droite"/></svg>