<svg id="Calque_1" data-name="Calque 1" xmlns="http://www.w3.org/2000/svg" xmlns:xlink="http://www.w3.org/1999/xlink" viewBox="0 0 82.2 41.11"><defs><style>.cls-1,.cls-3{fill:#fff;}.cls-2{fill:#010101;}.cls-3{stroke:#1d1d1b;stroke-miterlimit:10;}.cls-4{font-size:10.51px;fill:#1d1d1b;font-family:Raleway-Regular, Raleway;}.cls-5{fill:#3c3c3b;}.cls-6{fill:#ffcc03;}</style><symbol id="_167" data-name="167" viewBox="0 0 54 54"><circle id="circle697" class="cls-1" cx="27" cy="27" r="27"/><path id="path699" class="cls-1" d="M14.45,50.91A27,27,0,0,0,27,54V27Z"/><path id="path701" class="cls-1" d="M4.78,42.34a26.93,26.93,0,0,0,9.67,8.57L27,27Z"/><path id="path703" class="cls-1" d="M.2,30.25A27,27,0,0,0,4.78,42.34L27,27Z"/><path id="path705" class="cls-2" d="M1.75,17.43A26.93,26.93,0,0,0,.2,30.25L27,27Z"/><path id="path707" class="cls-2" d="M9.1,6.79A26.94,26.94,0,0,0,1.75,17.43L27,27Z"/><path id="path709" class="cls-1" d="M20.54.78a27,27,0,0,0-11.44,6L27,27Z"/><path id="path711" class="cls-2" d="M33.46.78a27.14,27.14,0,0,0-12.92,0L27,27Z"/><path id="path713" class="cls-1" d="M44.9,6.79a27,27,0,0,0-11.44-6L27,27Z"/><path id="path715" class="cls-2" d="M52.25,17.43A26.94,26.94,0,0,0,44.9,6.79L27,27Z"/><path id="path717" class="cls-2" d="M53.8,30.25a26.93,26.93,0,0,0-1.55-12.82L27,27Z"/><path id="path719" class="cls-2" d="M49.22,42.34A27,27,0,0,0,53.8,30.25L27,27Z"/><path id="path721" class="cls-2" d="M39.55,50.91a26.93,26.93,0,0,0,9.67-8.57L27,27Z"/><path id="path723" class="cls-2" d="M27,54a27,27,0,0,0,12.55-3.09L27,27Z"/><circle id="circle725" class="cls-1" cx="27" cy="27" r="20.25"/><circle id="circle727" class="cls-2" cx="27" cy="27" r="13.5"/><circle id="circle729" class="cls-1" cx="27" cy="27" r="6.75"/></symbol><symbol id="Condition_Jaune" data-name="Condition Jaune" viewBox="0 0 83.2 42.1"><rect class="cls-3" x="0.5" y="0.5" width="82.2" height="41.1" rx="5.67"/><text class="cls-4" transform="translate(3.12 39.05) scale(1.04 1)">167</text><rect class="cls-5" x="7.53" y="4.42" width="28.76" height="22.77" rx="1.98"/><rect class="cls-6" x="14.18" y="10.03" width="15.46" height="17.16"/><use width="54" height="54" transform="translate(39.12 1.22) scale(0.73 0.73)" xlink:href="#_167"/></symbol></defs><use width="83.2" height="42.1" transform="translate(0.01 0.01) scale(0.99 0.98)" xlink:href="#Condition_Jaune"/></svg>