<svg id="Calque_1" data-name="Calque 1" xmlns="http://www.w3.org/2000/svg" xmlns:xlink="http://www.w3.org/1999/xlink" viewBox="0 0 82.2 82.2"><defs><style>.cls-1{fill:#fff;}.cls-2{fill:#010101;}.cls-3{fill:#95c11f;}.cls-4{fill:#3aaa35;}.cls-5{fill:none;stroke:#1d1d1b;stroke-miterlimit:10;}.cls-6{font-size:9.97px;fill:#1d1d1b;font-family:Raleway-Regular, Raleway;}</style><symbol id="_109" data-name="109" viewBox="0 0 54 54"><circle id="circle409" class="cls-1" cx="27" cy="27" r="27"/><path id="path411" class="cls-1" d="M14.45,50.91A27,27,0,0,0,27,54V27Z"/><path id="path413" class="cls-2" d="M4.78,42.34a26.93,26.93,0,0,0,9.67,8.57L27,27Z"/><path id="path415" class="cls-1" d="M.2,30.25A27,27,0,0,0,4.78,42.34L27,27Z"/><path id="path417" class="cls-1" d="M1.75,17.43A26.93,26.93,0,0,0,.2,30.25L27,27Z"/><path id="path419" class="cls-2" d="M9.1,6.79A26.94,26.94,0,0,0,1.75,17.43L27,27Z"/><path id="path421" class="cls-1" d="M20.54.78a27,27,0,0,0-11.44,6L27,27Z"/><path id="path423" class="cls-1" d="M33.46.78a27.14,27.14,0,0,0-12.92,0L27,27Z"/><path id="path425" class="cls-2" d="M44.9,6.79a27,27,0,0,0-11.44-6L27,27Z"/><path id="path427" class="cls-2" d="M52.25,17.43A26.94,26.94,0,0,0,44.9,6.79L27,27Z"/><path id="path429" class="cls-2" d="M53.8,30.25a26.93,26.93,0,0,0-1.55-12.82L27,27Z"/><path id="path431" class="cls-2" d="M49.22,42.34A27,27,0,0,0,53.8,30.25L27,27Z"/><path id="path433" class="cls-2" d="M39.55,50.91a26.93,26.93,0,0,0,9.67-8.57L27,27Z"/><path id="path435" class="cls-2" d="M27,54a27,27,0,0,0,12.55-3.09L27,27Z"/><circle id="circle437" class="cls-1" cx="27" cy="27" r="20.25"/><circle id="circle439" class="cls-2" cx="27" cy="27" r="13.5"/><circle id="circle441" class="cls-1" cx="27" cy="27" r="6.75"/></symbol><symbol id="Bas" data-name="Bas" viewBox="0 0 83.2 83.2"><path class="cls-3" d="M2.25,43.16h0a1.16,1.16,0,0,0,.24.34l35.62,32a.63.63,0,0,0,.41.15h6.16a.61.61,0,0,0,.41-.15l35.62-32a1,1,0,0,0,.25-.34h0c.41-.95,1.74-4.94,1.74.41v2a.67.67,0,0,1-.22.51L42,82.55a.61.61,0,0,1-.82,0L.72,46a.71.71,0,0,1-.22-.52V43.57C.5,39.29,1.83,42.21,2.25,43.16Z"/><path class="cls-4" d="M80.87,43.36,42,78.29a.64.64,0,0,1-.84,0L2.33,43.36A5.68,5.68,0,0,1,.5,39.15V6A5.33,5.33,0,0,1,5.64.5H77.56A5.33,5.33,0,0,1,82.7,6V39.14A5.69,5.69,0,0,1,80.87,43.36Z"/><path class="cls-5" d="M6.16,82.7H77A5.65,5.65,0,0,0,82.7,77V6.16A5.66,5.66,0,0,0,77,.5H6.16A5.67,5.67,0,0,0,.5,6.16V77A5.66,5.66,0,0,0,6.16,82.7Z"/><text class="cls-6" transform="translate(2.54 80.32) scale(1.07 1)">109</text><use width="54" height="54" transform="translate(15.38 13.25) scale(0.97 0.97)" xlink:href="#_109"/></symbol></defs><use width="83.2" height="83.2" transform="translate(0.01 0.01) scale(0.99)" xlink:href="#Bas"/></svg>