<?xml version="1.0" encoding="utf-8"?>
<!-- Generator: Adobe Illustrator 25.2.3, SVG Export Plug-In . SVG Version: 6.00 Build 0)  -->
<svg version="1.1" id="Calque_1" xmlns="http://www.w3.org/2000/svg" xmlns:xlink="http://www.w3.org/1999/xlink" x="0px" y="0px"
	 viewBox="0 0 100 125" style="enable-background:new 0 0 100 125;" xml:space="preserve" width="44px" height="44px">
<path d="M50,10.7c-21.7,0-39.3,17.6-39.3,39.3c0,21.7,17.6,39.3,39.3,39.3c21.7,0,39.3-17.6,39.3-39.3C89.3,28.3,71.7,10.7,50,10.7
	 M50,83c-18.2,0-33-14.8-33-33s14.8-33,33-33c18.2,0,33,14.8,33,33S68.2,83,50,83 M49.4,62.7c-1.4,0-2.6,0.5-3.6,1.5
	c-1,1-1.5,2.2-1.5,3.6c0,1.4,0.5,2.6,1.5,3.6c1,1,2.2,1.5,3.6,1.5c1.4,0,2.6-0.5,3.6-1.5c1-1,1.5-2.2,1.5-3.6c0-1.4-0.5-2.6-1.5-3.6
	C52,63.2,50.8,62.7,49.4,62.7 M60.5,30.1c-1.5-1-3.2-1.7-5-2.2c-1.9-0.5-3.8-0.7-5.8-0.7c-1.9,0-3.7,0.3-5.4,0.9
	c-1.7,0.6-3.3,1.4-4.6,2.5c-1.3,1-2.4,2.3-3.2,3.6c-0.8,1.4-1.2,2.8-1.2,4.3c0,1.2,0.4,2.2,1.2,2.8c0.8,0.6,1.7,1,2.8,1
	c1,0,1.8-0.2,2.3-0.6c0.6-0.4,1-0.9,1.4-1.5c0.4-0.6,0.7-1.2,1-1.9c0.3-0.7,0.7-1.3,1.1-1.9s1.1-1.1,1.8-1.5
	c0.8-0.4,1.8-0.6,3.1-0.6c1.8,0,3.3,0.5,4.3,1.4c1,0.9,1.6,2.2,1.6,3.9c0,1-0.3,1.9-0.8,2.7c-0.5,0.8-1.2,1.5-2,2.2
	c-0.8,0.7-1.7,1.4-2.6,2.1c-0.9,0.7-1.8,1.4-2.6,2.2c-0.8,0.8-1.5,1.6-2,2.6c-0.5,0.9-0.8,2-0.8,3.2c0,1,0.3,1.9,1,2.8
	c0.7,0.9,1.6,1.3,3,1.3c1,0,1.8-0.2,2.3-0.5c0.5-0.3,0.9-0.7,1.2-1.3c0.3-0.5,0.5-1.1,0.7-1.7c0.2-0.6,0.5-1.2,0.8-1.7
	c0.3-0.5,0.8-1,1.5-1.5c0.7-0.5,1.4-1,2.2-1.6s1.7-1.3,2.6-2c0.9-0.7,1.7-1.5,2.4-2.4c0.7-0.9,1.3-1.8,1.8-2.9
	c0.5-1.1,0.7-2.3,0.7-3.6c0-2.2-0.4-4-1.3-5.6C63.1,32.4,62,31.1,60.5,30.1"/>
</svg>
