<?xml version="1.0" encoding="utf-8"?>
<!-- Generator: Adobe Illustrator 25.2.3, SVG Export Plug-In . SVG Version: 6.00 Build 0)  -->
<svg version="1.1" xmlns="http://www.w3.org/2000/svg" xmlns:xlink="http://www.w3.org/1999/xlink" x="0px" y="0px"
	 viewBox="0 0 48 48" style="enable-background:new 0 0 48 48;" xml:space="preserve" width="44px" height="44px">
<g id="Calque_1" xmlns:cc="http://creativecommons.org/ns#" xmlns:dc="http://purl.org/dc/elements/1.1/" xmlns:rdf="http://www.w3.org/1999/02/22-rdf-syntax-ns#" xmlns:svg="http://www.w3.org/2000/svg">
</g>
<g id="Arrow">
	<g>
		<path d="M42.5,20.5c-0.7-0.8-1.6-1.3-2.7-1.3h-1.2v-2.7c0-1.8-1.5-3.2-3.3-3.2H24.5c-0.5,0-0.8-0.4-0.8-0.8v-0.3
			c0-1.8-1.5-3.2-3.3-3.2H9.6c-1.8,0-3.3,1.4-3.3,3.2v23.6c0,1,0.5,2,1.3,2.6c0.6,0.4,1.3,0.7,2.1,0.7l0,0l26,0c1.5,0,2.8-1,3.2-2.3
			L43,23.3C43.3,22.3,43.1,21.3,42.5,20.5z M9.6,11.4h10.8c0.5,0,0.8,0.4,0.8,0.8v0.3c0,1.8,1.5,3.2,3.3,3.2h10.8
			c0.5,0,0.8,0.4,0.8,0.8v2.7H14.4c-1.4,0-2.7,0.9-3.2,2.2l-2.4,6.9V12.2C8.8,11.7,9.2,11.4,9.6,11.4z M40.6,22.6L36.5,36
			c-0.1,0.4-0.5,0.6-0.9,0.6l-26,0l0,0c-0.3,0-0.6-0.1-0.7-0.4c-0.1-0.1-0.2-0.4-0.1-0.7l4.7-13.4c0.1-0.3,0.5-0.6,0.8-0.6h25.4
			c0.3,0,0.5,0.1,0.7,0.4C40.6,22.1,40.7,22.3,40.6,22.6z"/>
	</g>
</g>
</svg>
