<?xml version="1.0" encoding="utf-8"?>
<!-- Generator: Adobe Illustrator 25.2.3, SVG Export Plug-In . SVG Version: 6.00 Build 0)  -->
<svg version="1.1" id="Calque_1" xmlns="http://www.w3.org/2000/svg" xmlns:xlink="http://www.w3.org/1999/xlink" x="0px" y="0px"
	 viewBox="0 0 42 42" style="enable-background:new 0 0 42 42;" xml:space="preserve" width="42px" height="42px">
<style type="text/css">
	.st0{fill:none;stroke:#000000;stroke-width:2.625;stroke-linecap:round;stroke-linejoin:round;stroke-miterlimit:10;}
	.st1{fill:none;stroke:#000000;stroke-width:2;stroke-linecap:round;stroke-linejoin:round;stroke-miterlimit:10;}
</style>
<path class="st0" d="M14.4,1.3h13.1c2.2,0,3.9,1.8,3.9,3.9v31.5c0,2.2-1.8,3.9-3.9,3.9H14.4c-2.2,0-3.9-1.8-3.9-3.9V5.2
	C10.5,3.1,12.3,1.3,14.4,1.3z"/>
<path class="st0" d="M14.4,1.3h2c0.4,0,0.7,0.3,0.7,0.7l0,0c0,0.7,0.6,1.3,1.3,1.3h5.2c0.7,0,1.3-0.6,1.3-1.3l0,0
	c0-0.4,0.3-0.7,0.7-0.7h2"/>
<rect x="15.8" y="16.9" class="st1" width="3.4" height="3.4"/>
<rect x="22.9" y="16.9" class="st1" width="3.4" height="3.4"/>
<rect x="15.8" y="23.9" class="st1" width="3.4" height="3.4"/>
<rect x="23.7" y="24.7" width="1.7" height="1.7"/>
<rect x="25.4" y="23" width="1.7" height="1.7"/>
<rect x="22" y="23" width="1.7" height="1.7"/>
<rect x="25.4" y="26.4" width="1.7" height="1.7"/>
<rect x="22" y="26.4" width="1.7" height="1.7"/>
</svg>
