<?xml version="1.0" encoding="utf-8"?>
<!-- Generator: Adobe Illustrator 25.2.3, SVG Export Plug-In . SVG Version: 6.00 Build 0)  -->
<svg version="1.1"
	 id="Calque_1" xmlns:cc="http://creativecommons.org/ns#" xmlns:dc="http://purl.org/dc/elements/1.1/" xmlns:rdf="http://www.w3.org/1999/02/22-rdf-syntax-ns#" xmlns:svg="http://www.w3.org/2000/svg"
	 xmlns="http://www.w3.org/2000/svg" xmlns:xlink="http://www.w3.org/1999/xlink" x="0px" y="0px" viewBox="0 0 48 48"
	 style="enable-background:new 0 0 48 48;" xml:space="preserve" width="44px" height="44px">
<g transform="translate(0,1.97e-4)">
	<path d="M12,7.2c-2,0-3.6,1.6-3.6,3.6v26.4c0,2,1.6,3.6,3.6,3.6c8,0,16,0,24,0c2,0,3.6-1.6,3.6-3.6V16.8c0-0.3-0.1-0.6-0.4-0.8
		l-8.4-8.4c-0.2-0.2-0.5-0.4-0.8-0.4H12z M12,9.6h1.2v4.5c0,1.5,1.2,2.7,2.7,2.7h9c1.5,0,2.7-1.2,2.7-2.7V9.6h1.9l7.7,7.7v19.9
		c0,0.7-0.5,1.2-1.2,1.2h-2.4v-12c0-2-1.6-3.6-3.6-3.6H18c-2,0-3.6,1.6-3.6,3.6v12H12c-0.7,0-1.2-0.5-1.2-1.2V10.8
		C10.8,10.1,11.3,9.6,12,9.6z M15.6,9.6h9.6v4.5c0,0.2-0.1,0.3-0.3,0.3h-9c-0.2,0-0.3-0.1-0.3-0.3V9.6z M18,25.2h12
		c0.7,0,1.2,0.5,1.2,1.2v12H16.8v-12C16.8,25.7,17.3,25.2,18,25.2z"/>
</g>
</svg>
