<svg id="Calque_2" data-name="Calque 2" xmlns="http://www.w3.org/2000/svg" xmlns:xlink="http://www.w3.org/1999/xlink" viewBox="0 0 783.74 548.17"><defs><style>.cls-1,.cls-8{fill:none;}.cls-12,.cls-2,.cls-34{fill:#fff;}.cls-3{fill:#010101;}.cls-4{fill:#13110e;}.cls-5{fill:#010202;}.cls-6{fill:#95c122;}.cls-7{fill:#3eab37;}.cls-11,.cls-12,.cls-33,.cls-8{stroke:#1e1e1c;stroke-miterlimit:10;}.cls-13,.cls-28,.cls-29,.cls-34,.cls-9{isolation:isolate;}.cls-9{font-size:9.97px;}.cls-13,.cls-29,.cls-9{fill:#1e1e1c;font-family:Raleway-Regular, Raleway;}.cls-10{clip-path:url(#clip-path);}.cls-11,.cls-17{fill:#1d1d1b;}.cls-13{font-size:10.51px;}.cls-14{letter-spacing:-0.04em;}.cls-15{fill:#3d3d3b;}.cls-16{fill:#c6c6c6;}.cls-17{font-size:15px;font-family:Raleway-Black, Raleway;}.cls-17,.cls-34{font-weight:800;}.cls-18{fill:#009fe3;}.cls-19{letter-spacing:-0.02em;}.cls-20{letter-spacing:-0.03em;}.cls-21{fill:#ffcc07;}.cls-22{clip-path:url(#clip-path-2);}.cls-23{fill:#e6332a;}.cls-24{letter-spacing:-0.01em;}.cls-25{letter-spacing:-0.03em;}.cls-26{fill:#3aaa35;}.cls-27{clip-path:url(#clip-path-3);}.cls-29{font-size:11.41px;}.cls-30{fill:#fab334;}.cls-31{fill:#e94f1d;}.cls-32{clip-path:url(#clip-path-4);}.cls-33{fill:#3ba9e0;}.cls-34{font-size:19.03px;font-family:Raleway-ExtraBold, Raleway;}.cls-35{clip-path:url(#clip-path-6);}.cls-36{fill:#e50c7e;}.cls-37{fill:#941e81;}.cls-38{clip-path:url(#clip-path-9);}.cls-39{clip-path:url(#clip-path-10);}.cls-40{clip-path:url(#clip-path-11);}.cls-41{clip-path:url(#clip-path-12);}.cls-42{clip-path:url(#clip-path-13);}.cls-43{clip-path:url(#clip-path-14);}.cls-44{clip-path:url(#clip-path-15);}.cls-45{clip-path:url(#clip-path-16);}.cls-46{clip-path:url(#clip-path-17);}.cls-47{clip-path:url(#clip-path-18);}.cls-48{clip-path:url(#clip-path-19);}.cls-49{clip-path:url(#clip-path-20);}.cls-50{clip-path:url(#clip-path-21);}.cls-51{clip-path:url(#clip-path-22);}.cls-52{clip-path:url(#clip-path-23);}.cls-53{clip-path:url(#clip-path-24);}.cls-54{clip-path:url(#clip-path-25);}.cls-55{clip-path:url(#clip-path-26);}.cls-56{clip-path:url(#clip-path-27);}.cls-57{clip-path:url(#clip-path-28);}.cls-58{clip-path:url(#clip-path-29);}.cls-59{clip-path:url(#clip-path-30);}.cls-60{clip-path:url(#clip-path-31);}.cls-61{clip-path:url(#clip-path-32);}.cls-62{clip-path:url(#clip-path-33);}.cls-63{clip-path:url(#clip-path-34);}.cls-64{clip-path:url(#clip-path-35);}.cls-65{clip-path:url(#clip-path-36);}.cls-66{clip-path:url(#clip-path-37);}.cls-67{clip-path:url(#clip-path-38);}.cls-68{clip-path:url(#clip-path-39);}.cls-69{clip-path:url(#clip-path-40);}.cls-70{clip-path:url(#clip-path-41);}.cls-71{clip-path:url(#clip-path-42);}.cls-72{clip-path:url(#clip-path-43);}</style><clipPath id="clip-path"><rect class="cls-1" x="15.38" y="17.57" width="52.38" height="52.38"/></clipPath><clipPath id="clip-path-2"><rect class="cls-1" x="39.12" y="1.46" width="39.42" height="39.42"/></clipPath><clipPath id="clip-path-3"><rect class="cls-1" x="39.93" y="13.83" width="39.42" height="39.42"/></clipPath><clipPath id="clip-path-4"><rect class="cls-1" x="15.38" y="15.44" width="52.38" height="52.38"/></clipPath><clipPath id="clip-path-6"><rect class="cls-1" x="15.08" y="15.44" width="52.38" height="52.38"/></clipPath><clipPath id="clip-path-9"><rect class="cls-1" x="15.38" y="15.33" width="52.38" height="52.38"/></clipPath><clipPath id="clip-path-10" transform="translate(-22.51 -21.96)"><rect class="cls-1" x="22.52" y="22.38" width="82.37" height="82.37"/></clipPath><clipPath id="clip-path-11" transform="translate(-22.51 -21.96)"><rect class="cls-1" x="104.88" y="22.38" width="82.37" height="82.37"/></clipPath><clipPath id="clip-path-12" transform="translate(-22.51 -21.96)"><rect class="cls-1" x="187.25" y="22.38" width="82.37" height="82.37"/></clipPath><clipPath id="clip-path-13" transform="translate(-22.51 -21.96)"><rect class="cls-1" x="269.62" y="22.38" width="82.37" height="82.37"/></clipPath><clipPath id="clip-path-14" transform="translate(-22.51 -21.96)"><rect class="cls-1" x="22.52" y="187.12" width="82.37" height="82.37"/></clipPath><clipPath id="clip-path-15" transform="translate(-22.51 -21.96)"><rect class="cls-1" x="104.88" y="187.12" width="82.37" height="82.37"/></clipPath><clipPath id="clip-path-16" transform="translate(-22.51 -21.96)"><rect class="cls-1" x="187.25" y="187.12" width="82.37" height="82.37"/></clipPath><clipPath id="clip-path-17" transform="translate(-22.51 -21.96)"><rect class="cls-1" x="269.62" y="187.12" width="82.37" height="82.37"/></clipPath><clipPath id="clip-path-18" transform="translate(-22.51 -21.96)"><rect class="cls-1" x="22.52" y="269.48" width="82.37" height="82.37"/></clipPath><clipPath id="clip-path-19" transform="translate(-22.51 -21.96)"><rect class="cls-1" x="104.88" y="269.48" width="82.37" height="82.37"/></clipPath><clipPath id="clip-path-20" transform="translate(-22.51 -21.96)"><rect class="cls-1" x="22.52" y="351.85" width="82.37" height="82.37"/></clipPath><clipPath id="clip-path-21" transform="translate(-22.51 -21.96)"><rect class="cls-1" x="351.97" y="269.53" width="82.37" height="82.37"/></clipPath><clipPath id="clip-path-22" transform="translate(-22.51 -21.96)"><rect class="cls-1" x="434.34" y="269.53" width="82.37" height="82.37"/></clipPath><clipPath id="clip-path-23" transform="translate(-22.51 -21.96)"><rect class="cls-1" x="187.25" y="269.48" width="82.37" height="82.37"/></clipPath><clipPath id="clip-path-24" transform="translate(-22.51 -21.96)"><rect class="cls-1" x="269.62" y="269.48" width="82.37" height="82.37"/></clipPath><clipPath id="clip-path-25" transform="translate(-22.51 -21.96)"><rect class="cls-1" x="516.71" y="269.53" width="82.37" height="82.37"/></clipPath><clipPath id="clip-path-26" transform="translate(-22.51 -21.96)"><rect class="cls-1" x="599.08" y="269.53" width="82.37" height="82.37"/></clipPath><clipPath id="clip-path-27" transform="translate(-22.51 -21.96)"><rect class="cls-1" x="104.88" y="351.85" width="82.37" height="82.37"/></clipPath><clipPath id="clip-path-28" transform="translate(-22.51 -21.96)"><rect class="cls-1" x="187.25" y="351.85" width="82.37" height="82.37"/></clipPath><clipPath id="clip-path-29" transform="translate(-22.51 -21.96)"><rect class="cls-1" x="434.33" y="351.81" width="82.37" height="82.37"/></clipPath><clipPath id="clip-path-30" transform="translate(-22.51 -21.96)"><rect class="cls-1" x="516.7" y="351.81" width="82.37" height="82.37"/></clipPath><clipPath id="clip-path-31" transform="translate(-22.51 -21.96)"><rect class="cls-1" x="351.98" y="22.38" width="82.37" height="82.37"/></clipPath><clipPath id="clip-path-32" transform="translate(-22.51 -21.96)"><rect class="cls-1" x="434.35" y="22.38" width="82.37" height="82.37"/></clipPath><clipPath id="clip-path-33" transform="translate(-22.51 -21.96)"><rect class="cls-1" x="516.72" y="22.38" width="82.37" height="82.37"/></clipPath><clipPath id="clip-path-34" transform="translate(-22.51 -21.96)"><rect class="cls-1" x="599.09" y="22.38" width="82.37" height="82.37"/></clipPath><clipPath id="clip-path-35" transform="translate(-22.51 -21.96)"><rect class="cls-1" x="351.98" y="187.12" width="82.37" height="82.37"/></clipPath><clipPath id="clip-path-36" transform="translate(-22.51 -21.96)"><rect class="cls-1" x="434.35" y="187.12" width="82.37" height="82.37"/></clipPath><clipPath id="clip-path-37" transform="translate(-22.51 -21.96)"><rect class="cls-1" x="516.72" y="187.12" width="82.37" height="82.37"/></clipPath><clipPath id="clip-path-38" transform="translate(-22.51 -21.96)"><rect class="cls-1" x="599.09" y="187.12" width="82.37" height="82.37"/></clipPath><clipPath id="clip-path-39" transform="translate(-22.51 -21.96)"><rect class="cls-1" x="269.62" y="351.85" width="82.37" height="82.37"/></clipPath><clipPath id="clip-path-40" transform="translate(-22.51 -21.96)"><rect class="cls-1" x="599.07" y="351.81" width="82.37" height="82.37"/></clipPath><clipPath id="clip-path-41" transform="translate(-22.51 -21.96)"><rect class="cls-1" x="681.46" y="22.38" width="82.37" height="82.37"/></clipPath><clipPath id="clip-path-42" transform="translate(-22.51 -21.96)"><rect class="cls-1" x="681.46" y="187.12" width="82.37" height="82.37"/></clipPath><clipPath id="clip-path-43" transform="translate(-22.51 -21.96)"><rect class="cls-1" x="351.97" y="351.85" width="82.37" height="82.37"/></clipPath><symbol id="_109" data-name=" 109" viewBox="0 0 54 54"><circle id="circle409" class="cls-2" cx="27" cy="27" r="27"/><path id="path411" class="cls-2" d="M14.45,3.09A27,27,0,0,1,27,0V27Z"/><path id="path413" class="cls-5" d="M4.78,11.66a26.93,26.93,0,0,1,9.67-8.57L27,27Z"/><path id="path415" class="cls-2" d="M.2,23.75A27.1,27.1,0,0,1,4.78,11.66L27,27Z"/><path id="path417" class="cls-2" d="M1.75,36.57A26.91,26.91,0,0,1,.2,23.75L27,27Z"/><path id="path419" class="cls-5" d="M9.1,47.21A26.94,26.94,0,0,1,1.75,36.57L27,27Z"/><path id="path421" class="cls-2" d="M20.54,53.22a26.91,26.91,0,0,1-11.44-6L27,27Z"/><path id="path423" class="cls-2" d="M33.46,53.22a27.14,27.14,0,0,1-12.92,0L27,27Z"/><path id="path425" class="cls-5" d="M44.9,47.21a26.91,26.91,0,0,1-11.44,6L27,27Z"/><path id="path427" class="cls-5" d="M52.25,36.57A26.94,26.94,0,0,1,44.9,47.21L27,27Z"/><path id="path429" class="cls-5" d="M53.8,23.75a26.91,26.91,0,0,1-1.55,12.82L27,27Z"/><path id="path431" class="cls-5" d="M49.22,11.66A27.1,27.1,0,0,1,53.8,23.75L27,27Z"/><path id="path433" class="cls-5" d="M39.55,3.09a26.93,26.93,0,0,1,9.67,8.57L27,27Z"/><path id="path435" class="cls-5" d="M27,0A27,27,0,0,1,39.55,3.09L27,27Z"/><circle id="circle437" class="cls-2" cx="27" cy="27" r="20.25"/><circle id="circle439" class="cls-5" cx="27" cy="27" r="13.5"/><circle id="circle441" class="cls-2" cx="27" cy="27" r="6.75"/></symbol><symbol id="Bas" data-name="Bas" viewBox="0 0 83.2 83.2"><path class="cls-6" d="M2.25,40h0a1.16,1.16,0,0,1,.24-.34l35.62-32a.61.61,0,0,1,.41-.15h6.16a.61.61,0,0,1,.41.15l35.62,32A.94.94,0,0,1,81,40h0c.41,1,1.74,4.94,1.74-.41v-2a.7.7,0,0,0-.22-.51L42,.65a.61.61,0,0,0-.82,0L.72,37.2a.73.73,0,0,0-.22.52v1.91C.5,43.91,1.83,41,2.25,40Z"/><path class="cls-7" d="M80.87,39.84,42,4.91a.64.64,0,0,0-.84,0L2.33,39.84A5.65,5.65,0,0,0,.5,44.05V77.2a5.32,5.32,0,0,0,5.14,5.5H77.56a5.32,5.32,0,0,0,5.14-5.5V44.06A5.69,5.69,0,0,0,80.87,39.84Z"/><path class="cls-8" d="M6.16.5H77a5.65,5.65,0,0,1,5.7,5.6V77A5.65,5.65,0,0,1,77,82.7H6.16A5.68,5.68,0,0,1,.5,77V6.2A5.65,5.65,0,0,1,6.12.5Z"/><text class="cls-9" transform="matrix(1.07, 0, 0, -1, 2.54, 2.88)">B</text><g class="cls-10"><use width="54" height="54" transform="matrix(-0.97, 0, 0, 0.97, 68.08, 17.82)" xlink:href="#_109"/></g><polygon class="cls-11" points="67.96 82.7 82.7 67.96 82.7 82.7 67.96 82.7"/></symbol><symbol id="_103" data-name=" 103" viewBox="0 0 54 54"><circle id="circle337" class="cls-2" cx="27" cy="27" r="27"/><path id="path339" class="cls-2" d="M14.45,3.09A27,27,0,0,1,27,0V27Z"/><path id="path341" class="cls-2" d="M4.78,11.66a26.93,26.93,0,0,1,9.67-8.57L27,27Z"/><path id="path343" class="cls-2" d="M.2,23.75A27.1,27.1,0,0,1,4.78,11.66L27,27Z"/><path id="path345" class="cls-4" d="M1.75,36.57A26.91,26.91,0,0,1,.2,23.75L27,27Z"/><path id="path347" class="cls-4" d="M9.1,47.21A26.94,26.94,0,0,1,1.75,36.57L27,27Z"/><path id="path349" class="cls-2" d="M20.54,53.22a26.91,26.91,0,0,1-11.44-6L27,27Z"/><path id="path351" class="cls-2" d="M33.46,53.22a27.14,27.14,0,0,1-12.92,0L27,27Z"/><path id="path353" class="cls-4" d="M44.9,47.21a26.91,26.91,0,0,1-11.44,6L27,27Z"/><path id="path355" class="cls-4" d="M52.25,36.57A26.94,26.94,0,0,1,44.9,47.21L27,27Z"/><path id="path357" class="cls-4" d="M53.8,23.75a26.91,26.91,0,0,1-1.55,12.82L27,27Z"/><path id="path359" class="cls-4" d="M49.22,11.66A27.1,27.1,0,0,1,53.8,23.75L27,27Z"/><path id="path361" class="cls-4" d="M39.55,3.09a26.93,26.93,0,0,1,9.67,8.57L27,27Z"/><path id="path363" class="cls-4" d="M27,0A27,27,0,0,1,39.55,3.09L27,27Z"/><circle id="circle365" class="cls-2" cx="27" cy="27" r="20.25"/><circle id="circle367" class="cls-4" cx="27" cy="27" r="13.5"/><circle id="circle369" class="cls-2" cx="27" cy="27" r="6.75"/></symbol><symbol id="Droite" data-name="Droite" viewBox="0 0 83.2 83.2"><path class="cls-30" d="M43.05,2.2h0a.94.94,0,0,1,.34.25l32,35.62a.61.61,0,0,1,.15.41v6.2a.61.61,0,0,1-.15.41l-32,35.62a1.16,1.16,0,0,1-.34.24h0c-.95.42-4.93,1.75.41,1.75H45.4a.73.73,0,0,0,.52-.22L82.34,42a.61.61,0,0,0,0-.82L45.91.72A.7.7,0,0,0,45.4.5H43.46C39.19.5,42.1,1.83,43.05,2.2Z"/><path class="cls-31" d="M43.25,80.87,78.09,42a.62.62,0,0,0,0-.84L43.25,2.33A5.67,5.67,0,0,0,39.05.5H6A5.32,5.32,0,0,0,.5,5.63h0V77.56A5.32,5.32,0,0,0,6,82.7H39.05A5.67,5.67,0,0,0,43.25,80.87Z"/><g class="cls-32"><use width="54" height="54" transform="matrix(-0.97, 0, 0, 0.97, 68.08, 15.69)" xlink:href="#_103"/></g><rect class="cls-8" x="0.5" y="0.5" width="82.2" height="82.2" rx="5.66"/><text class="cls-9" transform="matrix(1.07, 0, 0, -1, 2.54, 3.67)">D</text><polygon class="cls-11" points="67.96 82.7 82.7 67.96 82.7 82.7 67.96 82.7"/></symbol><symbol id="_107" data-name=" 107" viewBox="0 0 54 54"><circle id="circle373" class="cls-2" cx="27" cy="27" r="27"/><path id="path375" class="cls-2" d="M14.45,3.09A27,27,0,0,1,27,0V27Z"/><path id="path377" class="cls-2" d="M4.78,11.66a26.93,26.93,0,0,1,9.67-8.57L27,27Z"/><path id="path379" class="cls-5" d="M.2,23.75A27.1,27.1,0,0,1,4.78,11.66L27,27Z"/><path id="path381" class="cls-2" d="M1.75,36.57A26.91,26.91,0,0,1,.2,23.75L27,27Z"/><path id="path383" class="cls-5" d="M9.1,47.21A26.94,26.94,0,0,1,1.75,36.57L27,27Z"/><path id="path385" class="cls-2" d="M20.54,53.22a26.91,26.91,0,0,1-11.44-6L27,27Z"/><path id="path387" class="cls-2" d="M33.46,53.22a27.14,27.14,0,0,1-12.92,0L27,27Z"/><path id="path389" class="cls-5" d="M44.9,47.21a26.91,26.91,0,0,1-11.44,6L27,27Z"/><path id="path391" class="cls-5" d="M52.25,36.57A26.94,26.94,0,0,1,44.9,47.21L27,27Z"/><path id="path393" class="cls-5" d="M53.8,23.75a26.91,26.91,0,0,1-1.55,12.82L27,27Z"/><path id="path395" class="cls-5" d="M49.22,11.66A27.1,27.1,0,0,1,53.8,23.75L27,27Z"/><path id="path397" class="cls-5" d="M39.55,3.09a26.93,26.93,0,0,1,9.67,8.57L27,27Z"/><path id="path399" class="cls-5" d="M27,0A27,27,0,0,1,39.55,3.09L27,27Z"/><circle id="circle401" class="cls-2" cx="27" cy="27" r="20.25"/><circle id="circle403" class="cls-5" cx="27" cy="27" r="13.5"/><circle id="circle405" class="cls-2" cx="27" cy="27" r="6.75"/></symbol><symbol id="Gauche" data-name="Gauche" viewBox="0 0 83.2 83.2"><path class="cls-36" d="M40.15,81h0a1,1,0,0,1-.33-.24L7.87,45.09a.62.62,0,0,1-.16-.41V38.52a.62.62,0,0,1,.16-.41l32-35.62a.9.9,0,0,1,.33-.25h0c1-.41,4.93-1.74-.41-1.74h-2a.7.7,0,0,0-.51.22L.87,41.2a.59.59,0,0,0,0,.82L37.29,82.48a.73.73,0,0,0,.52.22h1.93C44,82.7,41.1,81.37,40.15,81Z"/><path class="cls-37" d="M40,2.33,5.12,41.2a.62.62,0,0,0,0,.84L40,80.87a5.63,5.63,0,0,0,4.16,1.83H77.22a5.32,5.32,0,0,0,5.48-5.14V5.64A5.32,5.32,0,0,0,77.22.5H44.16A5.63,5.63,0,0,0,40,2.33Z"/><path class="cls-8" d="M6.16.5H77a5.65,5.65,0,0,1,5.7,5.6V77A5.65,5.65,0,0,1,77,82.7H6.16A5.68,5.68,0,0,1,.5,77V6.2A5.65,5.65,0,0,1,6.12.5Z"/><g class="cls-28"><text class="cls-9" transform="matrix(1.07, 0, 0, -1, 2.54, 2.88)">G</text><text class="cls-28"/><text class="cls-28"/></g><g class="cls-38"><use width="54" height="54" transform="matrix(-0.97, 0, 0, 0.97, 68.08, 15.58)" xlink:href="#_107"/></g><polygon class="cls-11" points="67.96 82.7 82.7 67.96 82.7 82.7 67.96 82.7"/></symbol><symbol id="_115" data-name=" 115" viewBox="0 0 54 54"><circle id="circle445" class="cls-2" cx="27" cy="27" r="27"/><path id="path447" class="cls-2" d="M14.45,3.09A27,27,0,0,1,27,0V27Z"/><path id="path449" class="cls-2" d="M4.78,11.66a26.93,26.93,0,0,1,9.67-8.57L27,27Z"/><path id="path451" class="cls-5" d="M.2,23.75A27.1,27.1,0,0,1,4.78,11.66L27,27Z"/><path id="path453" class="cls-5" d="M1.75,36.57A26.91,26.91,0,0,1,.2,23.75L27,27Z"/><path id="path455" class="cls-2" d="M9.1,47.21A26.94,26.94,0,0,1,1.75,36.57L27,27Z"/><path id="path457" class="cls-2" d="M20.54,53.22a26.91,26.91,0,0,1-11.44-6L27,27Z"/><path id="path459" class="cls-2" d="M33.46,53.22a27.14,27.14,0,0,1-12.92,0L27,27Z"/><path id="path461" class="cls-5" d="M44.9,47.21a26.91,26.91,0,0,1-11.44,6L27,27Z"/><path id="path463" class="cls-5" d="M52.25,36.57A26.94,26.94,0,0,1,44.9,47.21L27,27Z"/><path id="path465" class="cls-5" d="M53.8,23.75a26.91,26.91,0,0,1-1.55,12.82L27,27Z"/><path id="path467" class="cls-5" d="M49.22,11.66A27.1,27.1,0,0,1,53.8,23.75L27,27Z"/><path id="path469" class="cls-5" d="M39.55,3.09a26.93,26.93,0,0,1,9.67,8.57L27,27Z"/><path id="path471" class="cls-5" d="M27,0A27,27,0,0,1,39.55,3.09L27,27Z"/><circle id="circle473" class="cls-2" cx="27" cy="27" r="20.25"/><circle id="circle475" class="cls-5" cx="27" cy="27" r="13.5"/><circle id="circle477" class="cls-2" cx="27" cy="27" r="6.75"/></symbol><symbol id="F0" data-name="F0" viewBox="0 0 83.2 83.2"><path class="cls-33" d="M6.16.5H77a5.65,5.65,0,0,1,5.7,5.6V77A5.65,5.65,0,0,1,77,82.7H6.16A5.68,5.68,0,0,1,.5,77V6.2A5.65,5.65,0,0,1,6.12.5Z"/><text class="cls-28"/><g class="cls-32"><use width="54" height="54" transform="matrix(-0.97, 0, 0, 0.97, 68.08, 15.69)" xlink:href="#_115"/></g><text class="cls-34" transform="matrix(1.07, 0, 0, -1, 4.15, 65.56)">P0</text><polygon class="cls-11" points="67.96 82.7 82.7 67.96 82.7 82.7 67.96 82.7"/></symbol><symbol id="_117" data-name=" 117" viewBox="0 0 54 54"><circle id="circle481" class="cls-2" cx="27" cy="27" r="27"/><path id="path483" class="cls-2" d="M14.45,3.09A27,27,0,0,1,27,0V27Z"/><path id="path485" class="cls-5" d="M4.78,11.66a26.93,26.93,0,0,1,9.67-8.57L27,27Z"/><path id="path487" class="cls-2" d="M.2,23.75A27.1,27.1,0,0,1,4.78,11.66L27,27Z"/><path id="path489" class="cls-5" d="M1.75,36.57A26.91,26.91,0,0,1,.2,23.75L27,27Z"/><path id="path491" class="cls-2" d="M9.1,47.21A26.94,26.94,0,0,1,1.75,36.57L27,27Z"/><path id="path493" class="cls-2" d="M20.54,53.22a26.91,26.91,0,0,1-11.44-6L27,27Z"/><path id="path495" class="cls-2" d="M33.46,53.22a27.14,27.14,0,0,1-12.92,0L27,27Z"/><path id="path497" class="cls-5" d="M44.9,47.21a26.91,26.91,0,0,1-11.44,6L27,27Z"/><path id="path499" class="cls-5" d="M52.25,36.57A26.94,26.94,0,0,1,44.9,47.21L27,27Z"/><path id="path501" class="cls-5" d="M53.8,23.75a26.91,26.91,0,0,1-1.55,12.82L27,27Z"/><path id="path503" class="cls-5" d="M49.22,11.66A27.1,27.1,0,0,1,53.8,23.75L27,27Z"/><path id="path505" class="cls-5" d="M39.55,3.09a26.93,26.93,0,0,1,9.67,8.57L27,27Z"/><path id="path507" class="cls-5" d="M27,0A27,27,0,0,1,39.55,3.09L27,27Z"/><circle id="circle509" class="cls-2" cx="27" cy="27" r="20.25"/><circle id="circle511" class="cls-5" cx="27" cy="27" r="13.5"/><circle id="circle513" class="cls-2" cx="27" cy="27" r="6.75"/></symbol><symbol id="F1" data-name="F1" viewBox="0 0 83.2 83.2"><path class="cls-33" d="M6.16.5H77a5.65,5.65,0,0,1,5.7,5.6V77A5.65,5.65,0,0,1,77,82.7H6.16A5.68,5.68,0,0,1,.5,77V6.2A5.65,5.65,0,0,1,6.12.5Z"/><g class="cls-28"><text class="cls-28"/><text class="cls-28"/><text class="cls-28"/></g><text class="cls-34" transform="matrix(1.07, 0, 0, -1, 4.15, 65.56)">P1</text><g class="cls-35"><use width="54" height="54" transform="matrix(-0.97, 0, 0, 0.97, 67.78, 15.69)" xlink:href="#_117"/></g><polygon class="cls-11" points="67.96 82.7 82.7 67.96 82.7 82.7 67.96 82.7"/></symbol><symbol id="_121" data-name=" 121" viewBox="0 0 54 54"><circle id="circle517" class="cls-2" cx="27" cy="27" r="27"/><path id="path519" class="cls-2" d="M14.45,3.09A27,27,0,0,1,27,0V27Z"/><path id="path521" class="cls-5" d="M4.78,11.66a26.93,26.93,0,0,1,9.67-8.57L27,27Z"/><path id="path523" class="cls-5" d="M.2,23.75A27.1,27.1,0,0,1,4.78,11.66L27,27Z"/><path id="path525" class="cls-2" d="M1.75,36.57A26.91,26.91,0,0,1,.2,23.75L27,27Z"/><path id="path527" class="cls-2" d="M9.1,47.21A26.94,26.94,0,0,1,1.75,36.57L27,27Z"/><path id="path529" class="cls-2" d="M20.54,53.22a26.91,26.91,0,0,1-11.44-6L27,27Z"/><path id="path531" class="cls-2" d="M33.46,53.22a27.14,27.14,0,0,1-12.92,0L27,27Z"/><path id="path533" class="cls-5" d="M44.9,47.21a26.91,26.91,0,0,1-11.44,6L27,27Z"/><path id="path535" class="cls-5" d="M52.25,36.57A26.94,26.94,0,0,1,44.9,47.21L27,27Z"/><path id="path537" class="cls-5" d="M53.8,23.75a26.91,26.91,0,0,1-1.55,12.82L27,27Z"/><path id="path539" class="cls-5" d="M49.22,11.66A27.1,27.1,0,0,1,53.8,23.75L27,27Z"/><path id="path541" class="cls-5" d="M39.55,3.09a26.93,26.93,0,0,1,9.67,8.57L27,27Z"/><path id="path543" class="cls-5" d="M27,0A27,27,0,0,1,39.55,3.09L27,27Z"/><circle id="circle545" class="cls-2" cx="27" cy="27" r="20.25"/><circle id="circle547" class="cls-5" cx="27" cy="27" r="13.5"/><circle id="circle549" class="cls-2" cx="27" cy="27" r="6.75"/></symbol><symbol id="F2" data-name="F2" viewBox="0 0 83.2 83.2"><path class="cls-33" d="M6.16.5H77a5.65,5.65,0,0,1,5.7,5.6V77A5.65,5.65,0,0,1,77,82.7H6.16A5.68,5.68,0,0,1,.5,77V6.2A5.65,5.65,0,0,1,6.12.5Z"/><text class="cls-28"/><text class="cls-34" transform="matrix(1.07, 0, 0, -1, 4.15, 65.56)">P2</text><g class="cls-32"><use width="54" height="54" transform="matrix(-0.97, 0, 0, 0.97, 68.08, 15.69)" xlink:href="#_121"/></g><polygon class="cls-11" points="67.96 82.7 82.7 67.96 82.7 82.7 67.96 82.7"/></symbol><symbol id="_167" data-name=" 167" viewBox="0 0 54 54"><circle id="circle697" class="cls-2" cx="27" cy="27" r="27"/><path id="path699" class="cls-2" d="M14.45,3.09A27,27,0,0,1,27,0V27Z"/><path id="path701" class="cls-2" d="M4.78,11.66a26.93,26.93,0,0,1,9.67-8.57L27,27Z"/><path id="path703" class="cls-2" d="M.2,23.75A27.1,27.1,0,0,1,4.78,11.66L27,27Z"/><path id="path705" class="cls-5" d="M1.75,36.57A26.91,26.91,0,0,1,.2,23.75L27,27Z"/><path id="path707" class="cls-5" d="M9.1,47.21A26.94,26.94,0,0,1,1.75,36.57L27,27Z"/><path id="path709" class="cls-2" d="M20.54,53.22a26.91,26.91,0,0,1-11.44-6L27,27Z"/><path id="path711" class="cls-5" d="M33.46,53.22a27.14,27.14,0,0,1-12.92,0L27,27Z"/><path id="path713" class="cls-2" d="M44.9,47.21a26.91,26.91,0,0,1-11.44,6L27,27Z"/><path id="path715" class="cls-5" d="M52.25,36.57A26.94,26.94,0,0,1,44.9,47.21L27,27Z"/><path id="path717" class="cls-5" d="M53.8,23.75a26.91,26.91,0,0,1-1.55,12.82L27,27Z"/><path id="path719" class="cls-5" d="M49.22,11.66A27.1,27.1,0,0,1,53.8,23.75L27,27Z"/><path id="path721" class="cls-5" d="M39.55,3.09a26.93,26.93,0,0,1,9.67,8.57L27,27Z"/><path id="path723" class="cls-5" d="M27,0A27,27,0,0,1,39.55,3.09L27,27Z"/><circle id="circle725" class="cls-2" cx="27" cy="27" r="20.25"/><circle id="circle727" class="cls-5" cx="27" cy="27" r="13.5"/><circle id="circle729" class="cls-2" cx="27" cy="27" r="6.75"/></symbol><symbol id="Condition_Jaune" data-name="Condition Jaune" viewBox="0 0 83.2 42.1"><rect class="cls-12" x="0.5" y="0.5" width="82.2" height="41.1" rx="5.67"/><text class="cls-13" transform="matrix(1.04, 0, 0, -1, 3.12, 3.05)"><tspan class="cls-19">J</tspan><tspan class="cls-20" x="4.9" y="0">A</tspan><tspan x="11.68" y="0">UNE</tspan></text><rect class="cls-15" x="7.53" y="14.91" width="28.76" height="22.77" rx="1.98"/><rect class="cls-21" x="14.18" y="14.91" width="15.46" height="17.16"/><g class="cls-22"><use width="54" height="54" transform="matrix(-0.73, 0, 0, 0.73, 78.78, 1.65)" xlink:href="#_167"/></g></symbol><symbol id="_143" data-name=" 143" viewBox="0 0 54 54"><circle id="circle553" class="cls-2" cx="27" cy="27" r="27"/><path id="path555" class="cls-2" d="M14.45,3.09A27,27,0,0,1,27,0V27Z"/><path id="path557" class="cls-2" d="M4.78,11.66a26.93,26.93,0,0,1,9.67-8.57L27,27Z"/><path id="path559" class="cls-2" d="M.2,23.75A27.1,27.1,0,0,1,4.78,11.66L27,27Z"/><path id="path561" class="cls-2" d="M1.75,36.57A26.91,26.91,0,0,1,.2,23.75L27,27Z"/><path id="path563" class="cls-5" d="M9.1,47.21A26.94,26.94,0,0,1,1.75,36.57L27,27Z"/><path id="path565" class="cls-5" d="M20.54,53.22a26.91,26.91,0,0,1-11.44-6L27,27Z"/><path id="path567" class="cls-5" d="M33.46,53.22a27.14,27.14,0,0,1-12.92,0L27,27Z"/><path id="path569" class="cls-2" d="M44.9,47.21a26.91,26.91,0,0,1-11.44,6L27,27Z"/><path id="path571" class="cls-5" d="M52.25,36.57A26.94,26.94,0,0,1,44.9,47.21L27,27Z"/><path id="path573" class="cls-5" d="M53.8,23.75a26.91,26.91,0,0,1-1.55,12.82L27,27Z"/><path id="path575" class="cls-5" d="M49.22,11.66A27.1,27.1,0,0,1,53.8,23.75L27,27Z"/><path id="path577" class="cls-5" d="M39.55,3.09a26.93,26.93,0,0,1,9.67,8.57L27,27Z"/><path id="path579" class="cls-5" d="M27,0A27,27,0,0,1,39.55,3.09L27,27Z"/><circle id="circle581" class="cls-2" cx="27" cy="27" r="20.25"/><circle id="circle583" class="cls-5" cx="27" cy="27" r="13.5"/><circle id="circle585" class="cls-2" cx="27" cy="27" r="6.75"/></symbol><symbol id="F3" data-name="F3" viewBox="0 0 83.2 83.2"><path class="cls-33" d="M6.16.5H77a5.65,5.65,0,0,1,5.7,5.6V77A5.65,5.65,0,0,1,77,82.7H6.16A5.68,5.68,0,0,1,.5,77V6.2A5.65,5.65,0,0,1,6.12.5Z"/><text class="cls-28"/><text class="cls-34" transform="matrix(1.07, 0, 0, -1, 4.15, 65.56)">P3</text><g class="cls-32"><use width="54" height="54" transform="matrix(-0.97, 0, 0, 0.97, 68.08, 15.69)" xlink:href="#_143"/></g><polygon class="cls-11" points="67.96 82.7 82.7 67.96 82.7 82.7 67.96 82.7"/></symbol><symbol id="_157" data-name=" 157" viewBox="0 0 54 54"><circle id="circle661" class="cls-2" cx="27" cy="27" r="27"/><path id="path663" class="cls-2" d="M14.45,3.09A27,27,0,0,1,27,0V27Z"/><path id="path665" class="cls-5" d="M4.78,11.66a26.93,26.93,0,0,1,9.67-8.57L27,27Z"/><path id="path667" class="cls-2" d="M.2,23.75A27.1,27.1,0,0,1,4.78,11.66L27,27Z"/><path id="path669" class="cls-2" d="M1.75,36.57A26.91,26.91,0,0,1,.2,23.75L27,27Z"/><path id="path671" class="cls-2" d="M9.1,47.21A26.94,26.94,0,0,1,1.75,36.57L27,27Z"/><path id="path673" class="cls-5" d="M20.54,53.22a26.91,26.91,0,0,1-11.44-6L27,27Z"/><path id="path675" class="cls-5" d="M33.46,53.22a27.14,27.14,0,0,1-12.92,0L27,27Z"/><path id="path677" class="cls-2" d="M44.9,47.21a26.91,26.91,0,0,1-11.44,6L27,27Z"/><path id="path679" class="cls-5" d="M52.25,36.57A26.94,26.94,0,0,1,44.9,47.21L27,27Z"/><path id="path681" class="cls-5" d="M53.8,23.75a26.91,26.91,0,0,1-1.55,12.82L27,27Z"/><path id="path683" class="cls-5" d="M49.22,11.66A27.1,27.1,0,0,1,53.8,23.75L27,27Z"/><path id="path685" class="cls-5" d="M39.55,3.09a26.93,26.93,0,0,1,9.67,8.57L27,27Z"/><path id="path687" class="cls-5" d="M27,0A27,27,0,0,1,39.55,3.09L27,27Z"/><circle id="circle689" class="cls-2" cx="27" cy="27" r="20.25"/><circle id="circle691" class="cls-5" cx="27" cy="27" r="13.5"/><circle id="circle693" class="cls-2" cx="27" cy="27" r="6.75"/></symbol><symbol id="Condition_Vide" data-name="Condition Vide" viewBox="0 0 83.2 54.46"><rect class="cls-12" x="0.5" y="12.86" width="82.2" height="41.1" rx="5.67"/><g class="cls-27"><use width="54" height="54" transform="matrix(-0.73, 0, 0, 0.73, 79.59, 14.02)" xlink:href="#_157"/></g><g class="cls-28"><text class="cls-29" transform="matrix(1, 0, 0, -1, 1.87, 16.24)">VIDE</text><text class="cls-28"/><text class="cls-28"/></g><g id="Calque_2-2" data-name="Calque 2"><path class="cls-15" d="M34,49.41H7.8a2,2,0,0,1-2-2V28.79a2,2,0,0,1,2-2h5v17H29v-17h5a2,2,0,0,1,2,2V47.46A2,2,0,0,1,34,49.41Z"/></g></symbol><symbol id="_171" data-name="171" viewBox="0 0 54 54"><circle id="circle733" class="cls-2" cx="27" cy="27" r="27"/><path id="path735" class="cls-2" d="M14.45,50.91A27,27,0,0,0,27,54V27Z"/><path id="path737" class="cls-2" d="M4.78,42.34a26.93,26.93,0,0,0,9.67,8.57L27,27Z"/><path id="path739" class="cls-3" d="M.2,30.25A27,27,0,0,0,4.78,42.34L27,27Z"/><path id="path741" class="cls-2" d="M1.75,17.43A26.93,26.93,0,0,0,.2,30.25L27,27Z"/><path id="path743" class="cls-3" d="M9.1,6.79A26.94,26.94,0,0,0,1.75,17.43L27,27Z"/><path id="path745" class="cls-2" d="M20.54.78a27,27,0,0,0-11.44,6L27,27Z"/><path id="path747" class="cls-3" d="M33.46.78a27.14,27.14,0,0,0-12.92,0L27,27Z"/><path id="path749" class="cls-2" d="M44.9,6.79a27,27,0,0,0-11.44-6L27,27Z"/><path id="path751" class="cls-3" d="M52.25,17.43A26.94,26.94,0,0,0,44.9,6.79L27,27Z"/><path id="path753" class="cls-3" d="M53.8,30.25a26.93,26.93,0,0,0-1.55-12.82L27,27Z"/><path id="path755" class="cls-3" d="M49.22,42.34A27,27,0,0,0,53.8,30.25L27,27Z"/><path id="path757" class="cls-3" d="M39.55,50.91a26.93,26.93,0,0,0,9.67-8.57L27,27Z"/><path id="path759" class="cls-3" d="M27,54a27,27,0,0,0,12.55-3.09L27,27Z"/><circle id="circle761" class="cls-2" cx="27" cy="27" r="20.25"/><circle id="circle763" class="cls-3" cx="27" cy="27" r="13.5"/><circle id="circle765" class="cls-2" cx="27" cy="27" r="6.75"/></symbol><symbol id="Condition_Vert" data-name="Condition Vert" viewBox="0 0 83.2 42.1"><rect class="cls-12" x="0.5" y="0.5" width="82.2" height="41.1" rx="5.67"/><text class="cls-13" transform="translate(2.04 38.62) scale(1.04 1)">VE<tspan class="cls-24" x="13.54" y="0">R</tspan><tspan class="cls-25" x="20.28" y="0">T</tspan></text><rect class="cls-15" x="7.08" y="4.7" width="28.76" height="22.77" rx="1.98"/><rect class="cls-26" x="13.73" y="10.31" width="15.46" height="17.16"/><use width="54" height="54" transform="matrix(-0.73, 0, 0, 0.73, 78.43, 1.21)" xlink:href="#_171"/></symbol><symbol id="_173" data-name="173" viewBox="0 0 54 54"><circle id="circle769" class="cls-2" cx="27" cy="27" r="27"/><path id="path771" class="cls-2" d="M14.45,50.91A27,27,0,0,0,27,54V27Z"/><path id="path773" class="cls-3" d="M4.78,42.34a26.93,26.93,0,0,0,9.67,8.57L27,27Z"/><path id="path775" class="cls-2" d="M.2,30.25A27,27,0,0,0,4.78,42.34L27,27Z"/><path id="path777" class="cls-2" d="M1.75,17.43A26.93,26.93,0,0,0,.2,30.25L27,27Z"/><path id="path779" class="cls-3" d="M9.1,6.79A26.94,26.94,0,0,0,1.75,17.43L27,27Z"/><path id="path781" class="cls-2" d="M20.54.78a27,27,0,0,0-11.44,6L27,27Z"/><path id="path783" class="cls-3" d="M33.46.78a27.14,27.14,0,0,0-12.92,0L27,27Z"/><path id="path785" class="cls-2" d="M44.9,6.79a27,27,0,0,0-11.44-6L27,27Z"/><path id="path787" class="cls-3" d="M52.25,17.43A26.94,26.94,0,0,0,44.9,6.79L27,27Z"/><path id="path789" class="cls-3" d="M53.8,30.25a26.93,26.93,0,0,0-1.55-12.82L27,27Z"/><path id="path791" class="cls-3" d="M49.22,42.34A27,27,0,0,0,53.8,30.25L27,27Z"/><path id="path793" class="cls-3" d="M39.55,50.91a26.93,26.93,0,0,0,9.67-8.57L27,27Z"/><path id="path795" class="cls-3" d="M27,54a27,27,0,0,0,12.55-3.09L27,27Z"/><circle id="circle797" class="cls-2" cx="27" cy="27" r="20.25"/><circle id="circle799" class="cls-3" cx="27" cy="27" r="13.5"/><circle id="circle801" class="cls-2" cx="27" cy="27" r="6.75"/></symbol><symbol id="Condition_Red" data-name="Condition Red" viewBox="0 0 83.2 42.1"><rect class="cls-12" x="0.5" y="0.5" width="82.2" height="41.1" rx="5.67"/><text class="cls-13" transform="translate(2.04 38.62) scale(1.04 1)">ROUGE</text><rect class="cls-15" x="7.08" y="4.7" width="28.76" height="22.77" rx="1.98"/><rect class="cls-23" x="13.73" y="10.31" width="15.46" height="17.16"/><use width="54" height="54" transform="matrix(-0.73, 0, 0, 0.73, 78.43, 1.21)" xlink:href="#_173"/></symbol><symbol id="_179" data-name="179" viewBox="0 0 54 54"><circle id="circle805" class="cls-2" cx="27" cy="27" r="27"/><path id="path807" class="cls-2" d="M14.45,50.91A27,27,0,0,0,27,54V27Z"/><path id="path809" class="cls-2" d="M4.78,42.34a26.93,26.93,0,0,0,9.67,8.57L27,27Z"/><path id="path811" class="cls-3" d="M.2,30.25A27,27,0,0,0,4.78,42.34L27,27Z"/><path id="path813" class="cls-3" d="M1.75,17.43A26.93,26.93,0,0,0,.2,30.25L27,27Z"/><path id="path815" class="cls-2" d="M9.1,6.79A26.94,26.94,0,0,0,1.75,17.43L27,27Z"/><path id="path817" class="cls-2" d="M20.54.78a27,27,0,0,0-11.44,6L27,27Z"/><path id="path819" class="cls-3" d="M33.46.78a27.14,27.14,0,0,0-12.92,0L27,27Z"/><path id="path821" class="cls-2" d="M44.9,6.79a27,27,0,0,0-11.44-6L27,27Z"/><path id="path823" class="cls-3" d="M52.25,17.43A26.94,26.94,0,0,0,44.9,6.79L27,27Z"/><path id="path825" class="cls-3" d="M53.8,30.25a26.93,26.93,0,0,0-1.55-12.82L27,27Z"/><path id="path827" class="cls-3" d="M49.22,42.34A27,27,0,0,0,53.8,30.25L27,27Z"/><path id="path829" class="cls-3" d="M39.55,50.91a26.93,26.93,0,0,0,9.67-8.57L27,27Z"/><path id="path831" class="cls-3" d="M27,54a27,27,0,0,0,12.55-3.09L27,27Z"/><circle id="circle833" class="cls-2" cx="27" cy="27" r="20.25"/><circle id="circle835" class="cls-3" cx="27" cy="27" r="13.5"/><circle id="circle837" class="cls-2" cx="27" cy="27" r="6.75"/></symbol><symbol id="Condition_Blue" data-name="Condition Blue" viewBox="0 0 83.2 42.1"><rect class="cls-12" x="0.5" y="0.5" width="82.2" height="41.1" rx="5.67"/><text class="cls-13" transform="translate(2.04 38.62) scale(1.04 1)">BLEU</text><rect class="cls-15" x="7.08" y="4.7" width="28.76" height="22.77" rx="1.98"/><rect class="cls-18" x="13.73" y="10.31" width="15.46" height="17.16"/><use width="54" height="54" transform="matrix(-0.73, 0, 0, 0.73, 78.43, 1.21)" xlink:href="#_179"/></symbol><symbol id="_181" data-name="181" viewBox="0 0 54 54"><circle id="circle841" class="cls-2" cx="27" cy="27" r="27"/><path id="path843" class="cls-2" d="M14.45,50.91A27,27,0,0,0,27,54V27Z"/><path id="path845" class="cls-3" d="M4.78,42.34a26.93,26.93,0,0,0,9.67,8.57L27,27Z"/><path id="path847" class="cls-2" d="M.2,30.25A27,27,0,0,0,4.78,42.34L27,27Z"/><path id="path849" class="cls-3" d="M1.75,17.43A26.93,26.93,0,0,0,.2,30.25L27,27Z"/><path id="path851" class="cls-2" d="M9.1,6.79A26.94,26.94,0,0,0,1.75,17.43L27,27Z"/><path id="path853" class="cls-2" d="M20.54.78a27,27,0,0,0-11.44,6L27,27Z"/><path id="path855" class="cls-3" d="M33.46.78a27.14,27.14,0,0,0-12.92,0L27,27Z"/><path id="path857" class="cls-2" d="M44.9,6.79a27,27,0,0,0-11.44-6L27,27Z"/><path id="path859" class="cls-3" d="M52.25,17.43A26.94,26.94,0,0,0,44.9,6.79L27,27Z"/><path id="path861" class="cls-3" d="M53.8,30.25a26.93,26.93,0,0,0-1.55-12.82L27,27Z"/><path id="path863" class="cls-3" d="M49.22,42.34A27,27,0,0,0,53.8,30.25L27,27Z"/><path id="path865" class="cls-3" d="M39.55,50.91a26.93,26.93,0,0,0,9.67-8.57L27,27Z"/><path id="path867" class="cls-3" d="M27,54a27,27,0,0,0,12.55-3.09L27,27Z"/><circle id="circle869" class="cls-2" cx="27" cy="27" r="20.25"/><circle id="circle871" class="cls-3" cx="27" cy="27" r="13.5"/><circle id="circle873" class="cls-2" cx="27" cy="27" r="6.75"/></symbol><symbol id="Condition_Any" data-name="Condition Any" viewBox="0 0 83.2 42.1"><rect class="cls-12" x="0.5" y="0.5" width="82.2" height="41.1" rx="5.67"/><text class="cls-13" transform="translate(2.04 38.62) scale(1.04 1)">B<tspan class="cls-14" x="7" y="0">L</tspan><tspan x="12.65" y="0">OC</tspan></text><rect class="cls-15" x="7.08" y="4.7" width="28.76" height="22.77" rx="1.98"/><rect class="cls-16" x="13.73" y="10.31" width="15.46" height="17.16"/><text class="cls-17" transform="translate(18.19 24.41)">?</text><use width="54" height="54" transform="matrix(-0.73, 0, 0, 0.73, 78.43, 1.34)" xlink:href="#_181"/></symbol></defs><g class="cls-39"><use width="83.2" height="83.2" transform="matrix(0.99, 0, 0, -0.99, 0.01, 82.78)" xlink:href="#Bas"/></g><g class="cls-40"><use width="83.2" height="83.2" transform="matrix(0.99, 0, 0, -0.99, 82.37, 82.78)" xlink:href="#Bas"/></g><g class="cls-41"><use width="83.2" height="83.2" transform="matrix(0.99, 0, 0, -0.99, 164.74, 82.78)" xlink:href="#Bas"/></g><g class="cls-42"><use width="83.2" height="83.2" transform="matrix(0.99, 0, 0, -0.99, 247.11, 82.78)" xlink:href="#Bas"/></g><use width="83.2" height="83.2" transform="matrix(0.99, 0, 0, -0.99, 0.01, 165.15)" xlink:href="#Droite"/><use width="83.2" height="83.2" transform="matrix(0.99, 0, 0, -0.99, 82.37, 165.15)" xlink:href="#Droite"/><use width="83.2" height="83.2" transform="matrix(0.99, 0, 0, -0.99, 164.74, 165.15)" xlink:href="#Droite"/><use width="83.2" height="83.2" transform="matrix(0.99, 0, 0, -0.99, 247.11, 165.15)" xlink:href="#Droite"/><g class="cls-43"><use width="83.2" height="83.2" transform="matrix(0.99, 0, 0, -0.99, 0, 247.52)" xlink:href="#Gauche"/></g><g class="cls-44"><use width="83.2" height="83.2" transform="matrix(0.99, 0, 0, -0.99, 82.37, 247.52)" xlink:href="#Gauche"/></g><g class="cls-45"><use width="83.2" height="83.2" transform="matrix(0.99, 0, 0, -0.99, 164.74, 247.52)" xlink:href="#Gauche"/></g><g class="cls-46"><use width="83.2" height="83.2" transform="matrix(0.99, 0, 0, -0.99, 247.11, 247.52)" xlink:href="#Gauche"/></g><g class="cls-47"><use width="83.2" height="83.2" transform="matrix(0.99, 0, 0, -0.99, 0.01, 329.89)" xlink:href="#F0"/></g><g class="cls-48"><use width="83.2" height="83.2" transform="matrix(0.99, 0, 0, -0.99, 82.37, 329.89)" xlink:href="#F0"/></g><g class="cls-49"><use width="83.2" height="83.2" transform="matrix(0.99, 0, 0, -0.99, 0.01, 412.26)" xlink:href="#F1"/></g><g class="cls-50"><use width="83.2" height="83.2" transform="matrix(0.99, 0, 0, -0.99, 329.46, 329.93)" xlink:href="#F2"/></g><g class="cls-51"><use width="83.2" height="83.2" transform="matrix(0.99, 0, 0, -0.99, 411.83, 329.93)" xlink:href="#F2"/></g><use width="83.2" height="42.1" transform="matrix(0.99, 0, 0, -0.98, 164.74, 453.52)" xlink:href="#Condition_Jaune"/><use width="83.2" height="42.1" transform="matrix(0.99, 0, 0, -0.98, 164.74, 494.79)" xlink:href="#Condition_Jaune"/><use width="83.2" height="42.1" transform="matrix(0.99, 0, 0, -0.98, 164.74, 536.06)" xlink:href="#Condition_Jaune"/><use width="83.2" height="42.1" transform="matrix(0.99, 0, 0, -0.98, 247.11, 453.52)" xlink:href="#Condition_Jaune"/><use width="83.2" height="42.1" transform="matrix(0.99, 0, 0, -0.98, 247.11, 494.79)" xlink:href="#Condition_Jaune"/><use width="83.2" height="42.1" transform="matrix(0.99, 0, 0, -0.98, 247.11, 536.06)" xlink:href="#Condition_Jaune"/><g class="cls-52"><use width="83.2" height="83.2" transform="matrix(0.99, 0, 0, -0.99, 164.74, 329.89)" xlink:href="#F0"/></g><g class="cls-53"><use width="83.2" height="83.2" transform="matrix(0.99, 0, 0, -0.99, 247.11, 329.89)" xlink:href="#F0"/></g><g class="cls-54"><use width="83.2" height="83.2" transform="matrix(0.99, 0, 0, -0.99, 494.2, 329.93)" xlink:href="#F2"/></g><g class="cls-55"><use width="83.2" height="83.2" transform="matrix(0.99, 0, 0, -0.99, 576.57, 329.93)" xlink:href="#F2"/></g><g class="cls-56"><use width="83.2" height="83.2" transform="matrix(0.99, 0, 0, -0.99, 82.37, 412.26)" xlink:href="#F1"/></g><g class="cls-57"><use width="83.2" height="83.2" transform="matrix(0.99, 0, 0, -0.99, 164.74, 412.26)" xlink:href="#F1"/></g><g class="cls-58"><use width="83.2" height="83.2" transform="matrix(0.99, 0, 0, -0.99, 411.82, 412.22)" xlink:href="#F3"/></g><g class="cls-59"><use width="83.2" height="83.2" transform="matrix(0.99, 0, 0, -0.99, 494.19, 412.22)" xlink:href="#F3"/></g><g class="cls-60"><use width="83.2" height="83.2" transform="matrix(0.99, 0, 0, -0.99, 329.47, 82.78)" xlink:href="#Bas"/></g><g class="cls-61"><use width="83.2" height="83.2" transform="matrix(0.99, 0, 0, -0.99, 411.84, 82.78)" xlink:href="#Bas"/></g><g class="cls-62"><use width="83.2" height="83.2" transform="matrix(0.99, 0, 0, -0.99, 494.21, 82.78)" xlink:href="#Bas"/></g><g class="cls-63"><use width="83.2" height="83.2" transform="matrix(0.99, 0, 0, -0.99, 576.58, 82.78)" xlink:href="#Bas"/></g><use width="83.2" height="83.2" transform="matrix(0.99, 0, 0, -0.99, 329.47, 165.15)" xlink:href="#Droite"/><use width="83.2" height="83.2" transform="matrix(0.99, 0, 0, -0.99, 411.84, 165.15)" xlink:href="#Droite"/><use width="83.2" height="83.2" transform="matrix(0.99, 0, 0, -0.99, 494.21, 165.15)" xlink:href="#Droite"/><use width="83.2" height="83.2" transform="matrix(0.99, 0, 0, -0.99, 576.58, 165.15)" xlink:href="#Droite"/><g class="cls-64"><use width="83.2" height="83.2" transform="matrix(0.99, 0, 0, -0.99, 329.47, 247.52)" xlink:href="#Gauche"/></g><g class="cls-65"><use width="83.2" height="83.2" transform="matrix(0.99, 0, 0, -0.99, 411.84, 247.52)" xlink:href="#Gauche"/></g><g class="cls-66"><use width="83.2" height="83.2" transform="matrix(0.99, 0, 0, -0.99, 494.21, 247.52)" xlink:href="#Gauche"/></g><g class="cls-67"><use width="83.2" height="83.2" transform="matrix(0.99, 0, 0, -0.99, 576.58, 247.52)" xlink:href="#Gauche"/></g><use width="83.2" height="54.46" transform="matrix(0.99, 0, 0, -0.98, 0.01, 465.63)" xlink:href="#Condition_Vide"/><use width="83.2" height="54.46" transform="matrix(0.99, 0, 0, -0.98, 82.38, 465.63)" xlink:href="#Condition_Vide"/><use width="83.2" height="54.46" transform="matrix(0.99, 0, 0, -0.98, 0.01, 506.9)" xlink:href="#Condition_Vide"/><use width="83.2" height="54.46" transform="matrix(0.99, 0, 0, -0.98, 82.37, 506.9)" xlink:href="#Condition_Vide"/><use width="83.2" height="54.46" transform="matrix(0.99, 0, 0, -0.98, 82.37, 548.17)" xlink:href="#Condition_Vide"/><use width="83.2" height="54.46" transform="matrix(0.99, 0, 0, -0.98, 0.01, 548.17)" xlink:href="#Condition_Vide"/><g class="cls-68"><use width="83.2" height="83.2" transform="matrix(0.99, 0, 0, -0.99, 247.11, 412.26)" xlink:href="#F1"/></g><g class="cls-69"><use width="83.2" height="83.2" transform="matrix(0.99, 0, 0, -0.99, 576.56, 412.22)" xlink:href="#F3"/></g><g class="cls-70"><use width="83.2" height="83.2" transform="matrix(0.99, 0, 0, -0.99, 658.94, 82.78)" xlink:href="#Bas"/></g><use width="83.2" height="83.2" transform="matrix(0.99, 0, 0, -0.99, 658.94, 165.16)" xlink:href="#Droite"/><g class="cls-71"><use width="83.2" height="83.2" transform="matrix(0.99, 0, 0, -0.99, 658.94, 247.52)" xlink:href="#Gauche"/></g><use width="83.2" height="42.1" transform="translate(329.26 411.69)" xlink:href="#Condition_Vert"/><use width="83.2" height="42.1" transform="translate(411.84 411.58)" xlink:href="#Condition_Vert"/><use width="83.2" height="42.1" transform="translate(328.85 453.29)" xlink:href="#Condition_Vert"/><use width="83.2" height="42.1" transform="translate(411.84 453.18)" xlink:href="#Condition_Vert"/><use width="83.2" height="42.1" transform="translate(411 494.78)" xlink:href="#Condition_Vert"/><use width="83.2" height="42.1" transform="translate(329.06 494.79)" xlink:href="#Condition_Vert"/><use width="83.2" height="42.1" transform="translate(493.79 412.17)" xlink:href="#Condition_Red"/><use width="83.2" height="42.1" transform="translate(494.2 454.18)" xlink:href="#Condition_Red"/><use width="83.2" height="42.1" transform="translate(493.79 495.78)" xlink:href="#Condition_Red"/><use width="83.2" height="42.1" transform="translate(576.9 412.37)" xlink:href="#Condition_Red"/><use width="83.2" height="42.1" transform="translate(576.9 454.38)" xlink:href="#Condition_Red"/><use width="83.2" height="42.1" transform="translate(576.91 495.98)" xlink:href="#Condition_Red"/><use width="83.2" height="42.1" transform="translate(658.53 245.79)" xlink:href="#Condition_Blue"/><use width="83.2" height="42.1" transform="translate(658.53 287.55)" xlink:href="#Condition_Blue"/><use width="83.2" height="42.1" transform="translate(658.94 329.65)" xlink:href="#Condition_Blue"/><use width="83.2" height="42.1" transform="translate(658.94 370.96)" xlink:href="#Condition_Blue"/><use width="83.2" height="42.1" transform="translate(658.94 412.37)" xlink:href="#Condition_Blue"/><use width="83.2" height="42.1" transform="translate(659.54 452.93) rotate(1.61)" xlink:href="#Condition_Blue"/><use width="83.2" height="42.1" transform="translate(783.41 0) rotate(90)" xlink:href="#Condition_Any"/><use width="83.2" height="42.1" transform="translate(783.41 81.92) rotate(90)" xlink:href="#Condition_Any"/><use width="83.2" height="42.1" transform="translate(783.33 163.8) rotate(90)" xlink:href="#Condition_Any"/><use width="83.2" height="42.1" transform="translate(783.41 246.45) rotate(90)" xlink:href="#Condition_Any"/><use width="83.2" height="42.1" transform="translate(783.74 329.01) rotate(90)" xlink:href="#Condition_Any"/><use width="83.2" height="42.1" transform="translate(783.74 412.17) rotate(90)" xlink:href="#Condition_Any"/><g class="cls-72"><use width="83.2" height="83.2" transform="matrix(0.99, 0, 0, -0.99, 329.46, 412.26)" xlink:href="#F3"/></g></svg>