<svg xmlns="http://www.w3.org/2000/svg" xmlns:xlink="http://www.w3.org/1999/xlink" viewBox="0 0 793.84 547.23"><defs><style>.cls-1,.cls-6,.cls-8,.cls-9{fill:#fff;}.cls-2{fill:#13110c;}.cls-3{fill:none;}.cls-3,.cls-4,.cls-6,.cls-7,.cls-8{stroke:#1d1d1b;}.cls-3,.cls-4,.cls-5,.cls-6,.cls-7,.cls-8{stroke-miterlimit:10;}.cls-10,.cls-4,.cls-5{fill:#1d1d1b;}.cls-5{stroke:#1e1e1c;}.cls-7{fill:#36a9e1;}.cls-7,.cls-8{stroke-width:2px;}.cls-10,.cls-9{font-size:24px;font-family:Raleway-Black, Raleway;font-weight:800;}.cls-11{letter-spacing:-0.01em;}.cls-12{letter-spacing:-0.01em;}.cls-13{letter-spacing:-0.01em;}.cls-14{letter-spacing:-0.02em;}</style><symbol id="_47" data-name="47" viewBox="0 0 54 54"><path id="circle49" class="cls-1" d="M0,27A27,27,0,1,1,27,54,27,27,0,0,1,0,27"/><path id="path51" class="cls-1" d="M14.45,50.91A27,27,0,0,0,27,54V27Z"/><path id="path53" class="cls-1" d="M4.78,42.34a26.93,26.93,0,0,0,9.67,8.57L27,27Z"/><path id="path55" class="cls-1" d="M.2,30.25A27,27,0,0,0,4.78,42.34L27,27,.2,30.25"/><path id="path57" class="cls-1" d="M.2,30.25,27,27,1.75,17.43"/><path id="path59" class="cls-2" d="M1.75,17.43,27,27,9.1,6.79A26.94,26.94,0,0,0,1.75,17.43"/><path id="path61" class="cls-1" d="M20.54.78a27,27,0,0,0-11.44,6L27,27Z"/><path id="path63" class="cls-2" d="M33.46.78a27.14,27.14,0,0,0-12.92,0L27,27Z"/><path id="path65" class="cls-2" d="M44.9,6.79a27,27,0,0,0-11.44-6L27,27Z"/><path id="path67" class="cls-2" d="M52.25,17.43A26.94,26.94,0,0,0,44.9,6.79L27,27Z"/><path id="path69" class="cls-2" d="M53.8,30.25a26.93,26.93,0,0,0-1.55-12.82L27,27Z"/><path id="path71" class="cls-2" d="M49.22,42.34A27,27,0,0,0,53.8,30.25L27,27Z"/><path id="path73" class="cls-2" d="M39.55,50.91a26.93,26.93,0,0,0,9.67-8.57L27,27Z"/><path id="path75" class="cls-2" d="M27,54a27,27,0,0,0,12.55-3.09L27,27Z"/><circle id="circle77" class="cls-1" cx="27" cy="27" r="20.25"/><circle id="circle79" class="cls-2" cx="27" cy="27" r="13.5"/><circle id="circle81" class="cls-1" cx="27" cy="27" r="6.75"/></symbol><symbol id="_55" data-name="55" viewBox="0 0 54 54"><circle id="circle85" class="cls-1" cx="27" cy="27" r="27"/><path id="path87" class="cls-1" d="M14.45,50.91A27,27,0,0,0,27,54V27Z"/><path id="path89" class="cls-1" d="M4.78,42.34a26.93,26.93,0,0,0,9.67,8.57L27,27Z"/><path id="path91" class="cls-1" d="M.2,30.25A27,27,0,0,0,4.78,42.34L27,27Z"/><path id="path93" class="cls-2" d="M1.75,17.43A26.93,26.93,0,0,0,.2,30.25L27,27Z"/><path id="path95" class="cls-1" d="M9.1,6.79A26.94,26.94,0,0,0,1.75,17.43L27,27Z"/><path id="path97" class="cls-1" d="M20.54.78a27,27,0,0,0-11.44,6L27,27Z"/><path id="path99" class="cls-2" d="M33.46.78a27.14,27.14,0,0,0-12.92,0L27,27Z"/><path id="path101" class="cls-2" d="M44.9,6.79a27,27,0,0,0-11.44-6L27,27Z"/><path id="path103" class="cls-2" d="M52.25,17.43A26.94,26.94,0,0,0,44.9,6.79L27,27Z"/><path id="path105" class="cls-2" d="M53.8,30.25a26.93,26.93,0,0,0-1.55-12.82L27,27Z"/><path id="path107" class="cls-2" d="M49.22,42.34A27,27,0,0,0,53.8,30.25L27,27Z"/><path id="path109" class="cls-2" d="M39.55,50.91a26.93,26.93,0,0,0,9.67-8.57L27,27Z"/><path id="path111" class="cls-2" d="M27,54a27,27,0,0,0,12.55-3.09L27,27Z"/><circle id="circle113" class="cls-1" cx="27" cy="27" r="20.25"/><circle id="circle115" class="cls-2" cx="27" cy="27" r="13.5"/><circle id="circle117" class="cls-1" cx="27" cy="27" r="6.75"/></symbol><symbol id="_59" data-name="59" viewBox="0 0 54 54"><circle id="circle121" class="cls-1" cx="27" cy="27" r="27"/><path id="path123" class="cls-1" d="M14.45,50.91A27,27,0,0,0,27,54V27Z"/><path id="path125" class="cls-1" d="M4.78,42.34a26.93,26.93,0,0,0,9.67,8.57L27,27Z"/><path id="path127" class="cls-2" d="M.2,30.25A27,27,0,0,0,4.78,42.34L27,27Z"/><path id="path129" class="cls-1" d="M1.75,17.43A26.93,26.93,0,0,0,.2,30.25L27,27Z"/><path id="path131" class="cls-1" d="M9.1,6.79A26.94,26.94,0,0,0,1.75,17.43L27,27Z"/><path id="path133" class="cls-1" d="M20.54.78a27,27,0,0,0-11.44,6L27,27Z"/><path id="path135" class="cls-2" d="M33.46.78a27.14,27.14,0,0,0-12.92,0L27,27Z"/><path id="path137" class="cls-2" d="M44.9,6.79a27,27,0,0,0-11.44-6L27,27Z"/><path id="path139" class="cls-2" d="M52.25,17.43A26.94,26.94,0,0,0,44.9,6.79L27,27Z"/><path id="path141" class="cls-2" d="M53.8,30.25a26.93,26.93,0,0,0-1.55-12.82L27,27Z"/><path id="path143" class="cls-2" d="M49.22,42.34A27,27,0,0,0,53.8,30.25L27,27Z"/><path id="path145" class="cls-2" d="M39.55,50.91a26.93,26.93,0,0,0,9.67-8.57L27,27Z"/><path id="path147" class="cls-2" d="M27,54a27,27,0,0,0,12.55-3.09L27,27Z"/><circle id="circle149" class="cls-1" cx="27" cy="27" r="20.25"/><circle id="circle151" class="cls-2" cx="27" cy="27" r="13.5"/><circle id="circle153" class="cls-1" cx="27" cy="27" r="6.75"/></symbol><symbol id="_61" data-name="61" viewBox="0 0 54 54"><path id="circle157" class="cls-1" d="M27,54A27,27,0,1,1,54,27,27,27,0,0,1,27,54"/><path id="path159" class="cls-1" d="M27,54V27L14.45,50.91A27,27,0,0,0,27,54"/><path id="path161" class="cls-2" d="M4.78,42.34a26.93,26.93,0,0,0,9.67,8.57L27,27Z"/><path id="path163" class="cls-1" d="M.2,30.25A27,27,0,0,0,4.78,42.34L27,27Z"/><path id="path165" class="cls-1" d="M1.75,17.43A26.93,26.93,0,0,0,.2,30.25L27,27Z"/><path id="path167" class="cls-1" d="M9.1,6.79A26.94,26.94,0,0,0,1.75,17.43L27,27Z"/><path id="path169" class="cls-1" d="M20.54.78a27,27,0,0,0-11.44,6L27,27Z"/><path id="path171" class="cls-2" d="M33.46.78a27.14,27.14,0,0,0-12.92,0L27,27Z"/><path id="path173" class="cls-2" d="M44.9,6.79a27,27,0,0,0-11.44-6L27,27Z"/><path id="path175" class="cls-2" d="M52.25,17.43A26.94,26.94,0,0,0,44.9,6.79L27,27Z"/><path id="path177" class="cls-2" d="M53.8,30.25a26.93,26.93,0,0,0-1.55-12.82L27,27Z"/><path id="path179" class="cls-2" d="M49.22,42.34A27,27,0,0,0,53.8,30.25L27,27Z"/><path id="path181" class="cls-2" d="M39.55,50.91a26.93,26.93,0,0,0,9.67-8.57L27,27Z"/><path id="path183" class="cls-2" d="M27,54a27,27,0,0,0,12.55-3.09L27,27V54"/><circle id="circle185" class="cls-1" cx="27" cy="27" r="20.25"/><circle id="circle187" class="cls-2" cx="27" cy="27" r="13.5"/><circle id="circle189" class="cls-1" cx="27" cy="27" r="6.75"/></symbol><symbol id="Droite_2" data-name="Droite 2" viewBox="0 0 83.2 83.2"><rect class="cls-5" x="0.5" y="0.5" width="82.2" height="82.2"/><rect class="cls-6" x="0.5" y="0.5" width="82.2" height="82.2" rx="5.66"/><polygon class="cls-4" points="67.96 82.7 82.7 67.96 82.7 82.7 67.96 82.7"/></symbol><symbol id="Condition_Blue" data-name="Condition Blue" viewBox="0 0 83.2 42.1"><rect class="cls-3" x="0.5" y="0.5" width="82.2" height="41.1"/><path class="cls-4" d="M77,41.6a5.67,5.67,0,0,0,5.67-5.67V41.6Z"/><path class="cls-4" d="M82.7,6.17a5.78,5.78,0,0,0-1.62-4A5.82,5.82,0,0,0,77,.5H82.7Z"/><path class="cls-4" d="M6.17.5a5.78,5.78,0,0,0-4,1.62A5.82,5.82,0,0,0,.5,6.17V.5Z"/><path class="cls-4" d="M.5,35.93A5.67,5.67,0,0,0,6.17,41.6H.5Z"/></symbol></defs><g id="Grille_2" data-name="Grille 2"><rect class="cls-7" x="27" y="27" width="739.84" height="123.31"/><rect class="cls-7" x="27" y="150.31" width="739.84" height="123.31"/><rect class="cls-7" x="27" y="273.61" width="739.84" height="123.31"/><rect class="cls-7" x="27" y="396.92" width="739.84" height="123.31"/><rect class="cls-8" x="68.1" y="27" width="82.2" height="123.31"/><rect class="cls-8" x="150.31" y="27" width="82.2" height="123.31"/><rect class="cls-8" x="232.51" y="27" width="82.2" height="123.31"/><rect class="cls-8" x="314.72" y="27" width="82.2" height="123.31"/><rect class="cls-8" x="396.92" y="27" width="82.2" height="123.31"/><rect class="cls-8" x="479.13" y="27" width="82.2" height="123.31"/><rect class="cls-8" x="561.33" y="27" width="82.2" height="123.31"/><rect class="cls-8" x="643.54" y="27" width="82.2" height="123.31"/><rect class="cls-8" x="68.1" y="150.31" width="82.2" height="123.31"/><rect class="cls-8" x="150.31" y="150.31" width="82.2" height="123.31"/><rect class="cls-8" x="232.51" y="150.31" width="82.2" height="123.31"/><rect class="cls-8" x="314.72" y="150.31" width="82.2" height="123.31"/><rect class="cls-8" x="396.92" y="150.31" width="82.2" height="123.31"/><rect class="cls-8" x="479.13" y="150.31" width="82.2" height="123.31"/><rect class="cls-8" x="561.33" y="150.31" width="82.2" height="123.31"/><rect class="cls-8" x="643.54" y="150.31" width="82.2" height="123.31"/><rect class="cls-8" x="68.1" y="273.61" width="82.2" height="123.31"/><rect class="cls-8" x="150.31" y="273.61" width="82.2" height="123.31"/><rect class="cls-8" x="232.51" y="273.61" width="82.2" height="123.31"/><rect class="cls-8" x="314.72" y="273.61" width="82.2" height="123.31"/><rect class="cls-8" x="396.92" y="273.61" width="82.2" height="123.31"/><rect class="cls-8" x="479.13" y="273.61" width="82.2" height="123.31"/><rect class="cls-8" x="561.33" y="273.61" width="82.2" height="123.31"/><rect class="cls-8" x="643.54" y="273.61" width="82.2" height="123.31"/><rect class="cls-8" x="68.1" y="396.92" width="82.2" height="123.31"/><rect class="cls-8" x="150.31" y="396.92" width="82.2" height="123.31"/><rect class="cls-8" x="314.72" y="396.92" width="82.2" height="123.31"/><rect class="cls-8" x="396.92" y="396.92" width="82.2" height="123.31"/><rect class="cls-8" x="479.13" y="396.92" width="82.2" height="123.31"/><rect class="cls-8" x="561.33" y="396.92" width="82.2" height="123.31"/><rect class="cls-8" x="643.54" y="396.92" width="82.2" height="123.31"/><rect class="cls-8" x="232.51" y="396.92" width="82.2" height="123.31"/><line class="cls-3" x1="68.1" y1="68.23" x2="725.74" y2="68.23"/><line class="cls-3" x1="68.1" y1="191.54" x2="725.74" y2="191.54"/><line class="cls-3" x1="68.1" y1="314.85" x2="725.74" y2="314.85"/><line class="cls-3" x1="68.1" y1="438.15" x2="725.74" y2="438.15"/></g><g id="Codes_Repères" data-name="Codes Repères"><use width="54" height="54" transform="matrix(-1, 0, 0, 1, 54, 493.23)" xlink:href="#_47"/><use width="54" height="54" transform="matrix(-1, 0, 0, 1, 54, 0)" xlink:href="#_55"/><use width="54" height="54" transform="matrix(-1, 0, 0, 1, 792.76, 0)" xlink:href="#_59"/><use width="54" height="54" transform="matrix(-1, 0, 0, 1, 793.84, 493.23)" xlink:href="#_61"/><rect class="cls-6" x="479.13" y="396.92" width="246.61" height="123.31"/><use width="83.2" height="83.2" transform="matrix(0.99, 0, 0, -0.99, 68.02, 150.61)" xlink:href="#Droite_2"/><use width="83.2" height="83.2" transform="matrix(0.99, 0, 0, -0.99, 150.23, 150.61)" xlink:href="#Droite_2"/><use width="83.2" height="83.2" transform="matrix(0.99, 0, 0, -0.99, 232.43, 150.61)" xlink:href="#Droite_2"/><use width="83.2" height="83.2" transform="matrix(0.99, 0, 0, -0.99, 314.63, 150.61)" xlink:href="#Droite_2"/><use width="83.2" height="83.2" transform="matrix(0.99, 0, 0, -0.99, 396.84, 150.61)" xlink:href="#Droite_2"/><use width="83.2" height="83.2" transform="matrix(0.99, 0, 0, -0.99, 479.04, 150.61)" xlink:href="#Droite_2"/><use width="83.2" height="83.2" transform="matrix(0.99, 0, 0, -0.99, 561.25, 150.61)" xlink:href="#Droite_2"/><use width="83.2" height="83.2" transform="matrix(0.99, 0, 0, -0.99, 643.45, 150.61)" xlink:href="#Droite_2"/><use width="83.2" height="83.2" transform="matrix(0.99, 0, 0, -0.99, 68.02, 273.91)" xlink:href="#Droite_2"/><use width="83.2" height="83.2" transform="matrix(0.99, 0, 0, -0.99, 150.23, 273.91)" xlink:href="#Droite_2"/><use width="83.2" height="83.2" transform="matrix(0.99, 0, 0, -0.99, 232.43, 273.91)" xlink:href="#Droite_2"/><use width="83.2" height="83.2" transform="matrix(0.99, 0, 0, -0.99, 314.68, 273.91)" xlink:href="#Droite_2"/><use width="83.2" height="83.2" transform="matrix(0.99, 0, 0, -0.99, 396.84, 273.91)" xlink:href="#Droite_2"/><use width="83.2" height="83.2" transform="matrix(0.99, 0, 0, -0.99, 479.04, 273.91)" xlink:href="#Droite_2"/><use width="83.2" height="83.2" transform="matrix(0.99, 0, 0, -0.99, 561.25, 273.91)" xlink:href="#Droite_2"/><use width="83.2" height="83.2" transform="matrix(0.99, 0, 0, -0.99, 643.45, 273.91)" xlink:href="#Droite_2"/><use width="83.2" height="83.2" transform="matrix(0.99, 0, 0, -0.99, 68.02, 397.22)" xlink:href="#Droite_2"/><use width="83.2" height="83.2" transform="matrix(0.99, 0, 0, -0.99, 150.23, 397.22)" xlink:href="#Droite_2"/><use width="83.2" height="83.2" transform="matrix(0.99, 0, 0, -0.99, 232.43, 397.22)" xlink:href="#Droite_2"/><use width="83.2" height="83.2" transform="matrix(0.99, 0, 0, -0.99, 314.63, 396.92)" xlink:href="#Droite_2"/><use width="83.2" height="83.2" transform="matrix(0.99, 0, 0, -0.99, 396.84, 397.22)" xlink:href="#Droite_2"/><use width="83.2" height="83.2" transform="matrix(0.99, 0, 0, -0.99, 479.04, 397.22)" xlink:href="#Droite_2"/><use width="83.2" height="83.2" transform="matrix(0.99, 0, 0, -0.99, 561.25, 397.22)" xlink:href="#Droite_2"/><use width="83.2" height="83.2" transform="matrix(0.99, 0, 0, -0.99, 643.45, 397.22)" xlink:href="#Droite_2"/><use width="83.2" height="83.2" transform="matrix(0.99, 0, 0, -0.99, 68.02, 520.53)" xlink:href="#Droite_2"/><use width="83.2" height="83.2" transform="matrix(0.99, 0, 0, -0.99, 150.23, 520.53)" xlink:href="#Droite_2"/><use width="83.2" height="83.2" transform="matrix(0.99, 0, 0, -0.99, 232.47, 520.53)" xlink:href="#Droite_2"/><use width="83.2" height="83.2" transform="matrix(0.99, 0, 0, -0.99, 314.63, 520.53)" xlink:href="#Droite_2"/><use width="83.2" height="83.2" transform="matrix(0.99, 0, 0, -0.99, 396.84, 520.53)" xlink:href="#Droite_2"/><use width="83.2" height="42.1" transform="translate(67.6 26.5)" xlink:href="#Condition_Blue"/><use width="83.2" height="42.1" transform="translate(149.81 26.5)" xlink:href="#Condition_Blue"/><use width="83.2" height="42.1" transform="translate(232.01 26.5)" xlink:href="#Condition_Blue"/><use width="83.2" height="42.1" transform="translate(314.22 26.5)" xlink:href="#Condition_Blue"/><use width="83.2" height="42.1" transform="translate(396.42 27)" xlink:href="#Condition_Blue"/><use width="83.2" height="42.1" transform="translate(478.63 27)" xlink:href="#Condition_Blue"/><use width="83.2" height="42.1" transform="translate(560.83 27)" xlink:href="#Condition_Blue"/><use width="83.2" height="42.1" transform="translate(643.04 26.5)" xlink:href="#Condition_Blue"/><use width="83.2" height="42.1" transform="translate(67.6 150.31)" xlink:href="#Condition_Blue"/><use width="83.2" height="42.1" transform="translate(149.81 150.31)" xlink:href="#Condition_Blue"/><use width="83.2" height="42.1" transform="translate(232.01 150.31)" xlink:href="#Condition_Blue"/><use width="83.2" height="42.1" transform="translate(314.4 150.31)" xlink:href="#Condition_Blue"/><use width="83.2" height="42.1" transform="translate(396.42 150.31)" xlink:href="#Condition_Blue"/><use width="83.2" height="42.1" transform="translate(478.63 150.31)" xlink:href="#Condition_Blue"/><use width="83.2" height="42.1" transform="translate(560.83 150.31)" xlink:href="#Condition_Blue"/><use width="83.2" height="42.1" transform="translate(643.04 150.31)" xlink:href="#Condition_Blue"/><use width="83.2" height="42.1" transform="translate(67.6 273.74)" xlink:href="#Condition_Blue"/><use width="83.2" height="42.1" transform="translate(149.81 273.74)" xlink:href="#Condition_Blue"/><use width="83.2" height="42.1" transform="translate(232.01 273.74)" xlink:href="#Condition_Blue"/><use width="83.2" height="42.1" transform="translate(314.22 273.61)" xlink:href="#Condition_Blue"/><use width="83.2" height="42.1" transform="translate(396.42 273.74)" xlink:href="#Condition_Blue"/><use width="83.2" height="42.1" transform="translate(478.63 273.61)" xlink:href="#Condition_Blue"/><use width="83.2" height="42.1" transform="translate(560.83 273.74)" xlink:href="#Condition_Blue"/><use width="83.2" height="42.1" transform="translate(643.04 273.74)" xlink:href="#Condition_Blue"/><use width="83.2" height="42.1" transform="translate(396.42 396.92)" xlink:href="#Condition_Blue"/><use width="83.2" height="42.1" transform="translate(314.22 397.23)" xlink:href="#Condition_Blue"/><use width="83.2" height="42.1" transform="translate(231.46 396.92)" xlink:href="#Condition_Blue"/><use width="83.2" height="42.1" transform="translate(149.81 396.92)" xlink:href="#Condition_Blue"/><use width="83.2" height="42.1" transform="translate(67.6 396.92)" xlink:href="#Condition_Blue"/><text class="cls-9" transform="translate(30.11 465.24) scale(1.22 1)">P3</text><text class="cls-9" transform="translate(29.85 341.93) scale(1.22 1)">P2</text><text class="cls-9" transform="translate(30.61 218.62) scale(1.22 1)">P1</text><text class="cls-9" transform="translate(29.63 95.32) scale(1.22 1)">P0</text><text class="cls-10" transform="translate(546.57 452.94)"><tspan class="cls-11">S</tspan><tspan class="cls-12" x="14.64" y="0">e</tspan><tspan class="cls-13" x="29.11" y="0">l</tspan><tspan class="cls-12" x="37.46" y="0">e</tspan><tspan class="cls-11" x="51.94" y="0">ct</tspan><tspan class="cls-12" x="75.6" y="0">io</tspan><tspan class="cls-11" x="96.91" y="0">n</tspan><tspan x="111.65" y="0"> </tspan></text><text class="cls-10" transform="translate(545.19 481.73)"><tspan class="cls-12">d</tspan><tspan class="cls-13" x="15.82" y="0">u n</tspan><tspan class="cls-12" x="50.93" y="0">i</tspan><tspan class="cls-14" x="57.65" y="0">v</tspan><tspan class="cls-12" x="70.58" y="0">ea</tspan><tspan x="99.29" y="0">u</tspan></text></g></svg>