<svg id="Calque_1" data-name="Calque 1" xmlns="http://www.w3.org/2000/svg" xmlns:xlink="http://www.w3.org/1999/xlink" viewBox="0 0 494.23 782.36"><defs><style>.cls-1{fill:#fff;}.cls-2{fill:#010101;}.cls-3{fill:none;stroke:#1d1d1b;stroke-miterlimit:10;}.cls-16,.cls-4,.cls-5{fill:#1d1d1b;}.cls-16,.cls-5{font-size:12px;font-family:Raleway-Black, Raleway;font-weight:800;}.cls-6{letter-spacing:-0.01em;}.cls-7{letter-spacing:-0.01em;}.cls-8{letter-spacing:-0.01em;}.cls-9{letter-spacing:-0.03em;}.cls-10{letter-spacing:-0.02em;}.cls-11{letter-spacing:-0.02em;}.cls-12{letter-spacing:-0.02em;}.cls-13{letter-spacing:-0.02em;}.cls-14{letter-spacing:-0.01em;}.cls-15{letter-spacing:-0.01em;}.cls-16{letter-spacing:-0.12em;}.cls-17{letter-spacing:-0.02em;}.cls-18{letter-spacing:0em;}</style><symbol id="_205" data-name="205" viewBox="0 0 54 54"><circle id="circle1129" class="cls-1" cx="27" cy="27" r="27"/><path id="path1131" class="cls-1" d="M14.45,50.91A27,27,0,0,0,27,54V27Z"/><path id="path1133" class="cls-1" d="M4.78,42.34a26.93,26.93,0,0,0,9.67,8.57L27,27Z"/><path id="path1135" class="cls-2" d="M.2,30.25A27,27,0,0,0,4.78,42.34L27,27Z"/><path id="path1137" class="cls-2" d="M1.75,17.43A26.93,26.93,0,0,0,.2,30.25L27,27Z"/><path id="path1139" class="cls-2" d="M9.1,6.79A26.94,26.94,0,0,0,1.75,17.43L27,27Z"/><path id="path1141" class="cls-1" d="M20.54.78a27,27,0,0,0-11.44,6L27,27Z"/><path id="path1143" class="cls-1" d="M33.46.78a27.14,27.14,0,0,0-12.92,0L27,27Z"/><path id="path1145" class="cls-1" d="M44.9,6.79a27,27,0,0,0-11.44-6L27,27Z"/><path id="path1147" class="cls-2" d="M52.25,17.43A26.94,26.94,0,0,0,44.9,6.79L27,27Z"/><path id="path1149" class="cls-2" d="M53.8,30.25a26.93,26.93,0,0,0-1.55-12.82L27,27Z"/><path id="path1151" class="cls-2" d="M49.22,42.34A27,27,0,0,0,53.8,30.25L27,27Z"/><path id="path1153" class="cls-2" d="M39.55,50.91a26.93,26.93,0,0,0,9.67-8.57L27,27Z"/><path id="path1155" class="cls-2" d="M27,54a27,27,0,0,0,12.55-3.09L27,27Z"/><circle id="circle1157" class="cls-1" cx="27" cy="27" r="20.25"/><circle id="circle1159" class="cls-2" cx="27" cy="27" r="13.5"/><circle id="circle1161" class="cls-1" cx="27" cy="27" r="6.75"/></symbol><symbol id="_279" data-name="279" viewBox="0 0 54 54"><circle id="circle1309" class="cls-1" cx="27" cy="27" r="27"/><path id="path1311" class="cls-1" d="M14.45,50.91A27,27,0,0,0,27,54V27Z"/><path id="path1313" class="cls-1" d="M4.78,42.34a26.93,26.93,0,0,0,9.67,8.57L27,27Z"/><path id="path1315" class="cls-1" d="M.2,30.25A27,27,0,0,0,4.78,42.34L27,27Z"/><path id="path1317" class="cls-2" d="M1.75,17.43A26.93,26.93,0,0,0,.2,30.25L27,27Z"/><path id="path1319" class="cls-1" d="M9.1,6.79A26.94,26.94,0,0,0,1.75,17.43L27,27Z"/><path id="path1321" class="cls-2" d="M20.54.78a27,27,0,0,0-11.44,6L27,27Z"/><path id="path1323" class="cls-2" d="M33.46.78a27.14,27.14,0,0,0-12.92,0L27,27Z"/><path id="path1325" class="cls-2" d="M44.9,6.79a27,27,0,0,0-11.44-6L27,27Z"/><path id="path1327" class="cls-1" d="M52.25,17.43A26.94,26.94,0,0,0,44.9,6.79L27,27Z"/><path id="path1329" class="cls-2" d="M53.8,30.25a26.93,26.93,0,0,0-1.55-12.82L27,27Z"/><path id="path1331" class="cls-2" d="M49.22,42.34A27,27,0,0,0,53.8,30.25L27,27Z"/><path id="path1333" class="cls-2" d="M39.55,50.91a26.93,26.93,0,0,0,9.67-8.57L27,27Z"/><path id="path1335" class="cls-2" d="M27,54a27,27,0,0,0,12.55-3.09L27,27Z"/><circle id="circle1337" class="cls-1" cx="27" cy="27" r="20.25"/><circle id="circle1339" class="cls-2" cx="27" cy="27" r="13.5"/><circle id="circle1341" class="cls-1" cx="27" cy="27" r="6.75"/></symbol><symbol id="_283" data-name="283" viewBox="0 0 54 54"><circle id="circle1345" class="cls-1" cx="27" cy="27" r="27"/><path id="path1347" class="cls-1" d="M14.45,50.91A27,27,0,0,0,27,54V27Z"/><path id="path1349" class="cls-1" d="M4.78,42.34a26.93,26.93,0,0,0,9.67,8.57L27,27Z"/><path id="path1351" class="cls-2" d="M.2,30.25A27,27,0,0,0,4.78,42.34L27,27Z"/><path id="path1353" class="cls-1" d="M1.75,17.43A26.93,26.93,0,0,0,.2,30.25L27,27Z"/><path id="path1355" class="cls-1" d="M9.1,6.79A26.94,26.94,0,0,0,1.75,17.43L27,27Z"/><path id="path1357" class="cls-2" d="M20.54.78a27,27,0,0,0-11.44,6L27,27Z"/><path id="path1359" class="cls-2" d="M33.46.78a27.14,27.14,0,0,0-12.92,0L27,27Z"/><path id="path1361" class="cls-2" d="M44.9,6.79a27,27,0,0,0-11.44-6L27,27Z"/><path id="path1363" class="cls-1" d="M52.25,17.43A26.94,26.94,0,0,0,44.9,6.79L27,27Z"/><path id="path1365" class="cls-2" d="M53.8,30.25a26.93,26.93,0,0,0-1.55-12.82L27,27Z"/><path id="path1367" class="cls-2" d="M49.22,42.34A27,27,0,0,0,53.8,30.25L27,27Z"/><path id="path1369" class="cls-2" d="M39.55,50.91a26.93,26.93,0,0,0,9.67-8.57L27,27Z"/><path id="path1371" class="cls-2" d="M27,54a27,27,0,0,0,12.55-3.09L27,27Z"/><circle id="circle1373" class="cls-1" cx="27" cy="27" r="20.25"/><circle id="circle1375" class="cls-2" cx="27" cy="27" r="13.5"/><circle id="circle1377" class="cls-1" cx="27" cy="27" r="6.75"/></symbol><symbol id="_285" data-name="285" viewBox="0 0 54 54"><circle id="circle1381" class="cls-1" cx="27" cy="27" r="27"/><path id="path1383" class="cls-1" d="M14.45,50.91A27,27,0,0,0,27,54V27Z"/><path id="path1385" class="cls-2" d="M4.78,42.34a26.93,26.93,0,0,0,9.67,8.57L27,27Z"/><path id="path1387" class="cls-1" d="M.2,30.25A27,27,0,0,0,4.78,42.34L27,27Z"/><path id="path1389" class="cls-1" d="M1.75,17.43A26.93,26.93,0,0,0,.2,30.25L27,27Z"/><path id="path1391" class="cls-1" d="M9.1,6.79A26.94,26.94,0,0,0,1.75,17.43L27,27Z"/><path id="path1393" class="cls-2" d="M20.54.78a27,27,0,0,0-11.44,6L27,27Z"/><path id="path1395" class="cls-2" d="M33.46.78a27.14,27.14,0,0,0-12.92,0L27,27Z"/><path id="path1397" class="cls-2" d="M44.9,6.79a27,27,0,0,0-11.44-6L27,27Z"/><path id="path1399" class="cls-1" d="M52.25,17.43A26.94,26.94,0,0,0,44.9,6.79L27,27Z"/><path id="path1401" class="cls-2" d="M53.8,30.25a26.93,26.93,0,0,0-1.55-12.82L27,27Z"/><path id="path1403" class="cls-2" d="M49.22,42.34A27,27,0,0,0,53.8,30.25L27,27Z"/><path id="path1405" class="cls-2" d="M39.55,50.91a26.93,26.93,0,0,0,9.67-8.57L27,27Z"/><path id="path1407" class="cls-2" d="M27,54a27,27,0,0,0,12.55-3.09L27,27Z"/><circle id="circle1409" class="cls-1" cx="27" cy="27" r="20.25"/><circle id="circle1411" class="cls-2" cx="27" cy="27" r="13.5"/><circle id="circle1413" class="cls-1" cx="27" cy="27" r="6.75"/></symbol><symbol id="_295" data-name="295" viewBox="0 0 54 54"><circle id="circle1417" class="cls-1" cx="27" cy="27" r="27"/><path id="path1419" class="cls-1" d="M14.45,50.91A27,27,0,0,0,27,54V27Z"/><path id="path1421" class="cls-1" d="M4.78,42.34a26.93,26.93,0,0,0,9.67,8.57L27,27Z"/><path id="path1423" class="cls-1" d="M.2,30.25A27,27,0,0,0,4.78,42.34L27,27Z"/><path id="path1425" class="cls-2" d="M1.75,17.43A26.93,26.93,0,0,0,.2,30.25L27,27Z"/><path id="path1427" class="cls-2" d="M9.1,6.79A26.94,26.94,0,0,0,1.75,17.43L27,27Z"/><path id="path1429" class="cls-1" d="M20.54.78a27,27,0,0,0-11.44,6L27,27Z"/><path id="path1431" class="cls-2" d="M33.46.78a27.14,27.14,0,0,0-12.92,0L27,27Z"/><path id="path1433" class="cls-2" d="M44.9,6.79a27,27,0,0,0-11.44-6L27,27Z"/><path id="path1435" class="cls-1" d="M52.25,17.43A26.94,26.94,0,0,0,44.9,6.79L27,27Z"/><path id="path1437" class="cls-2" d="M53.8,30.25a26.93,26.93,0,0,0-1.55-12.82L27,27Z"/><path id="path1439" class="cls-2" d="M49.22,42.34A27,27,0,0,0,53.8,30.25L27,27Z"/><path id="path1441" class="cls-2" d="M39.55,50.91a26.93,26.93,0,0,0,9.67-8.57L27,27Z"/><path id="path1443" class="cls-2" d="M27,54a27,27,0,0,0,12.55-3.09L27,27Z"/><circle id="circle1445" class="cls-1" cx="27" cy="27" r="20.25"/><circle id="circle1447" class="cls-2" cx="27" cy="27" r="13.5"/><circle id="circle1449" class="cls-1" cx="27" cy="27" r="6.75"/></symbol><symbol id="_299" data-name="299" viewBox="0 0 54 54"><circle id="circle1453" class="cls-1" cx="27" cy="27" r="27"/><path id="path1455" class="cls-1" d="M14.45,50.91A27,27,0,0,0,27,54V27Z"/><path id="path1457" class="cls-1" d="M4.78,42.34a26.93,26.93,0,0,0,9.67,8.57L27,27Z"/><path id="path1459" class="cls-2" d="M.2,30.25A27,27,0,0,0,4.78,42.34L27,27Z"/><path id="path1461" class="cls-1" d="M1.75,17.43A26.93,26.93,0,0,0,.2,30.25L27,27Z"/><path id="path1463" class="cls-2" d="M9.1,6.79A26.94,26.94,0,0,0,1.75,17.43L27,27Z"/><path id="path1465" class="cls-1" d="M20.54.78a27,27,0,0,0-11.44,6L27,27Z"/><path id="path1467" class="cls-2" d="M33.46.78a27.14,27.14,0,0,0-12.92,0L27,27Z"/><path id="path1469" class="cls-2" d="M44.9,6.79a27,27,0,0,0-11.44-6L27,27Z"/><path id="path1471" class="cls-1" d="M52.25,17.43A26.94,26.94,0,0,0,44.9,6.79L27,27Z"/><path id="path1473" class="cls-2" d="M53.8,30.25a26.93,26.93,0,0,0-1.55-12.82L27,27Z"/><path id="path1475" class="cls-2" d="M49.22,42.34A27,27,0,0,0,53.8,30.25L27,27Z"/><path id="path1477" class="cls-2" d="M39.55,50.91a26.93,26.93,0,0,0,9.67-8.57L27,27Z"/><path id="path1479" class="cls-2" d="M27,54a27,27,0,0,0,12.55-3.09L27,27Z"/><circle id="circle1481" class="cls-1" cx="27" cy="27" r="20.25"/><circle id="circle1483" class="cls-2" cx="27" cy="27" r="13.5"/><circle id="circle1485" class="cls-1" cx="27" cy="27" r="6.75"/></symbol><symbol id="_301" data-name="301" viewBox="0 0 54 54"><circle id="circle1489" class="cls-1" cx="27" cy="27" r="27"/><path id="path1491" class="cls-1" d="M14.45,50.91A27,27,0,0,0,27,54V27Z"/><path id="path1493" class="cls-2" d="M4.78,42.34a26.93,26.93,0,0,0,9.67,8.57L27,27Z"/><path id="path1495" class="cls-1" d="M.2,30.25A27,27,0,0,0,4.78,42.34L27,27Z"/><path id="path1497" class="cls-1" d="M1.75,17.43A26.93,26.93,0,0,0,.2,30.25L27,27Z"/><path id="path1499" class="cls-2" d="M9.1,6.79A26.94,26.94,0,0,0,1.75,17.43L27,27Z"/><path id="path1501" class="cls-1" d="M20.54.78a27,27,0,0,0-11.44,6L27,27Z"/><path id="path1503" class="cls-2" d="M33.46.78a27.14,27.14,0,0,0-12.92,0L27,27Z"/><path id="path1505" class="cls-2" d="M44.9,6.79a27,27,0,0,0-11.44-6L27,27Z"/><path id="path1507" class="cls-1" d="M52.25,17.43A26.94,26.94,0,0,0,44.9,6.79L27,27Z"/><path id="path1509" class="cls-2" d="M53.8,30.25a26.93,26.93,0,0,0-1.55-12.82L27,27Z"/><path id="path1511" class="cls-2" d="M49.22,42.34A27,27,0,0,0,53.8,30.25L27,27Z"/><path id="path1513" class="cls-2" d="M39.55,50.91a26.93,26.93,0,0,0,9.67-8.57L27,27Z"/><path id="path1515" class="cls-2" d="M27,54a27,27,0,0,0,12.55-3.09L27,27Z"/><circle id="circle1517" class="cls-1" cx="27" cy="27" r="20.25"/><circle id="circle1519" class="cls-2" cx="27" cy="27" r="13.5"/><circle id="circle1521" class="cls-1" cx="27" cy="27" r="6.75"/></symbol><symbol id="_211" data-name="211" viewBox="0 0 54 54"><circle id="circle1165" class="cls-1" cx="27" cy="27" r="27"/><path id="path1167" class="cls-1" d="M14.45,50.91A27,27,0,0,0,27,54V27Z"/><path id="path1169" class="cls-2" d="M4.78,42.34a26.93,26.93,0,0,0,9.67,8.57L27,27Z"/><path id="path1171" class="cls-1" d="M.2,30.25A27,27,0,0,0,4.78,42.34L27,27Z"/><path id="path1173" class="cls-2" d="M1.75,17.43A26.93,26.93,0,0,0,.2,30.25L27,27Z"/><path id="path1175" class="cls-2" d="M9.1,6.79A26.94,26.94,0,0,0,1.75,17.43L27,27Z"/><path id="path1177" class="cls-1" d="M20.54.78a27,27,0,0,0-11.44,6L27,27Z"/><path id="path1179" class="cls-1" d="M33.46.78a27.14,27.14,0,0,0-12.92,0L27,27Z"/><path id="path1181" class="cls-1" d="M44.9,6.79a27,27,0,0,0-11.44-6L27,27Z"/><path id="path1183" class="cls-2" d="M52.25,17.43A26.94,26.94,0,0,0,44.9,6.79L27,27Z"/><path id="path1185" class="cls-2" d="M53.8,30.25a26.93,26.93,0,0,0-1.55-12.82L27,27Z"/><path id="path1187" class="cls-2" d="M49.22,42.34A27,27,0,0,0,53.8,30.25L27,27Z"/><path id="path1189" class="cls-2" d="M39.55,50.91a26.93,26.93,0,0,0,9.67-8.57L27,27Z"/><path id="path1191" class="cls-2" d="M27,54a27,27,0,0,0,12.55-3.09L27,27Z"/><circle id="circle1193" class="cls-1" cx="27" cy="27" r="20.25"/><circle id="circle1195" class="cls-2" cx="27" cy="27" r="13.5"/><circle id="circle1197" class="cls-1" cx="27" cy="27" r="6.75"/></symbol></defs><rect class="cls-3" x="0.5" y="0.5" width="246.61" height="123.31"/><rect class="cls-3" x="0.56" y="0.5" width="82.2" height="123.31"/><path class="cls-4" d="M65.58,48.48a6.65,6.65,0,0,0-.75-.39q-.31-.14-.72-.27a2.76,2.76,0,0,0-.79-.12,1.1,1.1,0,0,0-.49.09.35.35,0,0,0-.19.33.33.33,0,0,0,.11.27.83.83,0,0,0,.31.2,3.94,3.94,0,0,0,.5.18l.66.2a8.27,8.27,0,0,1,1.07.4,3.28,3.28,0,0,1,.81.51,1.93,1.93,0,0,1,.51.71,2.59,2.59,0,0,1,.18,1,2.67,2.67,0,0,1-.28,1.29,2.3,2.3,0,0,1-.74.83,3.09,3.09,0,0,1-1,.45,4.68,4.68,0,0,1-1.17.14,6.39,6.39,0,0,1-1-.07c-.33,0-.65-.12-1-.2a9.25,9.25,0,0,1-.93-.32,6.52,6.52,0,0,1-.84-.4l1-2.06a5.71,5.71,0,0,0,.88.47,6.12,6.12,0,0,0,.87.33,3.64,3.64,0,0,0,1,.14,1,1,0,0,0,.53-.1.32.32,0,0,0,.15-.27.4.4,0,0,0-.15-.31,1.42,1.42,0,0,0-.41-.22c-.18-.06-.38-.13-.61-.19s-.47-.14-.72-.23a7.25,7.25,0,0,1-1-.41,2.75,2.75,0,0,1-.67-.51,1.84,1.84,0,0,1-.39-.64,2.63,2.63,0,0,1-.13-.83,2.91,2.91,0,0,1,.26-1.25,2.73,2.73,0,0,1,.7-.9,3.12,3.12,0,0,1,1-.54,3.7,3.7,0,0,1,1.21-.19,4.6,4.6,0,0,1,.91.09,8.37,8.37,0,0,1,.86.23,7.71,7.71,0,0,1,.77.3l.65.31Z" transform="translate(-50.52 -26.75)"/><path class="cls-4" d="M70.77,54.33a4,4,0,0,1-1.47-.25,3.22,3.22,0,0,1-1.09-.71,2.89,2.89,0,0,1-.66-1,3.07,3.07,0,0,1-.23-1.21,3.68,3.68,0,0,1,.22-1.29,3,3,0,0,1,.66-1.07,3.08,3.08,0,0,1,1.08-.73,4.25,4.25,0,0,1,3,0,3.24,3.24,0,0,1,1.09.72,3,3,0,0,1,.66,1,3.45,3.45,0,0,1,.22,1.24c0,.12,0,.24,0,.36a2.48,2.48,0,0,1,0,.33H69.74a.92.92,0,0,0,.37.73,1.31,1.31,0,0,0,.74.22,1.45,1.45,0,0,0,.7-.17.82.82,0,0,0,.44-.46l1.93.55a3.09,3.09,0,0,1-1.18,1.23A3.78,3.78,0,0,1,70.77,54.33Zm1-3.94a1.16,1.16,0,0,0-.33-.72,1,1,0,0,0-.71-.27,1,1,0,0,0-.71.27,1.16,1.16,0,0,0-.34.72Z" transform="translate(-50.52 -26.75)"/><path class="cls-4" d="M82,49.85a4.49,4.49,0,0,0-1.2.14,1.54,1.54,0,0,0-.81.48v3.74H77.67V47.9h2.09v1.2a2.71,2.71,0,0,1,.84-1,1.91,1.91,0,0,1,1.07-.34H82Z" transform="translate(-50.52 -26.75)"/><path class="cls-4" d="M84.45,54.33a2.49,2.49,0,0,1-.87-.15,2.23,2.23,0,0,1-.7-.43,2,2,0,0,1-.47-.64,2,2,0,0,1-.16-.8,1.84,1.84,0,0,1,.2-.88,2.15,2.15,0,0,1,.56-.68,2.61,2.61,0,0,1,.86-.45,3.8,3.8,0,0,1,1.1-.15,2.94,2.94,0,0,1,1.27.24v-.2a.8.8,0,0,0-.26-.66,1.31,1.31,0,0,0-.83-.21,3,3,0,0,0-1,.17,5.66,5.66,0,0,0-1,.51l-.66-1.41a5.13,5.13,0,0,1,2.85-.81,3.63,3.63,0,0,1,2.33.67,2.47,2.47,0,0,1,.81,2v1.22a.71.71,0,0,0,.1.45.4.4,0,0,0,.33.15v1.92l-.52.09-.44,0a1.64,1.64,0,0,1-.93-.22,1,1,0,0,1-.41-.65l-.05-.23a2.9,2.9,0,0,1-1,.82A2.53,2.53,0,0,1,84.45,54.33Zm.69-1.63a1.64,1.64,0,0,0,.42-.06,1.91,1.91,0,0,0,.38-.18.88.88,0,0,0,.22-.21.4.4,0,0,0,.08-.23v-.47a2.55,2.55,0,0,0-.44-.12,2.47,2.47,0,0,0-.43,0,1.12,1.12,0,0,0-.7.21.61.61,0,0,0-.28.51.52.52,0,0,0,.21.43A.8.8,0,0,0,85.14,52.7Z" transform="translate(-50.52 -26.75)"/><path class="cls-4" d="M92.39,54.33a4.92,4.92,0,0,1-1.62-.27,3.75,3.75,0,0,1-1.35-.78l.78-1.37a5.79,5.79,0,0,0,1.14.61,2.59,2.59,0,0,0,1,.22q.48,0,.48-.3a.34.34,0,0,0-.19-.29,3.21,3.21,0,0,0-.72-.28,10,10,0,0,1-1.13-.37,3.27,3.27,0,0,1-.73-.41,1.2,1.2,0,0,1-.4-.48,1.46,1.46,0,0,1-.12-.62,2,2,0,0,1,.19-.89,2.2,2.2,0,0,1,.54-.71,2.38,2.38,0,0,1,.81-.46,3.15,3.15,0,0,1,1-.16,4.85,4.85,0,0,1,1.33.18,3.29,3.29,0,0,1,1.26.73l-.86,1.37a5.8,5.8,0,0,0-1-.55,2.1,2.1,0,0,0-.74-.16.68.68,0,0,0-.34.08.27.27,0,0,0-.13.25.35.35,0,0,0,.19.29,3.3,3.3,0,0,0,.76.26,7.36,7.36,0,0,1,1.15.38,2.91,2.91,0,0,1,.75.43,1.27,1.27,0,0,1,.4.53,1.74,1.74,0,0,1,.12.67,2.07,2.07,0,0,1-.18.88,1.76,1.76,0,0,1-.52.66,2.49,2.49,0,0,1-.83.42A3.69,3.69,0,0,1,92.39,54.33Z" transform="translate(-50.52 -26.75)"/><path class="cls-4" d="M98.4,54.33a5,5,0,0,1-1.62-.27,3.75,3.75,0,0,1-1.35-.78l.78-1.37a6.08,6.08,0,0,0,1.14.61,2.63,2.63,0,0,0,1,.22q.48,0,.48-.3a.34.34,0,0,0-.19-.29,3.21,3.21,0,0,0-.72-.28,9.78,9.78,0,0,1-1.12-.37,3.36,3.36,0,0,1-.74-.41,1.29,1.29,0,0,1-.4-.48,1.46,1.46,0,0,1-.12-.62,2.06,2.06,0,0,1,.73-1.6,2.48,2.48,0,0,1,.81-.46,3.19,3.19,0,0,1,1-.16,4.8,4.8,0,0,1,1.33.18,3.29,3.29,0,0,1,1.26.73l-.86,1.37a6.18,6.18,0,0,0-1-.55,2.2,2.2,0,0,0-.75-.16.64.64,0,0,0-.33.08.26.26,0,0,0-.14.25.34.34,0,0,0,.2.29,3.17,3.17,0,0,0,.75.26,7.36,7.36,0,0,1,1.15.38,2.6,2.6,0,0,1,.75.43,1.29,1.29,0,0,1,.41.53,1.74,1.74,0,0,1,.12.67,2.07,2.07,0,0,1-.18.88,1.78,1.78,0,0,1-.53.66,2.44,2.44,0,0,1-.82.42A3.76,3.76,0,0,1,98.4,54.33Z" transform="translate(-50.52 -26.75)"/><path class="cls-4" d="M104.91,54.33a4,4,0,0,1-1.47-.25,3.22,3.22,0,0,1-1.09-.71,2.89,2.89,0,0,1-.66-1,3.07,3.07,0,0,1-.23-1.21,3.68,3.68,0,0,1,.22-1.29,3,3,0,0,1,.66-1.07,3.08,3.08,0,0,1,1.08-.73,4.25,4.25,0,0,1,3,0,3.24,3.24,0,0,1,1.09.72,3,3,0,0,1,.66,1,3.45,3.45,0,0,1,.22,1.24c0,.12,0,.24,0,.36a2.48,2.48,0,0,1,0,.33h-4.43a.92.92,0,0,0,.37.73,1.31,1.31,0,0,0,.74.22,1.45,1.45,0,0,0,.7-.17.86.86,0,0,0,.44-.46l1.93.55a3.09,3.09,0,0,1-1.18,1.23A3.78,3.78,0,0,1,104.91,54.33Zm1-3.94a1.16,1.16,0,0,0-.33-.72,1,1,0,0,0-.71-.27,1,1,0,0,0-.71.27,1.16,1.16,0,0,0-.34.72Z" transform="translate(-50.52 -26.75)"/><path class="cls-4" d="M119.29,54.21H117V50.66a1,1,0,0,0-.19-.68.57.57,0,0,0-.45-.21,1,1,0,0,0-.58.26,1.49,1.49,0,0,0-.45.64v3.54h-2.28V50.66a1,1,0,0,0-.18-.68.6.6,0,0,0-.45-.21,1,1,0,0,0-.59.26,1.49,1.49,0,0,0-.45.64v3.54h-2.28V47.9h2.06v.94a2.09,2.09,0,0,1,.92-.79,3.31,3.31,0,0,1,1.39-.27,2.22,2.22,0,0,1,.67.09,1.47,1.47,0,0,1,.5.25,1.41,1.41,0,0,1,.34.35,1.87,1.87,0,0,1,.2.4,2.28,2.28,0,0,1,.91-.8,3,3,0,0,1,1.33-.29,1.77,1.77,0,0,1,1,.24,1.63,1.63,0,0,1,.56.58,2.16,2.16,0,0,1,.25.74,5,5,0,0,1,.06.72Z" transform="translate(-50.52 -26.75)"/><path class="cls-4" d="M120.42,51.92v-2h3.75v2Z" transform="translate(-50.52 -26.75)"/><path class="cls-4" d="M84.79,68.73a2.12,2.12,0,0,1-2-1.1v1h-2V59.85H83v3.39a1.94,1.94,0,0,1,.79-.79A2.45,2.45,0,0,1,85,62.18a2.48,2.48,0,0,1,1.08.25,2.59,2.59,0,0,1,.85.69,3.22,3.22,0,0,1,.57,1.05,4,4,0,0,1,.2,1.31,3.58,3.58,0,0,1-.22,1.3,3.2,3.2,0,0,1-.61,1,2.87,2.87,0,0,1-.93.68A2.83,2.83,0,0,1,84.79,68.73Zm-.67-1.92a1.2,1.2,0,0,0,.91-.36,1.31,1.31,0,0,0,.34-1,1.61,1.61,0,0,0-.09-.54,1.7,1.7,0,0,0-.24-.44,1,1,0,0,0-.36-.3,1,1,0,0,0-.46-.11,1.07,1.07,0,0,0-.68.26A1.66,1.66,0,0,0,83,65v1.13A1.29,1.29,0,0,0,84.12,66.81Z" transform="translate(-50.52 -26.75)"/><path class="cls-4" d="M88.48,59.85h2.28v6.26c0,.48.2.72.59.72a1.24,1.24,0,0,0,.31,0,1.44,1.44,0,0,0,.31-.13l.29,1.68a5.23,5.23,0,0,1-.92.3,4.75,4.75,0,0,1-1,.1A2,2,0,0,1,89,68.27a1.8,1.8,0,0,1-.49-1.36Z" transform="translate(-50.52 -26.75)"/><path class="cls-4" d="M95.9,68.73a4,4,0,0,1-1.48-.25,3.32,3.32,0,0,1-1.09-.71,2.89,2.89,0,0,1-.66-1,3.26,3.26,0,0,1-.23-1.21,3.68,3.68,0,0,1,.22-1.29,3,3,0,0,1,.66-1.07,3.22,3.22,0,0,1,1.08-.73,3.86,3.86,0,0,1,1.5-.27,3.79,3.79,0,0,1,1.48.27,3.14,3.14,0,0,1,1.09.72,3,3,0,0,1,.66,1,3.45,3.45,0,0,1,.22,1.24,2.17,2.17,0,0,1,0,.36,2.48,2.48,0,0,1,0,.33H94.86a.9.9,0,0,0,.38.73,1.26,1.26,0,0,0,.73.22,1.42,1.42,0,0,0,.7-.17.82.82,0,0,0,.44-.46L99,67a3,3,0,0,1-1.18,1.23A3.75,3.75,0,0,1,95.9,68.73Zm1-3.94a1.16,1.16,0,0,0-.33-.72,1.07,1.07,0,0,0-1.42,0,1.16,1.16,0,0,0-.33.72Z" transform="translate(-50.52 -26.75)"/><path class="cls-4" d="M104.38,64.25a4.49,4.49,0,0,0-1.2.14,1.47,1.47,0,0,0-.8.48v3.74H100.1V62.3h2.08v1.2a2.81,2.81,0,0,1,.84-1,1.91,1.91,0,0,1,1.07-.34h.29Z" transform="translate(-50.52 -26.75)"/><text class="cls-5" transform="translate(11.59 83.7)"><tspan class="cls-6">D</tspan><tspan x="8.53" y="0">ifficu</tspan><tspan class="cls-7" x="37.48" y="0">l</tspan><tspan class="cls-8" x="41.57" y="0">t</tspan><tspan x="46.57" y="0">é : </tspan></text><path class="cls-2" d="M83.19,126.68l3.5,2.22-.93-4.19,3.1-2.82-4.08-.37-1.59-4-1.59,4-4.08.37,3.1,2.82-.93,4.19Z" transform="translate(-50.52 -26.75)"/><use width="54" height="54" transform="matrix(-1, 0, 0, 1, 162.3, 56.83)" xlink:href="#_205"/><use width="54" height="54" transform="matrix(-1, 0, 0, 1, 230.05, 58.09)" xlink:href="#_279"/><rect class="cls-3" x="247.11" y="0.5" width="246.61" height="123.31"/><rect class="cls-3" x="247.18" y="0.5" width="82.2" height="123.31"/><path class="cls-4" d="M312.19,48.48a6.51,6.51,0,0,0-.74-.39l-.73-.27a2.69,2.69,0,0,0-.78-.12,1.15,1.15,0,0,0-.5.09.35.35,0,0,0-.19.33.37.37,0,0,0,.11.27.92.92,0,0,0,.31.2,4.61,4.61,0,0,0,.5.18l.67.2a8.11,8.11,0,0,1,1.06.4,3.11,3.11,0,0,1,.81.51,1.82,1.82,0,0,1,.51.71,2.58,2.58,0,0,1,.19,1,2.67,2.67,0,0,1-.29,1.29,2.21,2.21,0,0,1-.74.83,3.09,3.09,0,0,1-1.05.45,4.55,4.55,0,0,1-1.16.14,6.2,6.2,0,0,1-1-.07c-.33,0-.66-.12-1-.2a8.64,8.64,0,0,1-.94-.32,5.81,5.81,0,0,1-.83-.4l1-2.06a6.8,6.8,0,0,0,.88.47,7.22,7.22,0,0,0,.87.33,3.76,3.76,0,0,0,1,.14,1,1,0,0,0,.54-.1.33.33,0,0,0,.14-.27.43.43,0,0,0-.14-.31,1.49,1.49,0,0,0-.42-.22c-.18-.06-.38-.13-.61-.19l-.72-.23a7.08,7.08,0,0,1-1-.41,2.81,2.81,0,0,1-.68-.51,1.81,1.81,0,0,1-.38-.64,2.37,2.37,0,0,1-.13-.83,2.91,2.91,0,0,1,.26-1.25,2.49,2.49,0,0,1,.7-.9,3,3,0,0,1,1-.54,3.7,3.7,0,0,1,1.21-.19,4.6,4.6,0,0,1,.91.09,7.79,7.79,0,0,1,1.63.53l.65.31Z" transform="translate(-50.52 -26.75)"/><path class="cls-4" d="M317.39,54.33a4,4,0,0,1-1.48-.25,3.17,3.17,0,0,1-1.08-.71,2.92,2.92,0,0,1-.67-1,3.26,3.26,0,0,1-.23-1.21,3.69,3.69,0,0,1,.23-1.29,2.85,2.85,0,0,1,.65-1.07,3.27,3.27,0,0,1,1.08-.73,4.27,4.27,0,0,1,3,0,3.19,3.19,0,0,1,1.08.72,3,3,0,0,1,.66,1,3.45,3.45,0,0,1,.22,1.24c0,.12,0,.24,0,.36s0,.24,0,.33h-4.43a.87.87,0,0,0,.37.73,1.28,1.28,0,0,0,.73.22,1.42,1.42,0,0,0,.7-.17.82.82,0,0,0,.44-.46l1.93.55a3,3,0,0,1-1.18,1.23A3.72,3.72,0,0,1,317.39,54.33Zm1-3.94a1.11,1.11,0,0,0-.34-.72,1,1,0,0,0-.71-.27,1,1,0,0,0-.71.27,1.16,1.16,0,0,0-.33.72Z" transform="translate(-50.52 -26.75)"/><path class="cls-4" d="M328.57,49.85a4.49,4.49,0,0,0-1.2.14,1.47,1.47,0,0,0-.8.48v3.74h-2.28V47.9h2.09v1.2a2.69,2.69,0,0,1,.83-1,1.91,1.91,0,0,1,1.07-.34h.29Z" transform="translate(-50.52 -26.75)"/><path class="cls-4" d="M331.07,54.33a2.54,2.54,0,0,1-.88-.15,2.35,2.35,0,0,1-.7-.43,1.84,1.84,0,0,1-.46-.64,2,2,0,0,1,0-1.68,2.18,2.18,0,0,1,.57-.68,2.51,2.51,0,0,1,.86-.45,3.73,3.73,0,0,1,1.09-.15,3,3,0,0,1,1.28.24v-.2a.84.84,0,0,0-.26-.66,1.33,1.33,0,0,0-.84-.21,2.86,2.86,0,0,0-1,.17,5,5,0,0,0-1,.51l-.66-1.41a5.1,5.1,0,0,1,2.84-.81,3.61,3.61,0,0,1,2.33.67,2.48,2.48,0,0,1,.82,2v1.22a.8.8,0,0,0,.09.45.44.44,0,0,0,.34.15v1.92l-.52.09-.44,0a1.6,1.6,0,0,1-.93-.22,1.07,1.07,0,0,1-.42-.65l0-.23a2.93,2.93,0,0,1-1,.82A2.49,2.49,0,0,1,331.07,54.33Zm.68-1.63a1.52,1.52,0,0,0,.42-.06,2,2,0,0,0,.39-.18.84.84,0,0,0,.21-.21.35.35,0,0,0,.09-.23v-.47a3,3,0,0,0-.45-.12,2.37,2.37,0,0,0-.43,0,1.14,1.14,0,0,0-.7.21.6.6,0,0,0-.27.51.52.52,0,0,0,.21.43A.79.79,0,0,0,331.75,52.7Z" transform="translate(-50.52 -26.75)"/><path class="cls-4" d="M339,54.33a5,5,0,0,1-1.62-.27,3.62,3.62,0,0,1-1.34-.78l.78-1.37a6,6,0,0,0,1.13.61,2.63,2.63,0,0,0,1,.22q.48,0,.48-.3a.35.35,0,0,0-.18-.29,3.58,3.58,0,0,0-.73-.28,9.78,9.78,0,0,1-1.12-.37,3.06,3.06,0,0,1-.73-.41,1.23,1.23,0,0,1-.41-.48,1.46,1.46,0,0,1-.12-.62,2.16,2.16,0,0,1,.73-1.6,2.43,2.43,0,0,1,.82-.46,3.09,3.09,0,0,1,1-.16,4.8,4.8,0,0,1,1.33.18,3.4,3.4,0,0,1,1.27.73l-.87,1.37a6.18,6.18,0,0,0-1-.55,2.15,2.15,0,0,0-.75-.16.67.67,0,0,0-.33.08.26.26,0,0,0-.13.25.33.33,0,0,0,.19.29,3.36,3.36,0,0,0,.75.26,7.9,7.9,0,0,1,1.16.38,2.91,2.91,0,0,1,.75.43,1.36,1.36,0,0,1,.4.53,1.74,1.74,0,0,1,.12.67,2.07,2.07,0,0,1-.18.88,1.86,1.86,0,0,1-.52.66,2.59,2.59,0,0,1-.83.42A3.76,3.76,0,0,1,339,54.33Z" transform="translate(-50.52 -26.75)"/><path class="cls-4" d="M345,54.33a5,5,0,0,1-1.62-.27,3.7,3.7,0,0,1-1.34-.78l.78-1.37a6,6,0,0,0,1.13.61,2.67,2.67,0,0,0,1,.22q.48,0,.48-.3a.35.35,0,0,0-.18-.29,3.58,3.58,0,0,0-.73-.28,9.78,9.78,0,0,1-1.12-.37,3.27,3.27,0,0,1-.73-.41,1.2,1.2,0,0,1-.4-.48,1.46,1.46,0,0,1-.12-.62,2,2,0,0,1,.19-.89,2.17,2.17,0,0,1,.53-.71,2.43,2.43,0,0,1,.82-.46,3.11,3.11,0,0,1,1-.16,4.78,4.78,0,0,1,1.32.18,3.4,3.4,0,0,1,1.27.73l-.87,1.37a6.18,6.18,0,0,0-1-.55,2.1,2.1,0,0,0-.74-.16.68.68,0,0,0-.34.08.26.26,0,0,0-.13.25.33.33,0,0,0,.19.29,3.3,3.3,0,0,0,.76.26,7.74,7.74,0,0,1,1.15.38,2.91,2.91,0,0,1,.75.43,1.27,1.27,0,0,1,.4.53,1.74,1.74,0,0,1,.12.67,2.07,2.07,0,0,1-.18.88,1.76,1.76,0,0,1-.52.66,2.59,2.59,0,0,1-.83.42A3.72,3.72,0,0,1,345,54.33Z" transform="translate(-50.52 -26.75)"/><path class="cls-4" d="M351.53,54.33a4,4,0,0,1-1.48-.25,3.17,3.17,0,0,1-1.08-.71,2.79,2.79,0,0,1-.67-1,3.26,3.26,0,0,1-.23-1.21,3.93,3.93,0,0,1,.22-1.29,3,3,0,0,1,.66-1.07,3.27,3.27,0,0,1,1.08-.73,4.27,4.27,0,0,1,3,0,3.19,3.19,0,0,1,1.08.72,3,3,0,0,1,.66,1,3.45,3.45,0,0,1,.22,1.24c0,.12,0,.24,0,.36s0,.24-.05.33H350.5a.87.87,0,0,0,.37.73,1.28,1.28,0,0,0,.73.22,1.42,1.42,0,0,0,.7-.17.82.82,0,0,0,.44-.46l1.93.55a3,3,0,0,1-1.18,1.23A3.75,3.75,0,0,1,351.53,54.33Zm1-3.94a1.16,1.16,0,0,0-.34-.72,1,1,0,0,0-.71-.27,1,1,0,0,0-.71.27,1.16,1.16,0,0,0-.33.72Z" transform="translate(-50.52 -26.75)"/><path class="cls-4" d="M365.9,54.21h-2.28V50.66a1,1,0,0,0-.18-.68.6.6,0,0,0-.45-.21.91.91,0,0,0-.58.26,1.34,1.34,0,0,0-.45.64v3.54h-2.28V50.66a1,1,0,0,0-.19-.68.57.57,0,0,0-.45-.21.93.93,0,0,0-.58.26,1.34,1.34,0,0,0-.45.64v3.54h-2.28V47.9h2v.94a2.09,2.09,0,0,1,.92-.79,3.36,3.36,0,0,1,1.4-.27,2.26,2.26,0,0,1,.67.09,1.56,1.56,0,0,1,.5.25,1.21,1.21,0,0,1,.33.35,1.5,1.5,0,0,1,.2.4,2.25,2.25,0,0,1,.92-.8,3,3,0,0,1,1.32-.29,1.77,1.77,0,0,1,1,.24,1.55,1.55,0,0,1,.56.58,2.16,2.16,0,0,1,.25.74,5,5,0,0,1,.06.72Z" transform="translate(-50.52 -26.75)"/><path class="cls-4" d="M367,51.92v-2h3.76v2Z" transform="translate(-50.52 -26.75)"/><path class="cls-4" d="M326.46,68.73a2.12,2.12,0,0,1-2-1.1v1h-2V59.85h2.27v3.39a1.94,1.94,0,0,1,.79-.79,2.45,2.45,0,0,1,1.18-.27,2.48,2.48,0,0,1,1.08.25,2.73,2.73,0,0,1,.86.69,3.39,3.39,0,0,1,.56,1.05,4,4,0,0,1,.2,1.31,3.58,3.58,0,0,1-.22,1.3,3.2,3.2,0,0,1-.61,1,2.87,2.87,0,0,1-.93.68A2.83,2.83,0,0,1,326.46,68.73Zm-.67-1.92a1.2,1.2,0,0,0,.91-.36,1.31,1.31,0,0,0,.34-1A1.61,1.61,0,0,0,327,65a1.7,1.7,0,0,0-.24-.44,1,1,0,0,0-.36-.3,1,1,0,0,0-.46-.11,1.07,1.07,0,0,0-.68.26,1.66,1.66,0,0,0-.5.68v1.13A1.29,1.29,0,0,0,325.79,66.81Z" transform="translate(-50.52 -26.75)"/><path class="cls-4" d="M330.15,59.85h2.28v6.26c0,.48.2.72.59.72a1.18,1.18,0,0,0,.31,0,1.44,1.44,0,0,0,.31-.13l.29,1.68a5.23,5.23,0,0,1-.92.3,4.75,4.75,0,0,1-1,.1,2,2,0,0,1-1.41-.46,1.8,1.8,0,0,1-.49-1.36Z" transform="translate(-50.52 -26.75)"/><path class="cls-4" d="M337.57,68.73a4,4,0,0,1-1.48-.25,3.32,3.32,0,0,1-1.09-.71,2.89,2.89,0,0,1-.66-1,3.26,3.26,0,0,1-.23-1.21,3.68,3.68,0,0,1,.22-1.29,3,3,0,0,1,.66-1.07,3.22,3.22,0,0,1,1.08-.73,3.86,3.86,0,0,1,1.5-.27,3.79,3.79,0,0,1,1.48.27,3.14,3.14,0,0,1,1.09.72,3,3,0,0,1,.66,1,3.45,3.45,0,0,1,.22,1.24,2.17,2.17,0,0,1,0,.36,2.48,2.48,0,0,1,0,.33h-4.43a.9.9,0,0,0,.38.73,1.28,1.28,0,0,0,.73.22,1.42,1.42,0,0,0,.7-.17.82.82,0,0,0,.44-.46l1.93.55a3,3,0,0,1-1.18,1.23A3.75,3.75,0,0,1,337.57,68.73Zm1-3.94a1.16,1.16,0,0,0-.33-.72,1.07,1.07,0,0,0-1.42,0,1.16,1.16,0,0,0-.33.72Z" transform="translate(-50.52 -26.75)"/><path class="cls-4" d="M346.05,64.25a4.49,4.49,0,0,0-1.2.14,1.47,1.47,0,0,0-.8.48v3.74h-2.28V62.3h2.08v1.2a2.81,2.81,0,0,1,.84-1,1.91,1.91,0,0,1,1.07-.34h.29Z" transform="translate(-50.52 -26.75)"/><path class="cls-4" d="M349,68.61a5.35,5.35,0,0,1,.1-1,2.59,2.59,0,0,1,.31-.82,2.52,2.52,0,0,1,.56-.66,5,5,0,0,1,.85-.56l1-.56c.25-.14.44-.25.57-.34a1,1,0,0,0,.25-.22.46.46,0,0,0,.05-.2.53.53,0,0,0-.19-.45.9.9,0,0,0-.53-.14,1.56,1.56,0,0,0-.75.2,3.28,3.28,0,0,0-.74.66l-1.44-1.69a2.57,2.57,0,0,1,.59-.46,4.51,4.51,0,0,1,.8-.36,5.27,5.27,0,0,1,.93-.23,5.58,5.58,0,0,1,1-.09,3.28,3.28,0,0,1,2.09.57,1.91,1.91,0,0,1,.72,1.59,2.18,2.18,0,0,1-.1.66,1.81,1.81,0,0,1-.26.52,2.27,2.27,0,0,1-.39.43,4.29,4.29,0,0,1-.48.36,6.65,6.65,0,0,1-.63.39,6.42,6.42,0,0,0-.65.41h2.64v2Z" transform="translate(-50.52 -26.75)"/><text class="cls-5" transform="translate(258.21 83.7)"><tspan class="cls-6">D</tspan><tspan x="8.53" y="0">ifficu</tspan><tspan class="cls-7" x="37.48" y="0">l</tspan><tspan class="cls-8" x="41.57" y="0">t</tspan><tspan x="46.57" y="0">é : </tspan></text><path class="cls-2" d="M329.8,126.68l3.51,2.22-.93-4.19,3.09-2.82-4.07-.37-1.6-4-1.59,4-4.08.37,3.1,2.82-.93,4.19Z" transform="translate(-50.52 -26.75)"/><use width="54" height="54" transform="matrix(-1, 0, 0, 1, 402.58, 56.83)" xlink:href="#_205"/><rect class="cls-3" x="0.5" y="125.22" width="246.61" height="123.31"/><rect class="cls-3" x="0.56" y="125.22" width="82.2" height="123.31"/><text class="cls-5" transform="translate(15.38 152.19)">Les<tspan class="cls-9" x="20.34" y="0"> </tspan><tspan class="cls-10" x="22.73" y="0">v</tspan><tspan x="29.27" y="0">erts</tspan></text><text class="cls-5" transform="translate(11.59 208.42)"><tspan class="cls-6">D</tspan><tspan x="8.53" y="0">ifficu</tspan><tspan class="cls-7" x="37.48" y="0">l</tspan><tspan class="cls-8" x="41.57" y="0">t</tspan><tspan x="46.57" y="0">é : </tspan></text><path class="cls-2" d="M83.19,251.4l3.5,2.23-.93-4.2,3.1-2.82-4.08-.37-1.59-4-1.59,4-4.08.37,3.1,2.82-.93,4.2Z" transform="translate(-50.52 -26.75)"/><use width="54" height="54" transform="matrix(-1, 0, 0, 1, 162.3, 181.55)" xlink:href="#_205"/><rect class="cls-3" x="247.11" y="125.22" width="246.61" height="123.31"/><rect class="cls-3" x="247.18" y="125.22" width="82.2" height="123.31"/><text class="cls-5" transform="translate(254.85 152.19)"><tspan class="cls-11">R</tspan><tspan x="7.87" y="0">empli</tspan><tspan class="cls-12" x="41.92" y="0">r</tspan><tspan x="46.67" y="0" xml:space="preserve"> les </tspan><tspan x="13.67" y="14.4">blancs</tspan></text><text class="cls-5" transform="translate(258.21 208.42)"><tspan class="cls-6">D</tspan><tspan x="8.53" y="0">ifficu</tspan><tspan class="cls-7" x="37.48" y="0">l</tspan><tspan class="cls-8" x="41.57" y="0">t</tspan><tspan x="46.57" y="0">é : </tspan></text><path class="cls-2" d="M329.8,251.4l3.51,2.23-.93-4.2,3.09-2.82-4.07-.37-1.6-4-1.59,4-4.08.37,3.1,2.82-.93,4.2Z" transform="translate(-50.52 -26.75)"/><use width="54" height="54" transform="matrix(-1, 0, 0, 1, 402.58, 181.55)" xlink:href="#_205"/><use width="54" height="54" transform="matrix(-1, 0, 0, 1, 476.66, 56.83)" xlink:href="#_283"/><use width="54" height="54" transform="matrix(-1, 0, 0, 1, 230.05, 181.42)" xlink:href="#_285"/><use width="54" height="54" transform="matrix(-1, 0, 0, 1, 476.66, 181.55)" xlink:href="#_295"/><rect class="cls-3" x="0.5" y="249.94" width="246.61" height="123.31"/><rect class="cls-3" x="0.56" y="249.94" width="82.2" height="123.31"/><text class="cls-5" transform="translate(5.75 276.91)"><tspan class="cls-6">C</tspan><tspan x="8.23" y="0">om</tspan><tspan class="cls-8" x="26.88" y="0">pt</tspan><tspan x="39.58" y="0">e</tspan><tspan class="cls-13" x="46.88" y="0">r</tspan><tspan x="51.64" y="0" xml:space="preserve"> les </tspan><tspan x="19.46" y="14.4">bleus</tspan></text><text class="cls-5" transform="translate(11.59 333.14)"><tspan class="cls-6">D</tspan><tspan x="8.53" y="0">ifficu</tspan><tspan class="cls-7" x="37.48" y="0">l</tspan><tspan class="cls-8" x="41.57" y="0">t</tspan><tspan x="46.57" y="0">é : </tspan></text><path class="cls-2" d="M83.19,376.12l3.5,2.23-.93-4.2,3.1-2.82L84.78,371,83.19,367,81.6,371l-4.08.37,3.1,2.82-.93,4.2Z" transform="translate(-50.52 -26.75)"/><use width="54" height="54" transform="matrix(-1, 0, 0, 1, 162.3, 306.27)" xlink:href="#_205"/><rect class="cls-3" x="247.11" y="249.94" width="246.61" height="123.31"/><rect class="cls-3" x="247.18" y="249.94" width="82.2" height="123.31"/><text class="cls-5" transform="translate(253.65 276.91)"><tspan class="cls-14">T</tspan><tspan x="7.34" y="0">ri mu</tspan><tspan class="cls-7" x="37.4" y="0">l</tspan><tspan x="41.49" y="0">tiple</tspan></text><text class="cls-5" transform="translate(258.21 333.14)"><tspan class="cls-6">D</tspan><tspan x="8.53" y="0">ifficu</tspan><tspan class="cls-7" x="37.48" y="0">l</tspan><tspan class="cls-8" x="41.57" y="0">t</tspan><tspan x="46.57" y="0">é : </tspan></text><path class="cls-2" d="M329.8,376.12l3.51,2.23-.93-4.2,3.09-2.82L331.4,371,329.8,367,328.21,371l-4.08.37,3.1,2.82-.93,4.2Z" transform="translate(-50.52 -26.75)"/><use width="54" height="54" transform="matrix(-1, 0, 0, 1, 402.58, 306.27)" xlink:href="#_205"/><use width="54" height="54" transform="matrix(-1, 0, 0, 1, 232.09, 306.27)" xlink:href="#_299"/><use width="54" height="54" transform="matrix(-1, 0, 0, 1, 475.7, 306.14)" xlink:href="#_301"/><rect class="cls-3" x="0.5" y="409.12" width="246.61" height="123.31"/><rect class="cls-3" x="0.56" y="409.12" width="82.2" height="123.31"/><text class="cls-5" transform="translate(10.39 436.08)"><tspan class="cls-6">D</tspan><tspan x="8.53" y="0">ivise</tspan><tspan class="cls-12" x="35.47" y="0">r</tspan><tspan x="40.22" y="0" xml:space="preserve"> pa</tspan><tspan class="cls-12" x="57.88" y="0">r</tspan><tspan x="62.63" y="0"> </tspan><tspan x="16.52" y="14.4">deux</tspan></text><text class="cls-5" transform="translate(11.59 492.31)"><tspan class="cls-6">D</tspan><tspan x="8.53" y="0">ifficu</tspan><tspan class="cls-7" x="37.48" y="0">l</tspan><tspan class="cls-8" x="41.57" y="0">t</tspan><tspan x="46.57" y="0">é : </tspan></text><path class="cls-2" d="M92.19,535.3l3.5,2.22-.93-4.19,3.1-2.83-4.08-.36-1.59-4-1.59,4-4.08.36,3.1,2.83-.93,4.19Z" transform="translate(-50.52 -26.75)"/><use width="54" height="54" transform="matrix(-1, 0, 0, 1, 230.05, 466.7)" xlink:href="#_279"/><rect class="cls-3" x="247.11" y="409.12" width="246.61" height="123.31"/><rect class="cls-3" x="247.18" y="409.12" width="82.2" height="123.31"/><text class="cls-5" transform="translate(261.5 436.08)">La fusion</text><text class="cls-5" transform="translate(258.21 492.31)"><tspan class="cls-6">D</tspan><tspan x="8.53" y="0">ifficu</tspan><tspan class="cls-7" x="37.48" y="0">l</tspan><tspan class="cls-8" x="41.57" y="0">t</tspan><tspan x="46.57" y="0">é : </tspan></text><rect class="cls-3" x="0.5" y="533.84" width="246.61" height="123.31"/><rect class="cls-3" x="0.56" y="533.84" width="82.2" height="123.31"/><text class="cls-5" transform="translate(13.55 560.8)"><tspan class="cls-15">M</tspan><tspan x="10.14" y="0">ême les </tspan><tspan x="6.11" y="14.4">impairs</tspan></text><text class="cls-5" transform="translate(11.59 617.03)"><tspan class="cls-6">D</tspan><tspan x="8.53" y="0">ifficu</tspan><tspan class="cls-7" x="37.48" y="0">l</tspan><tspan class="cls-8" x="41.57" y="0">t</tspan><tspan x="46.57" y="0">é : </tspan></text><rect class="cls-3" x="247.11" y="533.84" width="246.61" height="123.31"/><rect class="cls-3" x="247.18" y="533.84" width="82.2" height="123.31"/><path class="cls-4" d="M304.92,583.22a4.23,4.23,0,0,1,2.52-3.86,4.7,4.7,0,0,1,4,.13,3.37,3.37,0,0,1,1.35,1.35L311,582.12a1.58,1.58,0,0,0-.32-.52,1.5,1.5,0,0,0-.44-.32,1.78,1.78,0,0,0-.49-.17,3,3,0,0,0-.5-.05,1.8,1.8,0,0,0-.87.2,1.85,1.85,0,0,0-.6.51,2.41,2.41,0,0,0-.35.72,2.8,2.8,0,0,0-.11.8,2.65,2.65,0,0,0,.13.85,2.06,2.06,0,0,0,.38.72,1.88,1.88,0,0,0,.62.5,1.71,1.71,0,0,0,.82.19,2.2,2.2,0,0,0,.5-.06,1.79,1.79,0,0,0,.9-.5,1.4,1.4,0,0,0,.3-.49l1.9,1.14a2.31,2.31,0,0,1-.58.84,3.77,3.77,0,0,1-.89.63,4.6,4.6,0,0,1-1.06.38,4.86,4.86,0,0,1-1.11.13,4,4,0,0,1-1.74-.37,4.61,4.61,0,0,1-2.24-2.42A4.34,4.34,0,0,1,304.92,583.22Z" transform="translate(-50.52 -26.75)"/><path class="cls-4" d="M316.57,587.67a3.81,3.81,0,0,1-1.49-.27,3.19,3.19,0,0,1-1.08-.72,3.07,3.07,0,0,1-.66-1,3.63,3.63,0,0,1,0-2.49,3.07,3.07,0,0,1,.66-1,3.19,3.19,0,0,1,1.08-.72,4.25,4.25,0,0,1,3,0,3.34,3.34,0,0,1,1.09.72,3.07,3.07,0,0,1,.66,1,3.63,3.63,0,0,1,0,2.49,3.07,3.07,0,0,1-.66,1,3.34,3.34,0,0,1-1.09.72A3.85,3.85,0,0,1,316.57,587.67Zm-1.11-3.27a1.45,1.45,0,0,0,.31,1,1.08,1.08,0,0,0,1.61,0,1.75,1.75,0,0,0,0-2,1.08,1.08,0,0,0-1.61,0A1.46,1.46,0,0,0,315.46,584.4Z" transform="translate(-50.52 -26.75)"/><path class="cls-4" d="M323.47,587.67a2.91,2.91,0,0,1-1.19-.24,2.64,2.64,0,0,1-.94-.68,3.09,3.09,0,0,1-.62-1,3.79,3.79,0,0,1-.22-1.33,4.15,4.15,0,0,1,.2-1.29,3.36,3.36,0,0,1,.57-1,2.51,2.51,0,0,1,.87-.68,2.46,2.46,0,0,1,1.12-.25,2.24,2.24,0,0,1,1.12.28,1.91,1.91,0,0,1,.79.78v-3.39h2.28V585a.8.8,0,0,0,.09.45.44.44,0,0,0,.34.15v1.92a5,5,0,0,1-1,.12q-1.17,0-1.35-.87l0-.23a2,2,0,0,1-.88.84A2.79,2.79,0,0,1,323.47,587.67Zm.63-1.92a1.31,1.31,0,0,0,1.08-.65V584a1.64,1.64,0,0,0-.49-.68A1.12,1.12,0,0,0,324,583a1,1,0,0,0-.46.11,1,1,0,0,0-.36.3,1.55,1.55,0,0,0-.24.44,1.61,1.61,0,0,0-.09.54,1.33,1.33,0,0,0,.34,1A1.2,1.2,0,0,0,324.1,585.75Z" transform="translate(-50.52 -26.75)"/><path class="cls-4" d="M331.92,587.67a3.78,3.78,0,0,1-1.47-.26,3,3,0,0,1-1.09-.7,2.92,2.92,0,0,1-.67-1,3.29,3.29,0,0,1-.23-1.21,3.74,3.74,0,0,1,.23-1.3,2.79,2.79,0,0,1,.66-1.06,3.08,3.08,0,0,1,1.08-.73,3.78,3.78,0,0,1,1.49-.27,3.85,3.85,0,0,1,1.49.27,3.34,3.34,0,0,1,1.09.72,3.07,3.07,0,0,1,.66,1,3.73,3.73,0,0,1,.22,1.25c0,.12,0,.24,0,.36s0,.24,0,.33h-4.43a.89.89,0,0,0,.37.73,1.3,1.3,0,0,0,.73.22,1.61,1.61,0,0,0,.71-.17.82.82,0,0,0,.43-.47l1.94.56a3.05,3.05,0,0,1-1.19,1.23A3.72,3.72,0,0,1,331.92,587.67Zm1-3.95a1.16,1.16,0,0,0-.34-.72,1.09,1.09,0,0,0-1.41,0,1.16,1.16,0,0,0-.34.72Z" transform="translate(-50.52 -26.75)"/><path class="cls-4" d="M341.25,587.55a2.51,2.51,0,0,1-2-.92,2.93,2.93,0,0,1-.55-1,3.6,3.6,0,0,1-.2-1.25,3.9,3.9,0,0,1,.21-1.3,3.25,3.25,0,0,1,.61-1,2.84,2.84,0,0,1,.93-.67,2.73,2.73,0,0,1,1.19-.25,2.59,2.59,0,0,1,1.2.27,2,2,0,0,1,.81.79v-.94h2V587a3.24,3.24,0,0,1-.27,1.34,3,3,0,0,1-.78,1,3.6,3.6,0,0,1-1.21.65,4.94,4.94,0,0,1-1.58.24,4.67,4.67,0,0,1-1.75-.31,4.08,4.08,0,0,1-1.32-.9l1.2-1.25a3.05,3.05,0,0,0,.83.54,2.47,2.47,0,0,0,1,.23,2,2,0,0,0,.6-.09,1.13,1.13,0,0,0,.49-.27,1.25,1.25,0,0,0,.35-.48,1.94,1.94,0,0,0,.12-.72v-.41a1.69,1.69,0,0,1-.78.74A2.62,2.62,0,0,1,341.25,587.55Zm.81-1.8a1.11,1.11,0,0,0,.61-.16,1.73,1.73,0,0,0,.48-.49V584a1.53,1.53,0,0,0-.49-.69,1.13,1.13,0,0,0-.7-.25,1,1,0,0,0-.45.11,1.48,1.48,0,0,0-.36.3,1.22,1.22,0,0,0-.24.45,1.61,1.61,0,0,0-.08.54,1.3,1.3,0,0,0,.34.95A1.2,1.2,0,0,0,342.06,585.75Z" transform="translate(-50.52 -26.75)"/><path class="cls-4" d="M349.69,587.67a3.78,3.78,0,0,1-1.47-.26,3,3,0,0,1-1.09-.7,3.07,3.07,0,0,1-.67-1,3.29,3.29,0,0,1-.22-1.21,3.74,3.74,0,0,1,.22-1.3,3.06,3.06,0,0,1,1.74-1.79,4.25,4.25,0,0,1,3,0,3.34,3.34,0,0,1,1.09.72,3.07,3.07,0,0,1,.66,1,3.73,3.73,0,0,1,.22,1.25c0,.12,0,.24,0,.36s0,.24,0,.33h-4.43a.89.89,0,0,0,.37.73,1.3,1.3,0,0,0,.73.22,1.58,1.58,0,0,0,.71-.17.82.82,0,0,0,.43-.47l1.94.56a3.05,3.05,0,0,1-1.19,1.23A3.72,3.72,0,0,1,349.69,587.67Zm1-3.95a1.16,1.16,0,0,0-.34-.72,1.09,1.09,0,0,0-1.41,0,1.16,1.16,0,0,0-.34.72Zm-.31-2.84L349,580.5l.6-1.71h2Z" transform="translate(-50.52 -26.75)"/><path class="cls-4" d="M360.24,587.55H358V584a.94.94,0,0,0-.21-.68.67.67,0,0,0-.49-.21,1.08,1.08,0,0,0-.61.25,1.65,1.65,0,0,0-.48.65v3.54h-2.28v-6.31h2.05v.94a2.12,2.12,0,0,1,.95-.79,3.48,3.48,0,0,1,1.43-.27,2,2,0,0,1,1,.23,1.61,1.61,0,0,1,.57.59,2.18,2.18,0,0,1,.26.74,4.76,4.76,0,0,1,.06.72Z" transform="translate(-50.52 -26.75)"/><path class="cls-4" d="M364.45,587.67a3.78,3.78,0,0,1-1.47-.26,3,3,0,0,1-1.09-.7,3.07,3.07,0,0,1-.67-1,3.29,3.29,0,0,1-.22-1.21,3.74,3.74,0,0,1,.22-1.3,3.06,3.06,0,0,1,1.74-1.79,4.25,4.25,0,0,1,3,0,3.34,3.34,0,0,1,1.09.72,3.07,3.07,0,0,1,.66,1,3.73,3.73,0,0,1,.22,1.25c0,.12,0,.24,0,.36s0,.24,0,.33h-4.43a.89.89,0,0,0,.37.73,1.3,1.3,0,0,0,.73.22,1.58,1.58,0,0,0,.71-.17.82.82,0,0,0,.43-.47l1.94.56a3.05,3.05,0,0,1-1.19,1.23A3.72,3.72,0,0,1,364.45,587.67Zm1-3.95a1.16,1.16,0,0,0-.34-.72,1.09,1.09,0,0,0-1.41,0,1.16,1.16,0,0,0-.34.72Zm-.31-2.84-1.44-.38.6-1.71h2Z" transform="translate(-50.52 -26.75)"/><path class="cls-4" d="M368.68,585.26v-2h3.75v2Z" transform="translate(-50.52 -26.75)"/><path class="cls-4" d="M328.23,601.6a7.64,7.64,0,0,1-1,.35,4.55,4.55,0,0,1-1.08.13,2.92,2.92,0,0,1-.73-.09,1.76,1.76,0,0,1-.61-.31,1.61,1.61,0,0,1-.41-.57,2.37,2.37,0,0,1-.15-.86v-2.89h-.77v-1.72h.77v-2h2.28v2h1.24v1.72h-1.24v2.08a.58.58,0,0,0,.14.44.45.45,0,0,0,.36.13,1.42,1.42,0,0,0,.38-.06,1.69,1.69,0,0,0,.43-.15Z" transform="translate(-50.52 -26.75)"/><path class="cls-4" d="M328.88,595.11v-1.92h2.28v1.92Zm0,6.84v-6.31h2.28V602Z" transform="translate(-50.52 -26.75)"/><path class="cls-4" d="M334.67,602.07a2.36,2.36,0,0,1-1.06-.24,2.73,2.73,0,0,1-.86-.69,3.51,3.51,0,0,1-.56-1,4.06,4.06,0,0,1-.2-1.32,3.64,3.64,0,0,1,.22-1.29,3.42,3.42,0,0,1,.6-1,2.91,2.91,0,0,1,.92-.67,2.7,2.7,0,0,1,1.17-.25,2.36,2.36,0,0,1,1.21.29,2.44,2.44,0,0,1,.83.8v-1h2v6.23a.67.67,0,0,0,.12.45.72.72,0,0,0,.43.15v1.92a5.8,5.8,0,0,1-.64.09l-.62,0a2,2,0,0,1-.6-.1,1.64,1.64,0,0,1-.5-.29,1.3,1.3,0,0,1-.34-.43,1.28,1.28,0,0,1-.13-.59V601a1.83,1.83,0,0,1-.78.78A2.46,2.46,0,0,1,334.67,602.07Zm.89-1.92a1.28,1.28,0,0,0,1.08-.65v-1.12a1.55,1.55,0,0,0-.49-.68,1.09,1.09,0,0,0-.68-.26,1,1,0,0,0-.47.11,1,1,0,0,0-.36.3,1.55,1.55,0,0,0-.24.44,1.61,1.61,0,0,0-.09.54,1.33,1.33,0,0,0,.35,1A1.18,1.18,0,0,0,335.56,600.15Z" transform="translate(-50.52 -26.75)"/><path class="cls-4" d="M342,602.07a1.81,1.81,0,0,1-1.46-.58,2.5,2.5,0,0,1-.51-1.7v-4.15h2.28v3.64a1,1,0,0,0,.19.64.59.59,0,0,0,.51.23,1.32,1.32,0,0,0,.54-.12,1.35,1.35,0,0,0,.55-.53v-3.86h2.28v3.79a.71.71,0,0,0,.1.45.4.4,0,0,0,.33.15V602a5,5,0,0,1-1,.12c-.77,0-1.22-.29-1.34-.87l-.05-.23a2.55,2.55,0,0,1-1.05.84A3.48,3.48,0,0,1,342,602.07Z" transform="translate(-50.52 -26.75)"/><path class="cls-4" d="M350.84,602.07a3.83,3.83,0,0,1-1.48-.26,3,3,0,0,1-1.08-.7,2.79,2.79,0,0,1-.67-1,3.29,3.29,0,0,1-.23-1.21,4,4,0,0,1,.22-1.3,3.06,3.06,0,0,1,.66-1.06,3.27,3.27,0,0,1,1.08-.73,4.27,4.27,0,0,1,3,0,3.19,3.19,0,0,1,1.08.72,3.07,3.07,0,0,1,.66,1,3.5,3.5,0,0,1,.22,1.25c0,.12,0,.24,0,.36s0,.24,0,.33h-4.42a.87.87,0,0,0,.37.73,1.28,1.28,0,0,0,.73.22,1.54,1.54,0,0,0,.7-.17.84.84,0,0,0,.44-.47l1.93.56a3,3,0,0,1-1.18,1.23A3.75,3.75,0,0,1,350.84,602.07Zm1-4a1.22,1.22,0,0,0-.34-.72,1,1,0,0,0-.71-.26,1,1,0,0,0-.71.26,1.21,1.21,0,0,0-.33.72Z" transform="translate(-50.52 -26.75)"/><text class="cls-5" transform="translate(258.21 617.03)"><tspan class="cls-6">D</tspan><tspan x="8.53" y="0">ifficu</tspan><tspan class="cls-7" x="37.48" y="0">l</tspan><tspan class="cls-8" x="41.57" y="0">t</tspan><tspan x="46.57" y="0">é : </tspan></text><use width="54" height="54" transform="matrix(-1, 0, 0, 1, 476.66, 465.44)" xlink:href="#_283"/><use width="54" height="54" transform="matrix(-1, 0, 0, 1, 230.05, 590.03)" xlink:href="#_285"/><use width="54" height="54" transform="matrix(-1, 0, 0, 1, 477.53, 590.03)" xlink:href="#_295"/><rect class="cls-3" x="0.5" y="658.56" width="246.61" height="123.31"/><rect class="cls-3" x="0.56" y="658.56" width="82.2" height="123.31"/><text class="cls-5" transform="translate(2.1 685.52)"><tspan class="cls-14">T</tspan><tspan x="7.34" y="0">ri mu</tspan><tspan class="cls-7" x="37.4" y="0">l</tspan><tspan x="41.49" y="0">tiple 2</tspan></text><text class="cls-5" transform="translate(11.59 741.75)"><tspan class="cls-6">D</tspan><tspan x="8.53" y="0">ifficu</tspan><tspan class="cls-7" x="37.48" y="0">l</tspan><tspan class="cls-8" x="41.57" y="0">t</tspan><tspan x="46.57" y="0">é : </tspan></text><rect class="cls-3" x="247.11" y="658.56" width="246.61" height="123.31"/><rect class="cls-3" x="247.18" y="658.56" width="82.2" height="123.31"/><text class="cls-16" transform="translate(258.26 685.52)">L<tspan class="cls-17" x="5.62" y="0">’</tspan><tspan class="cls-18" x="8.74" y="0">échange</tspan></text><text class="cls-5" transform="translate(258.21 741.75)"><tspan class="cls-6">D</tspan><tspan x="8.53" y="0">ifficu</tspan><tspan class="cls-7" x="37.48" y="0">l</tspan><tspan class="cls-8" x="41.57" y="0">t</tspan><tspan x="46.57" y="0">é : </tspan></text><use width="54" height="54" transform="matrix(-1, 0, 0, 1, 232.09, 714.89)" xlink:href="#_299"/><use width="54" height="54" transform="matrix(-1, 0, 0, 1, 475.7, 714.75)" xlink:href="#_301"/><path class="cls-2" d="M92.19,660l3.5,2.22-.93-4.19,3.1-2.83-4.08-.36-1.59-4-1.59,4-4.08.36,3.1,2.83-.93,4.19Z" transform="translate(-50.52 -26.75)"/><path class="cls-2" d="M92.23,784.74l3.5,2.22-.93-4.19,3.1-2.83-4.08-.36-1.59-4-1.59,4-4.08.36,3.1,2.83L88.73,787Z" transform="translate(-50.52 -26.75)"/><path class="cls-2" d="M338.84,535.3l3.51,2.22-.93-4.19,3.09-2.83-4.07-.36-1.6-4-1.59,4-4.07.36,3.09,2.83-.93,4.19Z" transform="translate(-50.52 -26.75)"/><path class="cls-2" d="M338.71,660l3.5,2.22-.93-4.19,3.1-2.83-4.08-.36-1.59-4-1.59,4-4.08.36,3.1,2.83-.93,4.19Z" transform="translate(-50.52 -26.75)"/><path class="cls-2" d="M338.8,784.74l3.51,2.22-.93-4.19,3.09-2.83-4.07-.36-1.6-4-1.59,4-4.08.36,3.1,2.83L335.3,787Z" transform="translate(-50.52 -26.75)"/><use width="54" height="54" transform="matrix(-1, 0, 0, 1, 156.45, 465.57)" xlink:href="#_211"/><use width="54" height="54" transform="matrix(-1, 0, 0, 1, 403.06, 465.57)" xlink:href="#_211"/><use width="54" height="54" transform="matrix(-1, 0, 0, 1, 157.26, 590.43)" xlink:href="#_211"/><use width="54" height="54" transform="matrix(-1, 0, 0, 1, 403.87, 590.43)" xlink:href="#_211"/><use width="54" height="54" transform="matrix(-1, 0, 0, 1, 159.66, 715.28)" xlink:href="#_211"/><use width="54" height="54" transform="matrix(-1, 0, 0, 1, 406.1, 715.28)" xlink:href="#_211"/><path class="cls-2" d="M99.19,126.68l3.5,2.22-.93-4.19,3.1-2.82-4.08-.37-1.59-4-1.59,4-4.08.37,3.1,2.82-.93,4.19Z" transform="translate(-50.52 -26.75)"/><path class="cls-2" d="M345.8,126.68l3.51,2.22-.93-4.19,3.09-2.82-4.07-.37-1.6-4-1.59,4-4.08.37,3.1,2.82-.93,4.19Z" transform="translate(-50.52 -26.75)"/><path class="cls-2" d="M99.19,251.4l3.5,2.23-.93-4.2,3.1-2.82-4.08-.37-1.59-4-1.59,4-4.08.37,3.1,2.82-.93,4.2Z" transform="translate(-50.52 -26.75)"/><path class="cls-2" d="M345.8,251.4l3.51,2.23-.93-4.2,3.09-2.82-4.07-.37-1.6-4-1.59,4-4.08.37,3.1,2.82-.93,4.2Z" transform="translate(-50.52 -26.75)"/><path class="cls-2" d="M99.19,376.12l3.5,2.23-.93-4.2,3.1-2.82-4.08-.37L99.19,367,97.6,371l-4.08.37,3.1,2.82-.93,4.2Z" transform="translate(-50.52 -26.75)"/><path class="cls-2" d="M345.8,376.12l3.51,2.23-.93-4.2,3.09-2.82L347.4,371,345.8,367,344.21,371l-4.08.37,3.1,2.82-.93,4.2Z" transform="translate(-50.52 -26.75)"/><path class="cls-2" d="M108.19,535.3l3.5,2.22-.93-4.19,3.1-2.83-4.08-.36-1.59-4-1.59,4-4.08.36,3.1,2.83-.93,4.19Z" transform="translate(-50.52 -26.75)"/><path class="cls-2" d="M108.19,660l3.5,2.22-.93-4.19,3.1-2.83-4.08-.36-1.59-4-1.59,4-4.08.36,3.1,2.83-.93,4.19Z" transform="translate(-50.52 -26.75)"/><path class="cls-2" d="M108.23,784.74l3.5,2.22-.93-4.19,3.1-2.83-4.08-.36-1.59-4-1.59,4-4.08.36,3.1,2.83-.93,4.19Z" transform="translate(-50.52 -26.75)"/><path class="cls-2" d="M354.84,535.3l3.51,2.22-.93-4.19,3.09-2.83-4.07-.36-1.6-4-1.59,4-4.07.36,3.09,2.83-.93,4.19Z" transform="translate(-50.52 -26.75)"/><path class="cls-2" d="M354.71,660l3.5,2.22-.93-4.19,3.1-2.83-4.08-.36-1.59-4-1.59,4-4.08.36,3.1,2.83-.93,4.19Z" transform="translate(-50.52 -26.75)"/><path class="cls-2" d="M354.8,784.74l3.51,2.22-.93-4.19,3.09-2.83-4.07-.36-1.6-4-1.59,4-4.08.36,3.1,2.83L351.3,787Z" transform="translate(-50.52 -26.75)"/><path class="cls-2" d="M76.19,535.3l3.5,2.22-.93-4.19,3.1-2.83-4.08-.36-1.59-4-1.59,4-4.08.36,3.1,2.83-.93,4.19Z" transform="translate(-50.52 -26.75)"/><path class="cls-2" d="M76.19,660l3.5,2.22-.93-4.19,3.1-2.83-4.08-.36-1.59-4-1.59,4-4.08.36,3.1,2.83-.93,4.19Z" transform="translate(-50.52 -26.75)"/><path class="cls-2" d="M76.23,784.74l3.5,2.22-.93-4.19,3.1-2.83-4.08-.36-1.59-4-1.59,4-4.08.36,3.1,2.83L72.73,787Z" transform="translate(-50.52 -26.75)"/><path class="cls-2" d="M322.84,535.3l3.51,2.22-.93-4.19,3.09-2.83-4.07-.36-1.6-4-1.59,4-4.07.36,3.09,2.83-.93,4.19Z" transform="translate(-50.52 -26.75)"/><path class="cls-2" d="M322.71,660l3.5,2.22-.93-4.19,3.1-2.83-4.08-.36-1.59-4-1.59,4-4.08.36,3.1,2.83-.93,4.19Z" transform="translate(-50.52 -26.75)"/><path class="cls-2" d="M322.8,784.74l3.51,2.22-.93-4.19,3.09-2.83-4.07-.36-1.6-4-1.59,4-4.08.36,3.1,2.83L319.3,787Z" transform="translate(-50.52 -26.75)"/><path class="cls-2" d="M83.19,140.68l3.5,2.22-.93-4.19,3.1-2.82-4.08-.37-1.59-4-1.59,4-4.08.37,3.1,2.82-.93,4.19Z" transform="translate(-50.52 -26.75)"/><path class="cls-2" d="M329.8,140.68l3.51,2.22-.93-4.19,3.09-2.82-4.07-.37-1.6-4-1.59,4-4.08.37,3.1,2.82-.93,4.19Z" transform="translate(-50.52 -26.75)"/><path class="cls-2" d="M83.19,265.4l3.5,2.23-.93-4.2,3.1-2.82-4.08-.37-1.59-3.95-1.59,3.95-4.08.37,3.1,2.82-.93,4.2Z" transform="translate(-50.52 -26.75)"/><path class="cls-2" d="M329.8,265.4l3.51,2.23-.93-4.2,3.09-2.82-4.07-.37-1.6-3.95-1.59,3.95-4.08.37,3.1,2.82-.93,4.2Z" transform="translate(-50.52 -26.75)"/><path class="cls-2" d="M83.19,390.12l3.5,2.23-.93-4.2,3.1-2.82L84.78,385,83.19,381,81.6,385l-4.08.37,3.1,2.82-.93,4.2Z" transform="translate(-50.52 -26.75)"/><path class="cls-2" d="M329.8,390.12l3.51,2.23-.93-4.2,3.09-2.82L331.4,385,329.8,381,328.21,385l-4.08.37,3.1,2.82-.93,4.2Z" transform="translate(-50.52 -26.75)"/><path class="cls-2" d="M99.19,140.68l3.5,2.22-.93-4.19,3.1-2.82-4.08-.37-1.59-4-1.59,4-4.08.37,3.1,2.82-.93,4.19Z" transform="translate(-50.52 -26.75)"/><path class="cls-2" d="M345.8,140.68l3.51,2.22-.93-4.19,3.09-2.82-4.07-.37-1.6-4-1.59,4-4.08.37,3.1,2.82-.93,4.19Z" transform="translate(-50.52 -26.75)"/><path class="cls-2" d="M99.19,265.4l3.5,2.23-.93-4.2,3.1-2.82-4.08-.37-1.59-3.95-1.59,3.95-4.08.37,3.1,2.82-.93,4.2Z" transform="translate(-50.52 -26.75)"/><path class="cls-2" d="M345.8,265.4l3.51,2.23-.93-4.2,3.09-2.82-4.07-.37-1.6-3.95-1.59,3.95-4.08.37,3.1,2.82-.93,4.2Z" transform="translate(-50.52 -26.75)"/><path class="cls-2" d="M99.19,390.12l3.5,2.23-.93-4.2,3.1-2.82-4.08-.37L99.19,381,97.6,385l-4.08.37,3.1,2.82-.93,4.2Z" transform="translate(-50.52 -26.75)"/><path class="cls-2" d="M345.8,390.12l3.51,2.23-.93-4.2,3.09-2.82L347.4,385,345.8,381,344.21,385l-4.08.37,3.1,2.82-.93,4.2Z" transform="translate(-50.52 -26.75)"/><path class="cls-2" d="M83.19,550.3l3.5,2.22-.93-4.19,3.1-2.83-4.08-.36-1.59-4-1.59,4-4.08.36,3.1,2.83-.93,4.19Z" transform="translate(-50.52 -26.75)"/><path class="cls-2" d="M329.8,550.3l3.51,2.22-.93-4.19,3.09-2.83-4.07-.36-1.6-4-1.59,4-4.08.36,3.1,2.83-.93,4.19Z" transform="translate(-50.52 -26.75)"/><path class="cls-2" d="M83.19,675l3.5,2.22-.93-4.19,3.1-2.83-4.08-.36-1.59-4-1.59,4-4.08.36,3.1,2.83-.93,4.19Z" transform="translate(-50.52 -26.75)"/><path class="cls-2" d="M329.8,675l3.51,2.22-.93-4.19,3.09-2.83-4.07-.36-1.6-4-1.59,4-4.08.36,3.1,2.83-.93,4.19Z" transform="translate(-50.52 -26.75)"/><path class="cls-2" d="M83.19,799.74l3.5,2.22-.93-4.19,3.1-2.83-4.08-.36-1.59-4-1.59,4-4.08.36,3.1,2.83L79.69,802Z" transform="translate(-50.52 -26.75)"/><path class="cls-2" d="M329.8,799.74l3.51,2.22-.93-4.19,3.09-2.83-4.07-.36-1.6-4-1.59,4-4.08.36,3.1,2.83L326.3,802Z" transform="translate(-50.52 -26.75)"/><path class="cls-2" d="M99.19,550.3l3.5,2.22-.93-4.19,3.1-2.83-4.08-.36-1.59-4-1.59,4-4.08.36,3.1,2.83-.93,4.19Z" transform="translate(-50.52 -26.75)"/><path class="cls-2" d="M345.8,550.3l3.51,2.22-.93-4.19,3.09-2.83-4.07-.36-1.6-4-1.59,4-4.08.36,3.1,2.83-.93,4.19Z" transform="translate(-50.52 -26.75)"/><path class="cls-2" d="M99.19,675l3.5,2.22-.93-4.19,3.1-2.83-4.08-.36-1.59-4-1.59,4-4.08.36,3.1,2.83-.93,4.19Z" transform="translate(-50.52 -26.75)"/><path class="cls-2" d="M345.8,675l3.51,2.22-.93-4.19,3.09-2.83-4.07-.36-1.6-4-1.59,4-4.08.36,3.1,2.83-.93,4.19Z" transform="translate(-50.52 -26.75)"/><path class="cls-2" d="M99.19,799.74l3.5,2.22-.93-4.19,3.1-2.83-4.08-.36-1.59-4-1.59,4-4.08.36,3.1,2.83L95.69,802Z" transform="translate(-50.52 -26.75)"/><path class="cls-2" d="M345.8,799.74l3.51,2.22-.93-4.19,3.09-2.83-4.07-.36-1.6-4-1.59,4-4.08.36,3.1,2.83L342.3,802Z" transform="translate(-50.52 -26.75)"/></svg>