<svg id="Calque_1" data-name="Calque 1" xmlns="http://www.w3.org/2000/svg" xmlns:xlink="http://www.w3.org/1999/xlink" viewBox="0 0 494.23 782.36"><defs><style>.cls-1{fill:#fff;}.cls-2{fill:#010101;}.cls-3{fill:none;stroke:#1d1d1b;stroke-miterlimit:10;}.cls-4{font-size:12px;fill:#1d1d1b;font-family:Raleway-Black, Raleway;font-weight:800;}.cls-5{letter-spacing:-0.01em;}.cls-6{letter-spacing:-0.01em;}.cls-7{letter-spacing:-0.01em;}.cls-8{letter-spacing:-0.01em;}.cls-9{letter-spacing:-0.01em;}.cls-10{letter-spacing:0em;}.cls-11{letter-spacing:-0.02em;}.cls-12{letter-spacing:-0.01em;}.cls-13{letter-spacing:-0.02em;}.cls-14{letter-spacing:-0.01em;}.cls-15{letter-spacing:-0.02em;}.cls-16{letter-spacing:-0.02em;}.cls-17{letter-spacing:-0.03em;}.cls-18{letter-spacing:-0.02em;}</style><symbol id="_205" data-name="205" viewBox="0 0 54 54"><circle id="circle985" class="cls-1" cx="27" cy="27" r="27"/><path id="path987" class="cls-1" d="M14.45,50.91A27,27,0,0,0,27,54V27Z"/><path id="path989" class="cls-2" d="M4.78,42.34a26.93,26.93,0,0,0,9.67,8.57L27,27Z"/><path id="path991" class="cls-1" d="M.2,30.25A27,27,0,0,0,4.78,42.34L27,27Z"/><path id="path993" class="cls-1" d="M1.75,17.43A26.93,26.93,0,0,0,.2,30.25L27,27Z"/><path id="path995" class="cls-2" d="M9.1,6.79A26.94,26.94,0,0,0,1.75,17.43L27,27Z"/><path id="path997" class="cls-2" d="M20.54.78a27,27,0,0,0-11.44,6L27,27Z"/><path id="path999" class="cls-1" d="M33.46.78a27.14,27.14,0,0,0-12.92,0L27,27Z"/><path id="path1001" class="cls-1" d="M44.9,6.79a27,27,0,0,0-11.44-6L27,27Z"/><path id="path1003" class="cls-2" d="M52.25,17.43A26.94,26.94,0,0,0,44.9,6.79L27,27Z"/><path id="path1005" class="cls-2" d="M53.8,30.25a26.93,26.93,0,0,0-1.55-12.82L27,27Z"/><path id="path1007" class="cls-2" d="M49.22,42.34A27,27,0,0,0,53.8,30.25L27,27Z"/><path id="path1009" class="cls-2" d="M39.55,50.91a26.93,26.93,0,0,0,9.67-8.57L27,27Z"/><path id="path1011" class="cls-2" d="M27,54a27,27,0,0,0,12.55-3.09L27,27Z"/><circle id="circle1013" class="cls-1" cx="27" cy="27" r="20.25"/><circle id="circle1015" class="cls-2" cx="27" cy="27" r="13.5"/><circle id="circle1017" class="cls-1" cx="27" cy="27" r="6.75"/></symbol><symbol id="_279" data-name="279" viewBox="0 0 54 54"><circle id="circle1309" class="cls-1" cx="27" cy="27" r="27"/><path id="path1311" class="cls-1" d="M14.45,50.91A27,27,0,0,0,27,54V27Z"/><path id="path1313" class="cls-1" d="M4.78,42.34a26.93,26.93,0,0,0,9.67,8.57L27,27Z"/><path id="path1315" class="cls-1" d="M.2,30.25A27,27,0,0,0,4.78,42.34L27,27Z"/><path id="path1317" class="cls-2" d="M1.75,17.43A26.93,26.93,0,0,0,.2,30.25L27,27Z"/><path id="path1319" class="cls-1" d="M9.1,6.79A26.94,26.94,0,0,0,1.75,17.43L27,27Z"/><path id="path1321" class="cls-2" d="M20.54.78a27,27,0,0,0-11.44,6L27,27Z"/><path id="path1323" class="cls-2" d="M33.46.78a27.14,27.14,0,0,0-12.92,0L27,27Z"/><path id="path1325" class="cls-2" d="M44.9,6.79a27,27,0,0,0-11.44-6L27,27Z"/><path id="path1327" class="cls-1" d="M52.25,17.43A26.94,26.94,0,0,0,44.9,6.79L27,27Z"/><path id="path1329" class="cls-2" d="M53.8,30.25a26.93,26.93,0,0,0-1.55-12.82L27,27Z"/><path id="path1331" class="cls-2" d="M49.22,42.34A27,27,0,0,0,53.8,30.25L27,27Z"/><path id="path1333" class="cls-2" d="M39.55,50.91a26.93,26.93,0,0,0,9.67-8.57L27,27Z"/><path id="path1335" class="cls-2" d="M27,54a27,27,0,0,0,12.55-3.09L27,27Z"/><circle id="circle1337" class="cls-1" cx="27" cy="27" r="20.25"/><circle id="circle1339" class="cls-2" cx="27" cy="27" r="13.5"/><circle id="circle1341" class="cls-1" cx="27" cy="27" r="6.75"/></symbol><symbol id="_283" data-name="283" viewBox="0 0 54 54"><circle id="circle1345" class="cls-1" cx="27" cy="27" r="27"/><path id="path1347" class="cls-1" d="M14.45,50.91A27,27,0,0,0,27,54V27Z"/><path id="path1349" class="cls-1" d="M4.78,42.34a26.93,26.93,0,0,0,9.67,8.57L27,27Z"/><path id="path1351" class="cls-2" d="M.2,30.25A27,27,0,0,0,4.78,42.34L27,27Z"/><path id="path1353" class="cls-1" d="M1.75,17.43A26.93,26.93,0,0,0,.2,30.25L27,27Z"/><path id="path1355" class="cls-1" d="M9.1,6.79A26.94,26.94,0,0,0,1.75,17.43L27,27Z"/><path id="path1357" class="cls-2" d="M20.54.78a27,27,0,0,0-11.44,6L27,27Z"/><path id="path1359" class="cls-2" d="M33.46.78a27.14,27.14,0,0,0-12.92,0L27,27Z"/><path id="path1361" class="cls-2" d="M44.9,6.79a27,27,0,0,0-11.44-6L27,27Z"/><path id="path1363" class="cls-1" d="M52.25,17.43A26.94,26.94,0,0,0,44.9,6.79L27,27Z"/><path id="path1365" class="cls-2" d="M53.8,30.25a26.93,26.93,0,0,0-1.55-12.82L27,27Z"/><path id="path1367" class="cls-2" d="M49.22,42.34A27,27,0,0,0,53.8,30.25L27,27Z"/><path id="path1369" class="cls-2" d="M39.55,50.91a26.93,26.93,0,0,0,9.67-8.57L27,27Z"/><path id="path1371" class="cls-2" d="M27,54a27,27,0,0,0,12.55-3.09L27,27Z"/><circle id="circle1373" class="cls-1" cx="27" cy="27" r="20.25"/><circle id="circle1375" class="cls-2" cx="27" cy="27" r="13.5"/><circle id="circle1377" class="cls-1" cx="27" cy="27" r="6.75"/></symbol><symbol id="_285" data-name="285" viewBox="0 0 54 54"><circle id="circle1381" class="cls-1" cx="27" cy="27" r="27"/><path id="path1383" class="cls-1" d="M14.45,50.91A27,27,0,0,0,27,54V27Z"/><path id="path1385" class="cls-2" d="M4.78,42.34a26.93,26.93,0,0,0,9.67,8.57L27,27Z"/><path id="path1387" class="cls-1" d="M.2,30.25A27,27,0,0,0,4.78,42.34L27,27Z"/><path id="path1389" class="cls-1" d="M1.75,17.43A26.93,26.93,0,0,0,.2,30.25L27,27Z"/><path id="path1391" class="cls-1" d="M9.1,6.79A26.94,26.94,0,0,0,1.75,17.43L27,27Z"/><path id="path1393" class="cls-2" d="M20.54.78a27,27,0,0,0-11.44,6L27,27Z"/><path id="path1395" class="cls-2" d="M33.46.78a27.14,27.14,0,0,0-12.92,0L27,27Z"/><path id="path1397" class="cls-2" d="M44.9,6.79a27,27,0,0,0-11.44-6L27,27Z"/><path id="path1399" class="cls-1" d="M52.25,17.43A26.94,26.94,0,0,0,44.9,6.79L27,27Z"/><path id="path1401" class="cls-2" d="M53.8,30.25a26.93,26.93,0,0,0-1.55-12.82L27,27Z"/><path id="path1403" class="cls-2" d="M49.22,42.34A27,27,0,0,0,53.8,30.25L27,27Z"/><path id="path1405" class="cls-2" d="M39.55,50.91a26.93,26.93,0,0,0,9.67-8.57L27,27Z"/><path id="path1407" class="cls-2" d="M27,54a27,27,0,0,0,12.55-3.09L27,27Z"/><circle id="circle1409" class="cls-1" cx="27" cy="27" r="20.25"/><circle id="circle1411" class="cls-2" cx="27" cy="27" r="13.5"/><circle id="circle1413" class="cls-1" cx="27" cy="27" r="6.75"/></symbol><symbol id="_295" data-name="295" viewBox="0 0 54 54"><circle id="circle1417" class="cls-1" cx="27" cy="27" r="27"/><path id="path1419" class="cls-1" d="M14.45,50.91A27,27,0,0,0,27,54V27Z"/><path id="path1421" class="cls-1" d="M4.78,42.34a26.93,26.93,0,0,0,9.67,8.57L27,27Z"/><path id="path1423" class="cls-1" d="M.2,30.25A27,27,0,0,0,4.78,42.34L27,27Z"/><path id="path1425" class="cls-2" d="M1.75,17.43A26.93,26.93,0,0,0,.2,30.25L27,27Z"/><path id="path1427" class="cls-2" d="M9.1,6.79A26.94,26.94,0,0,0,1.75,17.43L27,27Z"/><path id="path1429" class="cls-1" d="M20.54.78a27,27,0,0,0-11.44,6L27,27Z"/><path id="path1431" class="cls-2" d="M33.46.78a27.14,27.14,0,0,0-12.92,0L27,27Z"/><path id="path1433" class="cls-2" d="M44.9,6.79a27,27,0,0,0-11.44-6L27,27Z"/><path id="path1435" class="cls-1" d="M52.25,17.43A26.94,26.94,0,0,0,44.9,6.79L27,27Z"/><path id="path1437" class="cls-2" d="M53.8,30.25a26.93,26.93,0,0,0-1.55-12.82L27,27Z"/><path id="path1439" class="cls-2" d="M49.22,42.34A27,27,0,0,0,53.8,30.25L27,27Z"/><path id="path1441" class="cls-2" d="M39.55,50.91a26.93,26.93,0,0,0,9.67-8.57L27,27Z"/><path id="path1443" class="cls-2" d="M27,54a27,27,0,0,0,12.55-3.09L27,27Z"/><circle id="circle1445" class="cls-1" cx="27" cy="27" r="20.25"/><circle id="circle1447" class="cls-2" cx="27" cy="27" r="13.5"/><circle id="circle1449" class="cls-1" cx="27" cy="27" r="6.75"/></symbol><symbol id="_299" data-name="299" viewBox="0 0 54 54"><circle id="circle1453" class="cls-1" cx="27" cy="27" r="27"/><path id="path1455" class="cls-1" d="M14.45,50.91A27,27,0,0,0,27,54V27Z"/><path id="path1457" class="cls-1" d="M4.78,42.34a26.93,26.93,0,0,0,9.67,8.57L27,27Z"/><path id="path1459" class="cls-2" d="M.2,30.25A27,27,0,0,0,4.78,42.34L27,27Z"/><path id="path1461" class="cls-1" d="M1.75,17.43A26.93,26.93,0,0,0,.2,30.25L27,27Z"/><path id="path1463" class="cls-2" d="M9.1,6.79A26.94,26.94,0,0,0,1.75,17.43L27,27Z"/><path id="path1465" class="cls-1" d="M20.54.78a27,27,0,0,0-11.44,6L27,27Z"/><path id="path1467" class="cls-2" d="M33.46.78a27.14,27.14,0,0,0-12.92,0L27,27Z"/><path id="path1469" class="cls-2" d="M44.9,6.79a27,27,0,0,0-11.44-6L27,27Z"/><path id="path1471" class="cls-1" d="M52.25,17.43A26.94,26.94,0,0,0,44.9,6.79L27,27Z"/><path id="path1473" class="cls-2" d="M53.8,30.25a26.93,26.93,0,0,0-1.55-12.82L27,27Z"/><path id="path1475" class="cls-2" d="M49.22,42.34A27,27,0,0,0,53.8,30.25L27,27Z"/><path id="path1477" class="cls-2" d="M39.55,50.91a26.93,26.93,0,0,0,9.67-8.57L27,27Z"/><path id="path1479" class="cls-2" d="M27,54a27,27,0,0,0,12.55-3.09L27,27Z"/><circle id="circle1481" class="cls-1" cx="27" cy="27" r="20.25"/><circle id="circle1483" class="cls-2" cx="27" cy="27" r="13.5"/><circle id="circle1485" class="cls-1" cx="27" cy="27" r="6.75"/></symbol><symbol id="_301" data-name="301" viewBox="0 0 54 54"><circle id="circle1489" class="cls-1" cx="27" cy="27" r="27"/><path id="path1491" class="cls-1" d="M14.45,50.91A27,27,0,0,0,27,54V27Z"/><path id="path1493" class="cls-2" d="M4.78,42.34a26.93,26.93,0,0,0,9.67,8.57L27,27Z"/><path id="path1495" class="cls-1" d="M.2,30.25A27,27,0,0,0,4.78,42.34L27,27Z"/><path id="path1497" class="cls-1" d="M1.75,17.43A26.93,26.93,0,0,0,.2,30.25L27,27Z"/><path id="path1499" class="cls-2" d="M9.1,6.79A26.94,26.94,0,0,0,1.75,17.43L27,27Z"/><path id="path1501" class="cls-1" d="M20.54.78a27,27,0,0,0-11.44,6L27,27Z"/><path id="path1503" class="cls-2" d="M33.46.78a27.14,27.14,0,0,0-12.92,0L27,27Z"/><path id="path1505" class="cls-2" d="M44.9,6.79a27,27,0,0,0-11.44-6L27,27Z"/><path id="path1507" class="cls-1" d="M52.25,17.43A26.94,26.94,0,0,0,44.9,6.79L27,27Z"/><path id="path1509" class="cls-2" d="M53.8,30.25a26.93,26.93,0,0,0-1.55-12.82L27,27Z"/><path id="path1511" class="cls-2" d="M49.22,42.34A27,27,0,0,0,53.8,30.25L27,27Z"/><path id="path1513" class="cls-2" d="M39.55,50.91a26.93,26.93,0,0,0,9.67-8.57L27,27Z"/><path id="path1515" class="cls-2" d="M27,54a27,27,0,0,0,12.55-3.09L27,27Z"/><circle id="circle1517" class="cls-1" cx="27" cy="27" r="20.25"/><circle id="circle1519" class="cls-2" cx="27" cy="27" r="13.5"/><circle id="circle1521" class="cls-1" cx="27" cy="27" r="6.75"/></symbol><symbol id="_211" data-name="211" viewBox="0 0 54 54"><circle id="circle1021" class="cls-1" cx="27" cy="27" r="27"/><path id="path1023" class="cls-1" d="M14.45,50.91A27,27,0,0,0,27,54V27Z"/><path id="path1025" class="cls-1" d="M4.78,42.34a26.93,26.93,0,0,0,9.67,8.57L27,27Z"/><path id="path1027" class="cls-2" d="M.2,30.25A27,27,0,0,0,4.78,42.34L27,27Z"/><path id="path1029" class="cls-2" d="M1.75,17.43A26.93,26.93,0,0,0,.2,30.25L27,27Z"/><path id="path1031" class="cls-1" d="M9.1,6.79A26.94,26.94,0,0,0,1.75,17.43L27,27Z"/><path id="path1033" class="cls-2" d="M20.54.78a27,27,0,0,0-11.44,6L27,27Z"/><path id="path1035" class="cls-1" d="M33.46.78a27.14,27.14,0,0,0-12.92,0L27,27Z"/><path id="path1037" class="cls-1" d="M44.9,6.79a27,27,0,0,0-11.44-6L27,27Z"/><path id="path1039" class="cls-2" d="M52.25,17.43A26.94,26.94,0,0,0,44.9,6.79L27,27Z"/><path id="path1041" class="cls-2" d="M53.8,30.25a26.93,26.93,0,0,0-1.55-12.82L27,27Z"/><path id="path1043" class="cls-2" d="M49.22,42.34A27,27,0,0,0,53.8,30.25L27,27Z"/><path id="path1045" class="cls-2" d="M39.55,50.91a26.93,26.93,0,0,0,9.67-8.57L27,27Z"/><path id="path1047" class="cls-2" d="M27,54a27,27,0,0,0,12.55-3.09L27,27Z"/><circle id="circle1049" class="cls-1" cx="27" cy="27" r="20.25"/><circle id="circle1051" class="cls-2" cx="27" cy="27" r="13.5"/><circle id="circle1053" class="cls-1" cx="27" cy="27" r="6.75"/></symbol></defs><rect class="cls-3" x="0.5" y="0.5" width="246.61" height="123.31"/><rect class="cls-3" x="0.56" y="0.5" width="82.2" height="123.31"/><text class="cls-4" transform="translate(12.31 27.47)">Cargo 101</text><text class="cls-4" transform="translate(11.59 83.7)"><tspan class="cls-5">D</tspan><tspan x="8.53" y="0">ifficu</tspan><tspan class="cls-6" x="37.48" y="0">l</tspan><tspan class="cls-7" x="41.57" y="0">t</tspan><tspan x="46.57" y="0">é : </tspan></text><path class="cls-2" d="M92.19,126.68l3.5,2.22-.93-4.19,3.1-2.82-4.08-.37-1.59-4-1.59,4-4.08.37,3.1,2.82-.93,4.19Z" transform="translate(-50.52 -26.75)"/><use width="54" height="54" transform="matrix(-1, 0, 0, 1, 157.26, 53.54)" xlink:href="#_205"/><use width="54" height="54" transform="matrix(-1, 0, 0, 1, 230.05, 58.09)" xlink:href="#_279"/><rect class="cls-3" x="247.11" y="0.5" width="246.61" height="123.31"/><rect class="cls-3" x="247.18" y="0.5" width="82.2" height="123.31"/><text class="cls-4" transform="translate(249.44 27.47)"><tspan class="cls-8">T</tspan><tspan class="cls-7" x="7.34" y="0">r</tspan><tspan x="12.26" y="0">anspor</tspan><tspan class="cls-9" x="53.04" y="0">t</tspan><tspan class="cls-10" x="58.04" y="0">eu</tspan><tspan class="cls-11" x="73.01" y="0">r</tspan></text><text class="cls-4" transform="translate(258.21 83.7)"><tspan class="cls-5">D</tspan><tspan x="8.53" y="0">ifficu</tspan><tspan class="cls-6" x="37.48" y="0">l</tspan><tspan class="cls-7" x="41.57" y="0">t</tspan><tspan x="46.57" y="0">é : </tspan></text><path class="cls-2" d="M338.8,126.68l3.51,2.22-.93-4.19,3.09-2.82-4.07-.37-1.6-4-1.59,4-4.08.37,3.1,2.82-.93,4.19Z" transform="translate(-50.52 -26.75)"/><use width="54" height="54" transform="matrix(-1, 0, 0, 1, 405.8, 56.7)" xlink:href="#_205"/><rect class="cls-3" x="0.5" y="125.22" width="246.61" height="123.31"/><rect class="cls-3" x="0.56" y="125.22" width="82.2" height="123.31"/><text class="cls-4" transform="translate(18.73 152.19)">Empile<tspan class="cls-11" x="41.21" y="0">r</tspan></text><text class="cls-4" transform="translate(11.59 208.42)"><tspan class="cls-5">D</tspan><tspan x="8.53" y="0">ifficu</tspan><tspan class="cls-6" x="37.48" y="0">l</tspan><tspan class="cls-7" x="41.57" y="0">t</tspan><tspan x="46.57" y="0">é : </tspan></text><path class="cls-2" d="M92.19,251.4l3.5,2.23-.93-4.2,3.1-2.82-4.08-.37-1.59-4-1.59,4-4.08.37,3.1,2.82-.93,4.2Z" transform="translate(-50.52 -26.75)"/><use width="54" height="54" transform="matrix(-1, 0, 0, 1, 157.26, 178.26)" xlink:href="#_205"/><rect class="cls-3" x="247.11" y="125.22" width="246.61" height="123.31"/><rect class="cls-3" x="247.18" y="125.22" width="82.2" height="123.31"/><text class="cls-4" transform="translate(260.37 152.19)"><tspan class="cls-12">É</tspan><tspan x="7.06" y="0">change</tspan><tspan class="cls-11" x="51.14" y="0">r</tspan></text><text class="cls-4" transform="translate(258.21 208.42)"><tspan class="cls-5">D</tspan><tspan x="8.53" y="0">ifficu</tspan><tspan class="cls-6" x="37.48" y="0">l</tspan><tspan class="cls-7" x="41.57" y="0">t</tspan><tspan x="46.57" y="0">é : </tspan></text><path class="cls-2" d="M338.8,251.4l3.51,2.23-.93-4.2,3.09-2.82-4.07-.37-1.6-4-1.59,4-4.08.37,3.1,2.82-.93,4.2Z" transform="translate(-50.52 -26.75)"/><use width="54" height="54" transform="matrix(-1, 0, 0, 1, 405.8, 181.42)" xlink:href="#_205"/><use width="54" height="54" transform="matrix(-1, 0, 0, 1, 476.66, 56.83)" xlink:href="#_283"/><use width="54" height="54" transform="matrix(-1, 0, 0, 1, 230.05, 181.42)" xlink:href="#_285"/><use width="54" height="54" transform="matrix(-1, 0, 0, 1, 490.54, 181.55)" xlink:href="#_295"/><rect class="cls-3" x="0.5" y="249.94" width="246.61" height="123.31"/><rect class="cls-3" x="0.56" y="249.94" width="82.2" height="123.31"/><text class="cls-4" transform="translate(12.2 276.91)"><tspan class="cls-13">R</tspan><tspan x="7.87" y="0">écursion</tspan></text><text class="cls-4" transform="translate(11.59 333.14)"><tspan class="cls-5">D</tspan><tspan x="8.53" y="0">ifficu</tspan><tspan class="cls-6" x="37.48" y="0">l</tspan><tspan class="cls-7" x="41.57" y="0">t</tspan><tspan x="46.57" y="0">é : </tspan></text><path class="cls-2" d="M92.19,376.12l3.5,2.23-.93-4.2,3.1-2.82L93.78,371,92.19,367,90.6,371l-4.08.37,3.1,2.82-.93,4.2Z" transform="translate(-50.52 -26.75)"/><use width="54" height="54" transform="matrix(-1, 0, 0, 1, 157.26, 302.98)" xlink:href="#_205"/><rect class="cls-3" x="247.11" y="249.94" width="246.61" height="123.31"/><rect class="cls-3" x="247.18" y="249.94" width="82.2" height="123.31"/><text class="cls-4" transform="translate(268.21 276.91)"><tspan class="cls-5">D</tspan><tspan x="8.53" y="0">ivise</tspan><tspan class="cls-11" x="35.47" y="0">r</tspan></text><text class="cls-4" transform="translate(258.21 333.14)"><tspan class="cls-5">D</tspan><tspan x="8.53" y="0">ifficu</tspan><tspan class="cls-6" x="37.48" y="0">l</tspan><tspan class="cls-7" x="41.57" y="0">t</tspan><tspan x="46.57" y="0">é : </tspan></text><path class="cls-2" d="M338.8,376.12l3.51,2.23-.93-4.2,3.09-2.82L340.4,371,338.8,367,337.21,371l-4.08.37,3.1,2.82-.93,4.2Z" transform="translate(-50.52 -26.75)"/><use width="54" height="54" transform="matrix(-1, 0, 0, 1, 405.8, 306.14)" xlink:href="#_205"/><use width="54" height="54" transform="matrix(-1, 0, 0, 1, 232.09, 306.27)" xlink:href="#_299"/><use width="54" height="54" transform="matrix(-1, 0, 0, 1, 475.7, 306.14)" xlink:href="#_301"/><rect class="cls-3" x="0.5" y="409.12" width="246.61" height="123.31"/><rect class="cls-3" x="0.56" y="409.12" width="82.2" height="123.31"/><text class="cls-4" transform="translate(13.84 436.08)">I<tspan class="cls-14" x="3.8" y="0">n</tspan><tspan class="cls-15" x="11.17" y="0">v</tspan><tspan x="17.71" y="0">erseu</tspan><tspan class="cls-11" x="50.99" y="0">r</tspan></text><text class="cls-4" transform="translate(11.59 492.31)"><tspan class="cls-5">D</tspan><tspan x="8.53" y="0">ifficu</tspan><tspan class="cls-6" x="37.48" y="0">l</tspan><tspan class="cls-7" x="41.57" y="0">t</tspan><tspan x="46.57" y="0">é : </tspan></text><path class="cls-2" d="M92.19,535.3l3.5,2.22-.93-4.19,3.1-2.83-4.08-.36-1.59-4-1.59,4-4.08.36,3.1,2.83-.93,4.19Z" transform="translate(-50.52 -26.75)"/><use width="54" height="54" transform="matrix(-1, 0, 0, 1, 230.05, 466.7)" xlink:href="#_279"/><rect class="cls-3" x="247.11" y="409.12" width="246.61" height="123.31"/><rect class="cls-3" x="247.18" y="409.12" width="82.2" height="123.31"/><text class="cls-4" transform="translate(263.25 436.08)">D<tspan class="cls-16" x="8.59" y="0">’</tspan><tspan x="11.71" y="0">en bas</tspan></text><text class="cls-4" transform="translate(258.21 492.31)"><tspan class="cls-5">D</tspan><tspan x="8.53" y="0">ifficu</tspan><tspan class="cls-6" x="37.48" y="0">l</tspan><tspan class="cls-7" x="41.57" y="0">t</tspan><tspan x="46.57" y="0">é : </tspan></text><rect class="cls-3" x="0.5" y="533.84" width="246.61" height="123.31"/><rect class="cls-3" x="0.56" y="533.84" width="82.2" height="123.31"/><text class="cls-4" transform="translate(11.4 560.8)">La<tspan class="cls-17" x="14.21" y="0"> </tspan><tspan class="cls-8" x="16.57" y="0">T</tspan><tspan x="23.92" y="0">rieuse</tspan></text><text class="cls-4" transform="translate(11.59 617.03)"><tspan class="cls-5">D</tspan><tspan x="8.53" y="0">ifficu</tspan><tspan class="cls-6" x="37.48" y="0">l</tspan><tspan class="cls-7" x="41.57" y="0">t</tspan><tspan x="46.57" y="0">é : </tspan></text><rect class="cls-3" x="247.11" y="533.84" width="246.61" height="123.31"/><rect class="cls-3" x="247.18" y="533.84" width="82.2" height="123.31"/><text class="cls-4" transform="translate(254.51 560.8)"><tspan class="cls-8">T</tspan><tspan class="cls-7" x="7.34" y="0">r</tspan><tspan x="12.26" y="0">ansl</tspan><tspan class="cls-9" x="37.17" y="0">a</tspan><tspan class="cls-10" x="44.29" y="0">tion</tspan></text><text class="cls-4" transform="translate(258.21 617.03)"><tspan class="cls-5">D</tspan><tspan x="8.53" y="0">ifficu</tspan><tspan class="cls-6" x="37.48" y="0">l</tspan><tspan class="cls-7" x="41.57" y="0">t</tspan><tspan x="46.57" y="0">é : </tspan></text><use width="54" height="54" transform="matrix(-1, 0, 0, 1, 476.66, 465.44)" xlink:href="#_283"/><use width="54" height="54" transform="matrix(-1, 0, 0, 1, 230.05, 590.03)" xlink:href="#_285"/><use width="54" height="54" transform="matrix(-1, 0, 0, 1, 473.39, 590.17)" xlink:href="#_295"/><rect class="cls-3" x="0.5" y="658.56" width="246.61" height="123.31"/><rect class="cls-3" x="0.56" y="658.56" width="82.2" height="123.31"/><text class="cls-4" transform="translate(9.04 685.52)"><tspan class="cls-8">T</tspan><tspan class="cls-7" x="7.34" y="0">r</tspan><tspan x="12.26" y="0">aduction </tspan><tspan x="-5.39" y="14.4">des </tspan><tspan class="cls-5" x="18.61" y="14.4">c</tspan><tspan x="25.48" y="14.4">ouleurs</tspan></text><text class="cls-4" transform="translate(11.59 741.75)"><tspan class="cls-5">D</tspan><tspan x="8.53" y="0">ifficu</tspan><tspan class="cls-6" x="37.48" y="0">l</tspan><tspan class="cls-7" x="41.57" y="0">t</tspan><tspan x="46.57" y="0">é : </tspan></text><rect class="cls-3" x="247.11" y="658.56" width="246.61" height="123.31"/><rect class="cls-3" x="247.18" y="658.56" width="82.2" height="123.31"/><text class="cls-4" transform="translate(269.12 685.52)"><tspan class="cls-7">A</tspan><tspan x="7.93" y="0">lle</tspan><tspan class="cls-18" x="23.76" y="0">r</tspan><tspan x="28.51" y="0" xml:space="preserve"> à </tspan><tspan x="-2.95" y="14.4">gauche</tspan></text><text class="cls-4" transform="translate(258.21 741.75)"><tspan class="cls-5">D</tspan><tspan x="8.53" y="0">ifficu</tspan><tspan class="cls-6" x="37.48" y="0">l</tspan><tspan class="cls-7" x="41.57" y="0">t</tspan><tspan x="46.57" y="0">é : </tspan></text><use width="54" height="54" transform="matrix(-1, 0, 0, 1, 232.09, 714.89)" xlink:href="#_299"/><use width="54" height="54" transform="matrix(-1, 0, 0, 1, 475.7, 714.75)" xlink:href="#_301"/><path class="cls-2" d="M92.19,660l3.5,2.22-.93-4.19,3.1-2.83-4.08-.36-1.59-4-1.59,4-4.08.36,3.1,2.83-.93,4.19Z" transform="translate(-50.52 -26.75)"/><path class="cls-2" d="M92.23,784.74l3.5,2.22-.93-4.19,3.1-2.83-4.08-.36-1.59-4-1.59,4-4.08.36,3.1,2.83L88.73,787Z" transform="translate(-50.52 -26.75)"/><path class="cls-2" d="M338.84,535.3l3.51,2.22-.93-4.19,3.09-2.83-4.07-.36-1.6-4-1.59,4-4.07.36,3.09,2.83-.93,4.19Z" transform="translate(-50.52 -26.75)"/><path class="cls-2" d="M338.71,660l3.5,2.22-.93-4.19,3.1-2.83-4.08-.36-1.59-4-1.59,4-4.08.36,3.1,2.83-.93,4.19Z" transform="translate(-50.52 -26.75)"/><path class="cls-2" d="M338.8,784.74l3.51,2.22-.93-4.19,3.09-2.83-4.07-.36-1.6-4-1.59,4-4.08.36,3.1,2.83L335.3,787Z" transform="translate(-50.52 -26.75)"/><use width="54" height="54" transform="matrix(-1, 0, 0, 1, 156.45, 465.31)" xlink:href="#_211"/><use width="54" height="54" transform="matrix(-1, 0, 0, 1, 403.06, 465.31)" xlink:href="#_211"/><use width="54" height="54" transform="matrix(-1, 0, 0, 1, 157.26, 590.17)" xlink:href="#_211"/><use width="54" height="54" transform="matrix(-1, 0, 0, 1, 403.87, 590.17)" xlink:href="#_211"/><use width="54" height="54" transform="matrix(-1, 0, 0, 1, 157.26, 718.01)" xlink:href="#_211"/><use width="54" height="54" transform="matrix(-1, 0, 0, 1, 403.87, 714.75)" xlink:href="#_211"/></svg>