<svg id="Calque_1" data-name="Calque 1" xmlns="http://www.w3.org/2000/svg" xmlns:xlink="http://www.w3.org/1999/xlink" viewBox="0 0 494.23 373.75"><defs><style>.cls-1{fill:#fff;}.cls-2{fill:#010101;}.cls-3{fill:none;stroke:#1d1d1b;stroke-miterlimit:10;}.cls-4{font-size:12px;fill:#1d1d1b;font-family:Raleway-Black, Raleway;font-weight:800;}.cls-5{letter-spacing:-0.02em;}.cls-6{letter-spacing:-0.01em;}.cls-7{letter-spacing:0em;}.cls-8{letter-spacing:0em;}.cls-9{letter-spacing:-0.02em;}.cls-10{letter-spacing:-0.02em;}.cls-11{letter-spacing:-0.01em;}.cls-12{letter-spacing:-0.01em;}.cls-13{letter-spacing:-0.02em;}.cls-14{letter-spacing:-0.01em;}.cls-15{letter-spacing:0em;}.cls-16{letter-spacing:-0.01em;}.cls-17{letter-spacing:-0.03em;}.cls-18{letter-spacing:-0.02em;}.cls-19{letter-spacing:0em;}.cls-20{letter-spacing:-0.02em;}</style><symbol id="_205" data-name="205" viewBox="0 0 54 54"><circle id="circle1201" class="cls-1" cx="27" cy="27" r="27"/><path id="path1203" class="cls-1" d="M14.45,50.91A27,27,0,0,0,27,54V27Z"/><path id="path1205" class="cls-2" d="M4.78,42.34a26.93,26.93,0,0,0,9.67,8.57L27,27Z"/><path id="path1207" class="cls-2" d="M.2,30.25A27,27,0,0,0,4.78,42.34L27,27Z"/><path id="path1209" class="cls-1" d="M1.75,17.43A26.93,26.93,0,0,0,.2,30.25L27,27Z"/><path id="path1211" class="cls-2" d="M9.1,6.79A26.94,26.94,0,0,0,1.75,17.43L27,27Z"/><path id="path1213" class="cls-1" d="M20.54.78a27,27,0,0,0-11.44,6L27,27Z"/><path id="path1215" class="cls-1" d="M33.46.78a27.14,27.14,0,0,0-12.92,0L27,27Z"/><path id="path1217" class="cls-1" d="M44.9,6.79a27,27,0,0,0-11.44-6L27,27Z"/><path id="path1219" class="cls-2" d="M52.25,17.43A26.94,26.94,0,0,0,44.9,6.79L27,27Z"/><path id="path1221" class="cls-2" d="M53.8,30.25a26.93,26.93,0,0,0-1.55-12.82L27,27Z"/><path id="path1223" class="cls-2" d="M49.22,42.34A27,27,0,0,0,53.8,30.25L27,27Z"/><path id="path1225" class="cls-2" d="M39.55,50.91a26.93,26.93,0,0,0,9.67-8.57L27,27Z"/><path id="path1227" class="cls-2" d="M27,54a27,27,0,0,0,12.55-3.09L27,27Z"/><circle id="circle1229" class="cls-1" cx="27" cy="27" r="20.25"/><circle id="circle1231" class="cls-2" cx="27" cy="27" r="13.5"/><circle id="circle1233" class="cls-1" cx="27" cy="27" r="6.75"/></symbol><symbol id="_279" data-name="279" viewBox="0 0 54 54"><circle id="circle1309" class="cls-1" cx="27" cy="27" r="27"/><path id="path1311" class="cls-1" d="M14.45,50.91A27,27,0,0,0,27,54V27Z"/><path id="path1313" class="cls-1" d="M4.78,42.34a26.93,26.93,0,0,0,9.67,8.57L27,27Z"/><path id="path1315" class="cls-1" d="M.2,30.25A27,27,0,0,0,4.78,42.34L27,27Z"/><path id="path1317" class="cls-2" d="M1.75,17.43A26.93,26.93,0,0,0,.2,30.25L27,27Z"/><path id="path1319" class="cls-1" d="M9.1,6.79A26.94,26.94,0,0,0,1.75,17.43L27,27Z"/><path id="path1321" class="cls-2" d="M20.54.78a27,27,0,0,0-11.44,6L27,27Z"/><path id="path1323" class="cls-2" d="M33.46.78a27.14,27.14,0,0,0-12.92,0L27,27Z"/><path id="path1325" class="cls-2" d="M44.9,6.79a27,27,0,0,0-11.44-6L27,27Z"/><path id="path1327" class="cls-1" d="M52.25,17.43A26.94,26.94,0,0,0,44.9,6.79L27,27Z"/><path id="path1329" class="cls-2" d="M53.8,30.25a26.93,26.93,0,0,0-1.55-12.82L27,27Z"/><path id="path1331" class="cls-2" d="M49.22,42.34A27,27,0,0,0,53.8,30.25L27,27Z"/><path id="path1333" class="cls-2" d="M39.55,50.91a26.93,26.93,0,0,0,9.67-8.57L27,27Z"/><path id="path1335" class="cls-2" d="M27,54a27,27,0,0,0,12.55-3.09L27,27Z"/><circle id="circle1337" class="cls-1" cx="27" cy="27" r="20.25"/><circle id="circle1339" class="cls-2" cx="27" cy="27" r="13.5"/><circle id="circle1341" class="cls-1" cx="27" cy="27" r="6.75"/></symbol><symbol id="_283" data-name="283" viewBox="0 0 54 54"><circle id="circle1345" class="cls-1" cx="27" cy="27" r="27"/><path id="path1347" class="cls-1" d="M14.45,50.91A27,27,0,0,0,27,54V27Z"/><path id="path1349" class="cls-1" d="M4.78,42.34a26.93,26.93,0,0,0,9.67,8.57L27,27Z"/><path id="path1351" class="cls-2" d="M.2,30.25A27,27,0,0,0,4.78,42.34L27,27Z"/><path id="path1353" class="cls-1" d="M1.75,17.43A26.93,26.93,0,0,0,.2,30.25L27,27Z"/><path id="path1355" class="cls-1" d="M9.1,6.79A26.94,26.94,0,0,0,1.75,17.43L27,27Z"/><path id="path1357" class="cls-2" d="M20.54.78a27,27,0,0,0-11.44,6L27,27Z"/><path id="path1359" class="cls-2" d="M33.46.78a27.14,27.14,0,0,0-12.92,0L27,27Z"/><path id="path1361" class="cls-2" d="M44.9,6.79a27,27,0,0,0-11.44-6L27,27Z"/><path id="path1363" class="cls-1" d="M52.25,17.43A26.94,26.94,0,0,0,44.9,6.79L27,27Z"/><path id="path1365" class="cls-2" d="M53.8,30.25a26.93,26.93,0,0,0-1.55-12.82L27,27Z"/><path id="path1367" class="cls-2" d="M49.22,42.34A27,27,0,0,0,53.8,30.25L27,27Z"/><path id="path1369" class="cls-2" d="M39.55,50.91a26.93,26.93,0,0,0,9.67-8.57L27,27Z"/><path id="path1371" class="cls-2" d="M27,54a27,27,0,0,0,12.55-3.09L27,27Z"/><circle id="circle1373" class="cls-1" cx="27" cy="27" r="20.25"/><circle id="circle1375" class="cls-2" cx="27" cy="27" r="13.5"/><circle id="circle1377" class="cls-1" cx="27" cy="27" r="6.75"/></symbol><symbol id="_285" data-name="285" viewBox="0 0 54 54"><circle id="circle1381" class="cls-1" cx="27" cy="27" r="27"/><path id="path1383" class="cls-1" d="M14.45,50.91A27,27,0,0,0,27,54V27Z"/><path id="path1385" class="cls-2" d="M4.78,42.34a26.93,26.93,0,0,0,9.67,8.57L27,27Z"/><path id="path1387" class="cls-1" d="M.2,30.25A27,27,0,0,0,4.78,42.34L27,27Z"/><path id="path1389" class="cls-1" d="M1.75,17.43A26.93,26.93,0,0,0,.2,30.25L27,27Z"/><path id="path1391" class="cls-1" d="M9.1,6.79A26.94,26.94,0,0,0,1.75,17.43L27,27Z"/><path id="path1393" class="cls-2" d="M20.54.78a27,27,0,0,0-11.44,6L27,27Z"/><path id="path1395" class="cls-2" d="M33.46.78a27.14,27.14,0,0,0-12.92,0L27,27Z"/><path id="path1397" class="cls-2" d="M44.9,6.79a27,27,0,0,0-11.44-6L27,27Z"/><path id="path1399" class="cls-1" d="M52.25,17.43A26.94,26.94,0,0,0,44.9,6.79L27,27Z"/><path id="path1401" class="cls-2" d="M53.8,30.25a26.93,26.93,0,0,0-1.55-12.82L27,27Z"/><path id="path1403" class="cls-2" d="M49.22,42.34A27,27,0,0,0,53.8,30.25L27,27Z"/><path id="path1405" class="cls-2" d="M39.55,50.91a26.93,26.93,0,0,0,9.67-8.57L27,27Z"/><path id="path1407" class="cls-2" d="M27,54a27,27,0,0,0,12.55-3.09L27,27Z"/><circle id="circle1409" class="cls-1" cx="27" cy="27" r="20.25"/><circle id="circle1411" class="cls-2" cx="27" cy="27" r="13.5"/><circle id="circle1413" class="cls-1" cx="27" cy="27" r="6.75"/></symbol><symbol id="_295" data-name="295" viewBox="0 0 54 54"><circle id="circle1417" class="cls-1" cx="27" cy="27" r="27"/><path id="path1419" class="cls-1" d="M14.45,50.91A27,27,0,0,0,27,54V27Z"/><path id="path1421" class="cls-1" d="M4.78,42.34a26.93,26.93,0,0,0,9.67,8.57L27,27Z"/><path id="path1423" class="cls-1" d="M.2,30.25A27,27,0,0,0,4.78,42.34L27,27Z"/><path id="path1425" class="cls-2" d="M1.75,17.43A26.93,26.93,0,0,0,.2,30.25L27,27Z"/><path id="path1427" class="cls-2" d="M9.1,6.79A26.94,26.94,0,0,0,1.75,17.43L27,27Z"/><path id="path1429" class="cls-1" d="M20.54.78a27,27,0,0,0-11.44,6L27,27Z"/><path id="path1431" class="cls-2" d="M33.46.78a27.14,27.14,0,0,0-12.92,0L27,27Z"/><path id="path1433" class="cls-2" d="M44.9,6.79a27,27,0,0,0-11.44-6L27,27Z"/><path id="path1435" class="cls-1" d="M52.25,17.43A26.94,26.94,0,0,0,44.9,6.79L27,27Z"/><path id="path1437" class="cls-2" d="M53.8,30.25a26.93,26.93,0,0,0-1.55-12.82L27,27Z"/><path id="path1439" class="cls-2" d="M49.22,42.34A27,27,0,0,0,53.8,30.25L27,27Z"/><path id="path1441" class="cls-2" d="M39.55,50.91a26.93,26.93,0,0,0,9.67-8.57L27,27Z"/><path id="path1443" class="cls-2" d="M27,54a27,27,0,0,0,12.55-3.09L27,27Z"/><circle id="circle1445" class="cls-1" cx="27" cy="27" r="20.25"/><circle id="circle1447" class="cls-2" cx="27" cy="27" r="13.5"/><circle id="circle1449" class="cls-1" cx="27" cy="27" r="6.75"/></symbol><symbol id="_299" data-name="299" viewBox="0 0 54 54"><circle id="circle1453" class="cls-1" cx="27" cy="27" r="27"/><path id="path1455" class="cls-1" d="M14.45,50.91A27,27,0,0,0,27,54V27Z"/><path id="path1457" class="cls-1" d="M4.78,42.34a26.93,26.93,0,0,0,9.67,8.57L27,27Z"/><path id="path1459" class="cls-2" d="M.2,30.25A27,27,0,0,0,4.78,42.34L27,27Z"/><path id="path1461" class="cls-1" d="M1.75,17.43A26.93,26.93,0,0,0,.2,30.25L27,27Z"/><path id="path1463" class="cls-2" d="M9.1,6.79A26.94,26.94,0,0,0,1.75,17.43L27,27Z"/><path id="path1465" class="cls-1" d="M20.54.78a27,27,0,0,0-11.44,6L27,27Z"/><path id="path1467" class="cls-2" d="M33.46.78a27.14,27.14,0,0,0-12.92,0L27,27Z"/><path id="path1469" class="cls-2" d="M44.9,6.79a27,27,0,0,0-11.44-6L27,27Z"/><path id="path1471" class="cls-1" d="M52.25,17.43A26.94,26.94,0,0,0,44.9,6.79L27,27Z"/><path id="path1473" class="cls-2" d="M53.8,30.25a26.93,26.93,0,0,0-1.55-12.82L27,27Z"/><path id="path1475" class="cls-2" d="M49.22,42.34A27,27,0,0,0,53.8,30.25L27,27Z"/><path id="path1477" class="cls-2" d="M39.55,50.91a26.93,26.93,0,0,0,9.67-8.57L27,27Z"/><path id="path1479" class="cls-2" d="M27,54a27,27,0,0,0,12.55-3.09L27,27Z"/><circle id="circle1481" class="cls-1" cx="27" cy="27" r="20.25"/><circle id="circle1483" class="cls-2" cx="27" cy="27" r="13.5"/><circle id="circle1485" class="cls-1" cx="27" cy="27" r="6.75"/></symbol><symbol id="_301" data-name="301" viewBox="0 0 54 54"><circle id="circle1489" class="cls-1" cx="27" cy="27" r="27"/><path id="path1491" class="cls-1" d="M14.45,50.91A27,27,0,0,0,27,54V27Z"/><path id="path1493" class="cls-2" d="M4.78,42.34a26.93,26.93,0,0,0,9.67,8.57L27,27Z"/><path id="path1495" class="cls-1" d="M.2,30.25A27,27,0,0,0,4.78,42.34L27,27Z"/><path id="path1497" class="cls-1" d="M1.75,17.43A26.93,26.93,0,0,0,.2,30.25L27,27Z"/><path id="path1499" class="cls-2" d="M9.1,6.79A26.94,26.94,0,0,0,1.75,17.43L27,27Z"/><path id="path1501" class="cls-1" d="M20.54.78a27,27,0,0,0-11.44,6L27,27Z"/><path id="path1503" class="cls-2" d="M33.46.78a27.14,27.14,0,0,0-12.92,0L27,27Z"/><path id="path1505" class="cls-2" d="M44.9,6.79a27,27,0,0,0-11.44-6L27,27Z"/><path id="path1507" class="cls-1" d="M52.25,17.43A26.94,26.94,0,0,0,44.9,6.79L27,27Z"/><path id="path1509" class="cls-2" d="M53.8,30.25a26.93,26.93,0,0,0-1.55-12.82L27,27Z"/><path id="path1511" class="cls-2" d="M49.22,42.34A27,27,0,0,0,53.8,30.25L27,27Z"/><path id="path1513" class="cls-2" d="M39.55,50.91a26.93,26.93,0,0,0,9.67-8.57L27,27Z"/><path id="path1515" class="cls-2" d="M27,54a27,27,0,0,0,12.55-3.09L27,27Z"/><circle id="circle1517" class="cls-1" cx="27" cy="27" r="20.25"/><circle id="circle1519" class="cls-2" cx="27" cy="27" r="13.5"/><circle id="circle1521" class="cls-1" cx="27" cy="27" r="6.75"/></symbol></defs><rect class="cls-3" x="0.5" y="0.5" width="246.61" height="123.31"/><rect class="cls-3" x="0.56" y="0.5" width="82.2" height="123.31"/><text class="cls-4" transform="translate(13.66 27.47)"><tspan class="cls-5">R</tspan><tspan x="7.87" y="0">em</tspan><tspan class="cls-6" x="26.46" y="0">e</tspan><tspan class="cls-7" x="33.7" y="0">t</tspan><tspan class="cls-8" x="38.72" y="0">tre </tspan><tspan class="cls-9" x="8.18" y="14.4">l</tspan><tspan class="cls-10" x="12.16" y="14.4">’</tspan><tspan x="15.28" y="14.4">ordre</tspan></text><text class="cls-4" transform="translate(11.59 83.7)"><tspan class="cls-11">D</tspan><tspan x="8.53" y="0">ifficu</tspan><tspan class="cls-12" x="37.48" y="0">l</tspan><tspan class="cls-6" x="41.57" y="0">t</tspan><tspan x="46.57" y="0">é : </tspan></text><path class="cls-2" d="M75.19,126.68l3.5,2.22-.93-4.19,3.1-2.82-4.08-.37-1.59-4-1.59,4-4.08.37,3.1,2.82-.93,4.19Z" transform="translate(-50.52 -26.75)"/><use width="54" height="54" transform="matrix(-1, 0, 0, 1, 162.3, 56.96)" xlink:href="#_205"/><use width="54" height="54" transform="matrix(-1, 0, 0, 1, 230.05, 58.09)" xlink:href="#_279"/><rect class="cls-3" x="247.11" y="0.5" width="246.61" height="123.31"/><rect class="cls-3" x="247.18" y="0.5" width="82.2" height="123.31"/><text class="cls-4" transform="translate(254.22 27.47)">Change<tspan class="cls-13" x="45.46" y="0">r</tspan><tspan x="50.21" y="0" xml:space="preserve"> de </tspan><tspan x="17.41" y="14.4">pla</tspan><tspan class="cls-11" x="36.62" y="14.4">c</tspan><tspan x="43.48" y="14.4">e</tspan></text><text class="cls-4" transform="translate(258.21 83.7)"><tspan class="cls-11">D</tspan><tspan x="8.53" y="0">ifficu</tspan><tspan class="cls-12" x="37.48" y="0">l</tspan><tspan class="cls-6" x="41.57" y="0">t</tspan><tspan x="46.57" y="0">é : </tspan></text><path class="cls-2" d="M321.8,126.68l3.51,2.22-.93-4.19,3.09-2.82-4.07-.37-1.6-4-1.59,4-4.08.37,3.1,2.82-.93,4.19Z" transform="translate(-50.52 -26.75)"/><use width="54" height="54" transform="matrix(-1, 0, 0, 1, 406.28, 56.83)" xlink:href="#_205"/><rect class="cls-3" x="0.5" y="125.22" width="246.61" height="123.31"/><rect class="cls-3" x="0.56" y="125.22" width="82.2" height="123.31"/><text class="cls-4" transform="translate(7.14 152.19)"><tspan class="cls-14">É</tspan><tspan x="7.06" y="0">change de </tspan><tspan x="9.67" y="14.4">pal</tspan><tspan class="cls-6" x="28.88" y="14.4">e</tspan><tspan class="cls-15" x="36.11" y="14.4">t</tspan><tspan class="cls-6" x="41.14" y="14.4">t</tspan><tspan x="46.15" y="14.4">es</tspan></text><text class="cls-4" transform="translate(11.59 208.42)"><tspan class="cls-11">D</tspan><tspan x="8.53" y="0">ifficu</tspan><tspan class="cls-12" x="37.48" y="0">l</tspan><tspan class="cls-6" x="41.57" y="0">t</tspan><tspan x="46.57" y="0">é : </tspan></text><path class="cls-2" d="M75.19,251.4l3.5,2.23-.93-4.2,3.1-2.82-4.08-.37-1.59-4-1.59,4-4.08.37,3.1,2.82-.93,4.2Z" transform="translate(-50.52 -26.75)"/><use width="54" height="54" transform="matrix(-1, 0, 0, 1, 162.3, 181.68)" xlink:href="#_205"/><rect class="cls-3" x="247.11" y="125.22" width="246.61" height="123.31"/><rect class="cls-3" x="247.18" y="125.22" width="82.2" height="123.31"/><text class="cls-4" transform="translate(263.77 152.19)">Mirroi<tspan class="cls-13" x="34.46" y="0">r</tspan><tspan x="39.22" y="0" xml:space="preserve"> 2</tspan></text><text class="cls-4" transform="translate(258.21 208.42)"><tspan class="cls-11">D</tspan><tspan x="8.53" y="0">ifficu</tspan><tspan class="cls-12" x="37.48" y="0">l</tspan><tspan class="cls-6" x="41.57" y="0">t</tspan><tspan x="46.57" y="0">é : </tspan></text><path class="cls-2" d="M321.8,251.4l3.51,2.23-.93-4.2,3.09-2.82-4.07-.37-1.6-4-1.59,4-4.08.37,3.1,2.82-.93,4.2Z" transform="translate(-50.52 -26.75)"/><use width="54" height="54" transform="matrix(-1, 0, 0, 1, 406.28, 181.55)" xlink:href="#_205"/><use width="54" height="54" transform="matrix(-1, 0, 0, 1, 476.66, 56.83)" xlink:href="#_283"/><use width="54" height="54" transform="matrix(-1, 0, 0, 1, 230.05, 181.42)" xlink:href="#_285"/><use width="54" height="54" transform="matrix(-1, 0, 0, 1, 476.66, 181.55)" xlink:href="#_295"/><rect class="cls-3" x="0.5" y="249.94" width="246.61" height="123.31"/><rect class="cls-3" x="0.56" y="249.94" width="82.2" height="123.31"/><text class="cls-4" transform="translate(7.61 276.91)">Change<tspan class="cls-13" x="45.46" y="0">r</tspan><tspan x="50.21" y="0" xml:space="preserve"> de </tspan><tspan x="12.46" y="14.4">pla</tspan><tspan class="cls-11" x="31.67" y="14.4">c</tspan><tspan x="38.54" y="14.4">e 2</tspan></text><text class="cls-4" transform="translate(11.59 333.14)"><tspan class="cls-11">D</tspan><tspan x="8.53" y="0">ifficu</tspan><tspan class="cls-12" x="37.48" y="0">l</tspan><tspan class="cls-6" x="41.57" y="0">t</tspan><tspan x="46.57" y="0">é : </tspan></text><path class="cls-2" d="M75.19,376.12l3.5,2.23-.93-4.2,3.1-2.82L76.78,371,75.19,367,73.6,371l-4.08.37,3.1,2.82-.93,4.2Z" transform="translate(-50.52 -26.75)"/><use width="54" height="54" transform="matrix(-1, 0, 0, 1, 162.3, 306.4)" xlink:href="#_205"/><rect class="cls-3" x="247.11" y="249.94" width="246.61" height="123.31"/><rect class="cls-3" x="247.18" y="249.94" width="82.2" height="123.31"/><text class="cls-4" transform="translate(256.52 276.91)"><tspan class="cls-16">T</tspan><tspan x="7.34" y="0">ri</tspan><tspan class="cls-17" x="15.77" y="0"> </tspan><tspan class="cls-18" x="18.16" y="0">v</tspan><tspan class="cls-19" x="24.7" y="0">ertica</tspan><tspan class="cls-20" x="59.62" y="0">l</tspan></text><text class="cls-4" transform="translate(258.21 333.14)"><tspan class="cls-11">D</tspan><tspan x="8.53" y="0">ifficu</tspan><tspan class="cls-12" x="37.48" y="0">l</tspan><tspan class="cls-6" x="41.57" y="0">t</tspan><tspan x="46.57" y="0">é : </tspan></text><path class="cls-2" d="M321.8,376.12l3.51,2.23-.93-4.2,3.09-2.82L323.4,371,321.8,367,320.21,371l-4.08.37,3.1,2.82-.93,4.2Z" transform="translate(-50.52 -26.75)"/><use width="54" height="54" transform="matrix(-1, 0, 0, 1, 406.28, 306.27)" xlink:href="#_205"/><use width="54" height="54" transform="matrix(-1, 0, 0, 1, 232.09, 306.27)" xlink:href="#_299"/><use width="54" height="54" transform="matrix(-1, 0, 0, 1, 475.7, 306.14)" xlink:href="#_301"/><path class="cls-2" d="M91.19,126.68l3.5,2.22-.93-4.19,3.1-2.82-4.08-.37-1.59-4-1.59,4-4.08.37,3.1,2.82-.93,4.19Z" transform="translate(-50.52 -26.75)"/><path class="cls-2" d="M337.8,126.68l3.51,2.22-.93-4.19,3.09-2.82-4.07-.37-1.6-4-1.59,4-4.08.37,3.1,2.82-.93,4.19Z" transform="translate(-50.52 -26.75)"/><path class="cls-2" d="M91.19,251.4l3.5,2.23-.93-4.2,3.1-2.82-4.08-.37-1.59-4-1.59,4-4.08.37,3.1,2.82-.93,4.2Z" transform="translate(-50.52 -26.75)"/><path class="cls-2" d="M337.8,251.4l3.51,2.23-.93-4.2,3.09-2.82-4.07-.37-1.6-4-1.59,4-4.08.37,3.1,2.82-.93,4.2Z" transform="translate(-50.52 -26.75)"/><path class="cls-2" d="M91.19,376.12l3.5,2.23-.93-4.2,3.1-2.82L92.78,371,91.19,367,89.6,371l-4.08.37,3.1,2.82-.93,4.2Z" transform="translate(-50.52 -26.75)"/><path class="cls-2" d="M337.8,376.12l3.51,2.23-.93-4.2,3.09-2.82L339.4,371,337.8,367,336.21,371l-4.08.37,3.1,2.82-.93,4.2Z" transform="translate(-50.52 -26.75)"/><path class="cls-2" d="M75.19,140.68l3.5,2.22-.93-4.19,3.1-2.82-4.08-.37-1.59-4-1.59,4-4.08.37,3.1,2.82-.93,4.19Z" transform="translate(-50.52 -26.75)"/><path class="cls-2" d="M321.8,140.68l3.51,2.22-.93-4.19,3.09-2.82-4.07-.37-1.6-4-1.59,4-4.08.37,3.1,2.82-.93,4.19Z" transform="translate(-50.52 -26.75)"/><path class="cls-2" d="M75.19,265.4l3.5,2.23-.93-4.2,3.1-2.82-4.08-.37-1.59-3.95-1.59,3.95-4.08.37,3.1,2.82-.93,4.2Z" transform="translate(-50.52 -26.75)"/><path class="cls-2" d="M321.8,265.4l3.51,2.23-.93-4.2,3.09-2.82-4.07-.37-1.6-3.95-1.59,3.95-4.08.37,3.1,2.82-.93,4.2Z" transform="translate(-50.52 -26.75)"/><path class="cls-2" d="M75.19,390.12l3.5,2.23-.93-4.2,3.1-2.82L76.78,385,75.19,381,73.6,385l-4.08.37,3.1,2.82-.93,4.2Z" transform="translate(-50.52 -26.75)"/><path class="cls-2" d="M321.8,390.12l3.51,2.23-.93-4.2,3.09-2.82L323.4,385,321.8,381,320.21,385l-4.08.37,3.1,2.82-.93,4.2Z" transform="translate(-50.52 -26.75)"/><path class="cls-2" d="M91.19,140.68l3.5,2.22-.93-4.19,3.1-2.82-4.08-.37-1.59-4-1.59,4-4.08.37,3.1,2.82-.93,4.19Z" transform="translate(-50.52 -26.75)"/><path class="cls-2" d="M337.8,140.68l3.51,2.22-.93-4.19,3.09-2.82-4.07-.37-1.6-4-1.59,4-4.08.37,3.1,2.82-.93,4.19Z" transform="translate(-50.52 -26.75)"/><path class="cls-2" d="M91.19,265.4l3.5,2.23-.93-4.2,3.1-2.82-4.08-.37-1.59-3.95-1.59,3.95-4.08.37,3.1,2.82-.93,4.2Z" transform="translate(-50.52 -26.75)"/><path class="cls-2" d="M337.8,265.4l3.51,2.23-.93-4.2,3.09-2.82-4.07-.37-1.6-3.95-1.59,3.95-4.08.37,3.1,2.82-.93,4.2Z" transform="translate(-50.52 -26.75)"/><path class="cls-2" d="M91.19,390.12l3.5,2.23-.93-4.2,3.1-2.82L92.78,385,91.19,381,89.6,385l-4.08.37,3.1,2.82-.93,4.2Z" transform="translate(-50.52 -26.75)"/><path class="cls-2" d="M337.8,390.12l3.51,2.23-.93-4.2,3.09-2.82L339.4,385,337.8,381,336.21,385l-4.08.37,3.1,2.82-.93,4.2Z" transform="translate(-50.52 -26.75)"/><path class="cls-2" d="M107.19,126.68l3.5,2.22-.93-4.19,3.1-2.82-4.08-.37-1.59-4-1.59,4-4.08.37,3.1,2.82-.93,4.19Z" transform="translate(-50.52 -26.75)"/><path class="cls-2" d="M348.13,121.89l3.1,2.82-.93,4.19,3.5-2.22,3.51,2.22-.93-4.19,3.09-2.82-4.07-.37-1.6-4-1.59,4-4.08.37" transform="translate(-50.52 -26.75)"/><path class="cls-2" d="M107.19,251.4l3.5,2.23-.93-4.2,3.1-2.82-4.08-.37-1.59-4-1.59,4-4.08.37,3.1,2.82-.93,4.2Z" transform="translate(-50.52 -26.75)"/><path class="cls-2" d="M353.8,251.4l3.51,2.23-.93-4.2,3.09-2.82-4.07-.37-1.6-4-1.59,4-4.08.37,3.1,2.82-.93,4.2Z" transform="translate(-50.52 -26.75)"/><path class="cls-2" d="M107.19,376.12l3.5,2.23-.93-4.2,3.1-2.82-4.08-.37L107.19,367,105.6,371l-4.08.37,3.1,2.82-.93,4.2Z" transform="translate(-50.52 -26.75)"/><path class="cls-2" d="M348.13,371.33l3.1,2.82-.93,4.2,3.5-2.23,3.51,2.23-.93-4.2,3.09-2.82L355.4,371,353.8,367,352.21,371l-4.08.37" transform="translate(-50.52 -26.75)"/><path class="cls-2" d="M107.19,140.68l3.5,2.22-.93-4.19,3.1-2.82-4.08-.37-1.59-4-1.59,4-4.08.37,3.1,2.82-.93,4.19Z" transform="translate(-50.52 -26.75)"/><path class="cls-2" d="M348.13,135.89l3.1,2.82-.93,4.19,3.5-2.22,3.51,2.22-.93-4.19,3.09-2.82-4.07-.37-1.6-4-1.59,4-4.08.37" transform="translate(-50.52 -26.75)"/><path class="cls-2" d="M107.19,265.4l3.5,2.23-.93-4.2,3.1-2.82-4.08-.37-1.59-3.95-1.59,3.95-4.08.37,3.1,2.82-.93,4.2Z" transform="translate(-50.52 -26.75)"/><path class="cls-2" d="M353.8,265.4l3.51,2.23-.93-4.2,3.09-2.82-4.07-.37-1.6-3.95-1.59,3.95-4.08.37,3.1,2.82-.93,4.2Z" transform="translate(-50.52 -26.75)"/><path class="cls-2" d="M107.19,390.12l3.5,2.23-.93-4.2,3.1-2.82-4.08-.37L107.19,381,105.6,385l-4.08.37,3.1,2.82-.93,4.2Z" transform="translate(-50.52 -26.75)"/><path class="cls-2" d="M348.13,385.33l3.1,2.82-.93,4.2,3.5-2.23,3.51,2.23-.93-4.2,3.09-2.82L355.4,385,353.8,381,352.21,385l-4.08.37" transform="translate(-50.52 -26.75)"/></svg>