<svg id="Calque_1" data-name="Calque 1" xmlns="http://www.w3.org/2000/svg" xmlns:xlink="http://www.w3.org/1999/xlink" viewBox="0 0 494.23 782.36"><defs><style>.cls-1{fill:#fff;}.cls-2{fill:#010101;}.cls-3{fill:none;stroke:#1d1d1b;stroke-miterlimit:10;}.cls-14,.cls-4{font-size:12px;font-family:Raleway-Black, Raleway;font-weight:800;}.cls-10,.cls-14,.cls-4{fill:#1d1d1b;}.cls-5{letter-spacing:-0.01em;}.cls-6{letter-spacing:-0.01em;}.cls-7{letter-spacing:-0.01em;}.cls-8{letter-spacing:-0.02em;}.cls-9{letter-spacing:-0.01em;}.cls-11{letter-spacing:-0.01em;}.cls-12{letter-spacing:-0.02em;}.cls-13{letter-spacing:-0.02em;}.cls-14{letter-spacing:-0.12em;}.cls-15{letter-spacing:-0.02em;}.cls-16{letter-spacing:0em;}</style><symbol id="_205" data-name="205" viewBox="0 0 54 54"><circle id="circle1057" class="cls-1" cx="27" cy="27" r="27"/><path id="path1059" class="cls-1" d="M14.45,50.91A27,27,0,0,0,27,54V27Z"/><path id="path1061" class="cls-2" d="M4.78,42.34a26.93,26.93,0,0,0,9.67,8.57L27,27Z"/><path id="path1063" class="cls-1" d="M.2,30.25A27,27,0,0,0,4.78,42.34L27,27Z"/><path id="path1065" class="cls-2" d="M1.75,17.43A26.93,26.93,0,0,0,.2,30.25L27,27Z"/><path id="path1067" class="cls-1" d="M9.1,6.79A26.94,26.94,0,0,0,1.75,17.43L27,27Z"/><path id="path1069" class="cls-2" d="M20.54.78a27,27,0,0,0-11.44,6L27,27Z"/><path id="path1071" class="cls-1" d="M33.46.78a27.14,27.14,0,0,0-12.92,0L27,27Z"/><path id="path1073" class="cls-1" d="M44.9,6.79a27,27,0,0,0-11.44-6L27,27Z"/><path id="path1075" class="cls-2" d="M52.25,17.43A26.94,26.94,0,0,0,44.9,6.79L27,27Z"/><path id="path1077" class="cls-2" d="M53.8,30.25a26.93,26.93,0,0,0-1.55-12.82L27,27Z"/><path id="path1079" class="cls-2" d="M49.22,42.34A27,27,0,0,0,53.8,30.25L27,27Z"/><path id="path1081" class="cls-2" d="M39.55,50.91a26.93,26.93,0,0,0,9.67-8.57L27,27Z"/><path id="path1083" class="cls-2" d="M27,54a27,27,0,0,0,12.55-3.09L27,27Z"/><circle id="circle1085" class="cls-1" cx="27" cy="27" r="20.25"/><circle id="circle1087" class="cls-2" cx="27" cy="27" r="13.5"/><circle id="circle1089" class="cls-1" cx="27" cy="27" r="6.75"/></symbol><symbol id="_279" data-name="279" viewBox="0 0 54 54"><circle id="circle1309" class="cls-1" cx="27" cy="27" r="27"/><path id="path1311" class="cls-1" d="M14.45,50.91A27,27,0,0,0,27,54V27Z"/><path id="path1313" class="cls-1" d="M4.78,42.34a26.93,26.93,0,0,0,9.67,8.57L27,27Z"/><path id="path1315" class="cls-1" d="M.2,30.25A27,27,0,0,0,4.78,42.34L27,27Z"/><path id="path1317" class="cls-2" d="M1.75,17.43A26.93,26.93,0,0,0,.2,30.25L27,27Z"/><path id="path1319" class="cls-1" d="M9.1,6.79A26.94,26.94,0,0,0,1.75,17.43L27,27Z"/><path id="path1321" class="cls-2" d="M20.54.78a27,27,0,0,0-11.44,6L27,27Z"/><path id="path1323" class="cls-2" d="M33.46.78a27.14,27.14,0,0,0-12.92,0L27,27Z"/><path id="path1325" class="cls-2" d="M44.9,6.79a27,27,0,0,0-11.44-6L27,27Z"/><path id="path1327" class="cls-1" d="M52.25,17.43A26.94,26.94,0,0,0,44.9,6.79L27,27Z"/><path id="path1329" class="cls-2" d="M53.8,30.25a26.93,26.93,0,0,0-1.55-12.82L27,27Z"/><path id="path1331" class="cls-2" d="M49.22,42.34A27,27,0,0,0,53.8,30.25L27,27Z"/><path id="path1333" class="cls-2" d="M39.55,50.91a26.93,26.93,0,0,0,9.67-8.57L27,27Z"/><path id="path1335" class="cls-2" d="M27,54a27,27,0,0,0,12.55-3.09L27,27Z"/><circle id="circle1337" class="cls-1" cx="27" cy="27" r="20.25"/><circle id="circle1339" class="cls-2" cx="27" cy="27" r="13.5"/><circle id="circle1341" class="cls-1" cx="27" cy="27" r="6.75"/></symbol><symbol id="_283" data-name="283" viewBox="0 0 54 54"><circle id="circle1345" class="cls-1" cx="27" cy="27" r="27"/><path id="path1347" class="cls-1" d="M14.45,50.91A27,27,0,0,0,27,54V27Z"/><path id="path1349" class="cls-1" d="M4.78,42.34a26.93,26.93,0,0,0,9.67,8.57L27,27Z"/><path id="path1351" class="cls-2" d="M.2,30.25A27,27,0,0,0,4.78,42.34L27,27Z"/><path id="path1353" class="cls-1" d="M1.75,17.43A26.93,26.93,0,0,0,.2,30.25L27,27Z"/><path id="path1355" class="cls-1" d="M9.1,6.79A26.94,26.94,0,0,0,1.75,17.43L27,27Z"/><path id="path1357" class="cls-2" d="M20.54.78a27,27,0,0,0-11.44,6L27,27Z"/><path id="path1359" class="cls-2" d="M33.46.78a27.14,27.14,0,0,0-12.92,0L27,27Z"/><path id="path1361" class="cls-2" d="M44.9,6.79a27,27,0,0,0-11.44-6L27,27Z"/><path id="path1363" class="cls-1" d="M52.25,17.43A26.94,26.94,0,0,0,44.9,6.79L27,27Z"/><path id="path1365" class="cls-2" d="M53.8,30.25a26.93,26.93,0,0,0-1.55-12.82L27,27Z"/><path id="path1367" class="cls-2" d="M49.22,42.34A27,27,0,0,0,53.8,30.25L27,27Z"/><path id="path1369" class="cls-2" d="M39.55,50.91a26.93,26.93,0,0,0,9.67-8.57L27,27Z"/><path id="path1371" class="cls-2" d="M27,54a27,27,0,0,0,12.55-3.09L27,27Z"/><circle id="circle1373" class="cls-1" cx="27" cy="27" r="20.25"/><circle id="circle1375" class="cls-2" cx="27" cy="27" r="13.5"/><circle id="circle1377" class="cls-1" cx="27" cy="27" r="6.75"/></symbol><symbol id="_285" data-name="285" viewBox="0 0 54 54"><circle id="circle1381" class="cls-1" cx="27" cy="27" r="27"/><path id="path1383" class="cls-1" d="M14.45,50.91A27,27,0,0,0,27,54V27Z"/><path id="path1385" class="cls-2" d="M4.78,42.34a26.93,26.93,0,0,0,9.67,8.57L27,27Z"/><path id="path1387" class="cls-1" d="M.2,30.25A27,27,0,0,0,4.78,42.34L27,27Z"/><path id="path1389" class="cls-1" d="M1.75,17.43A26.93,26.93,0,0,0,.2,30.25L27,27Z"/><path id="path1391" class="cls-1" d="M9.1,6.79A26.94,26.94,0,0,0,1.75,17.43L27,27Z"/><path id="path1393" class="cls-2" d="M20.54.78a27,27,0,0,0-11.44,6L27,27Z"/><path id="path1395" class="cls-2" d="M33.46.78a27.14,27.14,0,0,0-12.92,0L27,27Z"/><path id="path1397" class="cls-2" d="M44.9,6.79a27,27,0,0,0-11.44-6L27,27Z"/><path id="path1399" class="cls-1" d="M52.25,17.43A26.94,26.94,0,0,0,44.9,6.79L27,27Z"/><path id="path1401" class="cls-2" d="M53.8,30.25a26.93,26.93,0,0,0-1.55-12.82L27,27Z"/><path id="path1403" class="cls-2" d="M49.22,42.34A27,27,0,0,0,53.8,30.25L27,27Z"/><path id="path1405" class="cls-2" d="M39.55,50.91a26.93,26.93,0,0,0,9.67-8.57L27,27Z"/><path id="path1407" class="cls-2" d="M27,54a27,27,0,0,0,12.55-3.09L27,27Z"/><circle id="circle1409" class="cls-1" cx="27" cy="27" r="20.25"/><circle id="circle1411" class="cls-2" cx="27" cy="27" r="13.5"/><circle id="circle1413" class="cls-1" cx="27" cy="27" r="6.75"/></symbol><symbol id="_295" data-name="295" viewBox="0 0 54 54"><circle id="circle1417" class="cls-1" cx="27" cy="27" r="27"/><path id="path1419" class="cls-1" d="M14.45,50.91A27,27,0,0,0,27,54V27Z"/><path id="path1421" class="cls-1" d="M4.78,42.34a26.93,26.93,0,0,0,9.67,8.57L27,27Z"/><path id="path1423" class="cls-1" d="M.2,30.25A27,27,0,0,0,4.78,42.34L27,27Z"/><path id="path1425" class="cls-2" d="M1.75,17.43A26.93,26.93,0,0,0,.2,30.25L27,27Z"/><path id="path1427" class="cls-2" d="M9.1,6.79A26.94,26.94,0,0,0,1.75,17.43L27,27Z"/><path id="path1429" class="cls-1" d="M20.54.78a27,27,0,0,0-11.44,6L27,27Z"/><path id="path1431" class="cls-2" d="M33.46.78a27.14,27.14,0,0,0-12.92,0L27,27Z"/><path id="path1433" class="cls-2" d="M44.9,6.79a27,27,0,0,0-11.44-6L27,27Z"/><path id="path1435" class="cls-1" d="M52.25,17.43A26.94,26.94,0,0,0,44.9,6.79L27,27Z"/><path id="path1437" class="cls-2" d="M53.8,30.25a26.93,26.93,0,0,0-1.55-12.82L27,27Z"/><path id="path1439" class="cls-2" d="M49.22,42.34A27,27,0,0,0,53.8,30.25L27,27Z"/><path id="path1441" class="cls-2" d="M39.55,50.91a26.93,26.93,0,0,0,9.67-8.57L27,27Z"/><path id="path1443" class="cls-2" d="M27,54a27,27,0,0,0,12.55-3.09L27,27Z"/><circle id="circle1445" class="cls-1" cx="27" cy="27" r="20.25"/><circle id="circle1447" class="cls-2" cx="27" cy="27" r="13.5"/><circle id="circle1449" class="cls-1" cx="27" cy="27" r="6.75"/></symbol><symbol id="_299" data-name="299" viewBox="0 0 54 54"><circle id="circle1453" class="cls-1" cx="27" cy="27" r="27"/><path id="path1455" class="cls-1" d="M14.45,50.91A27,27,0,0,0,27,54V27Z"/><path id="path1457" class="cls-1" d="M4.78,42.34a26.93,26.93,0,0,0,9.67,8.57L27,27Z"/><path id="path1459" class="cls-2" d="M.2,30.25A27,27,0,0,0,4.78,42.34L27,27Z"/><path id="path1461" class="cls-1" d="M1.75,17.43A26.93,26.93,0,0,0,.2,30.25L27,27Z"/><path id="path1463" class="cls-2" d="M9.1,6.79A26.94,26.94,0,0,0,1.75,17.43L27,27Z"/><path id="path1465" class="cls-1" d="M20.54.78a27,27,0,0,0-11.44,6L27,27Z"/><path id="path1467" class="cls-2" d="M33.46.78a27.14,27.14,0,0,0-12.92,0L27,27Z"/><path id="path1469" class="cls-2" d="M44.9,6.79a27,27,0,0,0-11.44-6L27,27Z"/><path id="path1471" class="cls-1" d="M52.25,17.43A26.94,26.94,0,0,0,44.9,6.79L27,27Z"/><path id="path1473" class="cls-2" d="M53.8,30.25a26.93,26.93,0,0,0-1.55-12.82L27,27Z"/><path id="path1475" class="cls-2" d="M49.22,42.34A27,27,0,0,0,53.8,30.25L27,27Z"/><path id="path1477" class="cls-2" d="M39.55,50.91a26.93,26.93,0,0,0,9.67-8.57L27,27Z"/><path id="path1479" class="cls-2" d="M27,54a27,27,0,0,0,12.55-3.09L27,27Z"/><circle id="circle1481" class="cls-1" cx="27" cy="27" r="20.25"/><circle id="circle1483" class="cls-2" cx="27" cy="27" r="13.5"/><circle id="circle1485" class="cls-1" cx="27" cy="27" r="6.75"/></symbol><symbol id="_301" data-name="301" viewBox="0 0 54 54"><circle id="circle1489" class="cls-1" cx="27" cy="27" r="27"/><path id="path1491" class="cls-1" d="M14.45,50.91A27,27,0,0,0,27,54V27Z"/><path id="path1493" class="cls-2" d="M4.78,42.34a26.93,26.93,0,0,0,9.67,8.57L27,27Z"/><path id="path1495" class="cls-1" d="M.2,30.25A27,27,0,0,0,4.78,42.34L27,27Z"/><path id="path1497" class="cls-1" d="M1.75,17.43A26.93,26.93,0,0,0,.2,30.25L27,27Z"/><path id="path1499" class="cls-2" d="M9.1,6.79A26.94,26.94,0,0,0,1.75,17.43L27,27Z"/><path id="path1501" class="cls-1" d="M20.54.78a27,27,0,0,0-11.44,6L27,27Z"/><path id="path1503" class="cls-2" d="M33.46.78a27.14,27.14,0,0,0-12.92,0L27,27Z"/><path id="path1505" class="cls-2" d="M44.9,6.79a27,27,0,0,0-11.44-6L27,27Z"/><path id="path1507" class="cls-1" d="M52.25,17.43A26.94,26.94,0,0,0,44.9,6.79L27,27Z"/><path id="path1509" class="cls-2" d="M53.8,30.25a26.93,26.93,0,0,0-1.55-12.82L27,27Z"/><path id="path1511" class="cls-2" d="M49.22,42.34A27,27,0,0,0,53.8,30.25L27,27Z"/><path id="path1513" class="cls-2" d="M39.55,50.91a26.93,26.93,0,0,0,9.67-8.57L27,27Z"/><path id="path1515" class="cls-2" d="M27,54a27,27,0,0,0,12.55-3.09L27,27Z"/><circle id="circle1517" class="cls-1" cx="27" cy="27" r="20.25"/><circle id="circle1519" class="cls-2" cx="27" cy="27" r="13.5"/><circle id="circle1521" class="cls-1" cx="27" cy="27" r="6.75"/></symbol><symbol id="_211" data-name="211" viewBox="0 0 54 54"><circle id="circle1093" class="cls-1" cx="27" cy="27" r="27"/><path id="path1095" class="cls-1" d="M14.45,50.91A27,27,0,0,0,27,54V27Z"/><path id="path1097" class="cls-2" d="M4.78,42.34a26.93,26.93,0,0,0,9.67,8.57L27,27Z"/><path id="path1099" class="cls-2" d="M.2,30.25A27,27,0,0,0,4.78,42.34L27,27Z"/><path id="path1101" class="cls-1" d="M1.75,17.43A26.93,26.93,0,0,0,.2,30.25L27,27Z"/><path id="path1103" class="cls-1" d="M9.1,6.79A26.94,26.94,0,0,0,1.75,17.43L27,27Z"/><path id="path1105" class="cls-2" d="M20.54.78a27,27,0,0,0-11.44,6L27,27Z"/><path id="path1107" class="cls-1" d="M33.46.78a27.14,27.14,0,0,0-12.92,0L27,27Z"/><path id="path1109" class="cls-1" d="M44.9,6.79a27,27,0,0,0-11.44-6L27,27Z"/><path id="path1111" class="cls-2" d="M52.25,17.43A26.94,26.94,0,0,0,44.9,6.79L27,27Z"/><path id="path1113" class="cls-2" d="M53.8,30.25a26.93,26.93,0,0,0-1.55-12.82L27,27Z"/><path id="path1115" class="cls-2" d="M49.22,42.34A27,27,0,0,0,53.8,30.25L27,27Z"/><path id="path1117" class="cls-2" d="M39.55,50.91a26.93,26.93,0,0,0,9.67-8.57L27,27Z"/><path id="path1119" class="cls-2" d="M27,54a27,27,0,0,0,12.55-3.09L27,27Z"/><circle id="circle1121" class="cls-1" cx="27" cy="27" r="20.25"/><circle id="circle1123" class="cls-2" cx="27" cy="27" r="13.5"/><circle id="circle1125" class="cls-1" cx="27" cy="27" r="6.75"/></symbol></defs><rect class="cls-3" x="0.5" y="0.5" width="246.61" height="123.31"/><rect class="cls-3" x="0.56" y="0.5" width="82.2" height="123.31"/><text class="cls-4" transform="translate(7.78 27.47)">Double Flip</text><text class="cls-4" transform="translate(11.59 83.7)"><tspan class="cls-5">D</tspan><tspan x="8.53" y="0">ifficu</tspan><tspan class="cls-6" x="37.48" y="0">l</tspan><tspan class="cls-7" x="41.57" y="0">t</tspan><tspan x="46.57" y="0">é : </tspan></text><path class="cls-2" d="M83.19,126.68l3.5,2.22-.93-4.19,3.1-2.82-4.08-.37-1.59-4-1.59,4-4.08.37,3.1,2.82-.93,4.19Z" transform="translate(-50.52 -26.75)"/><use width="54" height="54" transform="matrix(-1, 0, 0, 1, 156.45, 56.83)" xlink:href="#_205"/><use width="54" height="54" transform="matrix(-1, 0, 0, 1, 230.05, 58.09)" xlink:href="#_279"/><rect class="cls-3" x="247.11" y="0.5" width="246.61" height="123.31"/><rect class="cls-3" x="247.18" y="0.5" width="82.2" height="123.31"/><text class="cls-4" transform="translate(269.12 27.47)"><tspan class="cls-7">A</tspan><tspan x="7.93" y="0">lle</tspan><tspan class="cls-8" x="23.76" y="0">r</tspan><tspan x="28.51" y="0" xml:space="preserve"> à </tspan><tspan x="-7.89" y="14.4">gauche 2</tspan></text><text class="cls-4" transform="translate(258.21 83.7)"><tspan class="cls-5">D</tspan><tspan x="8.53" y="0">ifficu</tspan><tspan class="cls-6" x="37.48" y="0">l</tspan><tspan class="cls-7" x="41.57" y="0">t</tspan><tspan x="46.57" y="0">é : </tspan></text><path class="cls-2" d="M329.8,126.68l3.51,2.22-.93-4.19,3.09-2.82-4.07-.37-1.6-4-1.59,4-4.08.37,3.1,2.82-.93,4.19Z" transform="translate(-50.52 -26.75)"/><use width="54" height="54" transform="matrix(-1, 0, 0, 1, 403.87, 56.83)" xlink:href="#_205"/><rect class="cls-3" x="0.5" y="125.22" width="246.61" height="123.31"/><rect class="cls-3" x="0.56" y="125.22" width="82.2" height="123.31"/><text class="cls-4" transform="translate(5.49 152.19)"><tspan class="cls-9">T</tspan><tspan x="7.34" y="0">ri alé</tspan><tspan class="cls-7" x="37.22" y="0">at</tspan><tspan x="49.34" y="0">oire</tspan></text><text class="cls-4" transform="translate(11.59 208.42)"><tspan class="cls-5">D</tspan><tspan x="8.53" y="0">ifficu</tspan><tspan class="cls-6" x="37.48" y="0">l</tspan><tspan class="cls-7" x="41.57" y="0">t</tspan><tspan x="46.57" y="0">é : </tspan></text><path class="cls-2" d="M83.19,251.4l3.5,2.23-.93-4.2,3.1-2.82-4.08-.37-1.59-4-1.59,4-4.08.37,3.1,2.82-.93,4.2Z" transform="translate(-50.52 -26.75)"/><use width="54" height="54" transform="matrix(-1, 0, 0, 1, 156.45, 181.55)" xlink:href="#_205"/><rect class="cls-3" x="247.11" y="125.22" width="246.61" height="123.31"/><rect class="cls-3" x="247.18" y="125.22" width="82.2" height="123.31"/><text class="cls-4" transform="translate(249.11 152.19)"><tspan class="cls-5">D</tspan><tspan x="8.53" y="0">i</tspan><tspan class="cls-7" x="11.96" y="0">s</tspan><tspan x="17.9" y="0">tanci</tspan><tspan class="cls-7" x="47.98" y="0">a</tspan><tspan x="55.09" y="0">tion </tspan><tspan x="17.96" y="14.4">sociale</tspan></text><text class="cls-4" transform="translate(258.21 208.42)"><tspan class="cls-5">D</tspan><tspan x="8.53" y="0">ifficu</tspan><tspan class="cls-6" x="37.48" y="0">l</tspan><tspan class="cls-7" x="41.57" y="0">t</tspan><tspan x="46.57" y="0">é : </tspan></text><path class="cls-2" d="M329.8,251.4l3.51,2.23-.93-4.2,3.09-2.82-4.07-.37-1.6-4-1.59,4-4.08.37,3.1,2.82-.93,4.2Z" transform="translate(-50.52 -26.75)"/><use width="54" height="54" transform="matrix(-1, 0, 0, 1, 403.87, 181.55)" xlink:href="#_205"/><use width="54" height="54" transform="matrix(-1, 0, 0, 1, 476.66, 56.83)" xlink:href="#_283"/><use width="54" height="54" transform="matrix(-1, 0, 0, 1, 230.05, 181.42)" xlink:href="#_285"/><use width="54" height="54" transform="matrix(-1, 0, 0, 1, 474.19, 181.48)" xlink:href="#_295"/><rect class="cls-3" x="0.5" y="249.94" width="246.61" height="123.31"/><rect class="cls-3" x="0.56" y="249.94" width="82.2" height="123.31"/><path class="cls-10" d="M65.74,297.17H63.29v6.48H61v-6.48H58.49v-2h7.25Z" transform="translate(-50.52 -26.75)"/><path class="cls-10" d="M70.58,299.29a4.49,4.49,0,0,0-1.2.14,1.54,1.54,0,0,0-.81.48v3.74H66.29v-6.31h2.09v1.2a2.69,2.69,0,0,1,.83-1,1.94,1.94,0,0,1,1.08-.34h.29Z" transform="translate(-50.52 -26.75)"/><path class="cls-10" d="M71.28,296.81V294.9h2.28v1.91Zm0,6.84v-6.31h2.28v6.31Z" transform="translate(-50.52 -26.75)"/><path class="cls-10" d="M81.66,303.77a2.45,2.45,0,0,1-1.18-.27,1.83,1.83,0,0,1-.78-.78v3.49H77.42v-8.87h2v1a2.37,2.37,0,0,1,.82-.79,2.42,2.42,0,0,1,1.22-.28,2.69,2.69,0,0,1,1.16.25,2.6,2.6,0,0,1,.92.68,3.09,3.09,0,0,1,.61,1,3.64,3.64,0,0,1,.22,1.29,4.3,4.3,0,0,1-.2,1.32,3.53,3.53,0,0,1-.57,1,2.69,2.69,0,0,1-.85.69A2.4,2.4,0,0,1,81.66,303.77Zm-.79-1.92a1,1,0,0,0,.46-.1,1.31,1.31,0,0,0,.36-.3,1.64,1.64,0,0,0,.33-1,1.33,1.33,0,0,0-.34-1,1.19,1.19,0,0,0-.9-.36,1.28,1.28,0,0,0-1.08.65v1.09a1.68,1.68,0,0,0,.49.7A1,1,0,0,0,80.87,301.85Z" transform="translate(-50.52 -26.75)"/><path class="cls-10" d="M87,303.77a2.58,2.58,0,0,1-.88-.15,2.17,2.17,0,0,1-.7-.43,2,2,0,0,1-.63-1.44,1.84,1.84,0,0,1,.21-.88,2,2,0,0,1,.56-.68,2.61,2.61,0,0,1,.86-.45,3.8,3.8,0,0,1,1.1-.15,3,3,0,0,1,1.27.24v-.2a.84.84,0,0,0-.26-.66,1.31,1.31,0,0,0-.83-.21,2.91,2.91,0,0,0-1,.17,5.66,5.66,0,0,0-1,.51L85.12,298a5.1,5.1,0,0,1,2.84-.81,3.56,3.56,0,0,1,2.33.68,2.43,2.43,0,0,1,.82,2v1.22a.8.8,0,0,0,.09.45.44.44,0,0,0,.34.15v1.92l-.52.09-.44,0a1.6,1.6,0,0,1-.93-.22,1,1,0,0,1-.41-.65l0-.23a3,3,0,0,1-1,.82A2.53,2.53,0,0,1,87,303.77Zm.68-1.63a1.52,1.52,0,0,0,.42-.06,1.76,1.76,0,0,0,.39-.18.7.7,0,0,0,.21-.21.35.35,0,0,0,.09-.23V301a3,3,0,0,0-.45-.12,2.37,2.37,0,0,0-.43-.05,1.09,1.09,0,0,0-.69.21.59.59,0,0,0-.28.51.52.52,0,0,0,.21.43A.79.79,0,0,0,87.72,302.14Z" transform="translate(-50.52 -26.75)"/><path class="cls-10" d="M96.65,299.29a4.49,4.49,0,0,0-1.2.14,1.47,1.47,0,0,0-.8.48v3.74H92.37v-6.31h2.09v1.2a2.69,2.69,0,0,1,.83-1,1.91,1.91,0,0,1,1.07-.34h.29Z" transform="translate(-50.52 -26.75)"/><path class="cls-10" d="M99.47,300.5a3.45,3.45,0,0,1,.23-1.24,2.9,2.9,0,0,1,.67-1.05,3.19,3.19,0,0,1,1.08-.72,3.85,3.85,0,0,1,1.49-.27,3.61,3.61,0,0,1,1.93.48,3,3,0,0,1,1.15,1.24l-2.22.67a1,1,0,0,0-.87-.47,1,1,0,0,0-.79.36,1.68,1.68,0,0,0,0,2,1,1,0,0,0,.79.35,1,1,0,0,0,.87-.46l2.22.67a3,3,0,0,1-1.15,1.23,3.61,3.61,0,0,1-1.93.48,3.85,3.85,0,0,1-1.49-.27,3.19,3.19,0,0,1-1.08-.72,2.86,2.86,0,0,1-.67-1A3.49,3.49,0,0,1,99.47,300.5Z" transform="translate(-50.52 -26.75)"/><path class="cls-10" d="M109.79,303.77a3.81,3.81,0,0,1-1.49-.27,3.19,3.19,0,0,1-1.08-.72,3,3,0,0,1-.66-1,3.49,3.49,0,0,1-.22-1.24,3.45,3.45,0,0,1,.22-1.24,3,3,0,0,1,.66-1.05,3.19,3.19,0,0,1,1.08-.72,4.25,4.25,0,0,1,3,0,3.34,3.34,0,0,1,1.09.72,3,3,0,0,1,.66,1.05,3.68,3.68,0,0,1,.22,1.24,3.72,3.72,0,0,1-.22,1.24,3,3,0,0,1-.66,1,3.34,3.34,0,0,1-1.09.72A3.85,3.85,0,0,1,109.79,303.77Zm-1.11-3.27a1.45,1.45,0,0,0,.31,1,1,1,0,0,0,.8.36,1,1,0,0,0,.81-.36,1.75,1.75,0,0,0,0-2,1,1,0,0,0-.81-.36,1,1,0,0,0-.8.36A1.46,1.46,0,0,0,108.68,300.5Z" transform="translate(-50.52 -26.75)"/><path class="cls-10" d="M116,303.77a1.81,1.81,0,0,1-1.46-.58,2.5,2.5,0,0,1-.51-1.7v-4.15h2.28V301a1,1,0,0,0,.19.65.61.61,0,0,0,.51.22,1.23,1.23,0,0,0,1.09-.64v-3.87h2.28v3.79a.71.71,0,0,0,.1.45.4.4,0,0,0,.33.15v1.92a5,5,0,0,1-1,.12c-.77,0-1.22-.29-1.34-.87l0-.23a2.69,2.69,0,0,1-1.06.85A3.57,3.57,0,0,1,116,303.77Z" transform="translate(-50.52 -26.75)"/><path class="cls-10" d="M121.73,301.36v-2h3.76v2Z" transform="translate(-50.52 -26.75)"/><path class="cls-10" d="M80.77,309.3h2.28v6.25c0,.48.2.72.59.72a1.24,1.24,0,0,0,.31,0,1.44,1.44,0,0,0,.31-.13l.29,1.68a4,4,0,0,1-.92.3,4.79,4.79,0,0,1-1,.11,2,2,0,0,1-1.41-.47,1.78,1.78,0,0,1-.49-1.36Z" transform="translate(-50.52 -26.75)"/><path class="cls-10" d="M88.19,318.18a4,4,0,0,1-1.48-.26,3.3,3.3,0,0,1-1.09-.7,3.09,3.09,0,0,1-.66-1,3.35,3.35,0,0,1-.23-1.22,3.72,3.72,0,0,1,.22-1.29,3,3,0,0,1,.66-1.07,3.22,3.22,0,0,1,1.08-.73,3.86,3.86,0,0,1,1.5-.27,3.79,3.79,0,0,1,1.48.27,3.14,3.14,0,0,1,1.09.72,3,3,0,0,1,.66,1.05,3.45,3.45,0,0,1,.22,1.24,2.36,2.36,0,0,1,0,.37,3,3,0,0,1,0,.33H87.15a.89.89,0,0,0,.38.72,1.26,1.26,0,0,0,.73.22,1.53,1.53,0,0,0,.7-.16.87.87,0,0,0,.44-.47l1.93.55a3.11,3.11,0,0,1-1.18,1.24A3.75,3.75,0,0,1,88.19,318.18Zm1-3.95a1.16,1.16,0,0,0-.33-.72,1.07,1.07,0,0,0-1.42,0,1.16,1.16,0,0,0-.33.72Z" transform="translate(-50.52 -26.75)"/><path class="cls-10" d="M94.29,318.18a1.83,1.83,0,0,1-1.46-.59,2.47,2.47,0,0,1-.5-1.69v-4.16h2.28v3.64a1,1,0,0,0,.18.65.65.65,0,0,0,.51.23,1.32,1.32,0,0,0,.54-.12,1.36,1.36,0,0,0,.55-.53v-3.87h2.28v3.8a.83.83,0,0,0,.1.45.49.49,0,0,0,.34.15v1.92a5.16,5.16,0,0,1-1,.12c-.78,0-1.23-.3-1.35-.88l0-.23a2.51,2.51,0,0,1-1,.85A3.65,3.65,0,0,1,94.29,318.18Z" transform="translate(-50.52 -26.75)"/><path class="cls-10" d="M104.33,313.69a4.94,4.94,0,0,0-1.2.14,1.54,1.54,0,0,0-.81.48v3.75H100v-6.32h2.09v1.2a2.58,2.58,0,0,1,.83-1,1.88,1.88,0,0,1,1.08-.35,1.48,1.48,0,0,1,.29,0Z" transform="translate(-50.52 -26.75)"/><text class="cls-4" transform="translate(11.59 333.14)"><tspan class="cls-5">D</tspan><tspan x="8.53" y="0">ifficu</tspan><tspan class="cls-6" x="37.48" y="0">l</tspan><tspan class="cls-7" x="41.57" y="0">t</tspan><tspan x="46.57" y="0">é : </tspan></text><path class="cls-2" d="M83.19,376.12l3.5,2.23-.93-4.2,3.1-2.82L84.78,371,83.19,367,81.6,371l-4.08.37,3.1,2.82-.93,4.2Z" transform="translate(-50.52 -26.75)"/><use width="54" height="54" transform="matrix(-1, 0, 0, 1, 156.45, 306.27)" xlink:href="#_205"/><rect class="cls-3" x="247.11" y="249.94" width="246.61" height="123.31"/><rect class="cls-3" x="247.18" y="249.94" width="82.2" height="123.31"/><path class="cls-10" d="M309.78,303.65v-8.52h3.67a2.62,2.62,0,0,1,1.15.26,3,3,0,0,1,.9.67,3.06,3.06,0,0,1,.6.95,3,3,0,0,1,.22,1.08,3.18,3.18,0,0,1-.78,2,2.71,2.71,0,0,1-2,.91h-1.39v2.61Zm2.34-4.65h1.23a.54.54,0,0,0,.4-.2,1,1,0,0,0,.19-.71.9.9,0,0,0-.22-.72.63.63,0,0,0-.43-.2h-1.17Z" transform="translate(-50.52 -26.75)"/><path class="cls-10" d="M317.09,296.81V294.9h2.29v1.91Zm0,6.84v-6.31h2.29v6.31Z" transform="translate(-50.52 -26.75)"/><path class="cls-10" d="M320.48,294.9h2.28v6.25c0,.48.2.72.59.72a1.24,1.24,0,0,0,.31-.05,1.44,1.44,0,0,0,.31-.13l.29,1.68a5.23,5.23,0,0,1-.92.3,4.75,4.75,0,0,1-1,.1,2,2,0,0,1-1.41-.46,1.8,1.8,0,0,1-.49-1.36Z" transform="translate(-50.52 -26.75)"/><path class="cls-10" d="M327.89,303.77a4,4,0,0,1-1.47-.25,3.22,3.22,0,0,1-1.09-.71,2.89,2.89,0,0,1-.66-1,3.07,3.07,0,0,1-.23-1.21,3.68,3.68,0,0,1,.22-1.29,3,3,0,0,1,.66-1.07,3.22,3.22,0,0,1,1.08-.73,4.25,4.25,0,0,1,3,0,3.24,3.24,0,0,1,1.09.72,3,3,0,0,1,.66,1.05,3.45,3.45,0,0,1,.22,1.24c0,.12,0,.24,0,.36a2.48,2.48,0,0,1,0,.33h-4.43a.92.92,0,0,0,.37.73,1.31,1.31,0,0,0,.74.22,1.45,1.45,0,0,0,.7-.17.82.82,0,0,0,.44-.46l1.93.55a3,3,0,0,1-1.18,1.23A3.78,3.78,0,0,1,327.89,303.77Zm1-3.94a1.16,1.16,0,0,0-.33-.72,1,1,0,0,0-.71-.27,1,1,0,0,0-.71.27,1.16,1.16,0,0,0-.34.72Z" transform="translate(-50.52 -26.75)"/><path class="cls-10" d="M334.7,303.77a5,5,0,0,1-1.62-.27,3.75,3.75,0,0,1-1.35-.78l.78-1.37a6.41,6.41,0,0,0,1.14.61,2.63,2.63,0,0,0,1,.22q.48,0,.48-.3a.34.34,0,0,0-.19-.29,3.21,3.21,0,0,0-.72-.28,9.78,9.78,0,0,1-1.12-.37,3.06,3.06,0,0,1-.73-.41,1.23,1.23,0,0,1-.41-.48,1.46,1.46,0,0,1-.12-.62,2.16,2.16,0,0,1,.73-1.6,2.48,2.48,0,0,1,.81-.46,3.19,3.19,0,0,1,1-.16,4.8,4.8,0,0,1,1.33.18,3.29,3.29,0,0,1,1.26.73l-.86,1.37a6.18,6.18,0,0,0-1-.55,2.2,2.2,0,0,0-.75-.16.64.64,0,0,0-.33.08.26.26,0,0,0-.13.25.33.33,0,0,0,.19.29,3.17,3.17,0,0,0,.75.26,7.36,7.36,0,0,1,1.15.38,2.6,2.6,0,0,1,.75.43,1.29,1.29,0,0,1,.41.53,1.74,1.74,0,0,1,.12.67,2.07,2.07,0,0,1-.18.88,1.78,1.78,0,0,1-.53.66,2.27,2.27,0,0,1-.82.42A3.76,3.76,0,0,1,334.7,303.77Z" transform="translate(-50.52 -26.75)"/><path class="cls-10" d="M351,303.65H348.7V300.1a1,1,0,0,0-.18-.68.6.6,0,0,0-.45-.21,1,1,0,0,0-.59.26,1.49,1.49,0,0,0-.45.64v3.54h-2.28V300.1a1,1,0,0,0-.18-.68.6.6,0,0,0-.45-.21.91.91,0,0,0-.58.26,1.34,1.34,0,0,0-.45.64v3.54h-2.28v-6.31h2.05v.94a2.15,2.15,0,0,1,.92-.79,3.31,3.31,0,0,1,1.39-.27,2.33,2.33,0,0,1,.68.09,1.74,1.74,0,0,1,.49.25,1.25,1.25,0,0,1,.34.35,1.87,1.87,0,0,1,.2.4,2.25,2.25,0,0,1,.92-.8,3,3,0,0,1,1.32-.29,1.77,1.77,0,0,1,1,.24,1.55,1.55,0,0,1,.56.58,2.16,2.16,0,0,1,.25.74,5,5,0,0,1,.06.72Z" transform="translate(-50.52 -26.75)"/><path class="cls-10" d="M354,303.77a2.5,2.5,0,0,1-.88-.15,2.06,2.06,0,0,1-.7-.43,2,2,0,0,1-.63-1.44,2,2,0,0,1,.2-.88,2.18,2.18,0,0,1,.57-.68,2.56,2.56,0,0,1,.85-.45,3.85,3.85,0,0,1,1.1-.15,2.94,2.94,0,0,1,1.27.24v-.2a.83.83,0,0,0-.25-.66,1.35,1.35,0,0,0-.84-.21,2.86,2.86,0,0,0-1,.17,5,5,0,0,0-1,.51L352,298a5.1,5.1,0,0,1,2.84-.81,3.58,3.58,0,0,1,2.33.68,2.45,2.45,0,0,1,.81,2v1.22a.78.78,0,0,0,.1.45.42.42,0,0,0,.34.15v1.92l-.53.09-.43,0a1.6,1.6,0,0,1-.93-.22,1,1,0,0,1-.42-.65l-.05-.23a2.9,2.9,0,0,1-1,.82A2.52,2.52,0,0,1,354,303.77Zm.68-1.63a1.52,1.52,0,0,0,.42-.06,1.91,1.91,0,0,0,.38-.18.88.88,0,0,0,.22-.21.34.34,0,0,0,.08-.23V301a2.55,2.55,0,0,0-.44-.12,2.37,2.37,0,0,0-.43-.05,1.14,1.14,0,0,0-.7.21.6.6,0,0,0-.27.51.52.52,0,0,0,.21.43A.77.77,0,0,0,354.63,302.14Z" transform="translate(-50.52 -26.75)"/><path class="cls-10" d="M363.56,299.29a4.49,4.49,0,0,0-1.2.14,1.54,1.54,0,0,0-.81.48v3.74h-2.28v-6.31h2.09v1.2a2.71,2.71,0,0,1,.84-1,1.91,1.91,0,0,1,1.07-.34h.29Z" transform="translate(-50.52 -26.75)"/><path class="cls-10" d="M364.29,301.36v-2h3.76v2Z" transform="translate(-50.52 -26.75)"/><path class="cls-10" d="M315.4,314.9a3.45,3.45,0,0,1,.23-1.24,2.9,2.9,0,0,1,.67-1.05,3.19,3.19,0,0,1,1.08-.72,3.88,3.88,0,0,1,1.49-.27,3.61,3.61,0,0,1,1.93.48,3.13,3.13,0,0,1,1.16,1.24l-2.22.67a1,1,0,0,0-.88-.47,1,1,0,0,0-.79.36,1.68,1.68,0,0,0,0,2,1,1,0,0,0,.79.36,1,1,0,0,0,.88-.47l2.22.67a3.2,3.2,0,0,1-1.16,1.24,3.61,3.61,0,0,1-1.93.48,4.08,4.08,0,0,1-1.49-.27,3.19,3.19,0,0,1-1.08-.72,2.9,2.9,0,0,1-.67-1.05A3.45,3.45,0,0,1,315.4,314.9Z" transform="translate(-50.52 -26.75)"/><path class="cls-10" d="M329,318.06h-2.28V314.5a.91.91,0,0,0-.21-.67.7.7,0,0,0-.52-.21.73.73,0,0,0-.26.06l-.3.18a1.85,1.85,0,0,0-.28.28,1.41,1.41,0,0,0-.21.38v3.54h-2.29V309.3H325v3.38a2.21,2.21,0,0,1,.87-.79,2.66,2.66,0,0,1,1.21-.27,2.16,2.16,0,0,1,1.06.23,1.65,1.65,0,0,1,.6.57,2.18,2.18,0,0,1,.26.74,4.91,4.91,0,0,1,.06.74Z" transform="translate(-50.52 -26.75)"/><path class="cls-10" d="M332,318.18a2.5,2.5,0,0,1-.88-.16,2.06,2.06,0,0,1-.7-.43A1.84,1.84,0,0,1,330,317a1.8,1.8,0,0,1-.17-.8,2,2,0,0,1,.2-.88,2.18,2.18,0,0,1,.57-.68,2.75,2.75,0,0,1,.85-.45,3.85,3.85,0,0,1,1.1-.15,2.94,2.94,0,0,1,1.27.24V314a.8.8,0,0,0-.25-.66,1.28,1.28,0,0,0-.84-.22,2.86,2.86,0,0,0-1,.17,5,5,0,0,0-1,.51l-.66-1.41a5.1,5.1,0,0,1,2.84-.81,3.58,3.58,0,0,1,2.33.68,2.45,2.45,0,0,1,.81,2v1.23a.83.83,0,0,0,.1.45.49.49,0,0,0,.34.15v1.92l-.53.09-.43,0a1.59,1.59,0,0,1-.93-.23,1,1,0,0,1-.42-.65l-.05-.23a2.78,2.78,0,0,1-1,.82A2.53,2.53,0,0,1,332,318.18Zm.68-1.64a1.52,1.52,0,0,0,.42-.06,1.48,1.48,0,0,0,.38-.18.88.88,0,0,0,.22-.21.34.34,0,0,0,.08-.23v-.47a2.55,2.55,0,0,0-.44-.12,2.37,2.37,0,0,0-.43,0,1.14,1.14,0,0,0-.7.21.61.61,0,0,0-.27.51.55.55,0,0,0,.21.44A.82.82,0,0,0,332.67,316.54Z" transform="translate(-50.52 -26.75)"/><path class="cls-10" d="M343.66,318.06h-2.28V314.5a.91.91,0,0,0-.21-.67.66.66,0,0,0-.48-.21,1,1,0,0,0-.62.25,1.58,1.58,0,0,0-.48.65v3.54h-2.28v-6.32h2.06v.94a2.1,2.1,0,0,1,.94-.79,3.48,3.48,0,0,1,1.43-.27,1.91,1.91,0,0,1,1,.24,1.58,1.58,0,0,1,.57.58,2,2,0,0,1,.26.74,5,5,0,0,1,.06.72Z" transform="translate(-50.52 -26.75)"/><path class="cls-10" d="M349.19,317.71a7.62,7.62,0,0,1-1,.34,4.51,4.51,0,0,1-1.08.14,2.52,2.52,0,0,1-.73-.1,1.56,1.56,0,0,1-.6-.31,1.39,1.39,0,0,1-.41-.56,2.22,2.22,0,0,1-.15-.87v-2.89h-.78v-1.72h.78v-2h2.28v2h1.23v1.72h-1.23v2.09a.59.59,0,0,0,.13.44.52.52,0,0,0,.36.12,1.89,1.89,0,0,0,.38-.05,3.81,3.81,0,0,0,.44-.15Z" transform="translate(-50.52 -26.75)"/><path class="cls-10" d="M352.88,318.18a4,4,0,0,1-1.48-.26,3.15,3.15,0,0,1-1.08-.7,3,3,0,0,1-.67-1,3.35,3.35,0,0,1-.23-1.22,4,4,0,0,1,.22-1.29,3,3,0,0,1,.66-1.07,3.43,3.43,0,0,1,1.08-.73,4.27,4.27,0,0,1,3,0,3.19,3.19,0,0,1,1.08.72,3,3,0,0,1,.66,1.05,3.45,3.45,0,0,1,.22,1.24c0,.12,0,.24,0,.37s0,.23-.05.33h-4.42a.86.86,0,0,0,.37.72,1.28,1.28,0,0,0,.73.22,1.53,1.53,0,0,0,.7-.16.87.87,0,0,0,.44-.47l1.93.55a3,3,0,0,1-1.18,1.24A3.75,3.75,0,0,1,352.88,318.18Zm1-3.95a1.16,1.16,0,0,0-.34-.72,1,1,0,0,0-.71-.27,1,1,0,0,0-.71.27,1.16,1.16,0,0,0-.33.72Z" transform="translate(-50.52 -26.75)"/><path class="cls-10" d="M359.68,318.18a5.29,5.29,0,0,1-1.62-.27,3.72,3.72,0,0,1-1.34-.79l.78-1.37a5.49,5.49,0,0,0,1.13.61,2.67,2.67,0,0,0,1,.22q.48,0,.48-.3a.35.35,0,0,0-.18-.29,3.17,3.17,0,0,0-.73-.27c-.45-.13-.82-.26-1.12-.38a3.73,3.73,0,0,1-.73-.4,1.35,1.35,0,0,1-.4-.48,1.54,1.54,0,0,1-.12-.63,2.06,2.06,0,0,1,.19-.89,2.13,2.13,0,0,1,.53-.7,2.45,2.45,0,0,1,.82-.47,3.39,3.39,0,0,1,1-.16,4.78,4.78,0,0,1,1.32.18,3.55,3.55,0,0,1,1.27.73l-.87,1.37a6,6,0,0,0-1-.54,1.93,1.93,0,0,0-.74-.17.68.68,0,0,0-.34.08.27.27,0,0,0-.13.25.32.32,0,0,0,.19.29,3.3,3.3,0,0,0,.76.26,9.1,9.1,0,0,1,1.15.38,2.91,2.91,0,0,1,.75.43,1.33,1.33,0,0,1,.4.53,1.76,1.76,0,0,1,.12.68,2,2,0,0,1-.18.87,1.76,1.76,0,0,1-.52.66,2.24,2.24,0,0,1-.83.42A3.7,3.7,0,0,1,359.68,318.18Z" transform="translate(-50.52 -26.75)"/><text class="cls-4" transform="translate(258.21 333.14)"><tspan class="cls-5">D</tspan><tspan x="8.53" y="0">ifficu</tspan><tspan class="cls-6" x="37.48" y="0">l</tspan><tspan class="cls-7" x="41.57" y="0">t</tspan><tspan x="46.57" y="0">é : </tspan></text><path class="cls-2" d="M329.8,376.12l3.51,2.23-.93-4.2,3.09-2.82L331.4,371,329.8,367,328.21,371l-4.08.37,3.1,2.82-.93,4.2Z" transform="translate(-50.52 -26.75)"/><use width="54" height="54" transform="matrix(-1, 0, 0, 1, 403.87, 306.27)" xlink:href="#_205"/><use width="54" height="54" transform="matrix(-1, 0, 0, 1, 232.09, 306.27)" xlink:href="#_299"/><use width="54" height="54" transform="matrix(-1, 0, 0, 1, 475.7, 306.14)" xlink:href="#_301"/><rect class="cls-3" x="0.5" y="409.12" width="246.61" height="123.31"/><rect class="cls-3" x="0.56" y="409.12" width="82.2" height="123.31"/><text class="cls-4" transform="translate(13.84 436.08)">I<tspan class="cls-11" x="3.8" y="0">n</tspan><tspan class="cls-12" x="11.17" y="0">v</tspan><tspan x="17.71" y="0">erseu</tspan><tspan class="cls-13" x="50.99" y="0">r</tspan><tspan x="55.74" y="0"> </tspan><tspan x="8.06" y="14.4">rép</tspan><tspan class="cls-7" x="28.13" y="14.4">ét</tspan><tspan x="40.37" y="14.4">é</tspan></text><text class="cls-4" transform="translate(11.59 492.31)"><tspan class="cls-5">D</tspan><tspan x="8.53" y="0">ifficu</tspan><tspan class="cls-6" x="37.48" y="0">l</tspan><tspan class="cls-7" x="41.57" y="0">t</tspan><tspan x="46.57" y="0">é : </tspan></text><path class="cls-2" d="M92.19,535.3l3.5,2.22-.93-4.19,3.1-2.83-4.08-.36-1.59-4-1.59,4-4.08.36,3.1,2.83-.93,4.19Z" transform="translate(-50.52 -26.75)"/><use width="54" height="54" transform="matrix(-1, 0, 0, 1, 230.05, 466.7)" xlink:href="#_279"/><rect class="cls-3" x="247.11" y="409.12" width="246.61" height="123.31"/><rect class="cls-3" x="247.18" y="409.12" width="82.2" height="123.31"/><text class="cls-4" transform="translate(258.75 436.08)">Double tri</text><text class="cls-4" transform="translate(258.21 492.31)"><tspan class="cls-5">D</tspan><tspan x="8.53" y="0">ifficu</tspan><tspan class="cls-6" x="37.48" y="0">l</tspan><tspan class="cls-7" x="41.57" y="0">t</tspan><tspan x="46.57" y="0">é : </tspan></text><rect class="cls-3" x="0.5" y="533.84" width="246.61" height="123.31"/><rect class="cls-3" x="0.56" y="533.84" width="82.2" height="123.31"/><text class="cls-4" transform="translate(22.1 560.8)">Mirroi<tspan class="cls-13" x="34.46" y="0">r</tspan></text><text class="cls-4" transform="translate(11.59 617.03)"><tspan class="cls-5">D</tspan><tspan x="8.53" y="0">ifficu</tspan><tspan class="cls-6" x="37.48" y="0">l</tspan><tspan class="cls-7" x="41.57" y="0">t</tspan><tspan x="46.57" y="0">é : </tspan></text><rect class="cls-3" x="247.11" y="533.84" width="246.61" height="123.31"/><rect class="cls-3" x="247.18" y="533.84" width="82.2" height="123.31"/><text class="cls-4" transform="translate(261.68 560.8)"><tspan class="cls-11">É</tspan><tspan x="7.08" y="0">tal</tspan><tspan class="cls-7" x="23.6" y="0">e</tspan><tspan x="30.84" y="0">z-le</tspan></text><text class="cls-4" transform="translate(258.21 617.03)"><tspan class="cls-5">D</tspan><tspan x="8.53" y="0">ifficu</tspan><tspan class="cls-6" x="37.48" y="0">l</tspan><tspan class="cls-7" x="41.57" y="0">t</tspan><tspan x="46.57" y="0">é : </tspan></text><use width="54" height="54" transform="matrix(-1, 0, 0, 1, 476.66, 465.44)" xlink:href="#_283"/><use width="54" height="54" transform="matrix(-1, 0, 0, 1, 230.05, 590.03)" xlink:href="#_285"/><use width="54" height="54" transform="matrix(-1, 0, 0, 1, 473.39, 590.17)" xlink:href="#_295"/><rect class="cls-3" x="0.5" y="658.56" width="246.61" height="123.31"/><rect class="cls-3" x="0.56" y="658.56" width="82.2" height="123.31"/><text class="cls-14" transform="translate(10.46 685.52)">L<tspan class="cls-15" x="5.62" y="0">’</tspan><tspan class="cls-16" x="8.74" y="0">empileu</tspan><tspan class="cls-13" x="57.74" y="0">r</tspan></text><text class="cls-4" transform="translate(11.59 741.75)"><tspan class="cls-5">D</tspan><tspan x="8.53" y="0">ifficu</tspan><tspan class="cls-6" x="37.48" y="0">l</tspan><tspan class="cls-7" x="41.57" y="0">t</tspan><tspan x="46.57" y="0">é : </tspan></text><rect class="cls-3" x="247.11" y="658.56" width="246.61" height="123.31"/><rect class="cls-3" x="247.18" y="658.56" width="82.2" height="123.31"/><text class="cls-4" transform="translate(269.8 685.52)">Clar<tspan class="cls-7" x="24.73" y="0">t</tspan><tspan x="29.74" y="0">é</tspan></text><text class="cls-4" transform="translate(258.21 741.75)"><tspan class="cls-5">D</tspan><tspan x="8.53" y="0">ifficu</tspan><tspan class="cls-6" x="37.48" y="0">l</tspan><tspan class="cls-7" x="41.57" y="0">t</tspan><tspan x="46.57" y="0">é : </tspan></text><use width="54" height="54" transform="matrix(-1, 0, 0, 1, 232.09, 714.89)" xlink:href="#_299"/><use width="54" height="54" transform="matrix(-1, 0, 0, 1, 475.7, 714.75)" xlink:href="#_301"/><path class="cls-2" d="M92.19,660l3.5,2.22-.93-4.19,3.1-2.83-4.08-.36-1.59-4-1.59,4-4.08.36,3.1,2.83-.93,4.19Z" transform="translate(-50.52 -26.75)"/><path class="cls-2" d="M92.23,784.74l3.5,2.22-.93-4.19,3.1-2.83-4.08-.36-1.59-4-1.59,4-4.08.36,3.1,2.83L88.73,787Z" transform="translate(-50.52 -26.75)"/><path class="cls-2" d="M338.84,535.3l3.51,2.22-.93-4.19,3.09-2.83-4.07-.36-1.6-4-1.59,4-4.07.36,3.09,2.83-.93,4.19Z" transform="translate(-50.52 -26.75)"/><path class="cls-2" d="M338.71,660l3.5,2.22-.93-4.19,3.1-2.83-4.08-.36-1.59-4-1.59,4-4.08.36,3.1,2.83-.93,4.19Z" transform="translate(-50.52 -26.75)"/><path class="cls-2" d="M338.8,784.74l3.51,2.22-.93-4.19,3.09-2.83-4.07-.36-1.6-4-1.59,4-4.08.36,3.1,2.83L335.3,787Z" transform="translate(-50.52 -26.75)"/><use width="54" height="54" transform="matrix(-1, 0, 0, 1, 156.45, 465.44)" xlink:href="#_211"/><use width="54" height="54" transform="matrix(-1, 0, 0, 1, 403.06, 465.44)" xlink:href="#_211"/><use width="54" height="54" transform="matrix(-1, 0, 0, 1, 157.26, 590.3)" xlink:href="#_211"/><use width="54" height="54" transform="matrix(-1, 0, 0, 1, 403.87, 590.3)" xlink:href="#_211"/><use width="54" height="54" transform="matrix(-1, 0, 0, 1, 157.47, 715.15)" xlink:href="#_211"/><use width="54" height="54" transform="matrix(-1, 0, 0, 1, 403.87, 715.15)" xlink:href="#_211"/><path class="cls-2" d="M99.19,126.68l3.5,2.22-.93-4.19,3.1-2.82-4.08-.37-1.59-4-1.59,4-4.08.37,3.1,2.82-.93,4.19Z" transform="translate(-50.52 -26.75)"/><path class="cls-2" d="M345.8,126.68l3.51,2.22-.93-4.19,3.09-2.82-4.07-.37-1.6-4-1.59,4-4.08.37,3.1,2.82-.93,4.19Z" transform="translate(-50.52 -26.75)"/><path class="cls-2" d="M99.19,251.4l3.5,2.23-.93-4.2,3.1-2.82-4.08-.37-1.59-4-1.59,4-4.08.37,3.1,2.82-.93,4.2Z" transform="translate(-50.52 -26.75)"/><path class="cls-2" d="M345.8,251.4l3.51,2.23-.93-4.2,3.09-2.82-4.07-.37-1.6-4-1.59,4-4.08.37,3.1,2.82-.93,4.2Z" transform="translate(-50.52 -26.75)"/><path class="cls-2" d="M99.19,376.12l3.5,2.23-.93-4.2,3.1-2.82-4.08-.37L99.19,367,97.6,371l-4.08.37,3.1,2.82-.93,4.2Z" transform="translate(-50.52 -26.75)"/><path class="cls-2" d="M345.8,376.12l3.51,2.23-.93-4.2,3.09-2.82L347.4,371,345.8,367,344.21,371l-4.08.37,3.1,2.82-.93,4.2Z" transform="translate(-50.52 -26.75)"/><path class="cls-2" d="M108.19,535.3l3.5,2.22-.93-4.19,3.1-2.83-4.08-.36-1.59-4-1.59,4-4.08.36,3.1,2.83-.93,4.19Z" transform="translate(-50.52 -26.75)"/><path class="cls-2" d="M108.19,660l3.5,2.22-.93-4.19,3.1-2.83-4.08-.36-1.59-4-1.59,4-4.08.36,3.1,2.83-.93,4.19Z" transform="translate(-50.52 -26.75)"/><path class="cls-2" d="M108.23,784.74l3.5,2.22-.93-4.19,3.1-2.83-4.08-.36-1.59-4-1.59,4-4.08.36,3.1,2.83-.93,4.19Z" transform="translate(-50.52 -26.75)"/><path class="cls-2" d="M354.84,535.3l3.51,2.22-.93-4.19,3.09-2.83-4.07-.36-1.6-4-1.59,4-4.07.36,3.09,2.83-.93,4.19Z" transform="translate(-50.52 -26.75)"/><path class="cls-2" d="M354.71,660l3.5,2.22-.93-4.19,3.1-2.83-4.08-.36-1.59-4-1.59,4-4.08.36,3.1,2.83-.93,4.19Z" transform="translate(-50.52 -26.75)"/><path class="cls-2" d="M354.8,784.74l3.51,2.22-.93-4.19,3.09-2.83-4.07-.36-1.6-4-1.59,4-4.08.36,3.1,2.83L351.3,787Z" transform="translate(-50.52 -26.75)"/><path class="cls-2" d="M76.19,535.3l3.5,2.22-.93-4.19,3.1-2.83-4.08-.36-1.59-4-1.59,4-4.08.36,3.1,2.83-.93,4.19Z" transform="translate(-50.52 -26.75)"/><path class="cls-2" d="M76.19,660l3.5,2.22-.93-4.19,3.1-2.83-4.08-.36-1.59-4-1.59,4-4.08.36,3.1,2.83-.93,4.19Z" transform="translate(-50.52 -26.75)"/><path class="cls-2" d="M76.23,784.74l3.5,2.22-.93-4.19,3.1-2.83-4.08-.36-1.59-4-1.59,4-4.08.36,3.1,2.83L72.73,787Z" transform="translate(-50.52 -26.75)"/><path class="cls-2" d="M322.84,535.3l3.51,2.22-.93-4.19,3.09-2.83-4.07-.36-1.6-4-1.59,4-4.07.36,3.09,2.83-.93,4.19Z" transform="translate(-50.52 -26.75)"/><path class="cls-2" d="M322.71,660l3.5,2.22-.93-4.19,3.1-2.83-4.08-.36-1.59-4-1.59,4-4.08.36,3.1,2.83-.93,4.19Z" transform="translate(-50.52 -26.75)"/><path class="cls-2" d="M322.8,784.74l3.51,2.22-.93-4.19,3.09-2.83-4.07-.36-1.6-4-1.59,4-4.08.36,3.1,2.83L319.3,787Z" transform="translate(-50.52 -26.75)"/></svg>