<?xml version="1.0" encoding="utf-8"?>
<!-- Generator: Adobe Illustrator 25.2.3, SVG Export Plug-In . SVG Version: 6.00 Build 0)  -->
<svg version="1.1" xmlns="http://www.w3.org/2000/svg" xmlns:xlink="http://www.w3.org/1999/xlink" x="0px" y="0px"
	 viewBox="0 0 1599.534 288.794" enable-background="new 0 0 1599.534 288.794" xml:space="preserve">
<g id="Fond" display="none">
	
		<rect x="-3285.04" y="-3975.162" display="inline" fill="#EDEDED" stroke="#FFFFFF" stroke-width="80" width="9624.001" height="7282.028"/>
</g>
<g id="Aide" display="none">
</g>
<g id="Infos" display="none">
</g>
<g id="Signature">
	<rect x="2.663" y="2.664" fill="#F6AF8F" stroke="#E94E1B" stroke-width="2.5" width="173.829" height="283.465"/>
	<g>
		<path fill="#FBFBFB" d="M95.124,182.487H55.878v-8.095h39.246c8.015,0,14.085,1.922,18.213,5.765
			c4.13,3.844,6.193,9.485,6.193,16.925c0,7.523-2.063,13.184-6.193,16.986c-4.128,3.802-10.198,5.703-18.213,5.703H55.878v-8.095
			h39.246c5.807,0,10.118-1.185,12.939-3.557c2.82-2.371,4.231-6.05,4.231-11.038c0-4.906-1.411-8.564-4.231-10.977
			C105.243,183.694,100.931,182.487,95.124,182.487z"/>
		<path fill="#FBFBFB" d="M118.182,158.45H55.878v-36.303h6.99v28.208h22.076V125.09h6.991v25.265h26.246V158.45z"/>
		<path fill="#FBFBFB" d="M118.182,110.128H55.878V92.345c0-7.031,1.717-12.406,5.15-16.128c3.435-3.72,8.26-5.58,14.473-5.58h3.312
			c4.415,0,8.156,0.879,11.222,2.637c3.066,1.759,5.295,4.273,6.685,7.543l21.463-11.897v9.076L98.191,88.789
			c0,1.554-0.142,3.065-0.43,4.537c-0.285,1.473-0.715,2.986-1.287,4.538l-6.133-1.227c0.328-1.472,0.552-2.698,0.675-3.679
			c0.123-0.981,0.184-1.921,0.184-2.821c0-3.679-1.062-6.5-3.188-8.462c-2.125-1.963-5.191-2.943-9.198-2.943h-3.312
			c-4.415,0-7.623,1.226-9.628,3.679c-2.002,2.453-3.005,6.378-3.005,11.774v7.849h55.313V110.128z"/>
	</g>
	<rect x="176.492" y="2.665" fill="#FFFFFF" stroke="#E94E1B" stroke-width="2.5" width="1420.38" height="141.732"/>
	<g>
		<path d="M256.111,80.565v-43.1h6.6v59.399h-5.1l-1.301-4.4c-1.334,1.801-2.967,3.168-4.9,4.101s-4.1,1.399-6.5,1.399
			c-4.734,0-8.384-1.433-10.949-4.3c-2.567-2.865-3.85-6.766-3.85-11.7V70.465c0-5,1.35-8.916,4.049-11.75
			c2.701-2.833,6.483-4.25,11.351-4.25c1.2,0,2.383,0.117,3.55,0.35c1.166,0.234,2.383,0.584,3.65,1.05l-1,5
			c-1.2-0.266-2.2-0.45-3-0.55c-0.801-0.1-1.567-0.15-2.301-0.15c-3.199,0-5.617,0.867-7.25,2.601c-1.634,1.734-2.449,4.3-2.449,7.7
			v11.499c0,3.335,0.783,5.867,2.35,7.601c1.566,1.734,3.85,2.6,6.85,2.6c3.201,0,5.701-1.032,7.5-3.1
			C255.21,86.999,256.111,84.165,256.111,80.565z"/>
		<path d="M275.11,81.964v-11.1c0-5.133,1.415-9.149,4.25-12.05c2.833-2.9,6.851-4.35,12.05-4.35c5.2,0,9.216,1.449,12.051,4.35
			c2.832,2.9,4.25,6.917,4.25,12.05c0,1.8-0.018,3.334-0.051,4.6c-0.034,1.268-0.117,2.468-0.25,3.601H281.71v2.899
			c0,3.535,0.85,6.117,2.549,7.75c1.701,1.635,4.416,2.45,8.15,2.45c1.333,0,2.883-0.232,4.65-0.7c1.766-0.465,3.815-1.165,6.15-2.1
			l2.5,5.5c-2.535,1.135-4.835,1.935-6.9,2.4c-2.067,0.465-4.2,0.699-6.4,0.699c-5.734,0-10.05-1.332-12.949-4
			C276.56,91.299,275.11,87.299,275.11,81.964z M301.11,73.365v-2.5c0-3.532-0.835-6.216-2.5-8.05c-1.667-1.833-4.067-2.75-7.2-2.75
			c-3.135,0-5.534,0.917-7.199,2.75c-1.668,1.834-2.5,4.518-2.5,8.05v2.5H301.11z"/>
		<path d="M360.609,54.265c2.801,0,5.2,0.534,7.2,1.6c2,1.067,3.6,2.7,4.801,4.9c1.465-2.133,3.281-3.75,5.449-4.851
			c2.166-1.1,4.582-1.649,7.25-1.649c4.801,0,8.416,1.584,10.85,4.75c2.434,3.167,3.65,7.85,3.65,14.05v23.8h-12v-23.8
			c0-2.933-0.467-5.065-1.4-6.4c-0.934-1.332-2.4-2-4.4-2c-2.133,0-3.816,0.734-5.049,2.2c-1.234,1.468-1.85,3.534-1.85,6.2v23.8
			h-12.001v-23.8c0-2.933-0.467-5.065-1.4-6.4c-0.934-1.332-2.399-2-4.399-2c-2.134,0-3.817,0.734-5.05,2.2
			c-1.234,1.468-1.85,3.534-1.85,6.2v23.8h-12v-41.5h8.899l1.3,4.601c1.466-1.866,3.2-3.283,5.2-4.25
			C355.809,54.749,358.075,54.265,360.609,54.265z"/>
		<path d="M412.507,66.165l-3.5-8.399c2.666-1.133,5.315-2,7.95-2.601c2.633-0.6,5.216-0.899,7.75-0.899
			c5.532,0,9.85,1.35,12.95,4.05c3.1,2.7,4.649,6.484,4.649,11.35v27.2h-8.899l-1.301-4.5c-1.399,1.8-3.149,3.185-5.25,4.15
			c-2.1,0.965-4.417,1.449-6.949,1.449c-4.2,0-7.484-1.05-9.851-3.149c-2.367-2.101-3.55-5.05-3.55-8.851c0-5.199,2-9.1,6-11.699
			c4-2.601,10.033-3.966,18.1-4.101v-0.5c0-2-0.6-3.532-1.8-4.6c-1.2-1.065-2.967-1.6-5.3-1.6c-1.734,0-3.484,0.217-5.25,0.649
			C416.49,64.549,414.573,65.232,412.507,66.165z M422.807,88.665c2.466,0,4.383-0.766,5.75-2.3c1.366-1.533,2.016-3.7,1.95-6.5
			v-2.6c-4.667,0.199-7.867,0.8-9.6,1.8c-1.734,1-2.601,2.634-2.601,4.899c0,1.468,0.4,2.617,1.2,3.45
			C420.307,88.249,421.408,88.665,422.807,88.665z"/>
		<path d="M458.506,45.665h9.1v9.7h7.4v9.7h-7.4v16.3c0,1.935,0.383,3.35,1.15,4.25c0.766,0.9,2.05,1.35,3.85,1.35
			c0.533,0,0.95,0,1.25,0c0.301,0,0.616-0.032,0.95-0.1l1,10.5c-0.734,0.133-1.45,0.216-2.149,0.25
			c-0.7,0.033-1.385,0.05-2.051,0.05c-5.134,0-9.084-1.415-11.85-4.25c-2.768-2.833-4.15-6.75-4.15-11.75v-16.6h-7.399v-9.7h2
			c2.865,0,4.883-0.75,6.05-2.25C457.422,51.615,458.172,49.132,458.506,45.665z"/>
		<path d="M484.106,96.865V37.465h12v20.5c1.399-1.2,2.966-2.116,4.7-2.75c1.732-0.633,3.633-0.95,5.699-0.95
			c5,0,8.783,1.617,11.351,4.85c2.565,3.234,3.85,7.885,3.85,13.95v23.8h-12v-23.8c0-2.933-0.484-5.065-1.45-6.4
			c-0.967-1.332-2.55-2-4.75-2c-2.334,0-4.149,0.718-5.449,2.15c-1.301,1.435-1.95,3.45-1.95,6.05v24H484.106z"/>
		<path d="M530.106,79.365v-6.5c0-5.933,1.633-10.516,4.899-13.75c3.266-3.232,7.9-4.85,13.9-4.85c5.933,0,10.55,1.667,13.85,5
			c3.301,3.334,4.95,8.034,4.95,14.1c0,1.2-0.017,2.284-0.05,3.25c-0.034,0.967-0.117,2.217-0.25,3.75h-25.4
			c0,2.867,0.7,4.984,2.101,6.35c1.399,1.367,3.565,2.051,6.5,2.051c1.532,0,3.333-0.233,5.399-0.7
			c2.066-0.466,3.833-1.033,5.301-1.7l3.899,8.4c-2.334,1.134-4.717,1.949-7.149,2.449c-2.435,0.5-5.218,0.75-8.351,0.75
			c-6.334,0-11.185-1.6-14.55-4.8C531.788,89.964,530.106,85.365,530.106,79.365z M544.205,50.365l-4.8-7.399l15-10.6l5.5,8.6
			L544.205,50.365z M555.906,71.965v-0.4c0-2.933-0.584-5.1-1.75-6.5c-1.167-1.4-2.917-2.1-5.25-2.1
			c-2.268,0-3.984,0.717-5.15,2.149c-1.167,1.435-1.75,3.585-1.75,6.45v0.4H555.906z"/>
		<path d="M598.605,54.265c2.8,0,5.199,0.534,7.199,1.6c2,1.067,3.601,2.7,4.801,4.9c1.465-2.133,3.282-3.75,5.449-4.851
			c2.166-1.1,4.583-1.649,7.25-1.649c4.801,0,8.416,1.584,10.851,4.75c2.433,3.167,3.649,7.85,3.649,14.05v23.8h-12v-23.8
			c0-2.933-0.467-5.065-1.399-6.4c-0.935-1.332-2.4-2-4.4-2c-2.134,0-3.817,0.734-5.05,2.2c-1.234,1.468-1.85,3.534-1.85,6.2v23.8
			h-12v-23.8c0-2.933-0.468-5.065-1.4-6.4c-0.935-1.332-2.4-2-4.4-2c-2.134,0-3.816,0.734-5.05,2.2
			c-1.234,1.468-1.85,3.534-1.85,6.2v23.8h-12v-41.5h8.899l1.301,4.601c1.465-1.866,3.199-3.283,5.199-4.25
			C593.804,54.749,596.07,54.265,598.605,54.265z"/>
		<path d="M650.503,66.165l-3.5-8.399c2.666-1.133,5.315-2,7.95-2.601c2.633-0.6,5.216-0.899,7.75-0.899
			c5.532,0,9.85,1.35,12.95,4.05c3.1,2.7,4.649,6.484,4.649,11.35v27.2h-8.899l-1.301-4.5c-1.399,1.8-3.149,3.185-5.25,4.15
			c-2.1,0.965-4.417,1.449-6.949,1.449c-4.2,0-7.484-1.05-9.851-3.149c-2.367-2.101-3.55-5.05-3.55-8.851c0-5.199,2-9.1,6-11.699
			c4-2.601,10.033-3.966,18.1-4.101v-0.5c0-2-0.6-3.532-1.8-4.6c-1.2-1.065-2.967-1.6-5.3-1.6c-1.734,0-3.484,0.217-5.25,0.649
			C654.486,64.549,652.569,65.232,650.503,66.165z M660.803,88.665c2.466,0,4.383-0.766,5.75-2.3c1.366-1.533,2.016-3.7,1.95-6.5
			v-2.6c-4.667,0.199-7.867,0.8-9.6,1.8c-1.734,1-2.601,2.634-2.601,4.899c0,1.468,0.4,2.617,1.2,3.45
			C658.303,88.249,659.404,88.665,660.803,88.665z"/>
		<path d="M696.502,45.665h9.1v9.7h7.4v9.7h-7.4v16.3c0,1.935,0.383,3.35,1.15,4.25c0.766,0.9,2.05,1.35,3.85,1.35
			c0.533,0,0.95,0,1.25,0c0.301,0,0.616-0.032,0.95-0.1l1,10.5c-0.734,0.133-1.45,0.216-2.149,0.25
			c-0.7,0.033-1.385,0.05-2.051,0.05c-5.134,0-9.084-1.415-11.85-4.25c-2.768-2.833-4.15-6.75-4.15-11.75v-16.6h-7.399v-9.7h2
			c2.865,0,4.883-0.75,6.05-2.25C695.418,51.615,696.168,49.132,696.502,45.665z"/>
		<path d="M728.102,50.565l-8.9-8.9l8.9-8.899l8.899,8.899L728.102,50.565z M722.102,96.865v-41.5h12v41.5H722.102z"/>
		<path d="M743.501,80.365v-7.1c0-5.666,1.415-10.25,4.25-13.75c2.833-3.5,6.716-5.25,11.649-5.25c2.666,0,4.966,0.467,6.9,1.399
			c1.933,0.935,3.533,2.335,4.8,4.2l1.3-4.5h8.9v59.5h-12v-42c0-2.532-0.617-4.532-1.85-6c-1.234-1.466-2.885-2.2-4.95-2.2
			c-2.335,0-4.085,0.718-5.25,2.15c-1.167,1.435-1.75,3.584-1.75,6.45v7.1c0,2.534,0.466,4.417,1.399,5.65
			c0.934,1.234,2.4,1.85,4.4,1.85c0.533,0,1.065-0.05,1.6-0.15c0.533-0.1,1.2-0.25,2-0.449l2.5,8.5
			c-1.399,0.8-2.8,1.365-4.199,1.699c-1.4,0.333-2.867,0.5-4.4,0.5c-4.867,0-8.635-1.565-11.3-4.699
			C744.834,90.132,743.501,85.832,743.501,80.365z"/>
		<path d="M817.299,79.365v-24h12v41.5H820.4l-1.301-4.5c-1.467,1.867-3.234,3.268-5.3,4.2c-2.067,0.933-4.367,1.399-6.899,1.399
			c-5,0-8.785-1.615-11.351-4.85c-2.567-3.232-3.85-7.883-3.85-13.95v-23.8h12v23.8c0,2.935,0.482,5.067,1.45,6.4
			c0.965,1.334,2.55,2,4.75,2c2.332,0,4.149-0.716,5.449-2.15C816.65,83.982,817.299,81.964,817.299,79.365z"/>
		<path d="M838.7,79.365v-6.5c0-5.933,1.633-10.516,4.899-13.75c3.266-3.232,7.9-4.85,13.9-4.85c5.933,0,10.55,1.667,13.85,5
			c3.301,3.334,4.95,8.034,4.95,14.1c0,1.2-0.017,2.284-0.05,3.25c-0.034,0.967-0.117,2.217-0.25,3.75h-25.4
			c0,2.867,0.7,4.984,2.101,6.35c1.399,1.367,3.565,2.051,6.5,2.051c1.532,0,3.333-0.233,5.399-0.7
			c2.066-0.466,3.833-1.033,5.301-1.7l3.899,8.4c-2.334,1.134-4.717,1.949-7.149,2.449c-2.435,0.5-5.218,0.75-8.351,0.75
			c-6.334,0-11.185-1.6-14.55-4.8C840.382,89.964,838.7,85.365,838.7,79.365z M864.499,71.965v-0.4c0-2.933-0.584-5.1-1.75-6.5
			c-1.167-1.4-2.917-2.1-5.25-2.1c-2.268,0-3.984,0.717-5.15,2.149c-1.167,1.435-1.75,3.585-1.75,6.45v0.4H864.499z"/>
		<path d="M900.697,81.964v-11.1c0-5.133,1.416-9.149,4.25-12.05c2.833-2.9,6.851-4.35,12.051-4.35c5.199,0,9.215,1.449,12.05,4.35
			c2.833,2.9,4.25,6.917,4.25,12.05c0,1.8-0.018,3.334-0.05,4.6c-0.035,1.268-0.117,2.468-0.25,3.601h-25.7v2.899
			c0,3.535,0.85,6.117,2.55,7.75c1.7,1.635,4.416,2.45,8.15,2.45c1.332,0,2.883-0.232,4.649-0.7c1.766-0.465,3.815-1.165,6.15-2.1
			l2.5,5.5c-2.534,1.135-4.835,1.935-6.9,2.4c-2.067,0.465-4.2,0.699-6.399,0.699c-5.734,0-10.051-1.332-12.95-4
			C902.147,91.299,900.697,87.299,900.697,81.964z M926.697,73.365v-2.5c0-3.532-0.834-6.216-2.5-8.05
			c-1.667-1.833-4.066-2.75-7.199-2.75c-3.135,0-5.535,0.917-7.2,2.75c-1.667,1.834-2.5,4.518-2.5,8.05v2.5H926.697z"/>
		<path d="M950.396,46.065h4.9v9.5h8.4v5.6h-8.4v23c0,2.601,0.45,4.5,1.35,5.7c0.9,1.2,2.351,1.8,4.351,1.8
			c0.333,0,0.732-0.016,1.2-0.05c0.465-0.033,0.933-0.083,1.399-0.15l0.601,5.9c-0.535,0.065-1.117,0.115-1.75,0.15
			c-0.635,0.032-1.218,0.05-1.75,0.05c-4,0-7-1.116-9-3.351c-2-2.232-3-5.582-3-10.05v-23h-8.4v-5.6c3.865,0,6.416-0.65,7.65-1.95
			C949.179,52.315,949.996,49.799,950.396,46.065z"/>
		<path d="M1019.095,80.565v-43.1h6.601v59.399h-5.101l-1.3-4.4c-1.334,1.801-2.967,3.168-4.899,4.101
			c-1.935,0.933-4.101,1.399-6.5,1.399c-4.734,0-8.385-1.433-10.95-4.3c-2.567-2.865-3.851-6.766-3.851-11.7V70.465
			c0-5,1.351-8.916,4.051-11.75c2.699-2.833,6.482-4.25,11.35-4.25c1.2,0,2.383,0.117,3.55,0.35c1.166,0.234,2.383,0.584,3.65,1.05
			l-1,5c-1.2-0.266-2.2-0.45-3-0.55s-1.567-0.15-2.3-0.15c-3.2,0-5.617,0.867-7.25,2.601c-1.635,1.734-2.45,4.3-2.45,7.7v11.499
			c0,3.335,0.782,5.867,2.35,7.601c1.565,1.734,3.851,2.6,6.851,2.6c3.199,0,5.699-1.032,7.5-3.1
			C1018.196,86.999,1019.095,84.165,1019.095,80.565z"/>
		<path d="M1042.295,56.365l-4.7-1.399c0.733-3.266,1.416-6.416,2.051-9.45c0.633-3.033,1.282-6.25,1.949-9.65l6.9,1.4
			c-1,3.399-2,6.634-3,9.7S1043.428,53.165,1042.295,56.365z"/>
		<path d="M1064.294,50.565l-8.9-8.9l8.9-8.899l8.899,8.899L1064.294,50.565z M1058.294,96.865v-41.5h12v41.5H1058.294z"/>
		<path d="M1090.593,55.365l1.301,4.5c1.465-1.865,3.232-3.266,5.3-4.2c2.065-0.933,4.365-1.399,6.899-1.399
			c5,0,8.783,1.617,11.351,4.85c2.565,3.234,3.85,7.885,3.85,13.95v23.8h-12v-23.8c0-2.933-0.484-5.065-1.45-6.4
			c-0.967-1.332-2.55-2-4.75-2c-2.334,0-4.149,0.718-5.449,2.15c-1.301,1.435-1.95,3.45-1.95,6.05v24h-12v-41.5H1090.593z"/>
		<path d="M1132.993,55.365v-1.5c0-5.2,1.615-9.415,4.85-12.649c3.233-3.233,7.65-4.85,13.25-4.85c0.801,0,1.666,0.05,2.601,0.15
			c0.933,0.1,1.766,0.25,2.5,0.45l-1.601,10.3c-0.534-0.133-1.066-0.216-1.6-0.25c-0.534-0.033-1.034-0.05-1.5-0.05
			c-2.135,0-3.75,0.584-4.85,1.75c-1.101,1.167-1.65,2.884-1.65,5.149v1.5h9.4v9.7h-9.4v31.8h-12v-31.8h-7.4v-9.7H1132.993z"/>
		<path d="M1160.592,79.365v-6.5c0-5.933,1.633-10.516,4.899-13.75c3.266-3.232,7.9-4.85,13.9-4.85s10.633,1.617,13.9,4.85
			c3.266,3.234,4.899,7.817,4.899,13.75v6.5c0,5.935-1.634,10.518-4.899,13.75c-3.268,3.234-7.9,4.85-13.9,4.85
			s-10.635-1.615-13.9-4.85C1162.225,89.882,1160.592,85.299,1160.592,79.365z M1186.292,79.665v-7.1c0-3-0.567-5.216-1.7-6.65
			c-1.135-1.433-2.867-2.149-5.2-2.149c-2.334,0-4.067,0.717-5.2,2.149c-1.134,1.435-1.7,3.65-1.7,6.65v7.1
			c0,3.067,0.551,5.3,1.65,6.7s2.85,2.1,5.25,2.1s4.15-0.699,5.25-2.1S1186.292,82.732,1186.292,79.665z"/>
		<path d="M1216.492,55.365l2,6.7c1.333-2.466,3.033-4.333,5.101-5.6c2.065-1.266,4.433-1.9,7.1-1.9c0.733,0,1.5,0.05,2.3,0.15
			c0.801,0.1,1.633,0.25,2.5,0.449l-2,11.601c-0.867-0.133-1.6-0.233-2.199-0.3c-0.601-0.066-1.2-0.101-1.801-0.101
			c-3.066,0-5.484,1-7.25,3c-1.767,2-2.649,4.867-2.649,8.6v18.9h-12v-41.5H1216.492z"/>
		<path d="M1263.492,54.265c2.8,0,5.199,0.534,7.199,1.6c2,1.067,3.601,2.7,4.801,4.9c1.465-2.133,3.282-3.75,5.449-4.851
			c2.166-1.1,4.583-1.649,7.25-1.649c4.801,0,8.416,1.584,10.851,4.75c2.433,3.167,3.649,7.85,3.649,14.05v23.8h-12v-23.8
			c0-2.933-0.467-5.065-1.399-6.4c-0.935-1.332-2.4-2-4.4-2c-2.134,0-3.817,0.734-5.05,2.2c-1.234,1.468-1.85,3.534-1.85,6.2v23.8
			h-12v-23.8c0-2.933-0.468-5.065-1.4-6.4c-0.935-1.332-2.4-2-4.4-2c-2.134,0-3.816,0.734-5.05,2.2
			c-1.234,1.468-1.85,3.534-1.85,6.2v23.8h-12v-41.5h8.899l1.301,4.601c1.465-1.866,3.199-3.283,5.199-4.25
			C1258.691,54.749,1260.956,54.265,1263.492,54.265z"/>
		<path d="M1315.39,66.165l-3.5-8.399c2.666-1.133,5.315-2,7.95-2.601c2.633-0.6,5.216-0.899,7.75-0.899
			c5.532,0,9.85,1.35,12.95,4.05c3.1,2.7,4.649,6.484,4.649,11.35v27.2h-8.899l-1.301-4.5c-1.399,1.8-3.149,3.185-5.25,4.15
			c-2.1,0.965-4.417,1.449-6.949,1.449c-4.2,0-7.484-1.05-9.851-3.149c-2.367-2.101-3.55-5.05-3.55-8.851c0-5.199,2-9.1,6-11.699
			c4-2.601,10.033-3.966,18.1-4.101v-0.5c0-2-0.6-3.532-1.8-4.6c-1.2-1.065-2.967-1.6-5.3-1.6c-1.734,0-3.484,0.217-5.25,0.649
			C1319.372,64.549,1317.455,65.232,1315.39,66.165z M1325.69,88.665c2.466,0,4.383-0.766,5.75-2.3c1.366-1.533,2.016-3.7,1.95-6.5
			v-2.6c-4.667,0.199-7.867,0.8-9.6,1.8c-1.734,1-2.601,2.634-2.601,4.899c0,1.468,0.4,2.617,1.2,3.45
			C1323.19,88.249,1324.29,88.665,1325.69,88.665z"/>
		<path d="M1361.389,45.665h9.1v9.7h7.4v9.7h-7.4v16.3c0,1.935,0.383,3.35,1.15,4.25c0.766,0.9,2.05,1.35,3.85,1.35
			c0.533,0,0.95,0,1.25,0c0.301,0,0.616-0.032,0.95-0.1l1,10.5c-0.734,0.133-1.45,0.216-2.149,0.25
			c-0.7,0.033-1.385,0.05-2.051,0.05c-5.134,0-9.084-1.415-11.85-4.25c-2.768-2.833-4.15-6.75-4.15-11.75v-16.6h-7.399v-9.7h2
			c2.865,0,4.883-0.75,6.05-2.25C1360.305,51.615,1361.055,49.132,1361.389,45.665z"/>
		<path d="M1392.989,50.565l-8.9-8.9l8.9-8.899l8.899,8.899L1392.989,50.565z M1386.989,96.865v-41.5h12v41.5H1386.989z"/>
		<path d="M1408.388,80.365v-7.1c0-5.666,1.415-10.25,4.25-13.75c2.833-3.5,6.716-5.25,11.649-5.25c2.666,0,4.966,0.467,6.9,1.399
			c1.933,0.935,3.533,2.335,4.8,4.2l1.3-4.5h8.9v59.5h-12v-42c0-2.532-0.617-4.532-1.85-6c-1.234-1.466-2.885-2.2-4.95-2.2
			c-2.335,0-4.085,0.718-5.25,2.15c-1.167,1.435-1.75,3.584-1.75,6.45v7.1c0,2.534,0.466,4.417,1.399,5.65
			c0.934,1.234,2.4,1.85,4.4,1.85c0.533,0,1.065-0.05,1.6-0.15c0.533-0.1,1.2-0.25,2-0.449l2.5,8.5
			c-1.399,0.8-2.8,1.365-4.199,1.699c-1.4,0.333-2.867,0.5-4.4,0.5c-4.867,0-8.635-1.565-11.3-4.699
			C1409.721,90.132,1408.388,85.832,1408.388,80.365z"/>
		<path d="M1482.186,79.365v-24h12v41.5h-8.899l-1.301-4.5c-1.467,1.867-3.234,3.268-5.3,4.2c-2.067,0.933-4.367,1.399-6.899,1.399
			c-5,0-8.785-1.615-11.351-4.85c-2.567-3.232-3.85-7.883-3.85-13.95v-23.8h12v23.8c0,2.935,0.482,5.067,1.45,6.4
			c0.965,1.334,2.55,2,4.75,2c2.332,0,4.149-0.716,5.449-2.15C1481.536,83.982,1482.186,81.964,1482.186,79.365z"/>
		<path d="M1503.585,79.365v-6.5c0-5.933,1.633-10.516,4.899-13.75c3.266-3.232,7.9-4.85,13.9-4.85c5.933,0,10.55,1.667,13.85,5
			c3.301,3.334,4.95,8.034,4.95,14.1c0,1.2-0.017,2.284-0.05,3.25c-0.034,0.967-0.117,2.217-0.25,3.75h-25.4
			c0,2.867,0.7,4.984,2.101,6.35c1.399,1.367,3.565,2.051,6.5,2.051c1.532,0,3.333-0.233,5.399-0.7
			c2.066-0.466,3.833-1.033,5.301-1.7l3.899,8.4c-2.334,1.134-4.717,1.949-7.149,2.449c-2.435,0.5-5.218,0.75-8.351,0.75
			c-6.334,0-11.185-1.6-14.55-4.8C1505.268,89.964,1503.585,85.365,1503.585,79.365z M1529.385,71.965v-0.4
			c0-2.933-0.584-5.1-1.75-6.5c-1.167-1.4-2.917-2.1-5.25-2.1c-2.268,0-3.984,0.717-5.15,2.149c-1.167,1.435-1.75,3.585-1.75,6.45
			v0.4H1529.385z"/>
	</g>
	<rect x="176.492" y="144.397" fill="#FFFFFF" stroke="#E94E1B" stroke-width="2.5" width="67.856" height="141.732"/>
	<rect x="259.098" y="144.397" fill="#FFFFFF" stroke="#E94E1B" stroke-width="2.5" width="14.75" height="141.732"/>
	<rect x="244.348" y="144.397" fill="#FFFFFF" stroke="#E94E1B" stroke-width="2.5" width="14.75" height="141.732"/>
	<rect x="273.848" y="144.397" fill="#FFFFFF" stroke="#E94E1B" stroke-width="2.5" width="972.442" height="141.732"/>
	<g>
		<path d="M358.464,219.798v-32h6.6v32c0,6.534-1.567,11.484-4.7,14.85c-3.134,3.367-7.734,5.05-13.8,5.05
			c-6.135,0-10.75-1.683-13.85-5.05c-3.101-3.365-4.65-8.315-4.65-14.85v-32h6.6v32c0,4.734,0.966,8.25,2.9,10.55
			c1.933,2.3,4.933,3.45,9,3.45c4,0,6.982-1.15,8.95-3.45C357.48,228.048,358.464,224.533,358.464,219.798z"/>
		<path d="M383.162,197.298l1.301,4.4c1.332-1.801,2.965-3.166,4.899-4.101c1.933-0.933,4.101-1.399,6.5-1.399
			c4.733,0,8.383,1.434,10.95,4.3c2.565,2.867,3.85,6.767,3.85,11.7v26.399h-6.6v-26.399c0-3.333-0.784-5.866-2.35-7.601
			c-1.567-1.732-3.851-2.6-6.851-2.6c-3.2,0-5.7,1.034-7.5,3.1c-1.8,2.067-2.7,4.9-2.7,8.5v25h-6.6v-41.3H383.162z"/>
		<path d="M427.061,191.499l-5.899-5.9l5.899-5.899l5.9,5.899L427.061,191.499z M423.761,238.598v-41.3h6.601v41.3H423.761z"/>
		<path d="M457.66,230.999l11.7-33.7h6.8l-14.6,41.3h-7.9l-14.6-41.3h6.8L457.66,230.999z"/>
		<path d="M483.46,223.698v-11.1c0-5.133,1.416-9.149,4.25-12.05c2.833-2.9,6.851-4.35,12.051-4.35c5.199,0,9.215,1.449,12.05,4.35
			c2.833,2.9,4.25,6.917,4.25,12.05c0,1.8-0.018,3.334-0.05,4.6c-0.035,1.268-0.117,2.468-0.25,3.601h-25.7v2.899
			c0,3.535,0.85,6.117,2.55,7.75c1.7,1.635,4.416,2.45,8.15,2.45c1.332,0,2.883-0.232,4.649-0.7c1.766-0.465,3.815-1.165,6.15-2.1
			l2.5,5.5c-2.534,1.135-4.835,1.935-6.9,2.4c-2.067,0.465-4.2,0.699-6.399,0.699c-5.734,0-10.051-1.332-12.95-4
			C484.91,233.033,483.46,229.033,483.46,223.698z M509.46,215.098v-2.5c0-3.532-0.834-6.216-2.5-8.05
			c-1.667-1.833-4.066-2.75-7.199-2.75c-3.135,0-5.535,0.917-7.2,2.75c-1.667,1.834-2.5,4.518-2.5,8.05v2.5H509.46z"/>
		<path d="M532.96,197.298l1.5,5.1c1.266-2,2.865-3.532,4.8-4.6c1.933-1.065,4.065-1.6,6.399-1.6c1.266,0,2.516,0.134,3.75,0.399
			c1.233,0.268,2.351,0.667,3.351,1.2l-2.7,5.8c-0.867-0.399-1.75-0.7-2.65-0.899c-0.899-0.2-1.816-0.301-2.75-0.301
			c-3.066,0-5.534,1.085-7.399,3.25c-1.867,2.168-2.8,5.117-2.8,8.851v24.1h-6.601v-41.3H532.96z"/>
		<path d="M561.459,215.298c-1.4-1.065-2.4-2.232-3-3.5c-0.601-1.266-0.9-2.766-0.9-4.5c0-3.266,1.315-5.933,3.95-8
			c2.633-2.065,5.915-3.1,9.85-3.1c2.4,0,4.766,0.267,7.101,0.8c2.332,0.534,4.5,1.3,6.5,2.3l-2.601,5.5
			c-2.067-1-3.967-1.716-5.7-2.15c-1.734-0.433-3.467-0.649-5.199-0.649c-2.268,0-4.051,0.467-5.351,1.399
			c-1.3,0.935-1.95,2.2-1.95,3.801c0,1.066,0.25,1.984,0.75,2.75c0.5,0.767,1.383,1.517,2.65,2.25
			c0.666,0.399,1.716,0.949,3.15,1.649c1.433,0.7,2.315,1.117,2.649,1.25c4.666,2.268,7.851,4.385,9.55,6.35
			c1.7,1.968,2.551,4.351,2.551,7.15c0,3.4-1.351,6.1-4.051,8.1c-2.699,2-6.284,3-10.75,3c-2.134,0-4.3-0.217-6.5-0.649
			c-2.199-0.435-4.566-1.15-7.1-2.15l2.1-5.6c2.2,0.867,4.233,1.5,6.101,1.899c1.865,0.4,3.633,0.601,5.3,0.601
			c2.8,0,4.883-0.433,6.25-1.3c1.365-0.866,2.05-2.2,2.05-4c0-1.666-0.584-3.051-1.75-4.15c-1.167-1.1-3.649-2.583-7.45-4.45
			c-3.334-1.665-5.399-2.732-6.199-3.2C562.659,216.233,561.992,215.765,561.459,215.298z"/>
		<path d="M599.558,191.499l-5.899-5.9l5.899-5.899l5.9,5.899L599.558,191.499z M596.258,238.598v-41.3h6.6v41.3H596.258z"/>
		<path d="M621.957,187.798h4.9v9.5h8.4v5.6h-8.4v23c0,2.601,0.45,4.5,1.35,5.7c0.9,1.2,2.351,1.8,4.351,1.8
			c0.333,0,0.732-0.016,1.2-0.05c0.465-0.033,0.933-0.083,1.399-0.15l0.601,5.9c-0.535,0.065-1.117,0.115-1.75,0.15
			c-0.635,0.032-1.218,0.05-1.75,0.05c-4,0-7-1.116-9-3.351c-2-2.232-3-5.582-3-10.05v-23h-8.4v-5.6c3.865,0,6.416-0.65,7.65-1.95
			C620.741,194.048,621.558,191.533,621.957,187.798z"/>
		<path d="M644.657,223.698v-11.1c0-5.133,1.416-9.149,4.25-12.05c2.833-2.9,6.851-4.35,12.051-4.35c5.199,0,9.215,1.449,12.05,4.35
			c2.833,2.9,4.25,6.917,4.25,12.05c0,1.8-0.018,3.334-0.05,4.6c-0.035,1.268-0.117,2.468-0.25,3.601h-25.7v2.899
			c0,3.535,0.85,6.117,2.55,7.75c1.7,1.635,4.416,2.45,8.15,2.45c1.332,0,2.883-0.232,4.649-0.7c1.766-0.465,3.815-1.165,6.15-2.1
			l2.5,5.5c-2.534,1.135-4.835,1.935-6.9,2.4c-2.067,0.465-4.2,0.699-6.399,0.699c-5.734,0-10.051-1.332-12.95-4
			C646.107,233.033,644.657,229.033,644.657,223.698z M670.657,215.098v-2.5c0-3.532-0.834-6.216-2.5-8.05
			c-1.667-1.833-4.066-2.75-7.199-2.75c-3.135,0-5.535,0.917-7.2,2.75c-1.667,1.834-2.5,4.518-2.5,8.05v2.5H670.657z
			 M657.057,191.499l-2.8-4.4l12.2-8.6l3.399,5.3L657.057,191.499z"/>
		<path d="M733.856,222.298v-43.1h6.601v59.399h-5.101l-1.3-4.4c-1.334,1.801-2.967,3.168-4.899,4.101
			c-1.935,0.933-4.101,1.399-6.5,1.399c-4.734,0-8.385-1.433-10.95-4.3c-2.567-2.865-3.851-6.766-3.851-11.7v-11.499
			c0-5,1.351-8.916,4.051-11.75c2.699-2.833,6.482-4.25,11.35-4.25c1.2,0,2.383,0.117,3.55,0.35c1.166,0.234,2.383,0.584,3.65,1.05
			l-1,5c-1.2-0.266-2.2-0.45-3-0.55s-1.567-0.15-2.3-0.15c-3.2,0-5.617,0.867-7.25,2.601c-1.635,1.734-2.45,4.3-2.45,7.7v11.499
			c0,3.335,0.782,5.867,2.35,7.601c1.565,1.734,3.851,2.6,6.851,2.6c3.199,0,5.699-1.032,7.5-3.1
			C732.956,228.733,733.856,225.898,733.856,222.298z"/>
		<path d="M752.856,223.698v-11.1c0-5.133,1.416-9.149,4.25-12.05c2.833-2.9,6.851-4.35,12.051-4.35c5.199,0,9.215,1.449,12.05,4.35
			c2.833,2.9,4.25,6.917,4.25,12.05c0,1.8-0.018,3.334-0.05,4.6c-0.035,1.268-0.117,2.468-0.25,3.601h-25.7v2.899
			c0,3.535,0.85,6.117,2.55,7.75c1.7,1.635,4.416,2.45,8.15,2.45c1.332,0,2.883-0.232,4.649-0.7c1.766-0.465,3.815-1.165,6.15-2.1
			l2.5,5.5c-2.534,1.135-4.835,1.935-6.9,2.4c-2.067,0.465-4.2,0.699-6.399,0.699c-5.734,0-10.051-1.332-12.95-4
			C754.306,233.033,752.856,229.033,752.856,223.698z M778.856,215.098v-2.5c0-3.532-0.834-6.216-2.5-8.05
			c-1.667-1.833-4.066-2.75-7.199-2.75c-3.135,0-5.535,0.917-7.2,2.75c-1.667,1.834-2.5,4.518-2.5,8.05v2.5H778.856z"/>
		<path d="M818.254,209.999c-1.6-1.333-2.767-2.766-3.5-4.3c-0.734-1.533-1.1-3.266-1.1-5.2c0-4.133,1.315-7.466,3.95-10
			c2.633-2.533,6.016-3.8,10.149-3.8c2.533,0,4.866,0.434,7,1.3c2.133,0.867,4.8,2.567,8,5.1c1.933,1.534,3.666,2.617,5.2,3.25
			c1.533,0.635,3.232,0.95,5.1,0.95c2.133,0,3.733-0.766,4.801-2.3c1.065-1.533,1.766-3.933,2.1-7.2h4.9v9.5h8.399v5.6h-8.399v23
			c0,2.601,0.449,4.5,1.35,5.7s2.35,1.8,4.35,1.8c0.333,0,0.733-0.016,1.2-0.05c0.466-0.033,0.933-0.083,1.4-0.15l0.6,5.9
			c-0.534,0.065-1.117,0.115-1.75,0.15c-0.634,0.032-1.217,0.05-1.75,0.05c-4,0-7-1.116-9-3.351c-2-2.232-3-5.582-3-10.05v-23h-3.8
			c-3,0-5.518-0.365-7.55-1.1c-2.034-0.732-4.317-2.1-6.851-4.1c-2.534-1.934-4.649-3.266-6.35-4c-1.7-0.733-3.45-1.101-5.25-1.101
			c-2.534,0-4.534,0.667-6,2c-1.467,1.335-2.2,3.135-2.2,5.4c0,1.2,0.25,2.3,0.75,3.3s1.283,1.935,2.351,2.8
			c0.399,0.335,1.1,0.8,2.1,1.4c1,0.6,2.333,1.334,4,2.2c3.2,1.667,5.482,2.934,6.85,3.8c1.366,0.867,2.551,1.667,3.551,2.399
			c1.732,1.468,3.016,3.018,3.85,4.65c0.833,1.634,1.25,3.55,1.25,5.75c0.065,4.267-1.435,7.567-4.5,9.899
			c-3.067,2.335-7.367,3.5-12.9,3.5c-2.267,0-4.566-0.234-6.899-0.699c-2.335-0.466-4.835-1.166-7.5-2.101l2.1-5.7
			c2.601,0.935,4.866,1.585,6.8,1.95c1.934,0.367,3.934,0.55,6,0.55c3.466,0,6.066-0.615,7.801-1.85
			c1.732-1.232,2.565-3.05,2.5-5.45c0-1.266-0.317-2.415-0.95-3.45c-0.635-1.032-1.617-2.05-2.95-3.05
			c-0.334-0.266-1.067-0.732-2.2-1.399c-1.134-0.666-2.667-1.533-4.6-2.601c-3.734-2.133-6.067-3.5-7-4.1
			C819.72,211.199,818.92,210.598,818.254,209.999z"/>
		<path d="M888.953,197.298l1.5,5.1c1.266-2,2.865-3.532,4.8-4.6c1.933-1.065,4.065-1.6,6.399-1.6c1.266,0,2.516,0.134,3.75,0.399
			c1.233,0.268,2.351,0.667,3.351,1.2l-2.7,5.8c-0.867-0.399-1.75-0.7-2.65-0.899c-0.899-0.2-1.816-0.301-2.75-0.301
			c-3.066,0-5.534,1.085-7.399,3.25c-1.867,2.168-2.8,5.117-2.8,8.851v24.1h-6.601v-41.3H888.953z"/>
		<path d="M918.053,204.598l-2.2-5.399c2.733-1.2,5.133-2,7.2-2.4c2.065-0.4,4.365-0.6,6.9-0.6c4.665,0,8.282,1.3,10.85,3.899
			c2.565,2.601,3.85,6.234,3.85,10.9v27.6h-5.1l-1.3-4.5c-1.667,1.935-3.468,3.35-5.4,4.25c-1.935,0.9-4.067,1.35-6.399,1.35
			c-4.335,0-7.668-1.115-10-3.35c-2.335-2.232-3.5-5.35-3.5-9.35c0-4.801,1.949-8.283,5.85-10.45c3.9-2.166,10.315-3.283,19.25-3.35
			v-2.2c0-3-0.734-5.25-2.2-6.75c-1.467-1.5-3.7-2.25-6.7-2.25c-1.734,0-3.467,0.2-5.199,0.6
			C922.219,202.999,920.253,203.665,918.053,204.598z M926.853,233.898c3.333,0,6.033-0.915,8.101-2.75
			c2.065-1.833,3.1-4.383,3.1-7.649v-5.2c-7.067,0.134-11.917,0.834-14.55,2.1c-2.635,1.268-3.95,3.468-3.95,6.601
			c0,2.199,0.65,3.899,1.95,5.1S924.586,233.898,926.853,233.898z"/>
		<path d="M958.652,215.298c-1.4-1.065-2.4-2.232-3-3.5c-0.601-1.266-0.9-2.766-0.9-4.5c0-3.266,1.315-5.933,3.95-8
			c2.633-2.065,5.915-3.1,9.85-3.1c2.4,0,4.766,0.267,7.101,0.8c2.332,0.534,4.5,1.3,6.5,2.3l-2.601,5.5
			c-2.067-1-3.967-1.716-5.7-2.15c-1.734-0.433-3.467-0.649-5.199-0.649c-2.268,0-4.051,0.467-5.351,1.399
			c-1.3,0.935-1.95,2.2-1.95,3.801c0,1.066,0.25,1.984,0.75,2.75c0.5,0.767,1.383,1.517,2.65,2.25
			c0.666,0.399,1.716,0.949,3.15,1.649c1.433,0.7,2.315,1.117,2.649,1.25c4.666,2.268,7.851,4.385,9.55,6.35
			c1.7,1.968,2.551,4.351,2.551,7.15c0,3.4-1.351,6.1-4.051,8.1c-2.699,2-6.284,3-10.75,3c-2.134,0-4.3-0.217-6.5-0.649
			c-2.199-0.435-4.566-1.15-7.1-2.15l2.1-5.6c2.2,0.867,4.233,1.5,6.101,1.899c1.865,0.4,3.633,0.601,5.3,0.601
			c2.8,0,4.883-0.433,6.25-1.3c1.365-0.866,2.05-2.2,2.05-4c0-1.666-0.584-3.051-1.75-4.15c-1.167-1.1-3.649-2.583-7.45-4.45
			c-3.334-1.665-5.399-2.732-6.199-3.2C959.851,216.233,959.184,215.765,958.652,215.298z"/>
		<path d="M993.251,238.598v-59.399h6.601v43.1c0,3.6,0.883,6.435,2.649,8.5c1.766,2.067,4.183,3.1,7.25,3.1
			c3.133,0,5.5-0.865,7.101-2.6c1.6-1.733,2.399-4.266,2.399-7.601v-11.499c0-3.4-0.75-5.966-2.25-7.7
			c-1.5-1.733-3.717-2.601-6.649-2.601c-0.867,0-1.785,0.101-2.75,0.301c-0.968,0.199-1.851,0.5-2.65,0.899l-2.3-4.399
			c1.333-0.801,2.732-1.416,4.2-1.851c1.465-0.433,2.933-0.649,4.399-0.649c4.666,0,8.266,1.399,10.8,4.199
			c2.533,2.801,3.801,6.734,3.801,11.801v11.499c0,4.801-1.351,8.668-4.051,11.601c-2.699,2.935-6.384,4.399-11.05,4.399
			c-2.334,0-4.45-0.467-6.35-1.399c-1.9-0.933-3.484-2.266-4.75-4l-1.3,4.3H993.251z"/>
		<path d="M1037.05,223.298v-10.7c0-5.133,1.434-9.149,4.301-12.05c2.865-2.9,6.933-4.35,12.199-4.35c5.266,0,9.333,1.449,12.2,4.35
			c2.866,2.9,4.3,6.917,4.3,12.05v10.7c0,5.134-1.434,9.149-4.3,12.05c-2.867,2.9-6.935,4.35-12.2,4.35
			c-5.267,0-9.334-1.449-12.199-4.35C1038.484,232.448,1037.05,228.432,1037.05,223.298z M1063.451,223.298v-10.7
			c0-3.532-0.834-6.2-2.5-8c-1.667-1.8-4.135-2.7-7.4-2.7c-3.267,0-5.734,0.9-7.399,2.7c-1.667,1.8-2.5,4.468-2.5,8v10.7
			c0,3.534,0.833,6.2,2.5,8c1.665,1.8,4.133,2.7,7.399,2.7c3.266,0,5.733-0.9,7.4-2.7
			C1062.617,229.499,1063.451,226.832,1063.451,223.298z"/>
		<path d="M1107.749,222.298v-25h6.601v41.3h-5.101l-1.3-4.4c-1.334,1.801-2.967,3.168-4.899,4.101
			c-1.935,0.933-4.101,1.399-6.5,1.399c-4.734,0-8.385-1.433-10.95-4.3c-2.567-2.865-3.851-6.766-3.851-11.7v-26.399h6.601v26.399
			c0,3.335,0.782,5.867,2.35,7.601c1.565,1.734,3.851,2.6,6.851,2.6c3.199,0,5.699-1.032,7.5-3.1
			C1106.85,228.733,1107.749,225.898,1107.749,222.298z"/>
		<path d="M1133.048,197.298l1.5,5.1c1.266-2,2.865-3.532,4.8-4.6c1.933-1.065,4.065-1.6,6.399-1.6c1.266,0,2.516,0.134,3.75,0.399
			c1.233,0.268,2.351,0.667,3.351,1.2l-2.7,5.8c-0.867-0.399-1.75-0.7-2.65-0.899c-0.899-0.2-1.816-0.301-2.75-0.301
			c-3.066,0-5.534,1.085-7.399,3.25c-1.867,2.168-2.8,5.117-2.8,8.851v24.1h-6.601v-41.3H1133.048z"/>
		<path d="M1159.247,223.698v-11.499c0-4.801,1.351-8.666,4.051-11.601c2.699-2.933,6.383-4.399,11.05-4.399
			c2.333,0,4.45,0.467,6.35,1.399c1.9,0.935,3.483,2.268,4.75,4l1.3-4.3h5.101v41.899c0,6.066-1.417,10.616-4.25,13.65
			c-2.835,3.033-7.085,4.55-12.75,4.55c-1.601,0-3.3-0.167-5.101-0.5c-1.8-0.334-3.734-0.834-5.8-1.5l2.101-5.6
			c1.665,0.6,3.232,1.032,4.699,1.3c1.466,0.266,2.833,0.4,4.101,0.4c3.6,0,6.232-0.95,7.899-2.851c1.666-1.899,2.5-5.05,2.5-9.45
			v-25.6c0-3.6-0.884-6.433-2.649-8.5c-1.768-2.065-4.185-3.1-7.25-3.1c-3.135,0-5.5,0.867-7.101,2.6
			c-1.6,1.734-2.399,4.268-2.399,7.601v11.499c0,3.335,0.8,5.885,2.399,7.65c1.601,1.768,3.866,2.65,6.801,2.65
			c0.865,0,1.715-0.101,2.55-0.301c0.833-0.199,1.683-0.5,2.55-0.899l2.3,4.399c-1.134,0.801-2.417,1.416-3.85,1.851
			c-1.435,0.433-2.917,0.649-4.45,0.649c-4.734,0-8.4-1.415-11-4.25C1160.548,232.616,1159.247,228.698,1159.247,223.698z"/>
	</g>
</g>
<g id="Repère_Bloc" display="none">
</g>
<g id="Repère_Texte" display="none">
	<line display="inline" fill="none" stroke="#929292" stroke-miterlimit="10" x1="2.662" y1="239.089" x2="2051.482" y2="239.089"/>
	<line display="inline" fill="none" stroke="#929292" stroke-miterlimit="10" x1="2.662" y1="97.357" x2="2051.482" y2="97.357"/>
</g>
</svg>
