<svg id="Calque_1" data-name="Calque 1" xmlns="http://www.w3.org/2000/svg" xmlns:xlink="http://www.w3.org/1999/xlink" viewBox="0 0 801 401" width="280" height="140"><defs><style>.cls-1{fill:#fff;}.cls-2{fill:none;stroke:#1d1d1b;stroke-miterlimit:10;}.cls-3{fill:#1d1d1b;}</style><symbol id="_205" data-name="205" viewBox="0 0 54 54"><circle id="circle985" class="cls-1" cx="27" cy="27" r="27"/><path id="path987" class="cls-1" d="M14.45,50.91A27,27,0,0,0,27,54V27Z"/><path id="path989" d="M4.78,42.34a26.93,26.93,0,0,0,9.67,8.57L27,27Z"/><path id="path991" class="cls-1" d="M.2,30.25A27,27,0,0,0,4.78,42.34L27,27Z"/><path id="path993" class="cls-1" d="M1.75,17.43A26.93,26.93,0,0,0,.2,30.25L27,27Z"/><path id="path995" d="M9.1,6.79A26.94,26.94,0,0,0,1.75,17.43L27,27Z"/><path id="path997" d="M20.54.78a27,27,0,0,0-11.44,6L27,27Z"/><path id="path999" class="cls-1" d="M33.46.78a27.14,27.14,0,0,0-12.92,0L27,27Z"/><path id="path1001" class="cls-1" d="M44.9,6.79a27,27,0,0,0-11.44-6L27,27Z"/><path id="path1003" d="M52.25,17.43A26.94,26.94,0,0,0,44.9,6.79L27,27Z"/><path id="path1005" d="M53.8,30.25a26.93,26.93,0,0,0-1.55-12.82L27,27Z"/><path id="path1007" d="M49.22,42.34A27,27,0,0,0,53.8,30.25L27,27Z"/><path id="path1009" d="M39.55,50.91a26.93,26.93,0,0,0,9.67-8.57L27,27Z"/><path id="path1011" d="M27,54a27,27,0,0,0,12.55-3.09L27,27Z"/><circle id="circle1013" class="cls-1" cx="27" cy="27" r="20.25"/><circle id="circle1015" cx="27" cy="27" r="13.5"/><circle id="circle1017" class="cls-1" cx="27" cy="27" r="6.75"/></symbol><symbol id="_279" data-name="279" viewBox="0 0 54 54"><circle id="circle1309" class="cls-1" cx="27" cy="27" r="27"/><path id="path1311" class="cls-1" d="M14.45,50.91A27,27,0,0,0,27,54V27Z"/><path id="path1313" class="cls-1" d="M4.78,42.34a26.93,26.93,0,0,0,9.67,8.57L27,27Z"/><path id="path1315" class="cls-1" d="M.2,30.25A27,27,0,0,0,4.78,42.34L27,27Z"/><path id="path1317" d="M1.75,17.43A26.93,26.93,0,0,0,.2,30.25L27,27Z"/><path id="path1319" class="cls-1" d="M9.1,6.79A26.94,26.94,0,0,0,1.75,17.43L27,27Z"/><path id="path1321" d="M20.54.78a27,27,0,0,0-11.44,6L27,27Z"/><path id="path1323" d="M33.46.78a27.14,27.14,0,0,0-12.92,0L27,27Z"/><path id="path1325" d="M44.9,6.79a27,27,0,0,0-11.44-6L27,27Z"/><path id="path1327" class="cls-1" d="M52.25,17.43A26.94,26.94,0,0,0,44.9,6.79L27,27Z"/><path id="path1329" d="M53.8,30.25a26.93,26.93,0,0,0-1.55-12.82L27,27Z"/><path id="path1331" d="M49.22,42.34A27,27,0,0,0,53.8,30.25L27,27Z"/><path id="path1333" d="M39.55,50.91a26.93,26.93,0,0,0,9.67-8.57L27,27Z"/><path id="path1335" d="M27,54a27,27,0,0,0,12.55-3.09L27,27Z"/><circle id="circle1337" class="cls-1" cx="27" cy="27" r="20.25"/><circle id="circle1339" cx="27" cy="27" r="13.5"/><circle id="circle1341" class="cls-1" cx="27" cy="27" r="6.75"/></symbol></defs><rect class="cls-2" x="0.5" y="0.5" width="800" height="400"/><rect class="cls-2" x="0.71" y="0.5" width="266.67" height="400"/><path class="cls-3" d="M39.16,73.42A13.73,13.73,0,0,1,42.9,64a14.23,14.23,0,0,1,4.44-3.15,14.05,14.05,0,0,1,5.95-1.21,13.88,13.88,0,0,1,7,1.66,10.74,10.74,0,0,1,4.38,4.38l-5.8,4.12a4.88,4.88,0,0,0-1-1.67,5.28,5.28,0,0,0-1.42-1,6.33,6.33,0,0,0-1.62-.55,9.19,9.19,0,0,0-1.61-.15,5.65,5.65,0,0,0-4.77,2.31,7.06,7.06,0,0,0-1.13,2.34,9.32,9.32,0,0,0-.37,2.59,8.76,8.76,0,0,0,.43,2.76,7.29,7.29,0,0,0,1.24,2.34,6.09,6.09,0,0,0,2,1.61,5.69,5.69,0,0,0,2.66.61,7.47,7.47,0,0,0,1.6-.18,6.27,6.27,0,0,0,1.58-.58,5.76,5.76,0,0,0,1.36-1,4.69,4.69,0,0,0,1-1.58l6.19,3.7A7.69,7.69,0,0,1,63,84a11.86,11.86,0,0,1-2.88,2,15.13,15.13,0,0,1-3.46,1.24,15.65,15.65,0,0,1-3.6.43,12.8,12.8,0,0,1-5.63-1.23A14.23,14.23,0,0,1,43,83.23a15,15,0,0,1-2.86-4.59A14.2,14.2,0,0,1,39.16,73.42Z" transform="translate(0.5 0.5)"/><path class="cls-3" d="M73.1,87.87a7.86,7.86,0,0,1-2.84-.51A7.08,7.08,0,0,1,68,86a6.33,6.33,0,0,1-1.5-2.08,6.2,6.2,0,0,1-.55-2.61,6.09,6.09,0,0,1,.66-2.84,6.85,6.85,0,0,1,1.83-2.22,8.2,8.2,0,0,1,2.79-1.44,11.73,11.73,0,0,1,3.56-.51,9.55,9.55,0,0,1,4.12.78v-.62a2.61,2.61,0,0,0-.83-2.14,4.19,4.19,0,0,0-2.71-.71,8.91,8.91,0,0,0-3.23.57A16.6,16.6,0,0,0,69,73.81l-2.14-4.59a16.64,16.64,0,0,1,9.22-2.61q4.91,0,7.55,2.18t2.65,6.54v4a2.49,2.49,0,0,0,.31,1.46,1.49,1.49,0,0,0,1.09.49v6.23c-.59.13-1.16.22-1.69.29a13.09,13.09,0,0,1-1.42.1,5.26,5.26,0,0,1-3-.72A3.36,3.36,0,0,1,80.23,85l-.16-.73A9.54,9.54,0,0,1,76.92,87,8.28,8.28,0,0,1,73.1,87.87Zm2.22-5.3a4.81,4.81,0,0,0,1.37-.21,4.7,4.7,0,0,0,1.24-.57,2.84,2.84,0,0,0,.7-.68,1.26,1.26,0,0,0,.27-.76V78.84a9.42,9.42,0,0,0-1.44-.39,6.68,6.68,0,0,0-1.4-.16,3.66,3.66,0,0,0-2.25.66,2,2,0,0,0-.9,1.68,1.73,1.73,0,0,0,.68,1.4A2.71,2.71,0,0,0,75.32,82.57Z" transform="translate(0.5 0.5)"/><path class="cls-3" d="M104.29,73.31a15.23,15.23,0,0,0-3.9.46,4.87,4.87,0,0,0-2.61,1.56V87.48H90.39V67h6.77v3.89a8.69,8.69,0,0,1,2.71-3.17,6,6,0,0,1,3.48-1.11,7.69,7.69,0,0,1,.94,0Z" transform="translate(0.5 0.5)"/><path class="cls-3" d="M114.45,87.48a8.27,8.27,0,0,1-3.64-.8A8.43,8.43,0,0,1,108,84.5a10.08,10.08,0,0,1-1.81-3.25,12.64,12.64,0,0,1-.64-4,12.37,12.37,0,0,1,.7-4.24,9.86,9.86,0,0,1,2-3.35,9.15,9.15,0,0,1,3-2.2,9.26,9.26,0,0,1,3.86-.8,8.21,8.21,0,0,1,3.89.88A6.44,6.44,0,0,1,121.61,70V67H128V85.61a10.42,10.42,0,0,1-.89,4.36,9.27,9.27,0,0,1-2.54,3.31,11.84,11.84,0,0,1-3.93,2.12,16.35,16.35,0,0,1-5.1.76,14.7,14.7,0,0,1-5.68-1,13,13,0,0,1-4.28-2.92l3.89-4A10.08,10.08,0,0,0,112.21,90a8,8,0,0,0,3.36.72,6.77,6.77,0,0,0,1.93-.27,4.55,4.55,0,0,0,1.62-.88,4.32,4.32,0,0,0,1.11-1.58,6,6,0,0,0,.4-2.33V84.29a5.46,5.46,0,0,1-2.55,2.41A8.39,8.39,0,0,1,114.45,87.48Zm2.64-5.84a3.65,3.65,0,0,0,2-.53,5.56,5.56,0,0,0,1.57-1.57V75.88A4.93,4.93,0,0,0,119,73.66a3.61,3.61,0,0,0-2.24-.82,3,3,0,0,0-1.46.37,4.26,4.26,0,0,0-1.19,1,4.74,4.74,0,0,0-.78,1.44,5.77,5.77,0,0,0-.27,1.78,4.24,4.24,0,0,0,1.13,3.07A3.82,3.82,0,0,0,117.09,81.64Z" transform="translate(0.5 0.5)"/><path class="cls-3" d="M141.85,87.87A12.53,12.53,0,0,1,137,87a10.34,10.34,0,0,1-3.5-2.34,9.58,9.58,0,0,1-2.14-3.38,11.64,11.64,0,0,1,0-8.06,9.71,9.71,0,0,1,2.14-3.39,10.47,10.47,0,0,1,3.5-2.33,13.75,13.75,0,0,1,9.68,0,10.45,10.45,0,0,1,3.52,2.33,9.71,9.71,0,0,1,2.14,3.39,11.64,11.64,0,0,1,0,8.06,9.58,9.58,0,0,1-2.14,3.38A10.33,10.33,0,0,1,146.68,87,12.53,12.53,0,0,1,141.85,87.87Zm-3.62-10.63a4.79,4.79,0,0,0,1,3.23,3.5,3.5,0,0,0,5.22,0,5.67,5.67,0,0,0,0-6.46,3.5,3.5,0,0,0-5.22,0A4.79,4.79,0,0,0,138.23,77.24Z" transform="translate(0.5 0.5)"/><path class="cls-3" d="M182.92,80.86v6.62h-18V80.86h5.53V73.11a3.86,3.86,0,0,1-1.09.92,11.54,11.54,0,0,1-1.65.83,13,13,0,0,1-1.85.63,7.24,7.24,0,0,1-1.68.23V69a4.32,4.32,0,0,0,1.52-.41,17.67,17.67,0,0,0,2-1,14.07,14.07,0,0,0,1.77-1.21,3.81,3.81,0,0,0,1-1.11H178V80.86Z" transform="translate(0.5 0.5)"/><path class="cls-3" d="M206.12,76.07a13.85,13.85,0,0,1-.78,4.73,11.58,11.58,0,0,1-2.16,3.74,9.79,9.79,0,0,1-14.75,0,11.23,11.23,0,0,1-2.16-3.74,14.73,14.73,0,0,1,0-9.46,11.33,11.33,0,0,1,2.16-3.74,10,10,0,0,1,3.27-2.47,9.91,9.91,0,0,1,8.21,0,10,10,0,0,1,3.27,2.47,11.69,11.69,0,0,1,2.16,3.74A13.85,13.85,0,0,1,206.12,76.07Zm-7.48,0a7.41,7.41,0,0,0-.79-3.66,2.37,2.37,0,0,0-2-1.4,2.39,2.39,0,0,0-2.12,1.4,7.41,7.41,0,0,0-.8,3.66,7.25,7.25,0,0,0,.8,3.64,2.39,2.39,0,0,0,2.12,1.38,2.36,2.36,0,0,0,2-1.38A7.25,7.25,0,0,0,198.64,76.07Z" transform="translate(0.5 0.5)"/><path class="cls-3" d="M228.11,80.86v6.62h-18V80.86h5.53V73.11a4,4,0,0,1-1.09.92,12.23,12.23,0,0,1-1.66.83,12.61,12.61,0,0,1-1.85.63,7.23,7.23,0,0,1-1.67.23V69a4.37,4.37,0,0,0,1.52-.41,17.55,17.55,0,0,0,1.94-1,14.07,14.07,0,0,0,1.77-1.21,3.87,3.87,0,0,0,1-1.11h7.55V80.86Z" transform="translate(0.5 0.5)"/><path class="cls-3" d="M38.36,269.88V242.25H49a15.67,15.67,0,0,1,6,1.08,12.17,12.17,0,0,1,7,7.34,16.75,16.75,0,0,1-.1,11.06,12.34,12.34,0,0,1-2.82,4.36,12.75,12.75,0,0,1-4.4,2.8,15.79,15.79,0,0,1-5.72,1ZM55.22,256a9.57,9.57,0,0,0-.43-2.92,6.55,6.55,0,0,0-1.23-2.26,5.6,5.6,0,0,0-2-1.46,6.31,6.31,0,0,0-2.61-.53H46v14.41h3a6.28,6.28,0,0,0,2.65-.55,5.52,5.52,0,0,0,2-1.52,6.69,6.69,0,0,0,1.21-2.29A9.87,9.87,0,0,0,55.22,256Z" transform="translate(0.5 0.5)"/><path class="cls-3" d="M65.53,247.69v-6.22h7.4v6.22Zm0,22.19V249.41h7.4v20.47Z" transform="translate(0.5 0.5)"/><path class="cls-3" d="M78.1,257.35H75.57v-5.57H78.1v-.89a11,11,0,0,1,.53-3.49,7.56,7.56,0,0,1,1.52-2.68A6.77,6.77,0,0,1,82.56,243a8.1,8.1,0,0,1,3.17-.6,16,16,0,0,1,5.53,1.17,8.7,8.7,0,0,1,3.1-1.83,12.35,12.35,0,0,1,4.18-.66,13.33,13.33,0,0,1,4.23.74,22.55,22.55,0,0,1,4.84,2.37l-2.8,5.61a10.21,10.21,0,0,0-2.76-1.81,6.64,6.64,0,0,0-2.69-.68q-2.61,0-2.61,2v2.49h11.68v18.1H101V257.35H96.75v12.53h-7.4V257.35H85.5v12.53H78.1Zm11.25-5.57V249a10.52,10.52,0,0,0-1.08-.25,5.25,5.25,0,0,0-1-.1c-1.19,0-1.79.66-1.79,2v1.17Z" transform="translate(0.5 0.5)"/><path class="cls-3" d="M111,259.65a11,11,0,0,1,.74-4,9.72,9.72,0,0,1,2.16-3.39,10.63,10.63,0,0,1,3.52-2.34,12.54,12.54,0,0,1,4.83-.87,11.66,11.66,0,0,1,6.25,1.56,10,10,0,0,1,3.75,4l-7.2,2.18a3.28,3.28,0,0,0-2.84-1.51,3.34,3.34,0,0,0-2.57,1.15,5.55,5.55,0,0,0,0,6.5,3.37,3.37,0,0,0,2.57,1.14,3.28,3.28,0,0,0,2.84-1.51l7.2,2.18a10.07,10.07,0,0,1-3.75,4,11.75,11.75,0,0,1-6.25,1.55,12.54,12.54,0,0,1-4.83-.87,10.63,10.63,0,0,1-3.52-2.34,9.72,9.72,0,0,1-2.16-3.39A10.94,10.94,0,0,1,111,259.65Z" transform="translate(0.5 0.5)"/><path class="cls-3" d="M140.78,270.27a5.93,5.93,0,0,1-4.75-1.89,8.16,8.16,0,0,1-1.64-5.5V249.41h7.4V261.2a3.24,3.24,0,0,0,.6,2.1,2,2,0,0,0,1.66.74,4.37,4.37,0,0,0,1.75-.39,4.49,4.49,0,0,0,1.79-1.71V249.41H155v12.3a2.49,2.49,0,0,0,.31,1.46,1.47,1.47,0,0,0,1.09.48v6.23a16.22,16.22,0,0,1-3.12.39c-2.51,0-4-.94-4.36-2.84l-.15-.74a8.34,8.34,0,0,1-3.43,2.75A11.76,11.76,0,0,1,140.78,270.27Z" transform="translate(0.5 0.5)"/><path class="cls-3" d="M159.27,241.47h7.39v20.28c0,1.55.64,2.33,1.91,2.33a3.8,3.8,0,0,0,1-.15,4.88,4.88,0,0,0,1-.43l.93,5.45a13.71,13.71,0,0,1-3,1,14.71,14.71,0,0,1-3.13.35,6.35,6.35,0,0,1-4.56-1.52,5.77,5.77,0,0,1-1.59-4.39Z" transform="translate(0.5 0.5)"/><path class="cls-3" d="M187.06,268.75a21,21,0,0,1-3.33,1.11,14.09,14.09,0,0,1-3.48.45,8.75,8.75,0,0,1-2.37-.31,5.12,5.12,0,0,1-2-1,4.8,4.8,0,0,1-1.32-1.83,7,7,0,0,1-.49-2.8V255h-2.53v-5.56h2.53V243h7.4v6.43h4V255h-4v6.78a1.94,1.94,0,0,0,.42,1.42,1.65,1.65,0,0,0,1.17.41,5.15,5.15,0,0,0,1.25-.18,8.93,8.93,0,0,0,1.4-.48Z" transform="translate(0.5 0.5)"/><path class="cls-3" d="M199,270.27a13.07,13.07,0,0,1-4.79-.83,10.2,10.2,0,0,1-3.52-2.28,9.68,9.68,0,0,1-2.16-3.31,10.68,10.68,0,0,1-.74-3.93,12.29,12.29,0,0,1,.72-4.21,9.73,9.73,0,0,1,2.14-3.46,10.43,10.43,0,0,1,3.51-2.36,13.87,13.87,0,0,1,9.67,0,10.63,10.63,0,0,1,3.52,2.34,9.53,9.53,0,0,1,2.14,3.39,11.37,11.37,0,0,1,.72,4c0,.38,0,.78-.05,1.18s-.09.76-.14,1.07H195.66a2.89,2.89,0,0,0,1.21,2.36,4.24,4.24,0,0,0,2.38.72,4.85,4.85,0,0,0,2.27-.55,2.71,2.71,0,0,0,1.42-1.51l6.27,1.79a9.94,9.94,0,0,1-3.83,4A12.24,12.24,0,0,1,199,270.27Zm3.27-12.8a3.78,3.78,0,0,0-1.09-2.34,3.49,3.49,0,0,0-4.59,0,3.78,3.78,0,0,0-1.09,2.34Zm-1-9.23L196.6,247l1.94-5.52h6.58Z" transform="translate(0.5 0.5)"/><path class="cls-3" d="M222.45,256.84v-7.16h6v7.16Zm0,13v-7.16h6v7.16Z" transform="translate(0.5 0.5)"/><path d="M133.54,322.55l11.37,7.22-3-13.61,10-9.16-13.22-1.18L133.54,293l-5.17,12.83L115.15,307l10,9.16-3,13.61Z" transform="translate(0.5 0.5)"/><use width="54" height="54" transform="matrix(-3.24, 0, 0, 3.24, 509.01, 172.55)" xlink:href="#_205"/><use width="54" height="54" transform="matrix(-3.24, 0, 0, 3.24, 745.14, 187.31)" xlink:href="#_279"/></svg>